<svg width="119" height="62" viewBox="0 0 119 62" fill="none" xmlns="http://www.w3.org/2000/svg">
<mask id="path-1-inside-1_673_21628" fill="white">
<path fill-rule="evenodd" clip-rule="evenodd" d="M59.3574 62C26.5752 62 0 48.1208 0 31C0 13.8792 26.5752 0 59.3574 0C92.1396 0 118.715 13.8792 118.715 31C118.715 38.2576 113.939 44.9326 105.94 50.2149L110.384 60.5238L93.0269 56.5337C83.4599 59.9812 71.8601 62 59.3574 62Z"/>
</mask>
<path fill-rule="evenodd" clip-rule="evenodd" d="M59.3574 62C26.5752 62 0 48.1208 0 31C0 13.8792 26.5752 0 59.3574 0C92.1396 0 118.715 13.8792 118.715 31C118.715 38.2576 113.939 44.9326 105.94 50.2149L110.384 60.5238L93.0269 56.5337C83.4599 59.9812 71.8601 62 59.3574 62Z" fill="#FCC503"/>
<path d="M105.94 50.2149L104.104 51.0066L103.441 49.4687L104.838 48.5459L105.94 50.2149ZM110.384 60.5238L112.221 59.732L113.784 63.3574L109.936 62.473L110.384 60.5238ZM93.0269 56.5337L92.3489 54.6522L92.902 54.4529L93.475 54.5846L93.0269 56.5337ZM2 31C2 38.4404 7.81312 45.6648 18.3112 51.1475C28.7132 56.58 43.2219 60 59.3574 60V64C42.7107 64 27.5408 60.4804 16.4595 54.6931C5.47449 48.9561 -2 40.6804 -2 31H2ZM59.3574 2C43.2219 2 28.7132 5.41998 18.3112 10.8525C7.81312 16.3352 2 23.5596 2 31H-2C-2 21.3196 5.47449 13.0439 16.4595 7.3069C27.5408 1.5196 42.7107 -2 59.3574 -2V2ZM116.715 31C116.715 23.5596 110.902 16.3352 100.404 10.8525C90.0017 5.41998 75.4929 2 59.3574 2V-2C76.0041 -2 91.1741 1.5196 102.255 7.3069C113.24 13.0439 120.715 21.3196 120.715 31H116.715ZM104.838 48.5459C112.559 43.4476 116.715 37.3063 116.715 31H120.715C120.715 39.2088 115.32 46.4176 107.042 51.8838L104.838 48.5459ZM107.777 49.4231L112.221 59.732L108.548 61.3156L104.104 51.0066L107.777 49.4231ZM109.936 62.473L92.5788 58.4829L93.475 54.5846L110.832 58.5746L109.936 62.473ZM59.3574 60C71.6541 60 83.0218 58.0132 92.3489 54.6522L93.7049 58.4153C83.8979 61.9492 72.066 64 59.3574 64V60Z" fill="black" mask="url(#path-1-inside-1_673_21628)"/>
<path d="M43.4872 29C44.9612 29 45.6542 28.032 45.6542 27.009C45.6542 26.063 45.0492 25.337 44.2572 25.216C44.9722 25.062 45.5112 24.446 45.5112 23.533C45.5112 22.675 44.8512 21.663 43.3332 21.663H38.8782V29H43.4872ZM42.8162 24.369H41.1002V23.511H42.8162C43.0472 23.511 43.2562 23.676 43.2562 23.929C43.2562 24.193 43.0472 24.369 42.8162 24.369ZM42.8822 27.152H41.1002V26.217H42.8822C43.2012 26.217 43.3992 26.426 43.3992 26.69C43.3992 26.965 43.2012 27.152 42.8822 27.152ZM46.5041 23.687V29H50.1561C51.4321 29 52.1911 28.142 52.1911 27.141C52.1911 26.129 51.5091 25.271 50.1561 25.271H48.4841V23.687H46.5041ZM49.7821 26.822C50.0241 26.822 50.1891 26.954 50.1891 27.141C50.1891 27.317 50.0241 27.449 49.7821 27.449H48.4841V26.822H49.7821ZM54.6221 29V23.687H52.6421V29H54.6221ZM58.3389 27.383C57.7339 27.383 57.3929 26.932 57.3929 26.327C57.3929 25.755 57.7339 25.304 58.3389 25.304C58.9549 25.304 59.2959 25.755 59.2959 26.327C59.2959 26.932 58.9549 27.383 58.3389 27.383ZM58.3389 29.132C60.2309 29.132 61.3309 27.823 61.3309 26.327C61.3309 24.853 60.3629 23.555 58.8449 23.555C58.1519 23.555 57.6679 23.753 57.2389 24.259C57.3929 23.731 57.8109 23.346 59.0209 23.148C59.8569 23.016 61.1219 22.697 61.1219 21.663H58.9219C58.9219 21.817 58.6359 21.949 58.2949 22.004C56.3699 22.301 55.3579 23.511 55.3579 26.096C55.3579 27.823 56.4579 29.132 58.3389 29.132ZM64.6655 29.132C65.4575 29.132 66.4035 28.923 66.9315 28.472L66.1175 27.251C65.8535 27.482 65.1935 27.625 64.8965 27.625C64.2475 27.625 63.8625 27.295 63.7525 26.954H67.3605V26.547C67.3605 24.677 66.1615 23.555 64.5995 23.555C62.8835 23.555 61.7065 24.798 61.7065 26.338C61.7065 28.087 63.0045 29.132 64.6655 29.132ZM65.4795 25.7H63.7305C63.7965 25.458 63.9945 25.062 64.5995 25.062C65.2375 25.062 65.4245 25.469 65.4795 25.7ZM71.5182 29.132C72.8382 29.132 73.8502 28.164 73.8502 26.338C73.8502 24.523 72.8382 23.555 71.5182 23.555C70.9682 23.555 70.4512 23.742 70.0222 24.248V23.687H68.0422V31.024H70.0222V28.439C70.4622 28.945 70.9682 29.132 71.5182 29.132ZM70.8362 27.383C70.5832 27.383 70.1982 27.24 70.0222 27.02V25.667C70.2092 25.436 70.5832 25.304 70.8362 25.304C71.3642 25.304 71.8262 25.678 71.8262 26.338C71.8262 27.009 71.3642 27.383 70.8362 27.383ZM76.4762 29L78.1812 26.481V29H80.1612V23.687H78.1592L76.5642 26.052V23.687H74.5842V29H76.4762ZM28.583 41.132C29.793 41.132 30.541 40.571 30.838 40.131L29.562 38.921C29.397 39.163 29.089 39.383 28.671 39.383C28.11 39.383 27.626 39.02 27.626 38.338C27.626 37.656 28.11 37.304 28.671 37.304C29.089 37.304 29.397 37.502 29.562 37.755L30.838 36.556C30.541 36.105 29.793 35.555 28.583 35.555C26.9 35.555 25.602 36.655 25.602 38.338C25.602 40.032 26.9 41.132 28.583 41.132ZM34.1045 41.132C35.9965 41.132 37.0965 39.823 37.0965 38.338C37.0965 36.853 35.9965 35.555 34.1045 35.555C32.2235 35.555 31.1235 36.853 31.1235 38.338C31.1235 39.823 32.2235 41.132 34.1045 41.132ZM34.1045 39.383C33.4995 39.383 33.1585 38.932 33.1585 38.338C33.1585 37.755 33.4995 37.304 34.1045 37.304C34.7205 37.304 35.0615 37.755 35.0615 38.338C35.0615 38.932 34.7205 39.383 34.1045 39.383ZM40.4532 39.383C39.8482 39.383 39.5072 38.932 39.5072 38.327C39.5072 37.755 39.8482 37.304 40.4532 37.304C41.0692 37.304 41.4102 37.755 41.4102 38.327C41.4102 38.932 41.0692 39.383 40.4532 39.383ZM40.4532 41.132C42.3452 41.132 43.4452 39.823 43.4452 38.327C43.4452 36.853 42.4772 35.555 40.9592 35.555C40.2662 35.555 39.7822 35.753 39.3532 36.259C39.5072 35.731 39.9252 35.346 41.1352 35.148C41.9712 35.016 43.2362 34.697 43.2362 33.663H41.0362C41.0362 33.817 40.7502 33.949 40.4092 34.004C38.4842 34.301 37.4722 35.511 37.4722 38.096C37.4722 39.823 38.5722 41.132 40.4532 41.132ZM46.7798 41.132C47.5718 41.132 48.5178 40.923 49.0458 40.472L48.2318 39.251C47.9678 39.482 47.3078 39.625 47.0108 39.625C46.3618 39.625 45.9768 39.295 45.8668 38.954H49.4748V38.547C49.4748 36.677 48.2758 35.555 46.7138 35.555C44.9978 35.555 43.8208 36.798 43.8208 38.338C43.8208 40.087 45.1188 41.132 46.7798 41.132ZM47.5938 37.7H45.8448C45.9108 37.458 46.1088 37.062 46.7138 37.062C47.3518 37.062 47.5388 37.469 47.5938 37.7ZM52.7744 41.132C53.9844 41.132 54.7324 40.571 55.0294 40.131L53.7534 38.921C53.5884 39.163 53.2804 39.383 52.8624 39.383C52.3014 39.383 51.8174 39.02 51.8174 38.338C51.8174 37.656 52.3014 37.304 52.8624 37.304C53.2804 37.304 53.5884 37.502 53.7534 37.755L55.0294 36.556C54.7324 36.105 53.9844 35.555 52.7744 35.555C51.0914 35.555 49.7934 36.655 49.7934 38.338C49.7934 40.032 51.0914 41.132 52.7744 41.132ZM58.2739 41.132C59.0659 41.132 60.0119 40.923 60.5399 40.472L59.7259 39.251C59.4619 39.482 58.8019 39.625 58.5049 39.625C57.8559 39.625 57.4709 39.295 57.3609 38.954H60.9689V38.547C60.9689 36.677 59.7699 35.555 58.2079 35.555C56.4919 35.555 55.3149 36.798 55.3149 38.338C55.3149 40.087 56.6129 41.132 58.2739 41.132ZM59.0879 37.7H57.3389C57.4049 37.458 57.6029 37.062 58.2079 37.062C58.8459 37.062 59.0329 37.469 59.0879 37.7ZM61.2986 42.353H63.2786V41H65.8306V42.353H67.8106V39.284H67.2276V35.687H62.4536L62.0796 38.228C61.9366 39.251 61.6616 39.35 61.2986 39.35V42.353ZM64.1476 37.403H65.2476V39.284H63.6086C63.8286 39.02 63.9606 38.668 64.0266 38.228L64.1476 37.403ZM70.4841 41V39.086H72.1011V41H74.0811V35.687H72.1011V37.37H70.4841V35.687H68.5041V41H70.4841ZM77.0777 41L78.7827 38.481V41H80.7627V35.687H78.7607L77.1657 38.052V35.687H75.1857V41H77.0777ZM87.5764 41L85.6294 38.107L87.4554 35.687H85.0684L83.8474 37.579V35.687H81.8674V41H83.8474V39.801L84.2324 39.284L85.1454 41H87.5764ZM93.0394 41V37.788C93.0394 36.017 91.7524 35.555 90.4324 35.555C89.6294 35.555 88.6394 35.786 87.9244 36.358L88.5954 37.579C89.0134 37.26 89.5744 37.062 90.0694 37.062C90.7184 37.062 91.0594 37.348 91.0594 37.722V38.272C90.7734 37.909 90.1464 37.689 89.4534 37.689C88.6614 37.689 87.6274 38.063 87.6274 39.383C87.6274 40.593 88.6614 41.132 89.4534 41.132C90.1134 41.132 90.7624 40.868 91.0594 40.494V41H93.0394ZM90.2784 39.845C89.9484 39.845 89.5854 39.746 89.5854 39.416C89.5854 39.086 89.9484 38.976 90.2784 38.976C90.5864 38.976 90.9274 39.075 91.0594 39.262V39.559C90.9274 39.746 90.5864 39.845 90.2784 39.845Z" fill="black"/>
</svg>
