<svg width="420" height="348" viewBox="0 0 420 348" fill="none" xmlns="http://www.w3.org/2000/svg">
<path d="M94.9291 316.375C96.2057 315.686 91.5228 304.524 84.4694 291.443C77.4159 278.361 70.6631 268.315 69.3864 269.003C68.1097 269.691 72.7927 280.854 79.8461 293.935C86.8995 307.017 93.6524 317.063 94.9291 316.375Z" fill="#FCC503" stroke="black" stroke-width="0.761235" stroke-miterlimit="10" stroke-linecap="round" stroke-linejoin="round"/>
<path d="M385.465 11.3149H329.324V333.774H385.465V11.3149Z" fill="#003D64" stroke="black" stroke-width="0.761235" stroke-miterlimit="10"/>
<path d="M357.376 21.6295C372.889 21.6295 385.465 17.0114 385.465 11.3147C385.465 5.61806 372.889 1 357.376 1C341.862 1 329.286 5.61806 329.286 11.3147C329.286 17.0114 341.862 21.6295 357.376 21.6295Z" fill="#A9D5F3" stroke="black" stroke-width="0.761235" stroke-miterlimit="10"/>
<path d="M357.377 16.6048C366.899 16.6048 374.619 13.776 374.619 10.2865C374.619 6.79704 366.899 3.96826 357.377 3.96826C347.854 3.96826 340.135 6.79704 340.135 10.2865C340.135 13.776 347.854 16.6048 357.377 16.6048Z" fill="black"/>
<path d="M89.1537 286.501H33.0126V608.96H89.1537V286.501Z" fill="#003D64" stroke="black" stroke-width="0.380618" stroke-miterlimit="10"/>
<path d="M61.0637 296.816C76.5771 296.816 89.1533 292.198 89.1533 286.501C89.1533 280.804 76.5771 276.186 61.0637 276.186C45.5503 276.186 32.9741 280.804 32.9741 286.501C32.9741 292.198 45.5503 296.816 61.0637 296.816Z" fill="#A9D5F3" stroke="black" stroke-width="0.761235" stroke-miterlimit="10"/>
<path d="M61.0649 291.791C70.5874 291.791 78.3069 288.963 78.3069 285.473C78.3069 281.984 70.5874 279.155 61.0649 279.155C51.5424 279.155 43.8229 281.984 43.8229 285.473C43.8229 288.963 51.5424 291.791 61.0649 291.791Z" fill="black"/>
<path d="M418.999 160.63H372.411V367.192H418.999V160.63Z" fill="#003D64" stroke="black" stroke-width="0.380618" stroke-miterlimit="10"/>
<path d="M395.704 169.195C408.569 169.195 418.998 165.361 418.998 160.631C418.998 155.901 408.569 152.067 395.704 152.067C382.84 152.067 372.411 155.901 372.411 160.631C372.411 165.361 382.84 169.195 395.704 169.195Z" fill="#A9D5F3" stroke="black" stroke-width="0.761235" stroke-miterlimit="10"/>
<path d="M395.704 165.008C403.587 165.008 409.977 162.656 409.977 159.755C409.977 156.855 403.587 154.503 395.704 154.503C387.821 154.503 381.431 156.855 381.431 159.755C381.431 162.656 387.821 165.008 395.704 165.008Z" fill="black"/>
<path d="M102.782 260.277V313.335C102.782 325.553 112.678 335.487 124.934 335.487H267.247" stroke="#1D1D1B" stroke-width="7.43034" stroke-miterlimit="10" stroke-linecap="round" stroke-linejoin="round"/>
<path d="M213.049 171.631H235.315C247.533 171.631 257.467 161.735 257.467 149.479V138.479C257.467 126.261 267.363 116.327 279.619 116.327H305.006" stroke="#1D1D1B" stroke-width="7.43034" stroke-miterlimit="10" stroke-linecap="round" stroke-linejoin="round"/>
<path d="M145.715 281.515L169.504 257.726V197.322H122.535L98.7849 221.111V281.515H145.715Z" fill="#1D1D1B"/>
<path d="M98.7849 221.141V281.507H145.753V221.141H98.7849Z" fill="#A9D5F3"/>
<path d="M145.715 221.111L169.504 197.322H122.535L98.7849 221.111H145.715Z" fill="#2E6EED"/>
<path d="M145.715 221.377L169.503 197.589V137.223H122.535L98.7846 161.012V221.377H145.715Z" fill="#1D1D1B"/>
<path d="M98.7719 161.016V236.226H145.74V161.016H98.7719Z" fill="#A9D5F3"/>
<path d="M145.715 161.012L169.503 137.223H122.535L98.7846 161.012H145.715Z" fill="#003D64" stroke="black" stroke-width="0.380618" stroke-miterlimit="10"/>
<path d="M169.503 137.223H122.535L98.7846 161.012H145.715L169.503 137.223Z" stroke="#1D1D1B" stroke-width="0.619189" stroke-miterlimit="10" stroke-linecap="round"/>
<path d="M98.7849 161.011V281.515H145.715" stroke="#1D1D1B" stroke-width="0.761235" stroke-miterlimit="10"/>
<path d="M169.502 365.67L193.291 341.881V281.515H146.323L122.534 305.266V365.67H169.502Z" fill="#003D64" stroke="black" stroke-width="0.380618" stroke-miterlimit="10"/>
<path d="M216.473 365.67L240.261 341.881V281.515H193.293L169.505 305.266V365.67H216.473Z" fill="#1D1D1B"/>
<path d="M216.473 305.266L240.261 281.515H193.293L169.505 305.266H216.473Z" fill="#2E6EED"/>
<path d="M216.473 305.532L240.261 281.782V221.378H193.293L169.505 245.166V305.532H216.473Z" fill="#1D1D1B"/>
<path d="M169.502 305.267H122.534V365.633H169.502V305.267Z" fill="#A9D5F3" stroke="black" stroke-width="0.761235" stroke-miterlimit="10"/>
<path d="M169.502 245.167V305.267V310.177V365.671H216.47V310.177V305.267V245.167H169.502Z" fill="#A9D5F3" stroke="black" stroke-width="0.761235" stroke-miterlimit="10"/>
<path d="M216.473 245.166L240.261 221.378H193.293L169.505 245.166H216.473Z" fill="#003D64" stroke="black" stroke-width="0.380618" stroke-miterlimit="10"/>
<path d="M169.502 305.533V245.167H216.47V365.67H122.534V305.266L169.502 305.533Z" stroke="#1D1D1B" stroke-width="0.555055" stroke-miterlimit="10"/>
<path d="M240.261 221.378H193.293L169.505 245.166" stroke="#1D1D1B" stroke-width="0.555055" stroke-miterlimit="10"/>
<path d="M169.502 281.515H146.323L122.534 305.266" stroke="#1D1D1B" stroke-width="0.619189" stroke-miterlimit="10"/>
<path d="M404.381 222.177C401.45 221.302 400.308 217.8 402.173 215.402C404.8 211.977 401.374 207.257 397.301 208.703C394.447 209.731 391.44 207.561 391.516 204.516C391.63 200.215 386.073 198.389 383.637 201.966C381.925 204.478 378.233 204.478 376.52 201.966C374.084 198.427 368.527 200.215 368.641 204.516C368.717 207.561 365.748 209.731 362.856 208.703C358.783 207.257 355.357 211.977 357.984 215.402C359.849 217.8 358.707 221.34 355.776 222.177C351.627 223.395 351.627 229.257 355.776 230.475C358.707 231.35 359.849 234.852 357.984 237.25C355.357 240.675 358.783 245.395 362.856 243.948C365.71 242.921 368.717 245.09 368.641 248.135C368.527 252.436 374.084 254.263 376.52 250.685C378.233 248.173 381.925 248.173 383.637 250.685C386.073 254.225 391.63 252.436 391.516 248.135C391.44 245.09 394.409 242.921 397.301 243.948C401.374 245.395 404.8 240.675 402.173 237.25C400.308 234.852 401.45 231.312 404.381 230.475C408.492 229.257 408.492 223.395 404.381 222.177ZM380.059 234.547C375.492 234.547 371.8 230.855 371.8 226.288C371.8 221.72 375.492 218.028 380.059 218.028C384.627 218.028 388.319 221.72 388.319 226.288C388.319 230.855 384.627 234.547 380.059 234.547Z" fill="#73797B" stroke="black" stroke-width="0.761235" stroke-miterlimit="10"/>
<path d="M401.413 222.178C398.482 221.303 397.34 217.801 399.205 215.403C401.832 211.978 398.406 207.258 394.333 208.704C391.479 209.732 388.472 207.562 388.548 204.517C388.662 200.216 383.105 198.389 380.669 201.967C378.956 204.479 375.264 204.479 373.552 201.967C371.116 198.428 365.559 200.216 365.673 204.517C365.749 207.562 362.78 209.732 359.887 208.704C355.815 207.258 352.389 211.978 355.016 215.403C356.881 217.801 355.739 221.341 352.808 222.178C348.659 223.396 348.659 229.258 352.808 230.476C355.739 231.351 356.881 234.853 355.016 237.251C352.389 240.676 355.815 245.396 359.887 243.949C362.742 242.922 365.749 245.091 365.673 248.136C365.559 252.437 371.116 254.264 373.552 250.686C375.264 248.174 378.956 248.174 380.669 250.686C383.105 254.226 388.662 252.437 388.548 248.136C388.472 245.091 391.441 242.922 394.333 243.949C398.406 245.396 401.832 240.676 399.205 237.251C397.34 234.853 398.482 231.313 401.413 230.476C405.562 229.258 405.562 223.396 401.413 222.178ZM377.129 234.548C372.562 234.548 368.87 230.856 368.87 226.289C368.87 221.721 372.562 218.029 377.129 218.029C381.697 218.029 385.389 221.721 385.389 226.289C385.389 230.856 381.697 234.548 377.129 234.548Z" fill="#A9D5F3" stroke="black" stroke-width="0.761235" stroke-miterlimit="10"/>
<path d="M192.987 221.377L216.776 197.589V137.223H169.808L146.019 161.012V221.377H192.987Z" fill="#1D1D1B"/>
<path d="M192.987 161.012L216.776 137.223H169.808L146.019 161.012H192.987Z" fill="#2E6EED"/>
<path d="M192.987 161.279L216.776 137.49V77.0859H169.807L146.019 100.875V161.279H192.987Z" fill="#1D1D1B"/>
<path d="M146.019 100.873V151.914V161.277V221.377H192.987V161.277V151.914V100.873H146.019Z" fill="#A9D5F3" stroke="black" stroke-width="0.761235" stroke-miterlimit="10"/>
<path d="M192.987 100.875L216.776 77.0859H169.807L146.019 100.875H192.987Z" fill="#003D64" stroke="black" stroke-width="0.380618" stroke-miterlimit="10"/>
<path d="M216.776 77.0859H169.807L146.019 100.875H192.987L216.776 77.0859Z" stroke="#1D1D1B" stroke-width="0.619189" stroke-miterlimit="10" stroke-linecap="round"/>
<path d="M146.019 100.873V221.377H192.987" stroke="#1D1D1B" stroke-width="0.761235" stroke-miterlimit="10"/>
<path d="M333.854 161.278L357.643 137.489V77.0854H310.675L286.924 100.874V161.278H333.854Z" fill="#1D1D1B"/>
<path d="M286.92 100.909V161.275H333.888V100.909H286.92Z" fill="#A9D5F3" stroke="black" stroke-width="0.761235" stroke-miterlimit="10"/>
<path d="M333.854 100.874L357.643 77.0854H310.675L286.924 100.874H333.854Z" fill="#003D64" stroke="black" stroke-width="0.380618" stroke-miterlimit="10" stroke-linecap="round" stroke-linejoin="round"/>
<path d="M333.854 161.278H286.924V100.874L310.675 77.0854H357.643L333.854 100.874H286.924" stroke="#1D1D1B" stroke-width="0.619189" stroke-miterlimit="10" stroke-linecap="round" stroke-linejoin="round"/>
<path d="M263.441 365.518L287.23 341.768V281.364H240.261L216.473 305.152V365.518H263.441Z" fill="#1D1D1B"/>
<path d="M216.462 305.153V365.519H263.43V305.153H216.462Z" fill="#70C4FC"/>
<path d="M263.441 305.152L287.23 281.364H240.261L216.473 305.152H263.441Z" fill="#2E6EED"/>
<path d="M263.443 305.418L287.232 281.63V221.264H240.264L216.475 245.014V305.418H263.443Z" fill="#1D1D1B"/>
<path d="M216.462 245.054V351.589H263.43V245.054H216.462Z" fill="#A9D5F3" stroke="black" stroke-width="0.761235" stroke-miterlimit="10"/>
<path d="M263.443 245.014L287.232 221.264H240.264L216.475 245.014H263.443Z" fill="#2E6EED"/>
<path d="M287.232 221.264H240.264L216.475 245.014H263.443L287.232 221.264Z" fill="#003D64" stroke="black" stroke-width="0.380618" stroke-miterlimit="10"/>
<path d="M216.473 245.015V365.518H263.441" stroke="#1D1D1B" stroke-width="0.619189" stroke-miterlimit="10"/>
<path d="M357.378 365.518L381.128 341.767V281.363H334.198L310.409 305.152V365.518H357.378Z" fill="#1D1D1B"/>
<path d="M310.398 305.151V365.517H357.367V305.151H310.398Z" fill="#A9D5F3" stroke="black" stroke-width="0.761235" stroke-miterlimit="10"/>
<path d="M357.378 305.152L381.128 281.363H334.198L310.409 305.152H357.378Z" fill="#2E6EED"/>
<path d="M357.38 305.417L381.13 281.629V221.263H334.2L310.411 245.013V305.417H357.38Z" fill="#1D1D1B"/>
<path d="M310.427 245.023V350.149H357.395V245.023H310.427Z" fill="#A9D5F3" stroke="black" stroke-width="0.761235" stroke-miterlimit="10"/>
<path d="M357.38 245.013L381.13 221.263H334.2L310.411 245.013H357.38Z" fill="#003D64" stroke="black" stroke-width="0.380618" stroke-miterlimit="10"/>
<path d="M381.13 221.263H334.2L310.411 245.013H357.38L381.13 221.263Z" stroke="#1D1D1B" stroke-width="0.619189" stroke-miterlimit="10" stroke-linecap="round"/>
<path d="M310.409 245.014V365.518H357.378" stroke="#1D1D1B" stroke-width="0.619189" stroke-miterlimit="10"/>
<path d="M310.371 245.432L334.16 221.644V161.278H287.23L263.441 185.066V245.432H310.371Z" fill="#1D1D1B"/>
<path d="M263.432 185.079V245.445H310.401V185.079H263.432Z" fill="#A9D5F3" stroke="black" stroke-width="0.761235" stroke-miterlimit="10"/>
<path d="M310.371 185.066L334.16 161.278H287.23L263.441 185.066H310.371Z" fill="#003D64" stroke="black" stroke-width="0.380618" stroke-miterlimit="10"/>
<path d="M334.16 161.278H287.23L263.441 185.066H310.371L334.16 161.278Z" stroke="#1D1D1B" stroke-width="0.555055" stroke-miterlimit="10" stroke-linecap="round" stroke-linejoin="round"/>
<path d="M182.711 125.538H180.084C178.143 125.538 176.545 123.94 176.545 121.999V110.656C176.545 108.715 178.143 107.116 180.084 107.116H182.711C184.652 107.116 186.25 108.715 186.25 110.656V121.999C186.25 123.978 184.652 125.538 182.711 125.538Z" fill="white" stroke="black" stroke-width="1.23838" stroke-miterlimit="10"/>
<path d="M186.822 206.723V209.349C186.822 211.29 185.223 212.889 183.282 212.889H171.94C169.999 212.889 168.4 211.29 168.4 209.349V206.723C168.4 204.782 169.999 203.183 171.94 203.183H183.282C185.223 203.183 186.822 204.782 186.822 206.723Z" fill="white" stroke="black" stroke-width="1.23838" stroke-miterlimit="10"/>
<path d="M317.679 257.916V255.29C317.679 253.349 319.278 251.75 321.219 251.75H332.561C334.502 251.75 336.101 253.349 336.101 255.29V257.916C336.101 259.858 334.502 261.456 332.561 261.456H321.219C319.278 261.456 317.679 259.858 317.679 257.916Z" fill="white" stroke="black" stroke-width="1.23838" stroke-miterlimit="10"/>
<path d="M286.431 389.344L310.181 365.593V305.189H263.251L239.462 328.978V389.344H286.431Z" fill="#1D1D1B"/>
<path d="M239.449 328.977V389.343H286.417V328.977H239.449Z" fill="#A9D5F3" stroke="black" stroke-width="0.761235" stroke-miterlimit="10"/>
<path d="M286.431 328.978L310.181 305.189H263.251L239.462 328.978H286.431Z" fill="#003D64" stroke="black" stroke-width="0.380618" stroke-miterlimit="10"/>
<path d="M286.431 389.344H239.462V328.978L263.251 305.189H310.181L286.431 328.978H239.462" stroke="#1D1D1B" stroke-width="0.555055" stroke-miterlimit="10"/>
<path d="M263.441 185.067V245.433H310.371" stroke="black" stroke-width="0.619189" stroke-miterlimit="10"/>
<path d="M310.18 144.759C317.621 144.759 323.654 138.727 323.654 131.285C323.654 123.844 317.621 117.812 310.18 117.812C302.738 117.812 296.706 123.844 296.706 131.285C296.706 138.727 302.738 144.759 310.18 144.759Z" fill="white" stroke="#1D1D1B" stroke-width="6.4705" stroke-miterlimit="10" stroke-linecap="round" stroke-linejoin="round"/>
<path d="M190.211 350.521C197.653 350.521 203.685 344.489 203.685 337.047C203.685 329.606 197.653 323.573 190.211 323.573C182.77 323.573 176.737 329.606 176.737 337.047C176.737 344.489 182.77 350.521 190.211 350.521Z" fill="white" stroke="#1D1D1B" stroke-width="7.43034" stroke-miterlimit="10" stroke-linecap="round" stroke-linejoin="round"/>
<path d="M157.554 165.579H154.927C152.986 165.579 151.388 163.981 151.388 162.04V150.697C151.388 148.756 152.986 147.157 154.927 147.157H157.554C159.495 147.157 161.093 148.756 161.093 150.697V162.04C161.055 163.981 159.495 165.579 157.554 165.579Z" fill="white" stroke="black" stroke-width="1.23838" stroke-miterlimit="10"/>
<path d="M156.222 147.157V165.579" stroke="black" stroke-width="0.761235" stroke-miterlimit="10"/>
<path d="M181.38 125.538V107.383" stroke="black" stroke-width="0.761235" stroke-miterlimit="10"/>
<path d="M186.708 208.056H168.515" stroke="black" stroke-width="0.761235" stroke-miterlimit="10"/>
<path d="M335.984 256.661H317.828" stroke="black" stroke-width="0.761235" stroke-miterlimit="10"/>
<path d="M1.00437 272.799C0.814059 280.411 6.86588 286.73 14.4782 286.92C17.4851 286.996 20.2636 286.082 22.5854 284.522C24.4124 289.851 29.3604 293.733 35.3361 293.885C42.2633 294.037 48.1248 289.089 49.2286 282.429C49.7995 282.505 50.3705 282.581 50.9414 282.581C58.5537 282.771 64.872 276.719 65.0623 269.107C65.2526 261.495 59.2008 255.176 51.5885 254.986C49.3809 254.948 47.2875 255.405 45.4605 256.28C44.0522 250.342 38.7616 245.889 32.3673 245.737C29.4365 245.661 26.658 246.536 24.3743 248.059C22.2428 246.612 19.6927 245.737 16.9522 245.661C9.33989 245.471 3.02164 251.522 2.83133 259.135C2.79327 261.114 3.17389 263.017 3.859 264.73C2.10816 266.937 1.08049 269.754 1.00437 272.799Z" fill="white" stroke="#1D1D1B" stroke-width="0.761235" stroke-miterlimit="10"/>
<path d="M174.832 272.989C174.832 289.013 161.853 302.03 145.791 302.03C129.729 302.03 116.75 289.051 116.75 272.989C116.75 272.989 129.729 276.148 145.791 276.148C161.853 276.148 174.832 272.989 174.832 272.989Z" fill="#003D64" stroke="black" stroke-width="0.380618" stroke-miterlimit="10"/>
<path d="M145.791 282.01C161.83 282.01 174.832 277.971 174.832 272.989C174.832 268.007 161.83 263.968 145.791 263.968C129.752 263.968 116.75 268.007 116.75 272.989C116.75 277.971 129.752 282.01 145.791 282.01Z" fill="#003D64" stroke="black" stroke-width="0.380618" stroke-miterlimit="10"/>
<path d="M144.8 279.802C156.908 279.802 166.723 276.751 166.723 272.989C166.723 269.226 156.908 266.176 144.8 266.176C132.692 266.176 122.876 269.226 122.876 272.989C122.876 276.751 132.692 279.802 144.8 279.802Z" fill="#A9D5F3" stroke="black" stroke-width="0.761235" stroke-miterlimit="10"/>
<path d="M136.76 260.366L133.631 262.973L143.597 274.932L146.726 272.325L136.76 260.366Z" fill="#FCC503" stroke="black" stroke-width="0.761235" stroke-miterlimit="10" stroke-linecap="round" stroke-linejoin="round"/>
<path d="M138.558 268.878L139.623 263.778" stroke="black" stroke-width="0.586798" stroke-miterlimit="10" stroke-linecap="round" stroke-linejoin="round"/>
<path d="M141.412 272.304L142.478 267.165" stroke="black" stroke-width="0.586798" stroke-miterlimit="10" stroke-linecap="round" stroke-linejoin="round"/>
<path d="M144.613 274.055L145.336 270.591" stroke="black" stroke-width="0.586798" stroke-miterlimit="10" stroke-linecap="round" stroke-linejoin="round"/>
<path d="M128.968 263.244L131.746 266.594L134.639 265.49L139.092 261.798L140.691 259.134L137.912 255.784L128.968 263.244Z" fill="#FCC503" stroke="black" stroke-width="0.761235" stroke-miterlimit="10" stroke-linecap="round" stroke-linejoin="round"/>
<path d="M135.02 256.888L130.528 260.58L128.968 263.244L131.861 262.179L136.314 258.449L137.912 255.784L135.02 256.888Z" fill="#FCC503" stroke="black" stroke-width="0.761235" stroke-miterlimit="10" stroke-linecap="round" stroke-linejoin="round"/>
<path d="M136.315 258.449L139.093 261.799" stroke="black" stroke-width="0.586798" stroke-miterlimit="10" stroke-linecap="round" stroke-linejoin="round"/>
<path d="M131.86 262.179L134.639 265.491" stroke="black" stroke-width="0.586798" stroke-miterlimit="10" stroke-linecap="round" stroke-linejoin="round"/>
<path d="M152.26 250.837L154.695 254.102L167.175 244.797L164.741 241.532L152.26 250.837Z" fill="#95C11F" stroke="black" stroke-width="0.761235" stroke-miterlimit="10"/>
<path d="M159.077 250.799L154.015 249.505" stroke="black" stroke-width="0.586798" stroke-miterlimit="10" stroke-linecap="round" stroke-linejoin="round"/>
<path d="M162.654 248.134L157.592 246.84" stroke="black" stroke-width="0.586798" stroke-miterlimit="10" stroke-linecap="round" stroke-linejoin="round"/>
<path d="M166.232 245.508L161.169 244.176" stroke="black" stroke-width="0.586798" stroke-miterlimit="10" stroke-linecap="round" stroke-linejoin="round"/>
<path d="M154.735 258.792L158.199 256.204L157.285 253.235L153.784 248.592L151.234 246.841L147.77 249.467L154.735 258.792Z" fill="#95C11F" stroke="black" stroke-width="0.761235" stroke-miterlimit="10"/>
<path d="M148.683 252.398L152.147 257.041L154.735 258.792L153.821 255.823L150.32 251.18L147.77 249.467L148.683 252.398Z" fill="#95C11F" stroke="black" stroke-width="0.761235" stroke-miterlimit="10" stroke-linecap="round" stroke-linejoin="round"/>
<path d="M150.321 251.18L153.784 248.591" stroke="black" stroke-width="0.586798" stroke-miterlimit="10" stroke-linecap="round" stroke-linejoin="round"/>
<path d="M153.822 255.824L157.286 253.235" stroke="black" stroke-width="0.586798" stroke-miterlimit="10" stroke-linecap="round" stroke-linejoin="round"/>
<path d="M126.744 241.317L127.2 245.364L142.669 243.62L142.213 239.573L126.744 241.317Z" fill="#003D64" stroke="black" stroke-width="0.761235" stroke-miterlimit="10" stroke-linecap="round" stroke-linejoin="round"/>
<path d="M132.658 244.748L128.928 241.056" stroke="black" stroke-width="0.666766" stroke-miterlimit="10" stroke-linecap="round" stroke-linejoin="round"/>
<path d="M137.074 244.253L133.344 240.561" stroke="black" stroke-width="0.666766" stroke-miterlimit="10" stroke-linecap="round" stroke-linejoin="round"/>
<path d="M141.489 243.758L137.759 240.066" stroke="black" stroke-width="0.666766" stroke-miterlimit="10" stroke-linecap="round" stroke-linejoin="round"/>
<path d="M124.859 249.429L129.16 248.934L129.845 245.927L129.198 240.142L127.866 237.363L123.565 237.858L124.859 249.429Z" fill="#003D64" stroke="black" stroke-width="0.761235" stroke-miterlimit="10" stroke-linecap="round" stroke-linejoin="round"/>
<path d="M122.841 240.866L123.488 246.651L124.859 249.43L125.544 246.423L124.897 240.638L123.564 237.859L122.841 240.866Z" fill="#003D64" stroke="black" stroke-width="0.761235" stroke-miterlimit="10" stroke-linecap="round" stroke-linejoin="round"/>
<path d="M124.896 240.637L129.197 240.142" stroke="black" stroke-width="0.666766" stroke-miterlimit="10" stroke-linecap="round" stroke-linejoin="round"/>
<path d="M125.542 246.422L129.843 245.927" stroke="black" stroke-width="0.666766" stroke-miterlimit="10" stroke-linecap="round" stroke-linejoin="round"/>
<path d="M147.321 223.058L144.475 225.971L155.61 236.849L158.456 233.936L147.321 223.058Z" fill="#FCC503" stroke="black" stroke-width="0.761235" stroke-miterlimit="10"/>
<path d="M148.416 229.79L148.911 224.614" stroke="black" stroke-width="0.586798" stroke-miterlimit="10" stroke-linecap="round" stroke-linejoin="round"/>
<path d="M151.578 232.911L152.111 227.696" stroke="black" stroke-width="0.586798" stroke-miterlimit="10" stroke-linecap="round" stroke-linejoin="round"/>
<path d="M154.774 236.031L155.269 230.817" stroke="black" stroke-width="0.586798" stroke-miterlimit="10" stroke-linecap="round" stroke-linejoin="round"/>
<path d="M139.854 226.744L142.937 229.751L145.715 228.38L149.788 224.232L151.082 221.415L147.999 218.408L139.854 226.744Z" fill="#FCC503" stroke="black" stroke-width="0.761235" stroke-miterlimit="10"/>
<path d="M145.221 219.778L141.148 223.927L139.854 226.744L142.632 225.374L146.705 221.187L147.999 218.408L145.221 219.778Z" fill="#FCC503" stroke="black" stroke-width="0.761235" stroke-miterlimit="10" stroke-linecap="round" stroke-linejoin="round"/>
<path d="M146.704 221.187L149.787 224.232" stroke="black" stroke-width="0.586798" stroke-miterlimit="10" stroke-linecap="round" stroke-linejoin="round"/>
<path d="M142.635 225.374L145.718 228.38" stroke="black" stroke-width="0.586798" stroke-miterlimit="10" stroke-linecap="round" stroke-linejoin="round"/>
<path d="M154.166 97.4857C152.719 97.067 152.148 95.3162 153.062 94.1362C154.356 92.4235 152.643 90.1017 150.626 90.8249C149.218 91.3197 147.733 90.2539 147.771 88.7315C147.847 86.6 145.069 85.6865 143.851 87.4754C143.014 88.7315 141.149 88.7315 140.311 87.4754C139.093 85.7246 136.353 86.6 136.391 88.7315C136.429 90.2539 134.945 91.3197 133.536 90.8249C131.519 90.1017 129.806 92.4615 131.1 94.1362C132.014 95.3162 131.443 97.067 129.997 97.4857C127.941 98.0947 127.941 100.987 129.997 101.596C131.443 102.015 132.014 103.766 131.1 104.946C129.806 106.659 131.519 108.98 133.536 108.257C134.945 107.762 136.429 108.828 136.391 110.351C136.315 112.482 139.093 113.395 140.311 111.607C141.149 110.351 143.014 110.351 143.851 111.607C145.069 113.357 147.809 112.482 147.771 110.351C147.733 108.828 149.218 107.762 150.626 108.257C152.643 108.98 154.356 106.62 153.062 104.946C152.148 103.766 152.719 102.015 154.166 101.596C156.183 100.987 156.183 98.0947 154.166 97.4857ZM142.1 103.652C139.855 103.652 138.028 101.825 138.028 99.5791C138.028 97.3334 139.855 95.5065 142.1 95.5065C144.346 95.5065 146.173 97.3334 146.173 99.5791C146.173 101.825 144.346 103.652 142.1 103.652Z" fill="#003D64" stroke="black" stroke-width="0.761235" stroke-miterlimit="10"/>
<path d="M152.68 97.4864C151.233 97.0677 150.663 95.3169 151.576 94.137C152.87 92.4242 151.157 90.1024 149.14 90.8256C147.732 91.3204 146.247 90.2547 146.285 88.7322C146.362 86.6007 143.583 85.6873 142.365 87.4762C141.528 88.7322 139.663 88.7322 138.825 87.4762C137.607 85.7253 134.867 86.6007 134.905 88.7322C134.943 90.2547 133.459 91.3204 132.05 90.8256C130.033 90.1024 128.32 92.4623 129.614 94.137C130.528 95.3169 129.957 97.0677 128.511 97.4864C126.455 98.0954 126.455 100.988 128.511 101.597C129.957 102.016 130.528 103.767 129.614 104.947C128.32 106.659 130.033 108.981 132.05 108.258C133.459 107.763 134.943 108.829 134.905 110.351C134.829 112.483 137.607 113.396 138.825 111.607C139.663 110.351 141.528 110.351 142.365 111.607C143.583 113.358 146.324 112.483 146.285 110.351C146.247 108.829 147.732 107.763 149.14 108.258C151.157 108.981 152.87 106.621 151.576 104.947C150.663 103.767 151.233 102.016 152.68 101.597C154.735 100.988 154.735 98.0954 152.68 97.4864ZM140.652 103.652C138.407 103.652 136.58 101.825 136.58 99.5798C136.58 97.3342 138.407 95.5072 140.652 95.5072C142.898 95.5072 144.725 97.3342 144.725 99.5798C144.725 101.825 142.898 103.652 140.652 103.652Z" fill="#A9D5F3" stroke="black" stroke-width="0.761235" stroke-miterlimit="10"/>
<path d="M238.283 225.641L233.297 220.921L221.003 221.302L221.269 230.855L226.255 235.537L238.549 235.195L238.283 225.641Z" fill="#003D64" stroke="black" stroke-width="0.761235" stroke-miterlimit="10"/>
<path d="M213.868 235.905L226.157 235.541L225.874 225.991L213.585 226.355L213.868 235.905Z" fill="#64F460"/>
<path d="M213.567 226.343L225.856 225.979L225.573 216.429L213.284 216.793L213.567 226.343Z" fill="#64F460"/>
<path d="M237.56 206.534L232.573 201.852L220.279 202.195L220.584 211.786L225.57 216.468L237.864 216.087L237.56 206.534Z" fill="#1D1D1B"/>
<path d="M225.301 206.914L220.315 202.194L208.059 202.575L208.326 212.128L213.312 216.848L225.606 216.467L225.301 206.914Z" fill="#1D1D1B"/>
<path d="M212.474 188.226L207.488 183.658L208.896 231.274L213.882 235.841L212.474 188.226Z" fill="#003D64" stroke="black" stroke-width="0.761235" stroke-miterlimit="10" stroke-linecap="round" stroke-linejoin="round"/>
<path d="M237.709 206.534L232.723 201.852L220.429 202.195L220.733 211.786L225.719 216.468L238.013 216.087L237.709 206.534Z" fill="#003D64" stroke="black" stroke-width="0.761235" stroke-miterlimit="10"/>
<path d="M213.307 216.805L225.596 216.44L225.313 206.891L213.024 207.255L213.307 216.805Z" fill="#64F460"/>
<path d="M213.008 207.279L225.297 206.915L225.014 197.366L212.725 197.73L213.008 207.279Z" fill="#64F460"/>
<path d="M224.996 197.399L237.29 197.018L237.024 187.465L232.038 182.783L219.744 183.126L207.488 183.506L212.474 188.188L237.024 187.465" fill="#003D64"/>
<path d="M224.996 197.399L237.29 197.018L237.024 187.465L232.038 182.783L219.744 183.126L207.488 183.506L212.474 188.188L237.024 187.465" stroke="black" stroke-width="0.761235" stroke-miterlimit="10"/>
<path d="M212.475 188.188L215.52 188.112L224.769 187.808L237.025 187.465L237.291 197.019L225.035 197.399L225.302 206.915L237.71 206.534L238.014 216.088L225.226 216.468L225.492 226.022L238.281 225.641L238.547 235.195L213.883 235.918L212.475 188.188Z" fill="#73797B" stroke="black" stroke-width="0.761235" stroke-miterlimit="10" stroke-linecap="round" stroke-linejoin="round"/>
<path d="M218.793 198.084C220.706 198.084 222.256 196.534 222.256 194.621C222.256 192.708 220.706 191.157 218.793 191.157C216.88 191.157 215.329 192.708 215.329 194.621C215.329 196.534 216.88 198.084 218.793 198.084Z" fill="white" stroke="#1D1D1B" stroke-width="0.619189" stroke-miterlimit="10"/>
<path d="M220.163 196.067C221.172 196.067 221.99 195.249 221.99 194.24C221.99 193.231 221.172 192.413 220.163 192.413C219.154 192.413 218.336 193.231 218.336 194.24C218.336 195.249 219.154 196.067 220.163 196.067Z" fill="black"/>
<path d="M218.639 215.365C220.552 215.365 222.103 213.814 222.103 211.901C222.103 209.988 220.552 208.437 218.639 208.437C216.726 208.437 215.175 209.988 215.175 211.901C215.175 213.814 216.726 215.365 218.639 215.365Z" fill="white" stroke="#1D1D1B" stroke-width="0.619189" stroke-miterlimit="10"/>
<path d="M220.01 213.309C221.019 213.309 221.837 212.491 221.837 211.482C221.837 210.473 221.019 209.655 220.01 209.655C219.001 209.655 218.183 210.473 218.183 211.482C218.183 212.491 219.001 213.309 220.01 213.309Z" fill="black"/>
<path d="M94.5613 316.76C107.655 309.68 112.565 293.352 105.485 280.221C98.4055 267.127 82.077 262.217 68.9457 269.297L69.136 269.525C81.7726 270.096 97.7204 306.826 94.5613 316.76Z" fill="#FCC503" stroke="black" stroke-width="0.761235" stroke-miterlimit="10" stroke-linecap="round" stroke-linejoin="round"/>
<path d="M95.7414 317.407C92.43 319.196 92.5061 306.369 84.0183 290.649C75.5306 274.93 65.7106 269.639 69.022 267.851C70.7348 266.937 80.2883 272.342 88.7761 288.061C97.2638 303.781 98.0251 316.189 95.7414 317.407Z" fill="#FCC503" stroke="black" stroke-width="0.761235" stroke-miterlimit="10" stroke-linecap="round" stroke-linejoin="round"/>
<path d="M98.1496 287.554C98.7972 287.205 98.6914 285.752 97.9132 284.309C97.135 282.866 95.9792 281.979 95.3316 282.328C94.684 282.677 94.7899 284.13 95.568 285.573C96.3462 287.017 97.502 287.903 98.1496 287.554Z" fill="#FCC503" stroke="black" stroke-width="0.761235" stroke-miterlimit="10" stroke-linecap="round" stroke-linejoin="round"/>
<path d="M96.6163 270.515C96.6163 270.515 93.3811 277.975 89.4607 278.051C85.5404 278.127 78.0042 266.328 78.0042 266.328" stroke="black" stroke-width="0.504623" stroke-miterlimit="10" stroke-linecap="round" stroke-linejoin="round"/>
<path d="M108.76 293.01C108.76 293.01 100.767 291.639 98.5212 294.837C96.3137 298.034 102.023 310.861 102.023 310.861" stroke="black" stroke-width="0.504623" stroke-miterlimit="10" stroke-linecap="round" stroke-linejoin="round"/>
<path d="M79.8319 275.348C79.8319 275.348 83.2575 283.76 86.683 290.269" stroke="black" stroke-width="0.504623" stroke-miterlimit="10" stroke-linecap="round" stroke-linejoin="round"/>
<path d="M95.4365 304.314C95.4365 304.314 90.2981 296.815 86.7203 290.383" stroke="black" stroke-width="0.504623" stroke-miterlimit="10" stroke-linecap="round" stroke-linejoin="round"/>
<path d="M309.914 301.194C309.8 301.194 309.723 301.232 309.609 301.232V301.194L243.534 305.876L244.6 320.758L310.675 316.076V316.038C310.789 316.038 310.865 316.038 310.979 316.038C312.883 315.886 314.215 312.46 313.91 308.35C313.644 304.315 311.855 301.08 309.914 301.194Z" fill="#73797B" stroke="black" stroke-width="0.576559" stroke-miterlimit="10" stroke-linecap="round" stroke-linejoin="round"/>
<path d="M244.628 320.774C246.557 320.637 247.885 317.195 247.594 313.085C247.304 308.975 245.504 305.754 243.575 305.891C241.646 306.027 240.318 309.47 240.609 313.579C240.899 317.689 242.699 320.91 244.628 320.774Z" fill="#003D64" stroke="black" stroke-width="0.576559" stroke-miterlimit="10"/>
<path d="M277.559 303.516C279.462 303.364 281.251 306.599 281.555 310.71C281.86 314.82 280.528 318.284 278.625 318.398" stroke="black" stroke-width="0.576559" stroke-miterlimit="10"/>
<path d="M275.01 303.668C276.913 303.516 278.702 306.751 279.006 310.862C279.311 314.973 277.979 318.436 276.076 318.55" stroke="black" stroke-width="0.576559" stroke-miterlimit="10"/>
<path d="M304.89 301.575C306.793 301.422 308.582 304.658 308.887 308.768C309.191 312.879 307.859 316.343 305.956 316.457" stroke="black" stroke-width="0.576559" stroke-miterlimit="10"/>
<path d="M302.376 301.727C304.279 301.575 306.068 304.81 306.372 308.92C306.677 313.031 305.345 316.495 303.442 316.609" stroke="black" stroke-width="0.576559" stroke-miterlimit="10"/>
<path d="M244.425 317.888C245.599 317.805 246.407 315.698 246.229 313.182C246.051 310.666 244.955 308.693 243.781 308.776C242.606 308.859 241.799 310.967 241.977 313.483C242.155 315.999 243.251 317.971 244.425 317.888Z" fill="#1D1D1B"/>
<path d="M185.678 88.2007C185.678 88.0865 185.678 88.0103 185.64 87.8962H185.678L184.955 21.6687L170.035 21.8209L170.758 88.0484H170.796C170.796 88.1626 170.758 88.2387 170.758 88.3529C170.796 90.2941 174.145 91.8165 178.256 91.7404C182.367 91.7023 185.678 90.1037 185.678 88.2007Z" fill="#95C11F" stroke="black" stroke-width="0.761235" stroke-miterlimit="10"/>
<path d="M177.527 25.277C181.646 25.2326 184.969 23.629 184.948 21.6953C184.927 19.7616 181.571 18.23 177.451 18.2744C173.331 18.3188 170.009 19.9223 170.029 21.8561C170.05 23.7898 173.407 25.3214 177.527 25.277Z" fill="#A9D5F3" stroke="black" stroke-width="0.761235" stroke-miterlimit="10"/>
<path d="M185.338 55.7336C185.376 57.6748 182.027 59.2353 177.916 59.3114C173.805 59.3495 170.418 57.827 170.418 55.924" stroke="black" stroke-width="0.576559" stroke-miterlimit="10"/>
<path d="M185.299 53.1838C185.337 55.125 181.988 56.6855 177.877 56.7617C173.766 56.7997 170.379 55.2772 170.379 53.3741" stroke="black" stroke-width="0.576559" stroke-miterlimit="10"/>
<path d="M185.605 83.1765C185.643 85.1177 182.293 86.6782 178.182 86.7543C174.072 86.8305 170.684 85.2699 170.684 83.3668" stroke="black" stroke-width="0.576559" stroke-miterlimit="10"/>
<path d="M185.605 80.6265C185.643 82.5676 182.293 84.1281 178.182 84.2043C174.072 84.2423 170.684 82.7199 170.684 80.8168" stroke="black" stroke-width="0.576559" stroke-miterlimit="10"/>
<path d="M177.51 23.9071C180.033 23.8799 182.067 22.9037 182.054 21.7267C182.042 20.5496 179.987 19.6175 177.464 19.6446C174.942 19.6718 172.908 20.648 172.92 21.8251C172.933 23.0021 174.988 23.9343 177.51 23.9071Z" fill="#003D64" stroke="black" stroke-width="0.576559" stroke-miterlimit="10"/>
<path d="M105.637 189.063C104.191 189.063 102.973 187.883 102.973 186.399V168.548C102.973 167.102 104.153 165.884 105.637 165.884C107.084 165.884 108.302 167.064 108.302 168.548V186.399C108.263 187.883 107.084 189.063 105.637 189.063Z" fill="black"/>
<path d="M107.917 173.686H90.4847V176.693H107.917V173.686Z" fill="#95C11F"/>
<path d="M107.501 174.067V176.312H90.8302V174.067H107.501ZM108.262 173.305H90.069V177.074H108.262V173.305Z" fill="black"/>
<path d="M91.6306 180.386C94.4895 180.386 96.807 178.068 96.807 175.209C96.807 172.351 94.4895 170.033 91.6306 170.033C88.7718 170.033 86.4542 172.351 86.4542 175.209C86.4542 178.068 88.7718 180.386 91.6306 180.386Z" fill="#95C11F" stroke="black" stroke-width="0.761235" stroke-miterlimit="10"/>
<path d="M344.816 294.38C343.37 294.38 342.152 293.2 342.152 291.716V273.865C342.152 272.419 343.332 271.201 344.816 271.201C346.263 271.201 347.481 272.381 347.481 273.865V291.716C347.442 293.2 346.263 294.38 344.816 294.38Z" fill="black"/>
<path d="M347.289 286.729H329.476V290.117H347.289V286.729Z" fill="#003D64"/>
<path d="M347.06 286.92V289.927H329.628V286.92H347.06ZM347.441 286.539H329.247V290.307H347.441V286.539Z" fill="black"/>
<path d="M330.81 293.429C328.07 293.429 325.824 291.183 325.824 288.443C325.824 285.702 328.07 283.457 330.81 283.457C333.551 283.457 335.796 285.702 335.796 288.443C335.796 291.183 333.551 293.429 330.81 293.429Z" fill="#003D64"/>
<path d="M330.81 283.685C333.436 283.685 335.605 285.817 335.605 288.481C335.605 291.107 333.474 293.277 330.81 293.277C328.145 293.277 326.014 291.145 326.014 288.481C326.014 285.817 328.183 283.685 330.81 283.685ZM330.81 283.304C327.955 283.304 325.633 285.626 325.633 288.481C325.633 291.335 327.955 293.657 330.81 293.657C333.664 293.657 335.986 291.335 335.986 288.481C335.948 285.588 333.664 283.304 330.81 283.304Z" fill="black"/>
<path d="M362.439 304.238L370.051 319.919C370.356 320.566 371.003 320.985 371.726 321.061L389.082 322.317C389.806 322.355 390.491 322.051 390.909 321.442L400.691 307.016C401.11 306.407 401.148 305.646 400.843 304.999C400.349 304.01 399.169 303.591 398.141 304.048L395.363 305.38C395.058 305.532 394.754 305.76 394.563 306.065L388.207 315.428C387.75 316.113 386.913 316.456 386.114 316.266L378.006 314.439C377.397 314.286 376.903 313.906 376.636 313.335L371.688 303.096C371.422 302.563 371.422 301.916 371.688 301.345L375.266 293.847C375.608 293.086 376.408 292.629 377.245 292.705L388.626 293.543C388.968 293.581 389.349 293.505 389.653 293.352L392.356 292.02C393.345 291.525 393.764 290.345 393.307 289.318V289.28C393.003 288.633 392.356 288.214 391.632 288.138L374.276 286.882C373.553 286.844 372.868 287.148 372.449 287.757L362.667 302.183C362.173 302.792 362.097 303.591 362.439 304.238Z" fill="#95C11F" stroke="black" stroke-width="0.761235" stroke-miterlimit="10"/>
<path d="M369.861 306.293L373.02 312.764C373.211 313.182 373.059 313.715 372.602 313.906L345.654 326.961C345.235 327.151 344.703 326.999 344.512 326.542L341.353 320.072C341.163 319.653 341.315 319.12 341.772 318.93L368.719 305.874C369.138 305.684 369.633 305.875 369.861 306.293Z" fill="#728E19" stroke="black" stroke-width="0.761235" stroke-miterlimit="10"/>
<path d="M344.474 315.123L353.38 320.642C354.902 321.594 355.359 323.573 354.408 325.095L339.982 348.275C339.031 349.798 337.052 350.254 335.529 349.303L326.623 343.784C325.1 342.832 324.643 340.853 325.595 339.331L340.02 316.151C340.972 314.628 342.951 314.172 344.474 315.123Z" fill="#95C11F" stroke="black" stroke-width="0.761235" stroke-miterlimit="10"/>
<path d="M368.416 313.221C369.551 313.221 370.471 312.3 370.471 311.165C370.471 310.03 369.551 309.11 368.416 309.11C367.281 309.11 366.361 310.03 366.361 311.165C366.361 312.3 367.281 313.221 368.416 313.221Z" fill="#95C11F" stroke="black" stroke-width="0.761235" stroke-miterlimit="10"/>
<path d="M346.414 323.84C347.549 323.84 348.47 322.92 348.47 321.785C348.47 320.649 347.549 319.729 346.414 319.729C345.279 319.729 344.359 320.649 344.359 321.785C344.359 322.92 345.279 323.84 346.414 323.84Z" fill="#728E19" stroke="black" stroke-width="0.761235" stroke-miterlimit="10"/>
<path d="M331.268 343.327C332.404 343.327 333.324 342.407 333.324 341.272C333.324 340.137 332.404 339.217 331.268 339.217C330.133 339.217 329.213 340.137 329.213 341.272C329.213 342.407 330.133 343.327 331.268 343.327Z" fill="#A9D5F3" stroke="black" stroke-width="0.761235" stroke-miterlimit="10"/>
<path d="M257.046 251.066H221.915V279.879H257.046V251.066Z" fill="#606060" stroke="black" stroke-width="0.380618" stroke-miterlimit="10"/>
<path d="M224.96 253.465H254.001C254.306 253.465 254.534 253.693 254.534 253.997V270.174C254.534 270.478 254.306 270.707 254.001 270.707H224.96C224.656 270.707 224.427 270.478 224.427 270.174V253.997C224.427 253.693 224.656 253.465 224.96 253.465Z" fill="#1D1D1B"/>
<path d="M229.719 278.053C231.232 278.053 232.459 276.826 232.459 275.312C232.459 273.799 231.232 272.572 229.719 272.572C228.205 272.572 226.979 273.799 226.979 275.312C226.979 276.826 228.205 278.053 229.719 278.053Z" fill="#95C11F" stroke="black" stroke-width="0.761235" stroke-miterlimit="10"/>
<path d="M239.461 278.052C240.974 278.052 242.201 276.826 242.201 275.312C242.201 273.799 240.974 272.572 239.461 272.572C237.947 272.572 236.721 273.799 236.721 275.312C236.721 276.826 237.947 278.052 239.461 278.052Z" fill="#FCC503" stroke="black" stroke-width="0.761235" stroke-miterlimit="10"/>
<path d="M249.204 278.052C250.717 278.052 251.944 276.826 251.944 275.312C251.944 273.799 250.717 272.572 249.204 272.572C247.69 272.572 246.463 273.799 246.463 275.312C246.463 276.826 247.69 278.052 249.204 278.052Z" fill="#A9D5F3" stroke="black" stroke-width="0.761235" stroke-miterlimit="10"/>
<path d="M280.721 236.337C279.275 235.918 278.704 234.167 279.617 232.987C280.911 231.275 279.198 228.953 277.181 229.676C275.773 230.171 274.288 229.105 274.327 227.583C274.403 225.451 271.624 224.538 270.406 226.327C269.569 227.583 267.704 227.583 266.866 226.327C265.648 224.576 262.908 225.451 262.946 227.583C262.984 229.105 261.5 230.171 260.091 229.676C258.074 228.953 256.361 231.313 257.655 232.987C258.569 234.167 257.998 235.918 256.552 236.337C254.496 236.946 254.496 239.838 256.552 240.447C257.998 240.866 258.569 242.617 257.655 243.797C256.361 245.51 258.074 247.831 260.091 247.108C261.5 246.613 262.984 247.679 262.946 249.202C262.87 251.333 265.648 252.247 266.866 250.458C267.704 249.202 269.569 249.202 270.406 250.458C271.624 252.208 274.365 251.333 274.327 249.202C274.288 247.679 275.773 246.613 277.181 247.108C279.198 247.831 280.911 245.472 279.617 243.797C278.704 242.617 279.275 240.866 280.721 240.447C282.776 239.838 282.776 236.946 280.721 236.337ZM268.655 242.503C266.41 242.503 264.583 240.676 264.583 238.43C264.583 236.185 266.41 234.358 268.655 234.358C270.901 234.358 272.728 236.185 272.728 238.43C272.728 240.676 270.939 242.503 268.655 242.503Z" fill="#003D64" stroke="black" stroke-width="0.761235" stroke-miterlimit="10"/>
<path d="M279.275 236.338C277.828 235.919 277.257 234.168 278.171 232.988C279.465 231.276 277.752 228.954 275.735 229.677C274.327 230.172 272.842 229.106 272.88 227.584C272.956 225.452 270.178 224.539 268.96 226.327C268.123 227.584 266.258 227.584 265.42 226.327C264.202 224.577 261.462 225.452 261.5 227.584C261.538 229.106 260.054 230.172 258.645 229.677C256.628 228.954 254.915 231.314 256.209 232.988C257.123 234.168 256.552 235.919 255.106 236.338C253.05 236.947 253.05 239.839 255.106 240.448C256.552 240.867 257.123 242.618 256.209 243.798C254.915 245.511 256.628 247.832 258.645 247.109C260.054 246.614 261.538 247.68 261.5 249.203C261.424 251.334 264.202 252.248 265.42 250.459C266.258 249.203 268.123 249.203 268.96 250.459C270.178 252.209 272.918 251.334 272.88 249.203C272.842 247.68 274.327 246.614 275.735 247.109C277.752 247.832 279.465 245.473 278.171 243.798C277.257 242.618 277.828 240.867 279.275 240.448C281.33 239.839 281.33 236.947 279.275 236.338ZM267.209 242.504C264.964 242.504 263.137 240.677 263.137 238.431C263.137 236.185 264.964 234.359 267.209 234.359C269.455 234.359 271.282 236.185 271.282 238.431C271.282 240.677 269.455 242.504 267.209 242.504Z" fill="#A9D5F3" stroke="black" stroke-width="0.761235" stroke-miterlimit="10"/>
<path d="M303.521 137.451L311.97 133.036L324.379 116.631L307.936 129.039L303.521 137.451Z" fill="#FCC503" stroke="black" stroke-width="0.745858" stroke-miterlimit="10" stroke-linecap="round" stroke-linejoin="round"/>
<path d="M310.104 131.971C310.777 131.971 311.322 131.425 311.322 130.753C311.322 130.08 310.777 129.535 310.104 129.535C309.432 129.535 308.886 130.08 308.886 130.753C308.886 131.425 309.432 131.971 310.104 131.971Z" fill="black"/>
<path d="M194.817 345.192L192.419 335.981L179.249 320.186L187.585 338.988L194.817 345.192Z" fill="#95C11F" stroke="black" stroke-width="0.761235" stroke-miterlimit="10" stroke-linecap="round" stroke-linejoin="round"/>
<path d="M189.75 338.455C190.423 338.455 190.968 337.91 190.968 337.237C190.968 336.565 190.423 336.019 189.75 336.019C189.078 336.019 188.532 336.565 188.532 337.237C188.532 337.91 189.078 338.455 189.75 338.455Z" fill="black"/>
<path d="M322.48 73.364C322.48 73.1737 322.633 73.0215 322.823 73.0215C323.013 73.0215 323.165 73.1737 323.165 73.364C323.165 73.5544 323.013 73.7066 322.823 73.7066C322.633 73.7066 322.48 73.5544 322.48 73.364Z" fill="white"/>
<path d="M343.685 80.3674L333.827 65.942C333.56 65.5614 333.294 65.2569 332.989 64.9524L332.913 44.8178C333.522 44.7416 334.017 44.0565 334.017 43.2192V42.8005C334.017 41.9251 333.446 41.2019 332.761 41.2019H329.944H327.128C326.443 41.2019 325.872 41.9251 325.872 42.8005V43.2192C325.872 44.0565 326.367 44.7416 326.976 44.8178L326.9 64.9524C326.595 65.2189 326.329 65.5614 326.062 65.942L316.242 80.3674C313.312 84.7065 315.633 91.5196 320.086 91.5576L329.868 91.6337L339.726 91.5576C344.294 91.5196 346.654 84.7065 343.685 80.3674Z" fill="white" stroke="black" stroke-width="0.582002" stroke-miterlimit="10"/>
<path d="M342.197 81.1664L335.232 70.6995H335.194H329.979H324.613L317.838 80.8239C315.173 84.592 317 90.4154 321.073 90.4154H329.979H338.771H338.81C342.844 90.4154 344.671 84.9346 342.197 81.1664Z" fill="#95C11F" stroke="black" stroke-width="0.647507" stroke-miterlimit="10" stroke-linecap="round" stroke-linejoin="round"/>
<path d="M329.058 87.4386L319.201 76.3246C318.934 76.0201 318.668 75.7917 318.363 75.5634L318.287 60.0722C318.896 59.9961 319.391 59.4632 319.391 58.8543V58.5498C319.391 57.8646 318.82 57.3318 318.135 57.3318H315.356H312.578C311.893 57.3318 311.322 57.8646 311.322 58.5498V58.8543C311.322 59.5013 311.817 60.0342 312.426 60.0722L312.349 75.5634C312.045 75.7917 311.778 76.0201 311.512 76.3246L301.692 87.4386C298.761 90.7881 301.083 96.0406 305.536 96.0406L315.242 96.0787H315.28H315.318L325.1 96.0406C329.629 96.0025 332.027 90.75 329.058 87.4386Z" fill="white" stroke="black" stroke-width="0.582002" stroke-miterlimit="10"/>
<path d="M327.956 88.9234L320.306 80.2073H310.029L302.836 88.5428C300.971 90.9788 302.645 94.8611 306.566 94.8611H323.731C327.69 94.9372 329.365 91.2833 327.956 88.9234Z" fill="#A9D5F3" stroke="black" stroke-width="0.761235" stroke-miterlimit="10"/>
<path d="M349.992 204.858V195.419C351.705 195 352.771 194.353 352.771 193.63C352.771 192.412 349.65 191.385 345.767 191.385C341.885 191.385 338.764 192.374 338.764 193.63C338.764 194.353 339.868 195 341.543 195.419V204.896C334.692 206.761 329.667 213.308 329.667 220.768C329.667 229.675 336.861 236.868 345.767 236.868C354.674 236.868 361.868 229.675 361.868 220.768C361.868 213.308 356.843 206.723 349.992 204.858Z" fill="white" stroke="black" stroke-width="0.647507" stroke-miterlimit="10" stroke-linecap="round" stroke-linejoin="round"/>
<path d="M360.191 220.616H360.001H345.765H331.492C331.568 228.419 337.925 234.737 345.727 234.737C347.935 234.737 350.028 234.242 351.893 233.329C356.803 231.045 360.153 226.211 360.191 220.616Z" fill="#A9D5F3" stroke="black" stroke-width="0.761235" stroke-miterlimit="10"/>
<path d="M345.614 194.239C347.548 194.239 349.115 193.881 349.115 193.44C349.115 192.998 347.548 192.641 345.614 192.641C343.68 192.641 342.112 192.998 342.112 193.44C342.112 193.881 343.68 194.239 345.614 194.239Z" fill="white" stroke="black" stroke-width="0.647507" stroke-miterlimit="10" stroke-linecap="round" stroke-linejoin="round"/>
<path d="M275.353 277.062C275.277 277.062 275.201 277.062 275.125 277.062C275.049 277.062 274.973 277.062 274.897 277.062C271.128 277.176 268.16 278.28 268.16 279.65C268.16 280.412 269.073 281.097 270.558 281.592V321.671C270.558 323.726 272.232 325.363 274.25 325.363H274.897H275.353H276.038C278.208 325.363 279.959 323.688 279.959 321.671V281.592C281.519 281.097 282.509 280.412 282.509 279.65C282.509 278.28 279.35 277.138 275.353 277.062Z" fill="white" stroke="black" stroke-width="0.761235" stroke-miterlimit="10"/>
<path d="M272.269 287.567V320.605C272.269 322.317 273.297 323.726 274.553 323.726H275.961C277.217 323.726 278.245 322.317 278.245 320.605V287.567H272.269Z" fill="#FCC503" stroke="black" stroke-width="0.761235" stroke-miterlimit="10" stroke-linecap="round" stroke-linejoin="round"/>
<path d="M275.276 280.716C277.252 280.716 278.853 280.154 278.853 279.46C278.853 278.766 277.252 278.204 275.276 278.204C273.3 278.204 271.698 278.766 271.698 279.46C271.698 280.154 273.3 280.716 275.276 280.716Z" stroke="black" stroke-width="0.761235" stroke-miterlimit="10"/>
<path d="M136.125 140.802L122.004 136.958L122.08 136.158L136.163 140.003L136.125 140.802Z" fill="#95C11F"/>
<path d="M124.057 131.895L138.178 135.74C137.721 135.625 137.188 135.625 136.579 135.701L122.458 131.857C123.067 131.781 123.6 131.781 124.057 131.895Z" fill="#95C11F"/>
<path d="M136.58 135.703L122.459 131.859C122.535 131.859 122.611 131.859 122.687 131.821L136.808 135.665C136.732 135.703 136.656 135.703 136.58 135.703Z" fill="#95C11F"/>
<path d="M136.809 135.664L122.689 131.82C122.917 131.782 123.107 131.781 123.298 131.781L137.418 135.626C137.228 135.664 137.038 135.664 136.809 135.664Z" fill="#95C11F"/>
<path d="M137.418 135.664L123.297 131.819C123.449 131.819 123.563 131.819 123.716 131.857L137.837 135.702C137.722 135.664 137.57 135.664 137.418 135.664Z" fill="#95C11F"/>
<path d="M137.838 135.702L123.717 131.858C123.831 131.858 123.907 131.896 124.022 131.934L138.143 135.778C138.028 135.702 137.952 135.702 137.838 135.702Z" fill="#95C11F"/>
<path d="M138.141 135.74L124.02 131.896H124.058L138.141 135.74C138.179 135.74 138.141 135.74 138.141 135.74Z" fill="#95C11F"/>
<path d="M132.052 148.642L117.97 144.798L118.388 143.998L132.509 147.843L132.052 148.642Z" fill="#95C11F"/>
<path d="M134.184 152.334L120.063 148.49L117.97 144.798L132.052 148.642L134.184 152.334Z" fill="#95C11F" stroke="black" stroke-width="0.380618" stroke-miterlimit="10" stroke-linecap="round" stroke-linejoin="round"/>
<path d="M136.202 132.124L122.081 128.279L121.777 127.861L135.898 131.705L136.202 132.124Z" fill="#95C11F"/>
<path d="M123.679 122.532L137.8 126.376C137.115 126.186 136.43 126.528 135.707 127.251C135.25 127.708 134.755 128.355 134.26 129.078L120.139 125.234C120.634 124.511 121.129 123.864 121.586 123.407C122.309 122.684 122.994 122.341 123.679 122.532Z" fill="#95C11F"/>
<path d="M137.61 126.338L123.49 122.493C123.528 122.493 123.604 122.493 123.642 122.531L137.763 126.376C137.725 126.338 137.649 126.338 137.61 126.338Z" fill="#003D64" stroke="black" stroke-width="0.761235" stroke-miterlimit="10"/>
<path d="M125.732 156.864L111.612 153.019L112.259 147.196L123.715 147.957L126.38 151.04L125.732 156.864Z" fill="#95C11F" stroke="black" stroke-width="0.380618" stroke-miterlimit="10" stroke-linecap="round" stroke-linejoin="round"/>
<path d="M118.311 124.169L132.432 128.013C132.165 127.937 131.937 127.899 131.67 127.899L117.549 124.055C117.816 124.055 118.082 124.131 118.311 124.169Z" fill="#95C11F"/>
<path d="M131.67 127.899L117.549 124.055C117.626 124.055 117.74 124.055 117.816 124.093L131.937 127.937C131.823 127.899 131.746 127.899 131.67 127.899Z" fill="#95C11F"/>
<path d="M131.939 127.938L117.818 124.094C117.97 124.132 118.123 124.132 118.275 124.17L132.396 128.014C132.244 127.976 132.091 127.938 131.939 127.938Z" fill="#95C11F"/>
<path d="M132.394 128.013L118.273 124.169H118.311L132.432 128.013H132.394Z" fill="#95C11F"/>
<path d="M127.217 150.507L113.096 146.663C112.449 146.472 111.84 146.13 111.269 145.597L125.39 149.441C125.923 149.974 126.57 150.355 127.217 150.507Z" fill="#728E19" stroke="black" stroke-width="0.380618" stroke-miterlimit="10" stroke-linecap="round" stroke-linejoin="round"/>
<path d="M129.007 128.507L114.886 124.663C115.19 122.189 115.685 120.324 116.865 119.144C117.36 118.649 118.007 118.269 118.768 118.078L132.889 121.923C132.09 122.151 131.481 122.494 130.986 122.988C129.806 124.168 129.311 126.033 129.007 128.507Z" fill="#95C11F"/>
<path d="M129.007 128.507L114.886 124.663C115.19 122.189 115.685 120.324 116.865 119.144C117.36 118.649 118.007 118.269 118.768 118.078L132.889 121.923C132.09 122.151 131.481 122.494 130.986 122.988C129.806 124.168 129.311 126.033 129.007 128.507Z" stroke="black" stroke-width="0.380618" stroke-miterlimit="10" stroke-linecap="round" stroke-linejoin="round"/>
<path d="M126.001 131.059L111.88 127.214C112.146 126.872 112.451 126.567 112.717 126.263C113.403 125.578 114.126 125.045 114.849 124.664L128.97 128.509C128.247 128.889 127.523 129.422 126.838 130.107C126.572 130.374 126.305 130.716 126.001 131.059Z" fill="#95C11F"/>
<path d="M114.889 124.664C114.774 124.702 114.698 124.778 114.584 124.816C114.318 124.969 114.013 125.159 113.747 125.387C113.404 125.654 113.1 125.92 112.757 126.263C112.453 126.567 112.186 126.872 111.92 127.214L126.041 131.058C126.307 130.716 126.612 130.411 126.878 130.107C127.183 129.802 127.525 129.498 127.868 129.231C128.134 129.003 128.439 128.813 128.705 128.661C128.819 128.584 128.895 128.546 129.01 128.508L114.889 124.664Z" fill="#95C11F" stroke="black" stroke-width="0.380618" stroke-miterlimit="10" stroke-linecap="round" stroke-linejoin="round"/>
<path d="M122.917 147.309L108.796 143.465C108.301 142.209 108.034 140.763 107.958 139.202L122.079 143.046C122.155 144.607 122.422 146.091 122.917 147.309Z" fill="#95C11F"/>
<path d="M122.117 143.39L107.996 139.545C107.996 139.431 107.996 139.317 107.996 139.241L122.117 143.085C122.117 143.161 122.117 143.275 122.117 143.39Z" fill="#95C11F"/>
<path d="M122.917 147.309L108.796 143.465C108.301 142.209 108.034 140.763 107.958 139.202L122.079 143.046C122.155 144.607 122.422 146.091 122.917 147.309Z" stroke="black" stroke-width="0.380618" stroke-miterlimit="10" stroke-linecap="round" stroke-linejoin="round"/>
<path d="M120.824 152.411L106.703 148.567C106.209 148.452 105.752 148.034 105.257 147.311L119.378 151.155C119.873 151.878 120.368 152.259 120.824 152.411Z" fill="#95C11F"/>
<path d="M120.824 152.411L106.703 148.567C106.209 148.452 105.752 148.034 105.257 147.311L119.378 151.155C119.873 151.878 120.368 152.259 120.824 152.411Z" stroke="black" stroke-width="0.380618" stroke-miterlimit="10" stroke-linecap="round" stroke-linejoin="round"/>
<path d="M119.378 151.155L105.257 147.311L108.302 142.781L122.385 146.626L119.378 151.155Z" fill="#95C11F" stroke="black" stroke-width="0.380618" stroke-miterlimit="10" stroke-linecap="round" stroke-linejoin="round"/>
<path d="M122.421 139.204L108.3 135.36C108.605 133.685 109.138 132.049 109.861 130.488L123.982 134.332C123.259 135.855 122.726 137.529 122.421 139.204Z" fill="#95C11F"/>
<path d="M122.421 139.204L108.3 135.36C108.3 135.322 108.3 135.284 108.338 135.246L122.459 139.09C122.421 139.128 122.421 139.166 122.421 139.204Z" fill="#95C11F"/>
<path d="M122.422 139.089L108.301 135.245C108.339 134.979 108.415 134.712 108.453 134.484L122.574 138.328C122.536 138.556 122.46 138.823 122.422 139.089Z" fill="#95C11F"/>
<path d="M122.421 139.204L108.3 135.36C108.605 133.685 109.138 132.049 109.861 130.488L123.982 134.332C123.259 135.855 122.726 137.529 122.421 139.204Z" stroke="black" stroke-width="0.380618" stroke-miterlimit="10" stroke-linecap="round" stroke-linejoin="round"/>
<path d="M123.983 134.331L109.862 130.487C108.606 128.165 108.263 126.034 110.319 122.608L124.44 126.452C122.384 129.878 122.727 132.009 123.983 134.331Z" fill="#95C11F"/>
<path d="M123.983 134.331L109.862 130.487C108.606 128.165 108.263 126.034 110.319 122.608L124.44 126.452C122.384 129.878 122.727 132.009 123.983 134.331Z" stroke="black" stroke-width="0.380618" stroke-miterlimit="10" stroke-linecap="round" stroke-linejoin="round"/>
<path d="M118.844 138.556L104.723 134.711L108.339 134.102L122.46 137.947L118.844 138.556Z" fill="#95C11F" stroke="black" stroke-width="0.380618" stroke-miterlimit="10" stroke-linecap="round" stroke-linejoin="round"/>
<path d="M120.442 143.008L106.321 139.164C105.141 138.859 104.532 137.68 104.723 134.711L118.844 138.555C118.615 141.524 119.262 142.704 120.442 143.008Z" fill="#95C11F"/>
<path d="M120.442 143.008L106.321 139.164C105.141 138.859 104.532 137.68 104.723 134.711L118.844 138.555C118.615 141.524 119.262 142.704 120.442 143.008Z" stroke="black" stroke-width="0.380618" stroke-miterlimit="10" stroke-linecap="round" stroke-linejoin="round"/>
<path d="M124.441 126.453L126.534 130.145L126.001 131.058C126.268 130.716 126.572 130.411 126.838 130.107C127.524 129.422 128.247 128.889 128.97 128.508C129.274 126.034 129.769 124.169 130.949 122.989C131.444 122.494 132.091 122.114 132.852 121.923L132.205 127.709L131.634 127.899C132.586 127.975 133.461 128.356 134.222 129.079C134.717 128.356 135.212 127.709 135.669 127.252C136.887 126.034 138.029 125.882 139.209 127.633L136.164 132.162L135.821 131.743C136.24 132.923 136.506 134.293 136.544 135.74C138.714 135.473 140.008 136.12 139.703 140.231L136.088 140.84L136.126 140.041C135.783 141.563 135.288 143.086 134.603 144.532C135.821 146.816 136.164 148.947 134.108 152.373L132.015 148.719L132.472 147.92C132.243 148.186 132.015 148.414 131.787 148.643C131.063 149.366 130.302 149.899 129.579 150.279C129.274 152.753 128.78 154.656 127.6 155.798C127.105 156.293 126.458 156.674 125.659 156.864L126.306 151.079L127.029 150.85C126.039 150.812 125.126 150.394 124.364 149.67C123.832 150.432 123.337 151.079 122.842 151.573C121.624 152.791 120.482 152.944 119.302 151.193L122.347 146.663L122.88 147.349C122.385 146.093 122.119 144.646 122.043 143.086C119.835 143.39 118.503 142.743 118.807 138.594L122.423 137.985L122.347 139.203C122.652 137.529 123.185 135.892 123.908 134.331C122.728 132.01 122.385 129.878 124.441 126.453Z" fill="#728E19" stroke="black" stroke-width="0.380618" stroke-miterlimit="10" stroke-linecap="round" stroke-linejoin="round"/>
<path fill-rule="evenodd" clip-rule="evenodd" d="M125.959 133.607C128.738 129.535 132.468 128.812 134.333 132.009C136.198 135.206 135.437 141.068 132.696 145.14C129.918 149.213 126.188 149.936 124.323 146.739C122.457 143.58 123.181 137.68 125.959 133.607Z" fill="#95C11F" stroke="black" stroke-width="0.380618" stroke-miterlimit="10" stroke-linecap="round" stroke-linejoin="round"/>
<path fill-rule="evenodd" clip-rule="evenodd" d="M128.663 138.251C129.196 137.452 129.919 137.3 130.3 137.947C130.68 138.556 130.528 139.736 129.995 140.535C129.462 141.334 128.739 141.487 128.359 140.839C127.978 140.192 128.092 139.051 128.663 138.251Z" fill="#1C1C1C"/>
<path d="M320.459 180.537L323.732 180.347L321.677 177.759L306.985 171.326L305.767 174.105L320.459 180.537Z" fill="#FC8C06" stroke="black" stroke-width="0.54493" stroke-miterlimit="10" stroke-linecap="round" stroke-linejoin="round"/>
<path d="M305.802 173.991L306.906 171.441C307.82 169.348 306.868 166.912 304.775 165.998L296.515 162.382L292.1 172.469L300.36 176.085C302.453 176.998 304.889 176.046 305.802 173.991Z" fill="#FCC503" stroke="black" stroke-width="0.761235" stroke-miterlimit="10" stroke-linecap="round" stroke-linejoin="round"/>
<path d="M290.769 175.514L297.886 159.299C298.115 158.767 297.886 158.158 297.353 157.929L280.149 150.355L272.195 168.472L289.399 176.047C289.893 176.275 290.54 176.047 290.769 175.514Z" fill="#FCC503" stroke="black" stroke-width="0.761235" stroke-miterlimit="10" stroke-linecap="round" stroke-linejoin="round"/>
<path d="M272.157 168.472L280.112 150.354L277.067 149.022C275.43 148.299 273.565 149.06 272.842 150.659L267.475 162.915C266.752 164.551 267.513 166.416 269.112 167.139L272.157 168.472Z" fill="#FC8C06" stroke="black" stroke-width="0.761235" stroke-miterlimit="10" stroke-linecap="round" stroke-linejoin="round"/>
<path d="M272.08 179.853L276.267 170.3L272.727 168.739L268.54 178.293C268.122 179.282 268.54 180.386 269.53 180.843C273.412 182.936 271.623 180.805 272.08 179.853Z" fill="#FCC503" stroke="black" stroke-width="0.761235" stroke-miterlimit="10" stroke-linecap="round" stroke-linejoin="round"/>
<path d="M288.408 142.628L284.221 152.182L280.681 150.621L284.868 141.068C285.287 140.078 286.429 139.659 287.418 140.078C291.643 141.638 288.865 141.638 288.408 142.628Z" fill="#FCC503" stroke="black" stroke-width="0.761235" stroke-miterlimit="10" stroke-linecap="round" stroke-linejoin="round"/>
<path d="M277.671 167.934L283.442 154.798L282.153 154.231L276.382 167.368L277.671 167.934Z" fill="#1D1D1B"/>
<path d="M280.233 169.044L286.004 155.907L284.715 155.341L278.944 168.478L280.233 169.044Z" fill="#1D1D1B"/>
<path d="M282.821 170.166L288.592 157.03L287.303 156.463L281.531 169.6L282.821 170.166Z" fill="#1D1D1B"/>
<path d="M307.5 170.081L305.204 175.308L306.423 175.844L308.72 170.617L307.5 170.081Z" fill="#FCC503" stroke="black" stroke-width="0.761235" stroke-miterlimit="10" stroke-linecap="round" stroke-linejoin="round"/>
<path d="M322.246 181.337L325.519 181.146L323.464 178.558L308.772 172.126L307.554 174.904L322.246 181.337Z" fill="#FC8C06" stroke="black" stroke-width="0.54493" stroke-miterlimit="10" stroke-linecap="round" stroke-linejoin="round"/>
<path d="M307.591 174.79L308.695 172.24C309.608 170.146 308.656 167.711 306.563 166.797L298.304 163.181L293.85 173.268L302.11 176.883C304.241 177.797 306.677 176.845 307.591 174.79Z" fill="#FCC503" stroke="black" stroke-width="0.761235" stroke-miterlimit="10" stroke-linecap="round" stroke-linejoin="round"/>
<path d="M280.111 150.354L278.893 149.821C277.256 149.098 275.391 149.859 274.668 151.458L269.301 163.714C268.578 165.35 269.339 167.216 270.938 167.939L272.156 168.472" fill="#FCC503"/>
<path d="M280.111 150.354L278.893 149.821C277.256 149.098 275.391 149.859 274.668 151.458L269.301 163.714C268.578 165.35 269.339 167.216 270.938 167.939L272.156 168.472" stroke="black" stroke-width="0.761235" stroke-miterlimit="10" stroke-linecap="round" stroke-linejoin="round"/>
<path d="M273.867 180.653L278.054 171.099L274.514 169.539L270.327 179.092C269.909 180.082 270.327 181.185 271.317 181.642C272.307 182.061 273.449 181.604 273.867 180.653Z" fill="#FC8C06" stroke="black" stroke-width="0.761235" stroke-miterlimit="10" stroke-linecap="round" stroke-linejoin="round"/>
<path d="M290.234 143.427L286.047 152.981L282.507 151.42L286.694 141.867C287.113 140.877 288.255 140.459 289.244 140.877C290.196 141.296 290.653 142.438 290.234 143.427Z" fill="#FC8C06" stroke="black" stroke-width="0.761235" stroke-miterlimit="10" stroke-linecap="round" stroke-linejoin="round"/>
<path d="M309.296 170.895L307 176.122L308.219 176.658L310.515 171.431L309.296 170.895Z" fill="#FCC503" stroke="black" stroke-width="0.761235" stroke-miterlimit="10" stroke-linecap="round" stroke-linejoin="round"/>
<path d="M292.559 176.313L299.677 160.098C299.905 159.565 299.677 158.956 299.144 158.728L280.113 150.354L272.158 168.472L291.189 176.845C291.722 177.074 292.331 176.845 292.559 176.313Z" fill="#FCC503" stroke="black" stroke-width="0.761235" stroke-miterlimit="10" stroke-linecap="round" stroke-linejoin="round"/>
<path d="M279.732 168.091L284.946 156.216C285.099 155.873 284.946 155.455 284.604 155.302C284.261 155.15 283.842 155.302 283.69 155.645L278.476 167.52C278.324 167.863 278.476 168.281 278.818 168.434C279.161 168.586 279.58 168.434 279.732 168.091Z" fill="black"/>
<path d="M282.281 169.195L287.495 157.32C287.647 156.977 287.495 156.558 287.153 156.406C286.81 156.254 286.391 156.406 286.239 156.749L281.025 168.624C280.872 168.967 281.025 169.385 281.367 169.537C281.71 169.728 282.128 169.576 282.281 169.195Z" fill="black"/>
<path d="M284.866 170.337L290.081 158.462C290.233 158.119 290.081 157.701 289.738 157.549C289.396 157.396 288.977 157.549 288.825 157.891L283.61 169.766C283.458 170.109 283.61 170.528 283.953 170.68C284.295 170.87 284.714 170.68 284.866 170.337Z" fill="black"/>
</svg>
