<svg width="260" height="87" viewBox="0 0 260 87" fill="none" xmlns="http://www.w3.org/2000/svg">
<g clip-path="url(#clip0_310_7)">
<path d="M127.267 26.932C134.778 29.1164 140.778 31.9362 144.689 34.0412C147.222 35.3915 147.222 38.688 144.689 40.0384C140.778 42.1433 134.778 44.9235 127.267 47.1476C120.378 49.1731 112.245 50.6823 103.267 50.6823C76.378 50.6823 56.8225 47.505 56.8225 47.505L45.1336 42.3419V31.7376L56.778 26.5745C56.778 26.5745 87.0003 23.3972 103.222 23.3972C112.245 23.3972 120.378 24.9064 127.267 26.932Z" fill="#FCC503"/>
<path d="M47.3561 41.9447C51.7498 41.9447 55.3116 39.722 55.3116 36.9802C55.3116 34.2383 51.7498 32.0156 47.3561 32.0156C42.9623 32.0156 39.4005 34.2383 39.4005 36.9802C39.4005 39.722 42.9623 41.9447 47.3561 41.9447Z" fill="#95C11F" stroke="black" stroke-width="0.75" stroke-miterlimit="10" stroke-linecap="round" stroke-linejoin="round"/>
<path d="M127.267 26.932C134.778 29.1164 140.778 31.9362 144.689 34.0412C147.222 35.3915 147.222 38.688 144.689 40.0384C140.778 42.1433 134.778 44.9235 127.267 47.1476C120.378 49.1731 112.245 50.6823 103.267 50.6823C76.378 50.6823 56.8225 47.505 56.8225 47.505L45.1336 42.3419V31.7376L56.778 26.5745C56.778 26.5745 87.0003 23.3972 103.222 23.3972C112.245 23.3972 120.378 24.9064 127.267 26.932Z" fill="#A9D5F3" stroke="black" stroke-width="0.75" stroke-miterlimit="10" stroke-linecap="round" stroke-linejoin="round"/>
<path d="M3.44434 37.0199L19.5777 43.3348C25.0443 45.4794 31.5777 44.4865 37.6221 43.4936C37.6666 43.4936 37.711 43.4936 37.7554 43.4539L45.1332 42.2624V31.7376L37.7554 30.5461C37.711 30.5461 37.6666 30.5461 37.6221 30.5064C31.5777 29.5135 25.0443 28.5603 19.5777 30.6653L3.44434 37.0199Z" fill="#FCC503" stroke="black" stroke-width="0.75" stroke-miterlimit="10" stroke-linecap="round" stroke-linejoin="round"/>
<path d="M3.44434 37.0199L19.5777 43.3348C25.0443 45.4794 31.5777 44.4865 37.6221 43.4936C37.6666 43.4936 37.711 43.4936 37.7554 43.4539L45.1332 42.2624V31.7376L37.7554 30.5461C37.711 30.5461 37.6666 30.5461 37.6221 30.5064C31.5777 29.5135 25.0443 28.5603 19.5777 30.6653L3.44434 37.0199Z" fill="#FC8C06" stroke="black" stroke-width="0.75" stroke-miterlimit="10" stroke-linecap="round" stroke-linejoin="round"/>
<path d="M12.5995 37.0197L25.1773 41.4282C29.4439 42.9375 34.555 42.2623 39.2662 41.5474C39.3106 41.5474 39.3106 41.5474 39.355 41.5474L45.0884 40.7133V33.3261L39.355 32.4921C39.3106 32.4921 39.3106 32.4921 39.2662 32.4921C34.555 31.7772 29.4439 31.1417 25.1773 32.6112L12.5995 37.0197Z" fill="#FCC503" stroke="black" stroke-width="0.75" stroke-miterlimit="10" stroke-linecap="round" stroke-linejoin="round"/>
<path d="M12.5995 37.0197L25.1773 41.4282C29.4439 42.9375 34.555 42.2623 39.2662 41.5474C39.3106 41.5474 39.3106 41.5474 39.355 41.5474L45.0884 40.7133V33.3261L39.355 32.4921C39.3106 32.4921 39.3106 32.4921 39.2662 32.4921C34.555 31.7772 29.4439 31.1417 25.1773 32.6112L12.5995 37.0197Z" fill="#FCC503" stroke="black" stroke-width="0.75" stroke-miterlimit="10" stroke-linecap="round" stroke-linejoin="round"/>
<path d="M26.9557 37.02L33.9779 39.5221C36.3779 40.3562 39.2224 39.9987 41.8446 39.6015H41.889L45.089 39.125V34.915L41.889 34.4384H41.8446C39.2224 34.0413 36.3335 33.6441 33.9779 34.5179L26.9557 37.02Z" fill="#FC8C06" stroke="black" stroke-width="0.75" stroke-miterlimit="10" stroke-linecap="round" stroke-linejoin="round"/>
<path opacity="0.15" d="M45.1335 31.7376V42.2624L56.778 47.4255V26.5745L45.1335 31.7376Z" fill="#95C11F" stroke="black" stroke-width="0.75" stroke-miterlimit="10" stroke-linecap="round" stroke-linejoin="round"/>
<path d="M45.1335 31.7376V42.2624L56.778 47.4255V26.5745L45.1335 31.7376Z" fill="#003D64" stroke="black" stroke-width="0.75" stroke-miterlimit="10" stroke-linecap="round" stroke-linejoin="round"/>
<path d="M60.5557 25.9391V48.2597C60.5557 48.4583 60.7335 48.6171 60.9557 48.6568L62.0224 48.8157C62.2891 48.8554 62.5557 48.6569 62.5557 48.4186V25.82C62.5557 25.5817 62.3335 25.3831 62.0224 25.4228L60.9557 25.542C60.7335 25.542 60.5557 25.7405 60.5557 25.9391Z" fill="#003D64" stroke="black" stroke-width="0.75" stroke-miterlimit="10" stroke-linecap="round" stroke-linejoin="round"/>
</g>
<g clip-path="url(#clip1_310_7)">
<path d="M124.267 35.932C131.778 38.1164 137.778 40.9362 141.689 43.0412C144.222 44.3915 144.222 47.688 141.689 49.0384C137.778 51.1433 131.778 53.9235 124.267 56.1476C117.378 58.1731 109.245 59.6823 100.267 59.6823C73.378 59.6823 53.8225 56.505 53.8225 56.505L42.1336 51.3419V40.7376L53.778 35.5745C53.778 35.5745 84.0003 32.3972 100.222 32.3972C109.245 32.3972 117.378 33.9064 124.267 35.932Z" fill="#A9D5F3"/>
<path d="M44.3561 50.9447C48.7498 50.9447 52.3116 48.722 52.3116 45.9802C52.3116 43.2383 48.7498 41.0156 44.3561 41.0156C39.9623 41.0156 36.4005 43.2383 36.4005 45.9802C36.4005 48.722 39.9623 50.9447 44.3561 50.9447Z" fill="#95C11F" stroke="black" stroke-width="0.75" stroke-miterlimit="10" stroke-linecap="round" stroke-linejoin="round"/>
<path d="M124.267 35.932C131.778 38.1164 137.778 40.9362 141.689 43.0412C144.222 44.3915 144.222 47.688 141.689 49.0384C137.778 51.1433 131.778 53.9235 124.267 56.1476C117.378 58.1731 109.245 59.6823 100.267 59.6823C73.378 59.6823 53.8225 56.505 53.8225 56.505L42.1336 51.3419V40.7376L53.778 35.5745C53.778 35.5745 84.0003 32.3972 100.222 32.3972C109.245 32.3972 117.378 33.9064 124.267 35.932Z" stroke="black" stroke-width="0.75" stroke-miterlimit="10" stroke-linecap="round" stroke-linejoin="round"/>
<path d="M0.444336 46.0199L16.5777 52.3348C22.0443 54.4794 28.5777 53.4865 34.6221 52.4936C34.6666 52.4936 34.711 52.4936 34.7554 52.4539L42.1332 51.2624V40.7376L34.7554 39.5461C34.711 39.5461 34.6666 39.5461 34.6221 39.5064C28.5777 38.5135 22.0443 37.5603 16.5777 39.6653L0.444336 46.0199Z" fill="#FCC503" stroke="black" stroke-width="0.75" stroke-miterlimit="10" stroke-linecap="round" stroke-linejoin="round"/>
<path d="M0.444336 46.0199L16.5777 52.3348C22.0443 54.4794 28.5777 53.4865 34.6221 52.4936C34.6666 52.4936 34.711 52.4936 34.7554 52.4539L42.1332 51.2624V40.7376L34.7554 39.5461C34.711 39.5461 34.6666 39.5461 34.6221 39.5064C28.5777 38.5135 22.0443 37.5603 16.5777 39.6653L0.444336 46.0199Z" fill="#FC8C06" stroke="black" stroke-width="0.75" stroke-miterlimit="10" stroke-linecap="round" stroke-linejoin="round"/>
<path d="M9.59949 46.0197L22.1773 50.4282C26.4439 51.9375 31.555 51.2623 36.2662 50.5474C36.3106 50.5474 36.3106 50.5474 36.355 50.5474L42.0884 49.7133V42.3261L36.355 41.4921C36.3106 41.4921 36.3106 41.4921 36.2662 41.4921C31.555 40.7772 26.4439 40.1417 22.1773 41.6112L9.59949 46.0197Z" fill="#FCC503" stroke="black" stroke-width="0.75" stroke-miterlimit="10" stroke-linecap="round" stroke-linejoin="round"/>
<path d="M9.59949 46.0197L22.1773 50.4282C26.4439 51.9375 31.555 51.2623 36.2662 50.5474C36.3106 50.5474 36.3106 50.5474 36.355 50.5474L42.0884 49.7133V42.3261L36.355 41.4921C36.3106 41.4921 36.3106 41.4921 36.2662 41.4921C31.555 40.7772 26.4439 40.1417 22.1773 41.6112L9.59949 46.0197Z" fill="#FCC503" stroke="black" stroke-width="0.75" stroke-miterlimit="10" stroke-linecap="round" stroke-linejoin="round"/>
<path d="M23.9557 46.02L30.9779 48.5221C33.3779 49.3562 36.2224 48.9987 38.8446 48.6015H38.889L42.089 48.125V43.915L38.889 43.4384H38.8446C36.2224 43.0413 33.3335 42.6441 30.9779 43.5179L23.9557 46.02Z" fill="#FC8C06" stroke="black" stroke-width="0.75" stroke-miterlimit="10" stroke-linecap="round" stroke-linejoin="round"/>
<path opacity="0.15" d="M42.1335 40.7376V51.2624L53.778 56.4255V35.5745L42.1335 40.7376Z" fill="#95C11F" stroke="black" stroke-width="0.75" stroke-miterlimit="10" stroke-linecap="round" stroke-linejoin="round"/>
<path d="M42.1335 40.7376V51.2624L53.778 56.4255V35.5745L42.1335 40.7376Z" fill="#003D64" stroke="black" stroke-width="0.75" stroke-miterlimit="10" stroke-linecap="round" stroke-linejoin="round"/>
<path d="M57.5557 34.9391V57.2597C57.5557 57.4583 57.7335 57.6171 57.9557 57.6568L59.0224 57.8157C59.2891 57.8554 59.5557 57.6569 59.5557 57.4186V34.82C59.5557 34.5817 59.3335 34.3831 59.0224 34.4228L57.9557 34.542C57.7335 34.542 57.5557 34.7405 57.5557 34.9391Z" fill="#003D64" stroke="black" stroke-width="0.75" stroke-miterlimit="10" stroke-linecap="round" stroke-linejoin="round"/>
</g>
<g clip-path="url(#clip2_310_7)">
<path d="M66.024 68.645C66.024 72.8994 69.5174 76.3637 73.8076 76.3637H250.931C255.221 76.3637 259.634 76.2421 259.634 71.9877V40.3227L251.789 11.9397C249.705 5.74038 247.131 4.22095 242.841 4.22095H73.8689C69.5787 4.22095 66.0853 7.68526 66.0853 11.9397V68.645H66.024Z" fill="#FCC503" stroke="black" stroke-width="0.688679" stroke-miterlimit="10"/>
<path d="M64.3071 65.9102H259.694V76.3639H64.3071V65.9102Z" fill="#434041" stroke="black" stroke-width="0.688679" stroke-miterlimit="10"/>
<path d="M213.36 72.7171C213.36 80.2535 219.55 86.3921 227.15 86.3921C234.75 86.3921 240.94 80.2535 240.94 72.7171C240.94 65.1808 234.75 59.0422 227.15 59.0422C219.55 59.103 213.36 65.1808 213.36 72.7171Z" fill="#2B2422" stroke="black" stroke-width="0.688679" stroke-miterlimit="10"/>
<path d="M218.692 72.7171C218.692 77.3362 222.492 81.1044 227.15 81.1044C231.808 81.1044 235.607 77.3362 235.607 72.7171C235.607 68.098 231.808 64.3298 227.15 64.3298C222.492 64.3298 218.692 68.098 218.692 72.7171Z" fill="#434041" stroke="black" stroke-width="0.688679" stroke-miterlimit="10"/>
<path d="M220.655 72.7173C220.655 76.3032 223.535 79.1597 227.151 79.1597C230.767 79.1597 233.648 76.2424 233.648 72.7173C233.648 69.1314 230.767 66.2749 227.151 66.2749C223.535 66.2749 220.655 69.1922 220.655 72.7173Z" fill="#9B999E" stroke="black" stroke-width="0.688679" stroke-miterlimit="10"/>
<path d="M111.56 72.7171C111.56 80.2535 117.75 86.3921 125.35 86.3921C132.95 86.3921 139.14 80.2535 139.14 72.7171C139.14 65.1808 132.95 59.0422 125.35 59.0422C117.75 59.103 111.56 65.1808 111.56 72.7171Z" fill="#2B2422" stroke="black" stroke-width="0.688679" stroke-miterlimit="10"/>
<path d="M116.893 72.7171C116.893 77.3362 120.693 81.1044 125.351 81.1044C130.009 81.1044 133.809 77.3362 133.809 72.7171C133.809 68.098 130.009 64.3298 125.351 64.3298C120.693 64.3298 116.893 68.098 116.893 72.7171Z" fill="#434041" stroke="black" stroke-width="0.688679" stroke-miterlimit="10"/>
<path d="M118.855 72.7173C118.855 76.3032 121.735 79.1597 125.351 79.1597C128.967 79.1597 131.848 76.2424 131.848 72.7173C131.848 69.1314 128.967 66.2749 125.351 66.2749C121.735 66.2749 118.855 69.1922 118.855 72.7173Z" fill="#9B999E" stroke="black" stroke-width="0.688679" stroke-miterlimit="10"/>
<path d="M81.8347 72.7171C81.8347 80.2535 88.0249 86.3921 95.6246 86.3921C103.224 86.3921 109.414 80.2535 109.414 72.7171C109.414 65.1808 103.224 59.0422 95.6246 59.0422C87.9636 59.103 81.8347 65.1808 81.8347 72.7171Z" fill="#2B2422" stroke="black" stroke-width="0.688679" stroke-miterlimit="10"/>
<path d="M87.106 72.7171C87.106 77.3362 90.9058 81.1044 95.5638 81.1044C100.222 81.1044 104.022 77.3362 104.022 72.7171C104.022 68.098 100.222 64.3298 95.5638 64.3298C90.9058 64.3298 87.106 68.098 87.106 72.7171Z" fill="#434041" stroke="black" stroke-width="0.688679" stroke-miterlimit="10"/>
<path d="M89.0668 72.7173C89.0668 76.3032 91.9473 79.1597 95.5633 79.1597C99.1793 79.1597 102.06 76.2424 102.06 72.7173C102.06 69.1314 99.1793 66.2749 95.5633 66.2749C92.0086 66.2749 89.0668 69.1922 89.0668 72.7173Z" fill="#9B999E" stroke="black" stroke-width="0.688679" stroke-miterlimit="10"/>
<path d="M253.382 50.655H259.694V61.7773H253.382V50.655Z" fill="#F09700" stroke="black" stroke-width="0.688679" stroke-miterlimit="10"/>
<path d="M255.588 51.9922H259.694V59.954H255.588V51.9922Z" fill="#E66113" stroke="black" stroke-width="0.688679" stroke-miterlimit="10"/>
<path d="M66.0233 51.9922H72.3361V63.1144H66.0233V51.9922Z" fill="#E3462E" stroke="black" stroke-width="0.688679" stroke-miterlimit="10"/>
<path d="M66.0242 53.8154H70.1306V61.7773H66.0242V53.8154Z" fill="#DE002B" stroke="black" stroke-width="0.688679" stroke-miterlimit="10"/>
<path d="M66.0232 42.6326H259.694V46.0969H66.0232V42.6326Z" fill="#1F140F" stroke="black" stroke-width="0.688679" stroke-miterlimit="10"/>
<path d="M66.0232 47.1909H259.694V50.6552H66.0232V47.1909Z" fill="#1F140F" stroke="black" stroke-width="0.688679" stroke-miterlimit="10"/>
<path d="M222.798 36.7979C222.798 38.0134 223.84 38.9859 225.127 38.9859H252.156C253.443 38.9859 254.484 38.0134 254.484 36.7979L246.578 12.9124C246.578 11.6968 245.536 10.7244 244.249 10.7244H225.066C223.779 10.7244 222.737 11.6968 222.737 12.9124V36.7979H222.798Z" fill="#A9D5F3" stroke="black" stroke-width="0.688679" stroke-miterlimit="10"/>
<path d="M193.135 35.8254C193.135 37.041 194.177 38.0134 195.464 38.0134H216.486C217.773 38.0134 218.815 37.041 218.815 35.8254V12.9124C218.815 11.6968 217.773 10.7244 216.486 10.7244H195.464C194.177 10.7244 193.135 11.6968 193.135 12.9124V35.8254Z" fill="#A9D5F3" stroke="black" stroke-width="0.688679" stroke-miterlimit="10"/>
<path d="M162.919 35.8254C162.919 37.041 163.961 38.0134 165.248 38.0134H186.27C187.557 38.0134 188.599 37.041 188.599 35.8254V12.9124C188.599 11.6968 187.557 10.7244 186.27 10.7244H165.248C163.961 10.7244 162.919 11.6968 162.919 12.9124V35.8254Z" fill="#A9D5F3" stroke="black" stroke-width="0.688679" stroke-miterlimit="10"/>
<path d="M132.765 35.8254C132.765 37.041 133.807 38.0134 135.094 38.0134H156.116C157.403 38.0134 158.445 37.041 158.445 35.8254V12.9124C158.445 11.6968 157.403 10.7244 156.116 10.7244H135.094C133.807 10.7244 132.765 11.6968 132.765 12.9124V35.8254Z" fill="#A9D5F3" stroke="black" stroke-width="0.688679" stroke-miterlimit="10"/>
<path d="M102.55 35.8254C102.55 37.041 103.592 38.0134 104.879 38.0134H125.901C127.188 38.0134 128.23 37.041 128.23 35.8254V12.9124C128.23 11.6968 127.188 10.7244 125.901 10.7244H104.879C103.592 10.7244 102.55 11.6968 102.55 12.9124V35.8254Z" fill="#A9D5F3" stroke="black" stroke-width="0.688679" stroke-miterlimit="10"/>
<path d="M72.3367 35.8254C72.3367 37.041 73.3786 38.0134 74.6657 38.0134H95.6876C96.9746 38.0134 98.0165 37.041 98.0165 35.8254V12.9124C98.0165 11.6968 96.9746 10.7244 95.6876 10.7244H74.6657C73.3786 10.7244 72.3367 11.6968 72.3367 12.9124V35.8254Z" fill="#90CFE4" stroke="black" stroke-width="0.688679" stroke-miterlimit="10"/>
<path d="M225.067 10.7244H227.335C227.641 12.73 228.315 14.6749 229.051 16.3159C231.134 21.2996 234.076 26.3442 237.876 30.2339C241.37 33.8806 245.537 36.7371 250.134 38.9251H225.067C223.78 38.9251 222.738 37.9526 222.738 36.7371V12.9124C222.799 11.6968 223.841 10.7244 225.067 10.7244Z" fill="#A9D5F3" stroke="black" stroke-width="0.688679" stroke-miterlimit="10"/>
<path d="M194.239 11.0886C195.894 14.8568 197.916 18.5035 200.736 21.5423C204.352 25.4929 208.887 28.7748 213.483 31.5098C215.2 32.543 216.977 33.4547 218.754 34.2448V35.825C218.754 37.0406 217.712 38.013 216.425 38.013H195.403C194.116 38.013 193.074 37.0406 193.074 35.825V12.9119C193.136 12.1218 193.565 11.4533 194.239 11.0886Z" fill="#A9D5F3" stroke="black" stroke-width="0.688679" stroke-miterlimit="10"/>
<path d="M165.249 10.7244H165.372C164.636 21.2389 174.013 31.6318 183.636 34.853C185.229 35.4 186.884 35.8254 188.539 36.2509C188.355 37.2841 187.374 38.0134 186.271 38.0134H165.249C163.962 38.0134 162.92 37.041 162.92 35.8254V12.9124C162.92 11.6968 163.962 10.7244 165.249 10.7244Z" fill="#A9D5F3" stroke="black" stroke-width="0.688679" stroke-miterlimit="10"/>
<path d="M134.91 10.7849C135.462 15.7687 139.446 20.6308 142.51 24.0952C146.739 28.8966 152.439 32.3001 158.445 34.5489V35.886C158.445 37.1015 157.403 38.074 156.116 38.074H135.094C133.807 38.074 132.765 37.1015 132.765 35.886V12.9121C132.765 11.7574 133.685 10.8457 134.91 10.7849Z" fill="#A9D5F3" stroke="black" stroke-width="0.688679" stroke-miterlimit="10"/>
<path d="M104.879 10.7244H106.411C107.331 17.4099 111.621 23.4876 116.769 27.8028C120.262 30.6593 124.124 32.9689 128.23 34.7314V35.8254C128.23 37.041 127.188 38.0134 125.901 38.0134H104.879C103.592 38.0134 102.55 37.041 102.55 35.8254V12.9124C102.55 11.6968 103.592 10.7244 104.879 10.7244Z" fill="#A9D5F3" stroke="black" stroke-width="0.688679" stroke-miterlimit="10"/>
<path d="M74.6647 10.7244H75.4615C76.9324 16.3159 78.4033 21.9074 81.958 26.648C85.5128 31.4495 91.0287 34.6707 96.4834 36.9802C96.7898 37.1018 97.0963 37.2233 97.4027 37.3449C96.9737 37.7703 96.3608 38.0134 95.7479 38.0134H74.726C73.439 38.0134 72.397 37.041 72.397 35.8254V12.9124C72.3358 11.6968 73.3777 10.7244 74.6647 10.7244Z" fill="#A9D5F3" stroke="black" stroke-width="0.688679" stroke-miterlimit="10"/>
<path d="M255.16 38.9246L250.318 24.0342V38.9246H255.16Z" fill="#434041" stroke="black" stroke-width="0.688679" stroke-miterlimit="10"/>
<path d="M243.086 41.3561C243.086 42.7539 244.251 43.9087 245.66 43.9087H247.805C249.215 43.9087 250.379 42.7539 250.379 41.3561V23.7306C250.379 22.3327 249.215 21.178 247.805 21.178H245.66C244.251 21.178 243.086 22.3327 243.086 23.7306V41.3561Z" fill="#434041" stroke="black" stroke-width="0.688679" stroke-miterlimit="10"/>
<path d="M244.68 42.9361C247.867 39.2286 248.479 33.2724 248.725 28.5926C248.847 26.1615 248.786 23.4265 247.683 21.2385H247.805C249.215 21.2385 250.379 22.3933 250.379 23.7912V41.4166C250.379 42.8145 249.215 43.9693 247.805 43.9693H245.66C245.109 43.9693 244.618 43.7869 244.251 43.5438C244.373 43.3007 244.557 43.1184 244.68 42.9361Z" fill="#2B2422" stroke="black" stroke-width="0.688679" stroke-miterlimit="10"/>
</g>
<defs>
<clipPath id="clip0_310_7">
<rect width="144" height="28" fill="white" transform="translate(3 23)"/>
</clipPath>
<clipPath id="clip1_310_7">
<rect width="144" height="28" fill="white" transform="translate(0 32)"/>
</clipPath>
<clipPath id="clip2_310_7">
<rect width="196" height="86" fill="white" transform="matrix(-1 0 0 1 260 0.695801)"/>
</clipPath>
</defs>
</svg>
