<svg width="400" height="156" viewBox="0 0 400 156" fill="none" xmlns="http://www.w3.org/2000/svg">
<g clip-path="url(#clip0_941_2280)">
<path d="M170.594 4.72633C170.594 4.72633 203.796 -5.90791 231.682 4.72633V32.9661L183.827 32.9661L170.594 4.72633Z" fill="#A9D5F3" stroke="black" stroke-width="0.833347" stroke-miterlimit="10" stroke-linecap="round" stroke-linejoin="round"/>
<path d="M201.562 49.0709L204.255 291.715L203.868 291.717L203.455 291.718L203.446 292.131L196.881 587.81L134.805 587.99L129.763 240.058L128.915 239.989L121.654 284.226L78.2086 273.54L117.723 62.2508L136.119 51.648L173.698 34.8342L201.562 49.0709Z" fill="#A9D5F3" stroke="black" stroke-width="0.853665"/>
<path d="M288.906 283.754L281.476 237.75L280.628 237.813L282.476 588.455L220.173 588.637L207.521 293.02L207.503 292.607L207.09 292.608L206.432 292.61L203.735 48.7306L231.69 35.5718L287.01 62.4454L327.883 273.944L288.906 283.754Z" fill="#A9D5F3" stroke="black" stroke-width="0.853665"/>
<path d="M205.464 48.9383L201.408 48.9561L203.118 285.402L207.174 285.385L205.464 48.9383Z" fill="#133054"/>
<path d="M141.054 134.585L140.999 127.461L190.039 127.263L190.094 134.387L141.054 134.585Z" fill="#FFCA00" stroke="black" stroke-width="0.853665"/>
<path d="M141.138 149.723L141.083 142.6L190.122 142.402L190.178 149.526L141.138 149.723Z" fill="#FFCA00" stroke="black" stroke-width="0.853665"/>
<path d="M141.284 121.753L140.779 87.6652L155.132 87.6353L155.637 121.723L141.284 121.753Z" fill="#173B66" stroke="black" stroke-width="0.853665"/>
<path d="M140.9 95.753L140.779 87.6652L155.369 87.6351L155.49 95.723L140.9 95.753Z" fill="#133054" stroke="black" stroke-width="0.853665"/>
<path d="M148.127 91.9533C148.415 91.9527 148.637 92.0633 148.797 92.2517C148.962 92.4471 149.083 92.7558 149.089 93.1751C149.096 93.5945 148.984 93.9036 148.825 94.0997C148.671 94.2888 148.451 94.4003 148.164 94.4009C147.876 94.4015 147.653 94.2909 147.494 94.1025C147.328 93.907 147.208 93.5984 147.201 93.179C147.195 92.7597 147.307 92.4505 147.466 92.2544C147.62 92.0654 147.84 91.9539 148.127 91.9533Z" fill="#FFCA00" stroke="black" stroke-width="0.853665"/>
<path d="M158.473 121.654L157.968 87.5665L172.321 87.5367L172.826 121.625L158.473 121.654Z" fill="#173B66" stroke="black" stroke-width="0.853665"/>
<path d="M158.09 95.6544L157.968 87.5665L172.559 87.5365L172.68 95.6243L158.09 95.6544Z" fill="#133054" stroke="black" stroke-width="0.853665"/>
<path d="M165.315 91.8517C165.602 91.8511 165.825 91.9617 165.984 92.1501C166.15 92.3455 166.27 92.6542 166.277 93.0736C166.283 93.4929 166.172 93.8021 166.012 93.9982C165.858 94.1872 165.639 94.2987 165.351 94.2993C165.064 94.2999 164.841 94.1893 164.681 94.0009C164.516 93.8055 164.395 93.4968 164.389 93.0775C164.383 92.6581 164.494 92.3489 164.654 92.1529C164.808 91.9638 165.027 91.8523 165.315 91.8517Z" fill="#FFCA00" stroke="black" stroke-width="0.853665"/>
<path d="M175.391 121.56L174.886 87.4718L189.239 87.442L189.744 121.53L175.391 121.56Z" fill="#173B66" stroke="black" stroke-width="0.853665"/>
<path d="M175.006 95.5615L174.884 87.47L189.478 87.4399L189.6 95.5315L175.006 95.5615Z" fill="#133054" stroke="black" stroke-width="0.85"/>
<path d="M182.508 91.7552C182.796 91.7546 183.019 91.8654 183.179 92.0542C183.345 92.25 183.466 92.5591 183.472 92.9788C183.478 93.3515 183.328 93.6629 183.122 93.8837C182.905 94.1168 182.668 94.2061 182.545 94.2064C182.256 94.207 182.033 94.0962 181.873 93.9073C181.707 93.7115 181.587 93.4024 181.581 92.9827C181.574 92.563 181.686 92.2534 181.846 92.057C182 91.8675 182.22 91.7557 182.508 91.7552Z" fill="#FFCA00" stroke="black" stroke-width="0.85"/>
<path d="M217.306 149.627L216.988 128.374L231.456 128.344L231.773 149.597L217.306 149.627Z" fill="#173B66" stroke="black" stroke-width="0.853665"/>
<path d="M217.109 136.463L216.988 128.375L231.578 128.345L231.699 136.433L217.109 136.463Z" fill="#133054" stroke="black" stroke-width="0.853665"/>
<path d="M224.328 132.333C224.616 132.333 224.838 132.443 224.998 132.632C225.163 132.827 225.284 133.136 225.29 133.555C225.297 133.974 225.185 134.284 225.026 134.48C224.872 134.669 224.652 134.78 224.365 134.781C224.077 134.781 223.855 134.671 223.695 134.482C223.53 134.287 223.409 133.978 223.403 133.559C223.396 133.14 223.508 132.83 223.667 132.634C223.821 132.445 224.041 132.334 224.328 132.333Z" fill="#FFCA00" stroke="black" stroke-width="0.853665"/>
<path d="M234.493 149.528L234.175 128.276L248.643 128.246L248.961 149.498L234.493 149.528Z" fill="#173B66" stroke="black" stroke-width="0.853665"/>
<path d="M234.297 136.364L234.175 128.277L248.765 128.247L248.887 136.334L234.297 136.364Z" fill="#133054" stroke="black" stroke-width="0.853665"/>
<path d="M241.518 132.235C241.805 132.234 242.028 132.345 242.187 132.533C242.353 132.728 242.473 133.037 242.48 133.456C242.486 133.876 242.375 134.185 242.215 134.381C242.061 134.57 241.842 134.682 241.554 134.682C241.267 134.683 241.044 134.572 240.885 134.384C240.719 134.188 240.598 133.88 240.592 133.46C240.586 133.041 240.697 132.732 240.857 132.536C241.011 132.347 241.23 132.235 241.518 132.235Z" fill="#FFCA00" stroke="black" stroke-width="0.853665"/>
<path d="M251.683 149.433L251.365 128.181L265.832 128.151L266.15 149.404L251.683 149.433Z" fill="#173B66" stroke="black" stroke-width="0.853665"/>
<path d="M251.486 136.27L251.365 128.182L265.955 128.152L266.076 136.24L251.486 136.27Z" fill="#133054" stroke="black" stroke-width="0.853665"/>
<path d="M258.707 132.14C258.995 132.139 259.217 132.25 259.377 132.438C259.542 132.634 259.663 132.942 259.669 133.362C259.675 133.734 259.526 134.045 259.32 134.265C259.103 134.498 258.867 134.587 258.744 134.587C258.456 134.588 258.234 134.477 258.074 134.289C257.908 134.094 257.788 133.785 257.782 133.366C257.775 132.946 257.887 132.637 258.046 132.441C258.2 132.252 258.42 132.14 258.707 132.14Z" fill="#FFCA00" stroke="black" stroke-width="0.853665"/>
<path d="M216.598 122.974L216.191 85.8387L265.877 85.6967L266.284 122.832L216.598 122.974Z" fill="#173B66" stroke="black" stroke-width="0.853665"/>
<path d="M265.985 85.6961L266.093 95.5632L241.412 102.808L216.299 95.7048L216.191 85.8387L265.985 85.6961Z" fill="#133054" stroke="black" stroke-width="0.853665"/>
<path d="M241.453 100.466L241.412 100.458L241.369 100.458C240.021 100.462 238.75 99.0827 238.73 97.2641C238.71 95.4454 239.951 94.0587 241.299 94.0549C242.648 94.051 243.919 95.4305 243.939 97.2492C243.95 98.324 243.639 99.2116 243.17 99.7817C242.707 100.344 242.102 100.594 241.453 100.466Z" fill="#FFCA00" stroke="black" stroke-width="0.853665"/>
<path d="M204.384 169.555L203.557 47.4979L170.591 4.72461L167.873 39.3449L177.444 59.55L203.911 47.4979L231.678 4.72461L239.595 39.3449L229.67 59.55L203.557 47.4979" fill="#A9D5F3"/>
<path d="M204.384 169.555L203.557 47.4979M203.557 47.4979L170.591 4.72461L167.873 39.3449L177.444 59.55L203.911 47.4979L231.678 4.72461L239.595 39.3449L229.67 59.55L203.557 47.4979Z" stroke="black" stroke-width="0.833347" stroke-miterlimit="10" stroke-linecap="round" stroke-linejoin="round"/>
<path d="M205.746 49.7576L201.523 49.7745L200.394 47.9201L202.019 45.677L205.186 45.6643L206.846 47.8943L205.746 49.7576Z" fill="#FFCA00" stroke="black" stroke-width="0.853665"/>
<path d="M203.542 56.0157L203.542 56.0157C203.542 56.0157 203.54 56.0157 203.535 56.014C203.529 56.0121 203.517 56.0069 203.499 55.9937C203.469 55.9714 203.427 55.9313 203.377 55.8641C203.43 55.8748 203.484 55.8807 203.541 55.8805C203.593 55.8804 203.645 55.8779 203.697 55.8729C203.652 55.9346 203.613 55.9721 203.585 55.9934C203.567 56.0067 203.555 56.012 203.549 56.014C203.545 56.0158 203.543 56.0157 203.542 56.0157ZM204.251 54.0962C204.243 54.086 204.235 54.076 204.226 54.0662C204.072 53.8834 203.823 53.7076 203.517 53.7085C203.211 53.7094 202.966 53.8866 202.816 54.0702C202.808 54.0801 202.8 54.0901 202.792 54.1004C202.664 53.3921 202.58 52.5392 202.553 51.5984L204.436 51.593C204.428 52.5339 204.363 53.3872 204.251 54.0962Z" fill="#FFCA00" stroke="black" stroke-width="0.853665"/>
<path d="M203.104 50.7518L203.096 49.9549L203.896 49.9526L203.904 50.7495L203.104 50.7518Z" fill="#FFCA00" stroke="black" stroke-width="0.853665"/>
<path d="M217.719 73.0264V77.1209C216.881 77.1209 216.2 77.8013 216.2 78.6396H213.151L216.941 73.9984L216.164 73.0385L211 78.6275L216.115 84.2408L216.164 84.1922L211.571 78.6275H213.163L217.755 84.2408V80.1219C217.051 79.9883 216.528 79.3686 216.528 78.6396C216.528 77.8621 217.124 77.206 217.889 77.1209C218.642 77.1938 219.25 77.8499 219.25 78.6396H222.324L217.719 73.0264Z" fill="black"/>
<path d="M219.372 73L219.323 73.0729L223.916 78.6011H222.324L218.533 83.2424L219.311 84.2023L224.45 78.589L219.372 73Z" fill="black"/>
<path d="M228.604 78.9537H230.403V78.1153H228.604V77.4106H231.69V76.5723H227.535V80.6668H231.739V79.7799H228.604V78.9537Z" fill="black"/>
<path d="M262.079 77.292C262.079 77.292 260.645 79.0902 260.511 79.2481C260.402 79.0902 258.944 77.292 258.944 77.292H258.215V80.6818H259.15V78.75C259.381 79.0416 260.378 80.293 260.378 80.293H260.608C260.608 80.293 261.605 79.0416 261.836 78.75V80.6818H262.771V77.292H262.079Z" fill="black"/>
<path d="M253.852 79.5504V77.2783H252.916V80.6682H253.645C253.645 80.6682 256.075 78.627 256.306 78.4204V80.6682H257.241V77.2783H256.512C256.512 77.2905 254.082 79.3438 253.852 79.5504Z" fill="black"/>
<path d="M251.849 76.5889H250.573C250.573 76.5889 249.528 77.7674 249.419 77.8889C249.309 77.7796 248.192 76.5889 248.192 76.5889H246.758C246.758 76.5889 248.641 78.4721 248.738 78.5693C248.629 78.6787 246.806 80.6591 246.806 80.6591H248.106C248.106 80.6591 249.285 79.2983 249.382 79.1768C249.492 79.2862 250.792 80.6591 250.792 80.6591H252.25C252.25 80.6591 250.16 78.5693 250.063 78.4721C250.172 78.3628 251.849 76.5889 251.849 76.5889Z" fill="black"/>
<path d="M236.101 78.9335C236.174 78.9092 236.235 78.8606 236.283 78.7999C236.332 78.7513 236.465 78.6176 236.465 78.3503V77.9615C236.465 77.8036 236.441 77.597 236.283 77.4391C236.101 77.2811 235.834 77.2568 235.627 77.2568H232.65V80.671H235.469C235.785 80.671 236.016 80.6224 236.198 80.513C236.405 80.3794 236.49 80.1971 236.49 79.9663V79.5532C236.49 79.3709 236.417 79.1887 236.308 79.0793C236.259 79.0429 236.21 78.9821 236.101 78.9335ZM233.598 77.998H235.275C235.457 77.998 235.506 78.0223 235.506 78.0223C235.554 78.0466 235.554 78.1316 235.554 78.1559V78.4718C235.554 78.5204 235.554 78.5447 235.53 78.5812C235.506 78.6055 235.421 78.6298 235.299 78.6298H233.622V77.998H233.598ZM235.554 79.7476C235.554 79.7962 235.554 79.8812 235.506 79.9055C235.481 79.9298 235.433 79.9541 235.299 79.9541H233.598V79.298H235.275C235.433 79.298 235.481 79.3223 235.506 79.3466C235.554 79.3709 235.554 79.456 235.554 79.5046V79.7476Z" fill="black"/>
<path d="M240.305 77.2891H237.328V80.6789H238.264V79.4275H240.305C240.596 79.4275 240.803 79.3789 240.937 79.2695C241.119 79.1116 241.143 78.8807 241.143 78.7228V77.9938C241.143 77.6779 241.034 77.2891 240.305 77.2891ZM240.256 78.5162C240.256 78.5891 240.256 78.6256 240.208 78.6499C240.183 78.6742 240.098 78.6985 240.025 78.6985H238.276V78.0181H239.977C240.05 78.0181 240.159 78.0181 240.208 78.0667C240.232 78.091 240.256 78.1153 240.256 78.2003V78.5162Z" fill="black"/>
<path d="M246.05 77.4977C245.844 77.3154 245.479 77.3154 245.321 77.3154H242.819C242.478 77.3154 242.272 77.364 242.138 77.4977C241.932 77.6799 241.932 78.0201 241.932 78.1781V79.8791C241.932 80.0127 241.932 80.3529 242.114 80.5352C242.248 80.6688 242.478 80.7174 242.843 80.7174H245.321C245.577 80.7174 245.868 80.6931 246.05 80.5109C246.233 80.3286 246.233 80.0127 246.233 79.9155V78.1902C246.233 77.9958 246.233 77.6556 246.05 77.4977ZM245.285 79.8912H242.831V78.0687H245.285V79.8912Z" fill="black"/>
</g>
<defs>
<clipPath id="clip0_941_2280">
<rect width="400" height="156" fill="white"/>
</clipPath>
</defs>
</svg>
