<svg width="93" height="86" viewBox="0 0 93 86" fill="none" xmlns="http://www.w3.org/2000/svg">
<path d="M87.0374 36.4392C82.3696 35.0361 80.551 29.4236 83.5214 25.5803C87.7042 20.0899 82.2484 12.5252 75.7619 14.8434C71.2154 16.4906 66.4263 13.0133 66.5476 8.13288C66.7901 1.23931 57.9394 -1.68893 54.0597 4.04554C51.3318 8.07188 45.4515 8.07188 42.7236 4.04554C38.8439 -1.62793 29.9932 1.23931 30.1751 8.13288C30.2963 13.0133 25.5679 16.4906 20.9607 14.8434C14.4743 12.5252 9.01842 20.0899 13.2013 25.5803C16.1717 29.4236 14.353 35.0971 9.68524 36.4392C3.07757 38.3914 3.07757 47.7862 9.68524 49.7383C14.353 51.1414 16.1717 56.7539 13.2013 60.5972C9.01842 66.0877 14.4743 73.6523 20.9607 71.3341C25.5073 69.687 30.2963 73.1643 30.1751 78.0447C29.9932 84.9382 38.8439 87.8665 42.7236 82.132C45.4515 78.1057 51.3318 78.1057 54.0597 82.132C57.9394 87.8055 66.7901 84.9382 66.6082 78.0447C66.487 73.1643 71.2154 69.687 75.8226 71.3341C82.309 73.6523 87.7649 66.0877 83.582 60.5972C80.6116 56.7539 82.4302 51.0804 87.098 49.7383C93.6451 47.7862 93.6451 38.3914 87.0374 36.4392ZM48.3613 56.3269C41.0868 56.3269 35.2066 50.4094 35.2066 43.0888C35.2066 35.7682 41.0868 29.8507 48.3613 29.8507C55.6358 29.8507 61.5161 35.7682 61.5161 43.0888C61.5161 50.4094 55.6358 56.3269 48.3613 56.3269Z" fill="#73797B" stroke="black" stroke-miterlimit="10"/>
<path d="M82.3686 36.4393C77.7008 35.0362 75.8821 29.4238 78.8525 25.5804C83.0354 20.09 77.5795 12.5254 71.0931 14.8436C66.5465 16.4907 61.7575 13.0134 61.8787 8.133C62.1212 1.23943 53.2099 -1.68881 49.3302 4.04566C46.6023 8.072 40.722 8.072 37.9941 4.04566C34.1144 -1.6278 25.2637 1.23943 25.4456 8.133C25.5668 13.0134 20.8384 16.4907 16.2312 14.8436C9.80542 12.5254 4.28892 20.151 8.47176 25.5804C11.4422 29.4238 9.62356 35.0972 4.95575 36.4393C-1.65192 38.3915 -1.65192 47.7863 4.95575 49.7384C9.62356 51.1416 11.4422 56.754 8.47176 60.5973C4.28892 66.0878 9.7448 73.6524 16.2312 71.3342C20.7778 69.6871 25.5668 73.1644 25.4456 78.0448C25.2637 84.9384 34.1144 87.8666 37.9941 82.1321C40.722 78.1058 46.6023 78.1058 49.3302 82.1321C53.2099 87.8056 62.0606 84.9384 61.8787 78.0448C61.7575 73.1644 66.4859 69.6871 71.0931 71.3342C77.5795 73.6524 83.0354 66.0878 78.8525 60.5973C75.8821 56.754 77.7008 51.0806 82.3686 49.7384C88.9762 47.7863 88.9762 38.3915 82.3686 36.4393ZM43.6925 56.327C36.418 56.327 30.5377 50.4095 30.5377 43.0889C30.5377 35.7683 36.418 29.9118 43.6925 29.9118C50.967 29.9118 56.8472 35.8293 56.8472 43.1499C56.8472 50.4705 50.9063 56.327 43.6925 56.327Z" fill="#A9D5F3" stroke="black" stroke-miterlimit="10"/>
</svg>
