<svg width="244" height="53" viewBox="0 0 244 53" fill="none" xmlns="http://www.w3.org/2000/svg">
<path d="M31.6577 0.112793V19.4051C27.7077 19.4051 24.5018 22.611 24.5018 26.561H10.1328L27.9939 4.69257L24.3301 0.170044L0 26.5038L24.1011 52.952L24.3301 52.723L2.69062 26.5038H10.19L31.8295 52.952V33.5452C28.5091 32.9155 26.0475 29.9959 26.0475 26.561C26.0475 22.8972 28.8526 19.8058 32.4592 19.4051C36.0085 19.7486 38.8709 22.84 38.8709 26.561H53.3545L31.6577 0.112793Z" fill="black"/>
<path d="M39.441 0L39.212 0.343487L60.8515 26.391H53.3521L35.491 48.2595L39.1548 52.782L63.3704 26.3337L39.441 0Z" fill="black"/>
<path d="M82.9508 28.051H91.4234V24.101H82.9508V20.7806H97.4916V16.8306H77.913V36.1229H97.7206V31.9439H82.9508V28.051Z" fill="black"/>
<path d="M240.665 20.208C240.665 20.208 233.91 28.6806 233.28 29.4248C232.765 28.6806 225.895 20.208 225.895 20.208H222.461V36.18H226.869V27.0777C227.956 28.4516 232.651 34.3481 232.651 34.3481H233.738C233.738 34.3481 238.432 28.4516 239.52 27.0777V36.18H243.928V20.208H240.665Z" fill="black"/>
<path d="M201.91 30.8561V20.1509H197.502V36.1229H200.937C200.937 36.1229 212.387 26.5053 213.474 25.5321V36.1229H217.882V20.1509H214.447C214.447 20.2081 202.998 29.8829 201.91 30.8561Z" fill="black"/>
<path d="M192.465 16.8882H186.454C186.454 16.8882 181.53 22.4412 181.015 23.0136C180.5 22.4984 175.233 16.8882 175.233 16.8882H168.478C168.478 16.8882 177.351 25.7615 177.809 26.2195C177.294 26.7347 168.707 36.066 168.707 36.066H174.833C174.833 36.066 180.386 29.6543 180.844 29.0819C181.359 29.5971 187.484 36.066 187.484 36.066H194.354C194.354 36.066 184.507 26.2195 184.049 25.7615C184.565 25.2463 192.465 16.8882 192.465 16.8882Z" fill="black"/>
<path d="M118.273 27.9368C118.616 27.8223 118.903 27.5933 119.132 27.307C119.361 27.078 119.99 26.4483 119.99 25.1889V23.357C119.99 22.6128 119.876 21.6395 119.132 20.8953C118.273 20.1511 117.013 20.0366 116.04 20.0366H102.015V36.1231H115.296C116.784 36.1231 117.872 35.8941 118.731 35.3789C119.704 34.7492 120.105 33.8905 120.105 32.8028V30.8564C120.105 29.9976 119.761 29.1389 119.246 28.6237C119.017 28.452 118.788 28.1657 118.273 27.9368ZM106.48 23.5287H114.38C115.239 23.5287 115.468 23.6432 115.468 23.6432C115.697 23.7577 115.697 24.1584 115.697 24.2729V25.7613C115.697 25.9903 115.697 26.1048 115.582 26.2766C115.468 26.3911 115.067 26.5056 114.495 26.5056H106.594V23.5287H106.48ZM115.697 31.7723C115.697 32.0013 115.697 32.402 115.468 32.5165C115.353 32.631 115.124 32.7455 114.495 32.7455H106.48V29.6542H114.38C115.124 29.6542 115.353 29.7687 115.468 29.8832C115.697 29.9977 115.697 30.3984 115.697 30.6274V31.7723Z" fill="black"/>
<path d="M138.079 20.208H124.053V36.18H128.461V30.2835H138.079C139.453 30.2835 140.426 30.0545 141.056 29.5393C141.914 28.7951 142.029 27.7074 142.029 26.9632V23.5283C142.029 22.0399 141.514 20.208 138.079 20.208ZM137.85 25.99C137.85 26.3335 137.85 26.5052 137.621 26.6197C137.506 26.7342 137.106 26.8487 136.762 26.8487H128.519V23.6428H136.533C136.877 23.6428 137.392 23.6428 137.621 23.8718C137.735 23.9863 137.85 24.1008 137.85 24.5016V25.99Z" fill="black"/>
<path d="M165.157 21.1824C164.184 20.3237 162.466 20.3237 161.722 20.3237H149.929C148.326 20.3237 147.353 20.5527 146.723 21.1824C145.75 22.0411 145.75 23.6441 145.75 24.3883V32.4029C145.75 33.0326 145.75 34.6355 146.609 35.4943C147.238 36.124 148.326 36.353 150.043 36.353H161.722C162.924 36.353 164.298 36.2385 165.157 35.3798C166.015 34.5211 166.015 33.0326 166.015 32.5746V24.4455C166.015 23.5296 166.015 21.9267 165.157 21.1824ZM161.55 32.4602H149.986V23.8731H161.55V32.4602Z" fill="black"/>
</svg>
