<svg width="119" height="62" viewBox="0 0 119 62" fill="none" xmlns="http://www.w3.org/2000/svg">
<mask id="path-1-inside-1_522_670" fill="white">
<path fill-rule="evenodd" clip-rule="evenodd" d="M59.3574 62C26.5752 62 0 48.1208 0 31C0 13.8792 26.5752 0 59.3574 0C92.1396 0 118.715 13.8792 118.715 31C118.715 38.2576 113.939 44.9326 105.94 50.2149L110.384 60.5238L93.0269 56.5337C83.4599 59.9812 71.8601 62 59.3574 62Z"/>
</mask>
<path fill-rule="evenodd" clip-rule="evenodd" d="M59.3574 62C26.5752 62 0 48.1208 0 31C0 13.8792 26.5752 0 59.3574 0C92.1396 0 118.715 13.8792 118.715 31C118.715 38.2576 113.939 44.9326 105.94 50.2149L110.384 60.5238L93.0269 56.5337C83.4599 59.9812 71.8601 62 59.3574 62Z" fill="#FCC503"/>
<path d="M105.94 50.2149L104.104 51.0066L103.441 49.4687L104.838 48.5459L105.94 50.2149ZM110.384 60.5238L112.221 59.732L113.784 63.3574L109.936 62.473L110.384 60.5238ZM93.0269 56.5337L92.3489 54.6522L92.902 54.4529L93.475 54.5846L93.0269 56.5337ZM2 31C2 38.4404 7.81312 45.6648 18.3112 51.1475C28.7132 56.58 43.2219 60 59.3574 60V64C42.7107 64 27.5408 60.4804 16.4595 54.6931C5.47449 48.9561 -2 40.6804 -2 31H2ZM59.3574 2C43.2219 2 28.7132 5.41998 18.3112 10.8525C7.81312 16.3352 2 23.5596 2 31H-2C-2 21.3196 5.47449 13.0439 16.4595 7.3069C27.5408 1.5196 42.7107 -2 59.3574 -2V2ZM116.715 31C116.715 23.5596 110.902 16.3352 100.404 10.8525C90.0017 5.41998 75.4929 2 59.3574 2V-2C76.0041 -2 91.1741 1.5196 102.255 7.3069C113.24 13.0439 120.715 21.3196 120.715 31H116.715ZM104.838 48.5459C112.559 43.4476 116.715 37.3063 116.715 31H120.715C120.715 39.2088 115.32 46.4176 107.042 51.8838L104.838 48.5459ZM107.777 49.4231L112.221 59.732L108.548 61.3156L104.104 51.0066L107.777 49.4231ZM109.936 62.473L92.5788 58.4829L93.475 54.5846L110.832 58.5746L109.936 62.473ZM59.3574 60C71.6541 60 83.0218 58.0132 92.3489 54.6522L93.7049 58.4153C83.8979 61.9492 72.066 64 59.3574 64V60Z" fill="black" mask="url(#path-1-inside-1_522_670)"/>
</svg>
