<svg width="43" height="39" viewBox="0 0 43 39" fill="none" xmlns="http://www.w3.org/2000/svg">
<path d="M39.988 16.7143C37.9145 16.1141 37.096 13.6041 38.4056 11.9125C40.2608 9.45703 37.8053 6.12848 34.9133 7.16524C32.8944 7.8746 30.7663 6.34674 30.8209 4.16409C30.93 1.10838 26.9467 -0.201204 25.2005 2.36341C24.0001 4.1641 21.3263 4.1641 20.1259 2.36341C18.3798 -0.146638 14.451 1.10838 14.5055 4.16409C14.5601 6.34674 12.432 7.8746 10.4131 7.16524C7.52106 6.12848 5.06558 9.5116 6.92083 11.9125C8.23042 13.6041 7.41193 16.1141 5.33841 16.7143C2.39183 17.5874 2.39183 21.7344 5.33841 22.6075C7.41193 23.2077 8.23042 25.7178 6.92083 27.4093C5.06558 29.8648 7.52106 33.1934 10.4131 32.1566C12.432 31.4472 14.5601 32.9751 14.5055 35.1577C14.3964 38.2135 18.3798 39.523 20.1259 36.9584C21.3263 35.1577 24.0001 35.1577 25.2005 36.9584C26.9467 39.4685 30.8754 38.2135 30.8209 35.1577C30.7663 32.9751 32.8944 31.4472 34.9133 32.1566C37.8053 33.1934 40.2608 29.8102 38.4056 27.4093C37.096 25.7178 37.9145 23.2077 39.988 22.6075C42.88 21.7344 42.88 17.5874 39.988 16.7143ZM22.6905 25.5541C19.4711 25.5541 16.8519 22.9349 16.8519 19.7155C16.8519 16.4961 19.4711 13.8769 22.6905 13.8769C25.9099 13.8769 28.5291 16.4961 28.5291 19.7155C28.5291 22.9349 25.9099 25.5541 22.6905 25.5541Z" fill="#003D64" stroke="black" stroke-width="1.09133" stroke-miterlimit="10"/>
<path d="M37.8595 16.7143C35.786 16.1141 34.9675 13.6041 36.2771 11.9125C38.1324 9.45703 35.6769 6.12848 32.7849 7.16524C30.7659 7.8746 28.6378 6.34674 28.6924 4.16409C28.8015 1.10838 24.8182 -0.201204 23.0721 2.36341C21.8716 4.1641 19.1978 4.1641 17.9974 2.36341C16.2513 -0.146638 12.3225 1.10838 12.3771 4.16409C12.4316 6.34674 10.3035 7.8746 8.28459 7.16524C5.39258 6.12848 2.9371 9.5116 4.79235 11.9125C6.10195 13.6041 5.28345 16.1141 3.20993 16.7143C0.263355 17.5874 0.263355 21.7344 3.20993 22.6075C5.28345 23.2077 6.10195 25.7178 4.79235 27.4093C2.9371 29.8648 5.39258 33.1934 8.28459 32.1566C10.3035 31.4472 12.4316 32.9751 12.3771 35.1577C12.2679 38.2135 16.2513 39.523 17.9974 36.9584C19.1978 35.1577 21.8716 35.1577 23.0721 36.9584C24.8182 39.4685 28.747 38.2135 28.6924 35.1577C28.6378 32.9751 30.7659 31.4472 32.7849 32.1566C35.6769 33.1934 38.1324 29.8102 36.2771 27.4093C34.9675 25.7178 35.786 23.2077 37.8595 22.6075C40.8061 21.7344 40.8061 17.5874 37.8595 16.7143ZM20.6166 25.5541C17.3972 25.5541 14.778 22.9349 14.778 19.7155C14.778 16.4961 17.3972 13.8769 20.6166 13.8769C23.836 13.8769 26.4552 16.4961 26.4552 19.7155C26.4552 22.9349 23.836 25.5541 20.6166 25.5541Z" fill="#A9D5F3" stroke="black" stroke-width="1.09133" stroke-miterlimit="10"/>
</svg>
