<svg width="212" height="111" viewBox="0 0 212 111" fill="none" xmlns="http://www.w3.org/2000/svg">
<mask id="path-1-inside-1_1108_17" fill="white">
<path fill-rule="evenodd" clip-rule="evenodd" d="M106 110.719C164.542 110.719 212 85.9338 212 55.3595C212 24.7853 164.542 0 106 0C47.4578 0 0 24.7853 0 55.3595C0 68.3194 8.52695 80.2391 22.8106 89.6718L14.8745 108.081L45.869 100.956C62.9546 107.113 83.671 110.719 106 110.719Z"/>
</mask>
<path fill-rule="evenodd" clip-rule="evenodd" d="M106 110.719C164.542 110.719 212 85.9338 212 55.3595C212 24.7853 164.542 0 106 0C47.4578 0 0 24.7853 0 55.3595C0 68.3194 8.52695 80.2391 22.8106 89.6718L14.8745 108.081L45.869 100.956C62.9546 107.113 83.671 110.719 106 110.719Z" fill="#FCC503"/>
<path d="M22.8106 89.6718L24.6472 90.4636L25.3102 88.9258L23.9128 88.0029L22.8106 89.6718ZM14.8745 108.081L13.0379 107.289L11.475 110.914L15.3226 110.03L14.8745 108.081ZM45.869 100.956L46.547 99.0744L45.9939 98.8751L45.4209 99.0068L45.869 100.956ZM210 55.3595C210 69.5266 198.966 82.8409 180.027 92.7319C161.185 102.573 135.016 108.719 106 108.719V112.719C135.527 112.719 162.357 106.473 181.879 96.2775C201.305 86.1322 214 71.7667 214 55.3595H210ZM106 2C135.016 2 161.185 8.14652 180.027 17.9872C198.966 27.8782 210 41.1925 210 55.3595H214C214 38.9524 201.305 24.5869 181.879 14.4416C162.357 4.24614 135.527 -2 106 -2V2ZM2 55.3595C2 41.1925 13.0338 27.8782 31.9725 17.9872C50.8151 8.14652 76.9845 2 106 2V-2C76.4733 -2 49.6427 4.24614 30.1208 14.4416C10.6951 24.5869 -2 38.9524 -2 55.3595H2ZM23.9128 88.0029C9.90762 78.7541 2 67.3682 2 55.3595H-2C-2 69.2705 7.14628 81.724 21.7085 91.3408L23.9128 88.0029ZM20.974 88.8801L13.0379 107.289L16.7111 108.873L24.6472 90.4636L20.974 88.8801ZM15.3226 110.03L46.317 102.905L45.4209 99.0068L14.4265 106.132L15.3226 110.03ZM106 108.719C83.877 108.719 63.3927 105.145 46.547 99.0744L45.1909 102.837C62.5165 109.081 83.465 112.719 106 112.719V108.719Z" fill="black" mask="url(#path-1-inside-1_1108_17)"/>
<path d="M18.6221 36.33H16.5721V38.44C16.5721 39.98 17.4121 41.02 19.2421 41.02C19.6621 41.02 20.0021 40.97 20.5121 40.87V43H22.5321V36.33H20.5121V39.11C20.2421 39.21 19.9221 39.26 19.5421 39.26C19.0121 39.26 18.6221 39.09 18.6221 38.44V36.33ZM26.3162 43V39.73H27.5862V38.17H23.2262V39.73H24.5162V43H26.3162ZM30.6144 43.12C32.3344 43.12 33.3344 41.93 33.3344 40.58C33.3344 39.23 32.3344 38.05 30.6144 38.05C28.9044 38.05 27.9044 39.23 27.9044 40.58C27.9044 41.93 28.9044 43.12 30.6144 43.12ZM30.6144 41.53C30.0644 41.53 29.7544 41.12 29.7544 40.58C29.7544 40.05 30.0644 39.64 30.6144 39.64C31.1744 39.64 31.4844 40.05 31.4844 40.58C31.4844 41.12 31.1744 41.53 30.6144 41.53ZM36.3859 41.53C35.8359 41.53 35.5259 41.12 35.5259 40.57C35.5259 40.05 35.8359 39.64 36.3859 39.64C36.9459 39.64 37.2559 40.05 37.2559 40.57C37.2559 41.12 36.9459 41.53 36.3859 41.53ZM36.3859 43.12C38.1059 43.12 39.1059 41.93 39.1059 40.57C39.1059 39.23 38.2259 38.05 36.8459 38.05C36.2159 38.05 35.7759 38.23 35.3859 38.69C35.5259 38.21 35.9059 37.86 37.0059 37.68C37.7659 37.56 38.9159 37.27 38.9159 36.33H36.9159C36.9159 36.47 36.6559 36.59 36.3459 36.64C34.5959 36.91 33.6759 38.01 33.6759 40.36C33.6759 41.93 34.6759 43.12 36.3859 43.12ZM39.7773 38.17V43H43.0973C44.2573 43 44.9473 42.22 44.9473 41.31C44.9473 40.39 44.3273 39.61 43.0973 39.61H41.5773V38.17H39.7773ZM42.7573 41.02C42.9773 41.02 43.1273 41.14 43.1273 41.31C43.1273 41.47 42.9773 41.59 42.7573 41.59H41.5773V41.02H42.7573ZM47.1573 43V38.17H45.3573V43H47.1573ZM50.6551 44.88C50.8251 44.93 51.2251 44.96 51.3551 44.96C52.3751 44.93 53.1751 44.72 53.6051 43.6L55.7051 38.17H53.8051L52.8751 40.93L51.9551 38.17H50.0551L51.9551 43.08L51.9151 43.18C51.8551 43.31 51.6351 43.37 51.2851 43.37C51.1651 43.37 51.0151 43.34 50.9051 43.28L50.6551 44.88ZM58.4366 43.12C59.5366 43.12 60.2166 42.61 60.4866 42.21L59.3266 41.11C59.1766 41.33 58.8966 41.53 58.5166 41.53C58.0066 41.53 57.5666 41.2 57.5666 40.58C57.5666 39.96 58.0066 39.64 58.5166 39.64C58.8966 39.64 59.1766 39.82 59.3266 40.05L60.4866 38.96C60.2166 38.55 59.5366 38.05 58.4366 38.05C56.9066 38.05 55.7266 39.05 55.7266 40.58C55.7266 42.12 56.9066 43.12 58.4366 43.12ZM66.1462 43V38.17H61.0762V43H62.8762V39.73H64.3462V43H66.1462ZM69.5104 43.12C70.2304 43.12 71.0904 42.93 71.5704 42.52L70.8304 41.41C70.5904 41.62 69.9904 41.75 69.7204 41.75C69.1304 41.75 68.7804 41.45 68.6804 41.14H71.9604V40.77C71.9604 39.07 70.8704 38.05 69.4504 38.05C67.8904 38.05 66.8204 39.18 66.8204 40.58C66.8204 42.17 68.0004 43.12 69.5104 43.12ZM70.2504 40H68.6604C68.7204 39.78 68.9004 39.42 69.4504 39.42C70.0304 39.42 70.2004 39.79 70.2504 40ZM78.7401 38.17V41.44H77.4601V38.17H75.6601V41.44H74.3801V38.17H72.5801V43H80.5401V38.17H78.7401ZM83.3449 43V41.26H84.8149V43H86.6149V38.17H84.8149V39.7H83.3449V38.17H81.5449V43H83.3449ZM89.9991 43.12C91.7191 43.12 92.7191 41.93 92.7191 40.58C92.7191 39.23 91.7191 38.05 89.9991 38.05C88.2891 38.05 87.2891 39.23 87.2891 40.58C87.2891 41.93 88.2891 43.12 89.9991 43.12ZM89.9991 41.53C89.4491 41.53 89.1391 41.12 89.1391 40.58C89.1391 40.05 89.4491 39.64 89.9991 39.64C90.5591 39.64 90.8691 40.05 90.8691 40.58C90.8691 41.12 90.5591 41.53 89.9991 41.53ZM99.5295 43C100.599 43 101.109 42.36 101.109 41.68C101.109 41.08 100.719 40.62 100.159 40.51C100.639 40.37 100.999 39.98 100.999 39.41C100.999 38.84 100.519 38.17 99.4195 38.17H95.9395V43H99.5295ZM99.0395 41.67H97.7395V41.22H99.0395C99.1895 41.22 99.2995 41.31 99.2995 41.45C99.2995 41.58 99.1895 41.67 99.0395 41.67ZM98.9695 39.9H97.7395V39.5H98.9695C99.0995 39.5 99.1895 39.59 99.1895 39.7C99.1895 39.81 99.0895 39.9 98.9695 39.9ZM102.121 38.17V43H105.441C106.601 43 107.291 42.22 107.291 41.31C107.291 40.39 106.671 39.61 105.441 39.61H103.921V38.17H102.121ZM105.101 41.02C105.321 41.02 105.471 41.14 105.471 41.31C105.471 41.47 105.321 41.59 105.101 41.59H103.921V41.02H105.101ZM109.501 43V38.17H107.701V43H109.501ZM115.57 43V38.17H110.5V43H112.3V39.73H113.77V43H115.57ZM118.954 43.12C120.674 43.12 121.674 41.93 121.674 40.58C121.674 39.23 120.674 38.05 118.954 38.05C117.244 38.05 116.244 39.23 116.244 40.58C116.244 41.93 117.244 43.12 118.954 43.12ZM118.954 41.53C118.404 41.53 118.094 41.12 118.094 40.58C118.094 40.05 118.404 39.64 118.954 39.64C119.514 39.64 119.824 40.05 119.824 40.58C119.824 41.12 119.514 41.53 118.954 41.53ZM122.026 43.12C123.636 43.12 124.266 42.2 124.476 40.72L124.616 39.73H125.616V43H127.416V38.17H123.076L122.736 40.48C122.606 41.41 122.356 41.65 122.026 41.65V43.12ZM130.22 43V41.26H131.69V43H133.49V38.17H131.69V39.7H130.22V38.17H128.42V43H130.22ZM136.214 43L137.764 40.71V43H139.564V38.17H137.744L136.294 40.32V38.17H134.494V43H136.214ZM143.308 43V39.73H144.578V38.17H140.218V39.73H141.508V43H143.308ZM145.227 38.17V43H148.547C149.707 43 150.397 42.22 150.397 41.31C150.397 40.39 149.777 39.61 148.547 39.61H147.027V38.17H145.227ZM148.207 41.02C148.427 41.02 148.577 41.14 148.577 41.31C148.577 41.47 148.427 41.59 148.207 41.59H147.027V41.02H148.207ZM155.425 43.12C156.925 43.11 157.885 42.52 157.875 41.64C157.875 40.97 157.175 40.55 156.565 40.51C157.265 40.39 157.785 39.93 157.785 39.41C157.775 38.6 156.995 38.05 155.295 38.06C154.405 38.06 153.655 38.4 153.165 38.88L154.015 39.89C154.365 39.57 154.825 39.4 155.385 39.4C155.725 39.4 155.925 39.5 155.925 39.64C155.925 39.79 155.885 39.91 155.365 39.91H154.465V41.23H155.365C155.845 41.23 156.015 41.37 156.015 41.53C156.015 41.67 155.875 41.77 155.425 41.77C154.995 41.77 154.355 41.63 153.915 41.31L153.115 42.36C153.575 42.8 154.405 43.12 155.425 43.12ZM163.137 43V40.08C163.137 38.47 161.967 38.05 160.767 38.05C160.037 38.05 159.137 38.26 158.487 38.78L159.097 39.89C159.477 39.6 159.987 39.42 160.437 39.42C161.027 39.42 161.337 39.68 161.337 40.02V40.52C161.077 40.19 160.507 39.99 159.877 39.99C159.157 39.99 158.217 40.33 158.217 41.53C158.217 42.63 159.157 43.12 159.877 43.12C160.477 43.12 161.067 42.88 161.337 42.54V43H163.137ZM160.627 41.95C160.327 41.95 159.997 41.86 159.997 41.56C159.997 41.26 160.327 41.16 160.627 41.16C160.907 41.16 161.217 41.25 161.337 41.42V41.69C161.217 41.86 160.907 41.95 160.627 41.95ZM163.813 44.23H165.613V43H167.933V44.23H169.733V41.44H169.203V38.17H164.863L164.523 40.48C164.393 41.41 164.143 41.5 163.813 41.5V44.23ZM166.403 39.73H167.403V41.44H165.913C166.113 41.2 166.233 40.88 166.293 40.48L166.403 39.73ZM174.953 43V40.08C174.953 38.47 173.783 38.05 172.583 38.05C171.853 38.05 170.953 38.26 170.303 38.78L170.913 39.89C171.293 39.6 171.803 39.42 172.253 39.42C172.843 39.42 173.153 39.68 173.153 40.02V40.52C172.893 40.19 172.323 39.99 171.693 39.99C170.973 39.99 170.033 40.33 170.033 41.53C170.033 42.63 170.973 43.12 171.693 43.12C172.293 43.12 172.883 42.88 173.153 42.54V43H174.953ZM172.443 41.95C172.143 41.95 171.813 41.86 171.813 41.56C171.813 41.26 172.143 41.16 172.443 41.16C172.723 41.16 173.033 41.25 173.153 41.42V41.69C173.033 41.86 172.723 41.95 172.443 41.95ZM177.749 43V41.26H179.219V43H181.019V38.17H179.219V39.7H177.749V38.17H175.949V43H177.749ZM183.743 43L185.293 40.71V43H187.093V38.17H185.273L183.823 40.32V38.17H182.023V43H183.743ZM190.458 43.12C191.178 43.12 192.038 42.93 192.518 42.52L191.778 41.41C191.538 41.62 190.938 41.75 190.668 41.75C190.078 41.75 189.728 41.45 189.628 41.14H192.908V40.77C192.908 39.07 191.818 38.05 190.398 38.05C188.838 38.05 187.768 39.18 187.768 40.58C187.768 42.17 188.948 43.12 190.458 43.12ZM191.198 40H189.608C189.668 39.78 189.848 39.42 190.398 39.42C190.978 39.42 191.148 39.79 191.198 40ZM195.567 42.27C195.567 41.45 195.017 40.98 194.407 40.98C193.847 40.98 193.367 41.45 193.367 42.03C193.367 42.59 193.757 42.96 194.237 42.96C194.347 42.96 194.447 42.94 194.497 42.92C194.367 43.3 193.907 43.74 193.587 43.88L194.317 44.47C195.097 43.92 195.567 43.15 195.567 42.27ZM19.4181 55.12C21.1381 55.12 22.1381 53.93 22.1381 52.58C22.1381 51.23 21.1381 50.05 19.4181 50.05C17.7081 50.05 16.7081 51.23 16.7081 52.58C16.7081 53.93 17.7081 55.12 19.4181 55.12ZM19.4181 53.53C18.8681 53.53 18.5581 53.12 18.5581 52.58C18.5581 52.05 18.8681 51.64 19.4181 51.64C19.9781 51.64 20.2881 52.05 20.2881 52.58C20.2881 53.12 19.9781 53.53 19.4181 53.53ZM24.6196 55.12C26.1196 55.11 27.0796 54.52 27.0696 53.64C27.0696 52.97 26.3696 52.55 25.7596 52.51C26.4596 52.39 26.9796 51.93 26.9796 51.41C26.9696 50.6 26.1896 50.05 24.4896 50.06C23.5996 50.06 22.8496 50.4 22.3596 50.88L23.2096 51.89C23.5596 51.57 24.0196 51.4 24.5796 51.4C24.9196 51.4 25.1196 51.5 25.1196 51.64C25.1196 51.79 25.0796 51.91 24.5596 51.91H23.6596V53.23H24.5596C25.0396 53.23 25.2096 53.37 25.2096 53.53C25.2096 53.67 25.0696 53.77 24.6196 53.77C24.1896 53.77 23.5496 53.63 23.1096 53.31L22.3096 54.36C22.7696 54.8 23.5996 55.12 24.6196 55.12ZM29.5412 55V53.26H31.0112V55H32.8112V50.17H31.0112V51.7H29.5412V50.17H27.7412V55H29.5412ZM38.4054 55V52.08C38.4054 50.47 37.2354 50.05 36.0354 50.05C35.3054 50.05 34.4054 50.26 33.7554 50.78L34.3654 51.89C34.7454 51.6 35.2554 51.42 35.7054 51.42C36.2954 51.42 36.6054 51.68 36.6054 52.02V52.52C36.3454 52.19 35.7754 51.99 35.1454 51.99C34.4254 51.99 33.4854 52.33 33.4854 53.53C33.4854 54.63 34.4254 55.12 35.1454 55.12C35.7454 55.12 36.3354 54.88 36.6054 54.54V55H38.4054ZM35.8954 53.95C35.5954 53.95 35.2654 53.86 35.2654 53.56C35.2654 53.26 35.5954 53.16 35.8954 53.16C36.1754 53.16 36.4854 53.25 36.6054 53.42V53.69C36.4854 53.86 36.1754 53.95 35.8954 53.95ZM44.5914 55L42.8214 52.37L44.4814 50.17H42.3114L41.2014 51.89V50.17H39.4014V55H41.2014V53.91L41.5514 53.44L42.3814 55H44.5914ZM47.2501 55.12C48.9701 55.12 49.9701 53.93 49.9701 52.58C49.9701 51.23 48.9701 50.05 47.2501 50.05C45.5401 50.05 44.5401 51.23 44.5401 52.58C44.5401 53.93 45.5401 55.12 47.2501 55.12ZM47.2501 53.53C46.7001 53.53 46.3901 53.12 46.3901 52.58C46.3901 52.05 46.7001 51.64 47.2501 51.64C47.8101 51.64 48.1201 52.05 48.1201 52.58C48.1201 53.12 47.8101 53.53 47.2501 53.53ZM57.0716 55V50.17H54.6916L53.8516 52.5L53.0216 50.17H50.6416V55H52.4416V52.37L53.3716 55H54.3516L55.2816 52.37V55H57.0716ZM58.0732 50.17V55H61.3932C62.5532 55 63.2432 54.22 63.2432 53.31C63.2432 52.39 62.6232 51.61 61.3932 51.61H59.8732V50.17H58.0732ZM61.0532 53.02C61.2732 53.02 61.4232 53.14 61.4232 53.31C61.4232 53.47 61.2732 53.59 61.0532 53.59H59.8732V53.02H61.0532ZM66.2931 55.12C67.3931 55.12 68.0731 54.61 68.3431 54.21L67.1831 53.11C67.0331 53.33 66.7531 53.53 66.3731 53.53C65.8631 53.53 65.4231 53.2 65.4231 52.58C65.4231 51.96 65.8631 51.64 66.3731 51.64C66.7531 51.64 67.0331 51.82 67.1831 52.05L68.3431 50.96C68.0731 50.55 67.3931 50.05 66.2931 50.05C64.7631 50.05 63.5831 51.05 63.5831 52.58C63.5831 54.12 64.7631 55.12 66.2931 55.12ZM70.8226 55L71.4926 53.56H72.2026V55H74.0026V50.17H70.6826C69.5226 50.17 68.8326 50.95 68.8326 51.86C68.8326 52.79 69.4126 53.22 69.7726 53.38L68.8226 55H70.8226ZM71.0226 52.15C70.8026 52.15 70.6526 52.03 70.6526 51.86C70.6526 51.7 70.8026 51.58 71.0226 51.58H72.2026V52.15H71.0226ZM79.8771 55.12C80.9771 55.12 81.6571 54.61 81.9271 54.21L80.7671 53.11C80.6171 53.33 80.3371 53.53 79.9571 53.53C79.4471 53.53 79.0071 53.2 79.0071 52.58C79.0071 51.96 79.4471 51.64 79.9571 51.64C80.3371 51.64 80.6171 51.82 80.7671 52.05L81.9271 50.96C81.6571 50.55 80.9771 50.05 79.8771 50.05C78.3471 50.05 77.1671 51.05 77.1671 52.58C77.1671 54.12 78.3471 55.12 79.8771 55.12ZM90.2554 55L88.4854 52.37L90.1454 50.17H87.9754L86.8654 51.89V50.17H85.0654V55H86.8654V53.91L87.2154 53.44L88.0454 55H90.2554ZM93.7918 55.12C94.9918 55.12 95.9118 54.24 95.9118 52.58C95.9118 50.93 94.9918 50.05 93.7918 50.05C93.2918 50.05 92.8218 50.22 92.4318 50.68V50.17H90.6318V56.84H92.4318V54.49C92.8318 54.95 93.2918 55.12 93.7918 55.12ZM93.1718 53.53C92.9418 53.53 92.5918 53.4 92.4318 53.2V51.97C92.6018 51.76 92.9418 51.64 93.1718 51.64C93.6518 51.64 94.0718 51.98 94.0718 52.58C94.0718 53.19 93.6518 53.53 93.1718 53.53ZM101.169 55V52.08C101.169 50.47 99.9991 50.05 98.7991 50.05C98.0691 50.05 97.1691 50.26 96.5191 50.78L97.1291 51.89C97.5091 51.6 98.0191 51.42 98.4691 51.42C99.0591 51.42 99.3691 51.68 99.3691 52.02V52.52C99.1091 52.19 98.5391 51.99 97.9091 51.99C97.1891 51.99 96.2491 52.33 96.2491 53.53C96.2491 54.63 97.1891 55.12 97.9091 55.12C98.5091 55.12 99.0991 54.88 99.3691 54.54V55H101.169ZM98.6591 53.95C98.3591 53.95 98.0291 53.86 98.0291 53.56C98.0291 53.26 98.3591 53.16 98.6591 53.16C98.9391 53.16 99.2491 53.25 99.3691 53.42V53.69C99.2491 53.86 98.9391 53.95 98.6591 53.95ZM104.905 55V51.73H106.175V50.17H101.815V51.73H103.105V55H104.905ZM112.013 55L110.243 52.37L111.903 50.17H109.733L108.623 51.89V50.17H106.823V55H108.623V53.91L108.973 53.44L109.803 55H112.013ZM114.672 55.12C116.392 55.12 117.392 53.93 117.392 52.58C117.392 51.23 116.392 50.05 114.672 50.05C112.962 50.05 111.962 51.23 111.962 52.58C111.962 53.93 112.962 55.12 114.672 55.12ZM114.672 53.53C114.122 53.53 113.812 53.12 113.812 52.58C113.812 52.05 114.122 51.64 114.672 51.64C115.232 51.64 115.542 52.05 115.542 52.58C115.542 53.12 115.232 53.53 114.672 53.53ZM119.783 55L121.333 52.71V55H123.133V50.17H121.313L119.863 52.32V50.17H118.063V55H119.783ZM122.353 48.88L121.603 48.26C121.363 48.6 121.023 48.79 120.603 48.79C120.163 48.79 119.823 48.57 119.603 48.26L118.843 48.88C119.253 49.42 119.893 49.76 120.603 49.76C121.323 49.76 121.953 49.42 122.353 48.88ZM128.407 55L129.957 52.71V55H131.757V50.17H129.937L128.487 52.32V50.17H126.687V55H128.407ZM134.561 55V53.26H136.031V55H137.831V50.17H136.031V51.7H134.561V50.17H132.761V55H134.561ZM140.465 50.05C139.355 50.05 138.505 50.93 138.505 52.59C138.505 54.24 139.355 55.12 140.465 55.12C140.935 55.12 141.365 54.95 141.725 54.49V56.84H143.525V54.49C143.895 54.95 144.315 55.12 144.785 55.12C145.895 55.12 146.745 54.24 146.745 52.58C146.745 50.93 145.895 50.05 144.785 50.05C144.315 50.05 143.885 50.22 143.525 50.68V48.33H141.725V50.68C141.355 50.22 140.935 50.05 140.465 50.05ZM141.085 51.64C141.285 51.64 141.585 51.77 141.725 51.97V53.2C141.575 53.41 141.285 53.53 141.085 53.53C140.675 53.53 140.315 53.19 140.315 52.59C140.315 51.98 140.675 51.64 141.085 51.64ZM144.165 53.53C143.965 53.53 143.665 53.4 143.525 53.2V51.97C143.675 51.76 143.965 51.64 144.165 51.64C144.575 51.64 144.935 51.98 144.935 52.58C144.935 53.19 144.575 53.53 144.165 53.53ZM149.799 55.12C151.519 55.12 152.519 53.93 152.519 52.58C152.519 51.23 151.519 50.05 149.799 50.05C148.089 50.05 147.089 51.23 147.089 52.58C147.089 53.93 148.089 55.12 149.799 55.12ZM149.799 53.53C149.249 53.53 148.939 53.12 148.939 52.58C148.939 52.05 149.249 51.64 149.799 51.64C150.359 51.64 150.669 52.05 150.669 52.58C150.669 53.12 150.359 53.53 149.799 53.53ZM156.35 55.12C157.55 55.12 158.47 54.24 158.47 52.58C158.47 50.93 157.55 50.05 156.35 50.05C155.85 50.05 155.38 50.22 154.99 50.68V50.17H153.19V56.84H154.99V54.49C155.39 54.95 155.85 55.12 156.35 55.12ZM155.73 53.53C155.5 53.53 155.15 53.4 154.99 53.2V51.97C155.16 51.76 155.5 51.64 155.73 51.64C156.21 51.64 156.63 51.98 156.63 52.58C156.63 53.19 156.21 53.53 155.73 53.53ZM165.568 55V50.17H163.188L162.348 52.5L161.518 50.17H159.138V55H160.938V52.37L161.868 55H162.848L163.778 52.37V55H165.568ZM171.159 55V52.08C171.159 50.47 169.989 50.05 168.789 50.05C168.059 50.05 167.159 50.26 166.509 50.78L167.119 51.89C167.499 51.6 168.009 51.42 168.459 51.42C169.049 51.42 169.359 51.68 169.359 52.02V52.52C169.099 52.19 168.529 51.99 167.899 51.99C167.179 51.99 166.239 52.33 166.239 53.53C166.239 54.63 167.179 55.12 167.899 55.12C168.499 55.12 169.089 54.88 169.359 54.54V55H171.159ZM168.649 53.95C168.349 53.95 168.019 53.86 168.019 53.56C168.019 53.26 168.349 53.16 168.649 53.16C168.929 53.16 169.239 53.25 169.359 53.42V53.69C169.239 53.86 168.929 53.95 168.649 53.95ZM175.955 56.23H177.755V53.44H177.225V50.17H175.425V53.44H173.955V50.17H172.155V55H175.955V56.23ZM180.106 55L181.656 52.71V55H183.456V50.17H181.636L180.186 52.32V50.17H178.386V55H180.106ZM186.82 55.12C187.54 55.12 188.4 54.93 188.88 54.52L188.14 53.41C187.9 53.62 187.3 53.75 187.03 53.75C186.44 53.75 186.09 53.45 185.99 53.14H189.27V52.77C189.27 51.07 188.18 50.05 186.76 50.05C185.2 50.05 184.13 51.18 184.13 52.58C184.13 54.17 185.31 55.12 186.82 55.12ZM187.56 52H185.97C186.03 51.78 186.21 51.42 186.76 51.42C187.34 51.42 187.51 51.79 187.56 52ZM191.61 55L193.16 52.71V55H194.96V50.17H193.14L191.69 52.32V50.17H189.89V55H191.61ZM194.18 48.88L193.43 48.26C193.19 48.6 192.85 48.79 192.43 48.79C191.99 48.79 191.65 48.57 191.43 48.26L190.67 48.88C191.08 49.42 191.72 49.76 192.43 49.76C193.15 49.76 193.78 49.42 194.18 48.88ZM25.1407 67.12C26.8607 67.12 27.8607 65.93 27.8607 64.58C27.8607 63.23 26.8607 62.05 25.1407 62.05C23.4307 62.05 22.4307 63.23 22.4307 64.58C22.4307 65.93 23.4307 67.12 25.1407 67.12ZM25.1407 65.53C24.5907 65.53 24.2807 65.12 24.2807 64.58C24.2807 64.05 24.5907 63.64 25.1407 63.64C25.7007 63.64 26.0107 64.05 26.0107 64.58C26.0107 65.12 25.7007 65.53 25.1407 65.53ZM36.2711 67L34.5011 64.37L36.1611 62.17H33.9911L32.8811 63.89V62.17H31.0811V67H32.8811V65.91L33.2311 65.44L34.0611 67H36.2711ZM41.2375 67V64.08C41.2375 62.47 40.0675 62.05 38.8675 62.05C38.1375 62.05 37.2375 62.26 36.5875 62.78L37.1975 63.89C37.5775 63.6 38.0875 63.42 38.5375 63.42C39.1275 63.42 39.4375 63.68 39.4375 64.02V64.52C39.1775 64.19 38.6075 63.99 37.9775 63.99C37.2575 63.99 36.3175 64.33 36.3175 65.53C36.3175 66.63 37.2575 67.12 37.9775 67.12C38.5775 67.12 39.1675 66.88 39.4375 66.54V67H41.2375ZM38.7275 65.95C38.4275 65.95 38.0975 65.86 38.0975 65.56C38.0975 65.26 38.4275 65.16 38.7275 65.16C39.0075 65.16 39.3175 65.25 39.4375 65.42V65.69C39.3175 65.86 39.0075 65.95 38.7275 65.95ZM43.8234 67L44.6534 65.44L44.8034 65.64V67H46.6034V65.64L46.7534 65.44L47.5834 67H49.7934L48.0234 64.37L49.6834 62.17H47.5134L46.6034 63.58V62.17H44.8034V63.58L43.8934 62.17H41.7234L43.3834 64.37L41.6134 67H43.8234ZM49.8529 68.23H51.6529V67H53.9729V68.23H55.7729V65.44H55.2429V62.17H50.9029L50.5629 64.48C50.4329 65.41 50.1829 65.5 49.8529 65.5V68.23ZM52.4429 63.73H53.4429V65.44H51.9529C52.1529 65.2 52.2729 64.88 52.3329 64.48L52.4429 63.73ZM58.7833 67.12C60.5033 67.12 61.5033 65.93 61.5033 64.58C61.5033 63.23 60.5033 62.05 58.7833 62.05C57.0733 62.05 56.0733 63.23 56.0733 64.58C56.0733 65.93 57.0733 67.12 58.7833 67.12ZM58.7833 65.53C58.2333 65.53 57.9233 65.12 57.9233 64.58C57.9233 64.05 58.2333 63.64 58.7833 63.64C59.3433 63.64 59.6533 64.05 59.6533 64.58C59.6533 65.12 59.3433 65.53 58.7833 65.53ZM68.6048 67V62.17H66.2248L65.3848 64.5L64.5548 62.17H62.1748V67H63.9748V64.37L64.9048 67H65.8848L66.8148 64.37V67H68.6048ZM77.2253 67V62.17H72.1553V67H73.9553V63.73H75.4253V67H77.2253ZM81.3895 67.12C82.5895 67.12 83.5095 66.24 83.5095 64.58C83.5095 62.93 82.5895 62.05 81.3895 62.05C80.8895 62.05 80.4195 62.22 80.0295 62.68V62.17H78.2295V68.84H80.0295V66.49C80.4295 66.95 80.8895 67.12 81.3895 67.12ZM80.7695 65.53C80.5395 65.53 80.1895 65.4 80.0295 65.2V63.97C80.1995 63.76 80.5395 63.64 80.7695 63.64C81.2495 63.64 81.6695 63.98 81.6695 64.58C81.6695 65.19 81.2495 65.53 80.7695 65.53ZM86.5368 67.12C87.2568 67.12 88.1168 66.93 88.5968 66.52L87.8568 65.41C87.6168 65.62 87.0168 65.75 86.7468 65.75C86.1568 65.75 85.8068 65.45 85.7068 65.14H88.9868V64.77C88.9868 63.07 87.8968 62.05 86.4768 62.05C84.9168 62.05 83.8468 63.18 83.8468 64.58C83.8468 66.17 85.0268 67.12 86.5368 67.12ZM87.2768 64H85.6868C85.7468 63.78 85.9268 63.42 86.4768 63.42C87.0568 63.42 87.2268 63.79 87.2768 64ZM89.2864 68.23H91.0864V67H93.4064V68.23H95.2064V65.44H94.6764V62.17H90.3364L89.9964 64.48C89.8664 65.41 89.6164 65.5 89.2864 65.5V68.23ZM91.8764 63.73H92.8764V65.44H91.3864C91.5864 65.2 91.7064 64.88 91.7664 64.48L91.8764 63.73ZM100.907 67V62.17H95.8369V67H97.6369V63.73H99.1069V67H100.907ZM105.071 67.12C106.271 67.12 107.191 66.24 107.191 64.58C107.191 62.93 106.271 62.05 105.071 62.05C104.571 62.05 104.101 62.22 103.711 62.68V62.17H101.911V68.84H103.711V66.49C104.111 66.95 104.571 67.12 105.071 67.12ZM104.451 65.53C104.221 65.53 103.871 65.4 103.711 65.2V63.97C103.881 63.76 104.221 63.64 104.451 63.64C104.931 63.64 105.351 63.98 105.351 64.58C105.351 65.19 104.931 65.53 104.451 65.53ZM109.578 67L111.128 64.71V67H112.928V62.17H111.108L109.658 64.32V62.17H107.858V67H109.578ZM115.823 67L116.493 65.56H117.203V67H119.003V62.17H115.683C114.523 62.17 113.833 62.95 113.833 63.86C113.833 64.79 114.413 65.22 114.773 65.38L113.823 67H115.823ZM116.023 64.15C115.803 64.15 115.653 64.03 115.653 63.86C115.653 63.7 115.803 63.58 116.023 63.58H117.203V64.15H116.023ZM122.688 67V63.73H123.958V62.17H119.598V63.73H120.888V67H122.688ZM126.326 67L127.876 64.71V67H129.676V62.17H127.856L126.406 64.32V62.17H124.606V67H126.326ZM132.401 67L133.951 64.71V67H135.751V62.17H133.931L132.481 64.32V62.17H130.681V67H132.401ZM137.665 67.12C138.245 67.12 138.735 66.63 138.735 66.05C138.735 65.47 138.245 64.98 137.665 64.98C137.085 64.98 136.595 65.47 136.595 66.05C136.595 66.63 137.085 67.12 137.665 67.12ZM141.836 68.23H143.856V67H147.166V68.23H149.186V65.24H148.606V60.33H143.396L142.986 63.69C142.826 64.96 142.436 65.23 141.836 65.34V68.23ZM144.996 63.84L145.216 62.09H146.586V65.24H144.346C144.686 64.89 144.926 64.43 144.996 63.84ZM149.492 67.12C151.102 67.12 151.732 66.2 151.942 64.72L152.082 63.73H153.082V67H154.882V62.17H150.542L150.202 64.48C150.072 65.41 149.822 65.65 149.492 65.65V67.12ZM157.776 67L158.446 65.56H159.156V67H160.956V62.17H157.636C156.476 62.17 155.786 62.95 155.786 63.86C155.786 64.79 156.366 65.22 156.726 65.38L155.776 67H157.776ZM157.976 64.15C157.756 64.15 157.606 64.03 157.606 63.86C157.606 63.7 157.756 63.58 157.976 63.58H159.156V64.15H157.976ZM166.09 67.12C167.62 67.12 168.8 66.12 168.8 64.58C168.8 63.05 167.62 62.05 166.09 62.05C164.99 62.05 164.31 62.55 164.04 62.96L165.13 63.86C165.31 63.61 165.6 63.41 165.97 63.41C166.36 63.41 166.69 63.61 166.85 64H165.47V65.14H166.86C166.7 65.55 166.36 65.77 165.97 65.77C165.6 65.77 165.31 65.56 165.13 65.3L164.04 66.21C164.31 66.61 164.99 67.12 166.09 67.12ZM172.21 67V63.73H173.48V62.17H169.12V63.73H170.41V67H172.21ZM176.508 67.12C178.228 67.12 179.228 65.93 179.228 64.58C179.228 63.23 178.228 62.05 176.508 62.05C174.798 62.05 173.798 63.23 173.798 64.58C173.798 65.93 174.798 67.12 176.508 67.12ZM176.508 65.53C175.958 65.53 175.648 65.12 175.648 64.58C175.648 64.05 175.958 63.64 176.508 63.64C177.068 63.64 177.378 64.05 177.378 64.58C177.378 65.12 177.068 65.53 176.508 65.53ZM183.819 62.17H179.899V67H181.699V63.73H183.819V62.17ZM186.85 67.12C188.57 67.12 189.57 65.93 189.57 64.58C189.57 63.23 188.57 62.05 186.85 62.05C185.14 62.05 184.14 63.23 184.14 64.58C184.14 65.93 185.14 67.12 186.85 67.12ZM186.85 65.53C186.3 65.53 185.99 65.12 185.99 64.58C185.99 64.05 186.3 63.64 186.85 63.64C187.41 63.64 187.72 64.05 187.72 64.58C187.72 65.12 187.41 65.53 186.85 65.53ZM31.6457 79V77.26H33.1157V79H34.9157V74.17H33.1157V75.7H31.6457V74.17H29.8457V79H31.6457ZM35.8699 80.88C36.0399 80.93 36.4399 80.96 36.5699 80.96C37.5899 80.93 38.3899 80.72 38.8199 79.6L40.9199 74.17H39.0199L38.0899 76.93L37.1699 74.17H35.2699L37.1699 79.08L37.1299 79.18C37.0699 79.31 36.8499 79.37 36.4999 79.37C36.3799 79.37 36.2299 79.34 36.1199 79.28L35.8699 80.88ZM42.8615 79L43.6915 77.44L43.8415 77.64V79H45.6415V77.64L45.7915 77.44L46.6215 79H48.8315L47.0615 76.37L48.7215 74.17H46.5515L45.6415 75.58V74.17H43.8415V75.58L42.9315 74.17H40.7615L42.4215 76.37L40.6515 79H42.8615ZM51.0109 79V77.26H52.4809V79H54.2809V74.17H52.4809V75.7H51.0109V74.17H49.2109V79H51.0109ZM57.6652 79.12C59.3852 79.12 60.3852 77.93 60.3852 76.58C60.3852 75.23 59.3852 74.05 57.6652 74.05C55.9552 74.05 54.9552 75.23 54.9552 76.58C54.9552 77.93 55.9552 79.12 57.6652 79.12ZM57.6652 77.53C57.1152 77.53 56.8052 77.12 56.8052 76.58C56.8052 76.05 57.1152 75.64 57.6652 75.64C58.2252 75.64 58.5352 76.05 58.5352 76.58C58.5352 77.12 58.2252 77.53 57.6652 77.53ZM65.4055 79V77.26H66.8755V79H68.6755V74.17H66.8755V75.7H65.4055V74.17H63.6055V79H65.4055ZM74.2697 79V76.08C74.2697 74.47 73.0997 74.05 71.8997 74.05C71.1697 74.05 70.2697 74.26 69.6197 74.78L70.2297 75.89C70.6097 75.6 71.1197 75.42 71.5697 75.42C72.1597 75.42 72.4697 75.68 72.4697 76.02V76.52C72.2097 76.19 71.6397 75.99 71.0097 75.99C70.2897 75.99 69.3497 76.33 69.3497 77.53C69.3497 78.63 70.2897 79.12 71.0097 79.12C71.6097 79.12 72.1997 78.88 72.4697 78.54V79H74.2697ZM71.7597 77.95C71.4597 77.95 71.1297 77.86 71.1297 77.56C71.1297 77.26 71.4597 77.16 71.7597 77.16C72.0397 77.16 72.3497 77.25 72.4697 77.42V77.69C72.3497 77.86 72.0397 77.95 71.7597 77.95ZM78.8556 79C79.9256 79 80.4356 78.36 80.4356 77.68C80.4356 77.08 80.0456 76.62 79.4856 76.51C79.9656 76.37 80.3256 75.98 80.3256 75.41C80.3256 74.84 79.8456 74.17 78.7456 74.17H75.2656V79H78.8556ZM78.3656 77.67H77.0656V77.22H78.3656C78.5156 77.22 78.6256 77.31 78.6256 77.45C78.6256 77.58 78.5156 77.67 78.3656 77.67ZM78.2956 75.9H77.0656V75.5H78.2956C78.4256 75.5 78.5156 75.59 78.5156 75.7C78.5156 75.81 78.4156 75.9 78.2956 75.9ZM83.8073 79.12C84.5273 79.12 85.3873 78.93 85.8673 78.52L85.1273 77.41C84.8873 77.62 84.2873 77.75 84.0173 77.75C83.4273 77.75 83.0773 77.45 82.9773 77.14H86.2573V76.77C86.2573 75.07 85.1673 74.05 83.7473 74.05C82.1873 74.05 81.1173 75.18 81.1173 76.58C81.1173 78.17 82.2973 79.12 83.8073 79.12ZM84.5473 76H82.9573C83.0173 75.78 83.1973 75.42 83.7473 75.42C84.3273 75.42 84.4973 75.79 84.5473 76ZM89.257 79.12C90.357 79.12 91.037 78.61 91.307 78.21L90.147 77.11C89.997 77.33 89.717 77.53 89.337 77.53C88.827 77.53 88.387 77.2 88.387 76.58C88.387 75.96 88.827 75.64 89.337 75.64C89.717 75.64 89.997 75.82 90.147 76.05L91.307 74.96C91.037 74.55 90.357 74.05 89.257 74.05C87.727 74.05 86.547 75.05 86.547 76.58C86.547 78.12 87.727 79.12 89.257 79.12ZM94.6365 79V75.73H95.9065V74.17H91.5465V75.73H92.8365V79H94.6365ZM98.2747 79L99.8247 76.71V79H101.625V74.17H99.8047L98.3547 76.32V74.17H96.5547V79H98.2747ZM110.368 79L108.598 76.37L110.258 74.17H108.088L106.978 75.89V74.17H105.178V79H106.978V77.91L107.328 77.44L108.158 79H110.368ZM110.694 80.88C110.864 80.93 111.264 80.96 111.394 80.96C112.414 80.93 113.214 80.72 113.644 79.6L115.744 74.17H113.844L112.914 76.93L111.994 74.17H110.094L111.994 79.08L111.954 79.18C111.894 79.31 111.674 79.37 111.324 79.37C111.204 79.37 111.054 79.34 110.944 79.28L110.694 80.88ZM119.256 79.12C120.456 79.12 121.376 78.24 121.376 76.58C121.376 74.93 120.456 74.05 119.256 74.05C118.756 74.05 118.286 74.22 117.896 74.68V74.17H116.096V80.84H117.896V78.49C118.296 78.95 118.756 79.12 119.256 79.12ZM118.636 77.53C118.406 77.53 118.056 77.4 117.896 77.2V75.97C118.066 75.76 118.406 75.64 118.636 75.64C119.116 75.64 119.536 75.98 119.536 76.58C119.536 77.19 119.116 77.53 118.636 77.53ZM124.423 79.12C125.523 79.12 126.203 78.61 126.473 78.21L125.313 77.11C125.163 77.33 124.883 77.53 124.503 77.53C123.993 77.53 123.553 77.2 123.553 76.58C123.553 75.96 123.993 75.64 124.503 75.64C124.883 75.64 125.163 75.82 125.313 76.05L126.473 74.96C126.203 74.55 125.523 74.05 124.423 74.05C122.893 74.05 121.713 75.05 121.713 76.58C121.713 78.12 122.893 79.12 124.423 79.12ZM129.443 79.12C131.163 79.12 132.163 77.93 132.163 76.58C132.163 75.23 131.163 74.05 129.443 74.05C127.733 74.05 126.733 75.23 126.733 76.58C126.733 77.93 127.733 79.12 129.443 79.12ZM129.443 77.53C128.893 77.53 128.583 77.12 128.583 76.58C128.583 76.05 128.893 75.64 129.443 75.64C130.003 75.64 130.313 76.05 130.313 76.58C130.313 77.12 130.003 77.53 129.443 77.53ZM135.994 79.12C137.194 79.12 138.114 78.24 138.114 76.58C138.114 74.93 137.194 74.05 135.994 74.05C135.494 74.05 135.024 74.22 134.634 74.68V74.17H132.834V80.84H134.634V78.49C135.034 78.95 135.494 79.12 135.994 79.12ZM135.374 77.53C135.144 77.53 134.794 77.4 134.634 77.2V75.97C134.804 75.76 135.144 75.64 135.374 75.64C135.854 75.64 136.274 75.98 136.274 76.58C136.274 77.19 135.854 77.53 135.374 77.53ZM143.13 79V77.26H144.6V79H146.4V74.17H144.6V75.7H143.13V74.17H141.33V79H143.13ZM151.994 79V76.08C151.994 74.47 150.824 74.05 149.624 74.05C148.894 74.05 147.994 74.26 147.344 74.78L147.954 75.89C148.334 75.6 148.844 75.42 149.294 75.42C149.884 75.42 150.194 75.68 150.194 76.02V76.52C149.934 76.19 149.364 75.99 148.734 75.99C148.014 75.99 147.074 76.33 147.074 77.53C147.074 78.63 148.014 79.12 148.734 79.12C149.334 79.12 149.924 78.88 150.194 78.54V79H151.994ZM149.484 77.95C149.184 77.95 148.854 77.86 148.854 77.56C148.854 77.26 149.184 77.16 149.484 77.16C149.764 77.16 150.074 77.25 150.194 77.42V77.69C150.074 77.86 149.764 77.95 149.484 77.95ZM157.169 74.05C156.059 74.05 155.209 74.93 155.209 76.59C155.209 78.24 156.059 79.12 157.169 79.12C157.639 79.12 158.069 78.95 158.429 78.49V80.84H160.229V78.49C160.599 78.95 161.019 79.12 161.489 79.12C162.599 79.12 163.449 78.24 163.449 76.58C163.449 74.93 162.599 74.05 161.489 74.05C161.019 74.05 160.589 74.22 160.229 74.68V72.33H158.429V74.68C158.059 74.22 157.639 74.05 157.169 74.05ZM157.789 75.64C157.989 75.64 158.289 75.77 158.429 75.97V77.2C158.279 77.41 157.989 77.53 157.789 77.53C157.379 77.53 157.019 77.19 157.019 76.59C157.019 75.98 157.379 75.64 157.789 75.64ZM160.869 77.53C160.669 77.53 160.369 77.4 160.229 77.2V75.97C160.379 75.76 160.669 75.64 160.869 75.64C161.279 75.64 161.639 75.98 161.639 76.58C161.639 77.19 161.279 77.53 160.869 77.53ZM166.503 79.12C168.223 79.12 169.223 77.93 169.223 76.58C169.223 75.23 168.223 74.05 166.503 74.05C164.793 74.05 163.793 75.23 163.793 76.58C163.793 77.93 164.793 79.12 166.503 79.12ZM166.503 77.53C165.953 77.53 165.643 77.12 165.643 76.58C165.643 76.05 165.953 75.64 166.503 75.64C167.063 75.64 167.373 76.05 167.373 76.58C167.373 77.12 167.063 77.53 166.503 77.53ZM172.635 79V75.73H173.905V74.17H169.545V75.73H170.835V79H172.635ZM176.933 79.12C178.653 79.12 179.653 77.93 179.653 76.58C179.653 75.23 178.653 74.05 176.933 74.05C175.223 74.05 174.223 75.23 174.223 76.58C174.223 77.93 175.223 79.12 176.933 79.12ZM176.933 77.53C176.383 77.53 176.073 77.12 176.073 76.58C176.073 76.05 176.383 75.64 176.933 75.64C177.493 75.64 177.803 76.05 177.803 76.58C177.803 77.12 177.493 77.53 176.933 77.53ZM181.234 79.12C181.814 79.12 182.304 78.63 182.304 78.05C182.304 77.47 181.814 76.98 181.234 76.98C180.654 76.98 180.164 77.47 180.164 78.05C180.164 78.63 180.654 79.12 181.234 79.12Z" fill="black"/>
</svg>
