<svg width="78" height="56" viewBox="0 0 78 56" fill="none" xmlns="http://www.w3.org/2000/svg">
<path d="M70.406 53.4733L74.6717 53.2253L71.9933 49.8524L52.847 41.4697L51.2598 45.0906L70.406 53.4733Z" fill="#FC8C06" stroke="black" stroke-miterlimit="10" stroke-linecap="round" stroke-linejoin="round"/>
<path d="M51.3019 44.9425L52.7404 41.6192C53.9308 38.8911 52.6908 35.7166 49.9627 34.5261L39.1991 29.814L33.4453 42.9584L44.2089 47.6706C46.937 48.861 50.1115 47.621 51.3019 44.9425Z" fill="#FCC503" stroke="black" stroke-miterlimit="10" stroke-linecap="round" stroke-linejoin="round"/>
<path d="M31.7154 46.9264L40.9909 25.796C41.2885 25.1016 40.9909 24.308 40.2965 24.0104L17.8765 14.1396L7.50977 37.7501L29.9297 47.6208C30.5746 47.9184 31.4178 47.6208 31.7154 46.9264Z" fill="#FCC503" stroke="black" stroke-miterlimit="10" stroke-linecap="round" stroke-linejoin="round"/>
<path d="M7.45863 37.7495L17.8254 14.1391L13.8573 12.403C11.7244 11.4606 9.29391 12.4527 8.35148 14.5359L1.35763 30.5076C0.415195 32.6405 1.40722 35.071 3.49049 36.0135L7.45863 37.7495Z" fill="#FC8C06" stroke="black" stroke-miterlimit="10" stroke-linecap="round" stroke-linejoin="round"/>
<path d="M7.35852 52.5813L12.8147 40.1313L8.20172 38.0977L2.74554 50.5477C2.19992 51.8373 2.74556 53.2758 4.0352 53.871C9.09457 56.5991 6.7633 53.8214 7.35852 52.5813Z" fill="#FCC503" stroke="black" stroke-miterlimit="10" stroke-linecap="round" stroke-linejoin="round"/>
<path d="M28.6355 4.07032L23.1794 16.5204L18.5664 14.4867L24.0226 2.03666C24.5682 0.74702 26.0563 0.201384 27.3459 0.747002C32.8517 2.78067 29.2308 2.78068 28.6355 4.07032Z" fill="#FCC503" stroke="black" stroke-miterlimit="10" stroke-linecap="round" stroke-linejoin="round"/>
<path d="M14.6449 37.0489L22.166 19.9292L20.4859 19.1911L12.9648 36.3108L14.6449 37.0489Z" fill="#1D1D1B"/>
<path d="M17.9828 38.4957L25.5039 21.376L23.8237 20.6378L16.3027 37.7575L17.9828 38.4957Z" fill="#1D1D1B"/>
<path d="M21.3559 39.9581L28.877 22.8384L27.1968 22.1002L19.6757 39.2199L21.3559 39.9581Z" fill="#1D1D1B"/>
<path d="M53.5198 39.8467L50.5273 46.6582L52.1167 47.3564L55.1092 40.5449L53.5198 39.8467Z" fill="#FCC503" stroke="black" stroke-miterlimit="10" stroke-linecap="round" stroke-linejoin="round"/>
<path d="M72.7381 54.5153L77.0038 54.2673L74.3253 50.8944L55.1791 42.5117L53.5918 46.1326L72.7381 54.5153Z" fill="#FC8C06" stroke="black" stroke-miterlimit="10" stroke-linecap="round" stroke-linejoin="round"/>
<path d="M53.6386 45.9835L55.0771 42.6602C56.2675 39.9321 55.0275 36.7576 52.2994 35.5671L41.5358 30.855L35.7324 43.9994L46.496 48.7116C49.2737 49.902 52.4482 48.662 53.6386 45.9835Z" fill="#FCC503" stroke="black" stroke-miterlimit="10" stroke-linecap="round" stroke-linejoin="round"/>
<path d="M17.8273 14.1394L16.2401 13.445C14.1072 12.5026 11.6767 13.4946 10.7343 15.5779L3.74043 31.5496C2.798 33.6825 3.79006 36.113 5.87333 37.0554L7.46056 37.7499" fill="#FCC503"/>
<path d="M17.8273 14.1394L16.2401 13.445C14.1072 12.5026 11.6767 13.4946 10.7343 15.5779L3.74043 31.5496C2.798 33.6825 3.79006 36.113 5.87333 37.0554L7.46056 37.7499" stroke="black" stroke-miterlimit="10" stroke-linecap="round" stroke-linejoin="round"/>
<path d="M9.69052 53.6233L15.1467 41.1733L10.5338 39.1396L5.07757 51.5897C4.53195 52.8793 5.07759 54.3178 6.36723 54.913C7.65687 55.4586 9.1449 54.8634 9.69052 53.6233Z" fill="#FC8C06" stroke="black" stroke-miterlimit="10" stroke-linecap="round" stroke-linejoin="round"/>
<path d="M31.0184 5.11232L25.5622 17.5623L20.9492 15.5287L26.4054 3.07863C26.951 1.78899 28.4391 1.24338 29.7287 1.789C30.9688 2.33462 31.564 3.82267 31.0184 5.11232Z" fill="#FC8C06" stroke="black" stroke-miterlimit="10" stroke-linecap="round" stroke-linejoin="round"/>
<path d="M55.8597 40.9077L52.8672 47.7192L54.4565 48.4175L57.449 41.6059L55.8597 40.9077Z" fill="#FCC503" stroke="black" stroke-miterlimit="10" stroke-linecap="round" stroke-linejoin="round"/>
<path d="M34.0494 47.968L43.3249 26.8377C43.6225 26.1433 43.3249 25.3496 42.6305 25.052L17.8297 14.1396L7.46289 37.7501L32.2637 48.6624C32.9582 48.96 33.7518 48.6624 34.0494 47.968Z" fill="#FCC503" stroke="black" stroke-miterlimit="10" stroke-linecap="round" stroke-linejoin="round"/>
<path d="M17.3329 37.2538L24.1283 21.7781C24.3267 21.3317 24.1283 20.7861 23.6819 20.5876C23.2355 20.3892 22.6899 20.5877 22.4915 21.0341L15.6961 36.5098C15.4976 36.9562 15.696 37.5018 16.1424 37.7002C16.5889 37.8986 17.1345 37.7002 17.3329 37.2538Z" fill="black"/>
<path d="M20.6552 38.6923L27.4506 23.2166C27.649 22.7702 27.4506 22.2245 27.0042 22.0261C26.5578 21.8277 26.0121 22.0261 25.8137 22.4726L19.0183 37.9483C18.8199 38.3947 19.0183 38.9403 19.4647 39.1387C19.9111 39.3867 20.4568 39.1883 20.6552 38.6923Z" fill="black"/>
<path d="M24.0243 40.1806L30.8197 24.7049C31.0182 24.2584 30.8197 23.7128 30.3733 23.5144C29.9269 23.316 29.3813 23.5144 29.1829 23.9608L22.3875 39.4365C22.1891 39.8829 22.3874 40.4286 22.8339 40.627C23.2803 40.875 23.8259 40.627 24.0243 40.1806Z" fill="black"/>
</svg>
