<svg width="32" height="31" viewBox="0 0 32 31" fill="none" xmlns="http://www.w3.org/2000/svg">
<path d="M23.1622 13.8594L19.7266 9.13867L1.68204 22.2711L5.11765 26.9917L23.1622 13.8594Z" fill="#FCC503" stroke="black" stroke-width="1.09133" stroke-miterlimit="10"/>
<path d="M13.3836 13.7967L20.5816 15.7365" stroke="black" stroke-width="0.841249" stroke-miterlimit="10" stroke-linecap="round" stroke-linejoin="round"/>
<path d="M8.21552 17.5141L15.4582 19.5169" stroke="black" stroke-width="0.841249" stroke-miterlimit="10" stroke-linecap="round" stroke-linejoin="round"/>
<path d="M3.03779 21.2846L10.2896 23.2336" stroke="black" stroke-width="0.841249" stroke-miterlimit="10" stroke-linecap="round" stroke-linejoin="round"/>
<path d="M19.7406 2.42148L14.7517 6.05863L16.0226 10.3143L20.9107 17.0649L24.5817 19.569L29.5706 15.9318L19.7406 2.42148Z" fill="#FCC503" stroke="black" stroke-width="1.09133" stroke-miterlimit="10"/>
<path d="M28.2997 11.6762L23.4116 4.92557L19.7406 2.42148L21.0115 6.67712L25.9534 13.4369L29.5706 15.9318L28.2997 11.6762Z" fill="#FCC503" stroke="black" stroke-width="1.09133" stroke-miterlimit="10" stroke-linecap="round" stroke-linejoin="round"/>
<path d="M25.9531 13.4375L20.9104 17.0655" stroke="black" stroke-width="0.841249" stroke-miterlimit="10" stroke-linecap="round" stroke-linejoin="round"/>
<path d="M21.0107 6.67871L16.0219 10.3159" stroke="black" stroke-width="0.841249" stroke-miterlimit="10" stroke-linecap="round" stroke-linejoin="round"/>
</svg>
