<svg width="95" height="112" viewBox="0 0 95 112" fill="none" xmlns="http://www.w3.org/2000/svg">
<path d="M27.1407 56.1659L49.8068 45.6762C50.7416 45.2572 51.3693 44.3376 51.5141 43.2978L54.1786 18.3236C54.2693 17.2826 53.8714 16.2859 53.0274 15.6639L33.0276 1.12449C32.1836 0.502439 31.104 0.424301 30.1692 0.843281C28.7381 1.52602 28.0834 3.21359 28.6802 4.7086L30.4321 8.75362C30.633 9.19711 30.942 9.64298 31.365 9.92658L44.346 19.374C45.2963 20.0532 45.7405 21.2705 45.4296 22.4165L42.4228 34.0441C42.1756 34.917 41.6098 35.6184 40.7851 35.9849L25.9872 42.8018C25.2166 43.1694 24.2973 43.1495 23.4996 42.7481L13.0276 37.362C11.9634 36.845 11.3549 35.6792 11.5055 34.4747L13.2723 18.0996C13.3437 17.6071 13.2548 17.0562 13.054 16.6127L11.2982 12.6773C10.6454 11.236 8.99012 10.5965 7.50685 11.2232L7.45279 11.222C6.51802 11.641 5.89036 12.5606 5.74554 13.6005L3.0811 38.5746C2.99036 39.6156 3.38821 40.6123 4.23224 41.2344L24.232 55.7737C25.0722 56.5055 26.204 56.6397 27.1407 56.1659Z" fill="#95C11F" stroke="black" stroke-width="1.09133" stroke-miterlimit="10"/>
<path d="M30.8977 45.4652L40.2229 41.1174C40.8256 40.8564 41.5727 41.0918 41.8192 41.7548L58.9499 80.9323C59.1983 81.5406 58.9558 82.3027 58.2992 82.5626L48.974 86.9105C48.3713 87.1715 47.6242 86.9361 47.3777 86.2731L30.2469 47.0955C29.9984 46.4872 30.2931 45.781 30.8977 45.4652Z" fill="#728E19" stroke="black" stroke-width="1.09133" stroke-miterlimit="10"/>
<path d="M42.4562 82.2861L50.7648 69.5997C52.1967 67.4313 55.0373 66.8328 57.1562 68.253L89.4196 89.7871C91.5385 91.2073 92.0882 94.0782 90.6564 96.2466L82.3478 108.933C80.9159 111.101 78.0753 111.7 75.9564 110.28L43.6929 88.7456C41.574 87.3253 41.0244 84.4544 42.4562 82.2861Z" fill="#95C11F" stroke="black" stroke-width="1.09133" stroke-miterlimit="10"/>
<path d="M40.4363 47.7778C40.4939 46.141 39.2322 44.7859 37.6182 44.7511C36.0042 44.7163 34.6492 46.0149 34.5916 47.6517C34.534 49.2884 35.7957 50.6435 37.4097 50.6783C39.0236 50.7131 40.3787 49.4145 40.4363 47.7778Z" fill="#95C11F" stroke="black" stroke-width="1.09133" stroke-miterlimit="10"/>
<path d="M54.7869 79.726C54.8445 78.0893 53.5828 76.7342 51.9688 76.6994C50.3548 76.6646 48.9998 77.9632 48.9422 79.5999C48.8846 81.2366 50.1463 82.5917 51.7602 82.6265C53.3742 82.6614 54.7293 81.3627 54.7869 79.726Z" fill="#728E19" stroke="black" stroke-width="1.09133" stroke-miterlimit="10"/>
<path d="M82.1159 102.205C82.1735 100.568 80.9118 99.2127 79.2978 99.1779C77.6839 99.1431 76.3289 100.442 76.2713 102.078C76.2137 103.715 77.4753 105.07 79.0893 105.105C80.7032 105.14 82.0583 103.841 82.1159 102.205Z" fill="#A9D5F3" stroke="black" stroke-width="1.09133" stroke-miterlimit="10"/>
</svg>
