<svg width="57" height="52" viewBox="0 0 57 52" fill="none" xmlns="http://www.w3.org/2000/svg">
<path d="M53.1819 22.0614C50.4028 21.257 49.3059 17.8928 51.0611 15.6257C53.5476 12.3347 50.2566 7.87353 46.3805 9.26307C43.6746 10.2138 40.8224 8.16607 40.8955 5.24073C41.0418 1.14526 35.703 -0.609935 33.3628 2.82734C31.7538 5.24074 28.1703 5.24074 26.5614 2.82734C24.2211 -0.536801 18.9555 1.14526 19.0286 5.24073C19.1018 8.16607 16.2496 10.2138 13.5436 9.26307C9.66755 7.87353 6.37653 12.4078 8.86307 15.6257C10.6183 17.8928 9.52125 21.257 6.74218 22.0614C2.79297 23.2316 2.79297 28.7897 6.74218 29.9598C9.52125 30.7643 10.6183 34.1284 8.86307 36.3956C6.37653 39.6866 9.66755 44.1477 13.5436 42.7582C16.2496 41.8074 19.1018 43.8552 19.0286 46.7805C18.8824 50.876 24.2211 52.6312 26.5614 49.1939C28.1703 46.7805 31.7538 46.7805 33.3628 49.1939C35.703 52.558 40.9686 50.876 40.8955 46.7805C40.8224 43.8552 43.6746 41.8074 46.3805 42.7582C50.2566 44.1477 53.5476 39.6134 51.0611 36.3956C49.3059 34.1284 50.4028 30.7643 53.1819 29.9598C57.1311 28.7897 57.1311 23.2316 53.1819 22.0614ZM29.9986 33.909C25.6838 33.909 22.1734 30.3986 22.1734 26.0838C22.1734 21.7689 25.6838 18.2585 29.9986 18.2585C34.3135 18.2585 37.8239 21.7689 37.8239 26.0838C37.8239 30.3986 34.3867 33.909 29.9986 33.909Z" fill="#003D64" stroke="black" stroke-width="1.09133" stroke-miterlimit="10"/>
<path d="M50.4016 22.0614C47.6226 21.257 46.5256 17.8928 48.2808 15.6257C50.7673 12.3347 47.4763 7.87353 43.6002 9.26307C40.8943 10.2138 38.0421 8.16607 38.1152 5.24073C38.2615 1.14526 32.9228 -0.609935 30.5825 2.82734C28.9736 5.24074 25.39 5.24074 23.7811 2.82734C21.4408 -0.536801 16.1752 1.14526 16.2483 5.24073C16.3214 8.16607 13.4692 10.2138 10.7633 9.26307C6.88723 7.87353 3.59626 12.4078 6.08279 15.6257C7.83799 17.8928 6.74097 21.257 3.9619 22.0614C0.0126987 23.2316 0.0126987 28.7897 3.9619 29.9598C6.74097 30.7643 7.83799 34.1284 6.08279 36.3956C3.59626 39.6866 6.88723 44.1477 10.7633 42.7582C13.4692 41.8074 16.3214 43.8552 16.2483 46.7805C16.102 50.876 21.4408 52.6312 23.7811 49.1939C25.39 46.7805 28.9736 46.7805 30.5825 49.1939C32.9228 52.558 38.1884 50.876 38.1152 46.7805C38.0421 43.8552 40.8943 41.8074 43.6002 42.7582C47.4763 44.1477 50.7673 39.6134 48.2808 36.3956C46.5256 34.1284 47.6226 30.7643 50.4016 29.9598C54.3508 28.7897 54.3508 23.2316 50.4016 22.0614ZM27.2183 33.909C22.9035 33.909 19.3931 30.3986 19.3931 26.0838C19.3931 21.7689 22.9035 18.2585 27.2183 18.2585C31.5332 18.2585 35.0436 21.7689 35.0436 26.0838C35.0436 30.3986 31.5332 33.909 27.2183 33.909Z" fill="#A9D5F3" stroke="black" stroke-width="1.09133" stroke-miterlimit="10"/>
</svg>
