<svg width="89" height="71" viewBox="0 0 89 71" fill="none" xmlns="http://www.w3.org/2000/svg">
<path d="M44.355 6.03641L18.6035 19.7857L18.8813 34.09L31.6868 56.2875L44.1491 64.0882L69.8907 50.4144L44.355 6.03641Z" fill="#95C11F" stroke="black" stroke-width="1.09133" stroke-miterlimit="10"/>
<path d="M70 35.2632L57.4622 13.4365L45.1971 5.70459L45.5019 19.8448L57.9976 41.7004L70.2627 49.4323L70 35.2632Z" fill="#728E19" stroke="black" stroke-width="1.09133" stroke-miterlimit="10"/>
<path d="M57.3704 42.1028L30.6602 56.5059" stroke="black" stroke-width="0.887684" stroke-miterlimit="10" stroke-linecap="round" stroke-linejoin="round"/>
<path d="M45.4317 20.496L18.6455 34.8789" stroke="black" stroke-width="0.887684" stroke-miterlimit="10" stroke-linecap="round" stroke-linejoin="round"/>
<path d="M61.0693 25.7754C58.0268 20.4001 54.2139 16.7729 52.5529 17.6737C50.892 18.5746 52.012 23.6624 55.0545 29.0377C58.097 34.413 61.9099 38.0402 63.5709 37.1394C65.2318 36.2385 64.1118 31.1507 61.0693 25.7754Z" fill="#95C11F" stroke="black" stroke-width="1.09133" stroke-miterlimit="10"/>
</svg>
