<svg width="107" height="291" viewBox="0 0 107 291" fill="none" xmlns="http://www.w3.org/2000/svg">
<path d="M120.789 13.2776H54V309.409H120.789V13.2776Z" fill="#003D64" stroke="black" stroke-width="0.545663" stroke-miterlimit="10"/>
<path d="M87.3945 25.5548C105.838 25.5548 120.789 20.058 120.789 13.2774C120.789 6.49679 105.838 1 87.3945 1C68.9512 1 54 6.49679 54 13.2774C54 20.058 68.9512 25.5548 87.3945 25.5548Z" fill="#A9D5F3" stroke="black" stroke-width="1.09133" stroke-miterlimit="10"/>
<path d="M87.394 19.5525C98.6951 19.5525 107.856 16.1811 107.856 12.0223C107.856 7.86354 98.6951 4.49219 87.394 4.49219C76.093 4.49219 66.9316 7.86354 66.9316 12.0223C66.9316 16.1811 76.093 19.5525 87.394 19.5525Z" fill="black"/>
<path d="M67.7892 140.278H1V436.409H67.7892V140.278Z" fill="#003D64" stroke="black" stroke-width="0.545663" stroke-miterlimit="10"/>
<path d="M34.3945 152.555C52.8379 152.555 67.7892 147.058 67.7892 140.277C67.7892 133.497 52.8379 128 34.3945 128C15.9512 128 1 133.497 1 140.277C1 147.058 15.9512 152.555 34.3945 152.555Z" fill="#A9D5F3" stroke="black" stroke-width="1.09133" stroke-miterlimit="10"/>
<path d="M34.394 146.552C45.6951 146.552 54.8564 143.181 54.8564 139.022C54.8564 134.864 45.6951 131.492 34.394 131.492C23.093 131.492 13.9316 134.864 13.9316 139.022C13.9316 143.181 23.093 146.552 34.394 146.552Z" fill="black"/>
</svg>
