<svg width="387" height="371" viewBox="0 0 387 371" fill="none" xmlns="http://www.w3.org/2000/svg">
<path d="M364.199 156.487C343.681 150.396 335.666 125.71 348.65 108.878C367.084 84.8335 342.879 51.6514 314.346 61.7503C294.308 68.9638 273.309 53.575 273.79 32.2552C274.592 1.95853 235.478 -10.7052 218.326 14.3016C206.304 31.9346 180.335 31.9346 168.313 14.3016C151.321 -10.7052 112.208 2.11883 113.17 32.2552C113.811 53.575 92.8117 68.8035 72.6139 61.7503C44.0805 51.6514 19.8753 84.8335 38.3098 108.878C51.294 125.71 43.279 150.556 22.7607 156.487C-6.25356 164.983 -6.25356 206.18 22.7607 214.676C43.279 220.768 51.294 245.454 38.3098 262.285C19.8753 286.33 44.0805 319.512 72.6139 309.413C92.6514 302.2 113.651 317.589 113.17 338.909C112.368 369.205 151.481 381.869 168.633 356.862C180.656 339.229 206.624 339.229 218.647 356.862C235.799 381.869 274.912 369.045 274.111 338.909C273.469 317.589 294.469 302.36 314.666 309.413C343.2 319.512 367.405 286.33 348.971 262.285C335.986 245.454 344.001 220.607 364.52 214.676C393.213 206.18 393.213 165.144 364.199 156.487Z" fill="#003D64" stroke="black" stroke-width="0.9986" stroke-miterlimit="10"/>
<mask id="mask0_231_1808" style="mask-type:alpha" maskUnits="userSpaceOnUse" x="0" y="0" width="387" height="371">
<path d="M364.199 156.487C343.681 150.396 335.666 125.71 348.65 108.878C367.084 84.8335 342.879 51.6514 314.346 61.7503C294.308 68.9638 273.309 53.575 273.79 32.2552C274.592 1.95853 235.478 -10.7052 218.326 14.3016C206.304 31.9346 180.335 31.9346 168.313 14.3016C151.321 -10.7052 112.208 2.11883 113.17 32.2552C113.811 53.575 92.8117 68.8035 72.6139 61.7503C44.0805 51.6514 19.8753 84.8335 38.3098 108.878C51.294 125.71 43.279 150.556 22.7607 156.487C-6.25356 164.983 -6.25356 206.18 22.7607 214.676C43.279 220.768 51.294 245.454 38.3098 262.285C19.8753 286.33 44.0805 319.512 72.6139 309.413C92.6514 302.2 113.651 317.589 113.17 338.909C112.368 369.205 151.481 381.869 168.633 356.862C180.656 339.229 206.624 339.229 218.647 356.862C235.799 381.869 274.912 369.045 274.111 338.909C273.469 317.589 294.469 302.36 314.666 309.413C343.2 319.512 367.405 286.33 348.971 262.285C335.986 245.454 344.001 220.607 364.52 214.676C393.213 206.18 393.213 165.144 364.199 156.487Z" fill="#003D64" stroke="black" stroke-width="0.9986" stroke-miterlimit="10"/>
</mask>
<g mask="url(#mask0_231_1808)">
<path d="M148.596 199.128C148.596 199.128 193.64 184.701 231.471 199.128V237.439H166.549L148.596 199.128Z" fill="#A9D5F3" stroke="black" stroke-width="0.9762" stroke-miterlimit="10" stroke-linecap="round" stroke-linejoin="round"/>
<path d="M165.104 139.978C172.317 142.382 180.813 141.581 190.271 152.962C195.24 158.893 186.744 176.526 170.233 168.351C153.722 160.175 136.089 142.542 139.937 110.482C142.181 91.7273 148.753 91.567 153.722 94.6127C158.051 97.3378 159.493 101.345 157.73 104.872C153.562 113.528 146.349 133.566 165.104 139.978Z" fill="#FCC503" stroke="black" stroke-width="0.9762" stroke-miterlimit="10"/>
<path d="M218.484 139.816C211.271 142.221 202.615 141.419 192.997 152.801C188.027 158.732 196.523 176.365 213.194 168.189C229.865 159.854 247.819 142.381 243.812 110.321C241.567 91.5661 234.995 91.4058 229.865 94.4515C225.377 97.1765 223.934 101.184 225.698 104.711C230.186 113.367 237.56 133.404 218.484 139.816Z" fill="#FCC503" stroke="black" stroke-width="0.9762" stroke-miterlimit="10"/>
<path d="M296.23 295.789C283.406 259.722 259.361 253.631 259.361 253.631L217.202 235.196L169.272 235.837L125.671 253.951C124.869 254.272 121.343 255.714 121.343 255.714C113.648 259.562 98.7405 269.981 89.6034 295.789C63.9555 368.084 37.3457 561.566 37.3457 561.566L83.1914 570.222L148.273 398.061L175.364 401.106L226.179 417.297L239.003 398.061L302.642 570.222L348.487 561.566C348.327 561.566 321.878 367.924 296.23 295.789Z" fill="#A9D5F3" stroke="black" stroke-width="0.9762" stroke-miterlimit="10" stroke-linecap="round" stroke-linejoin="round"/>
<path d="M95.6953 502.256L106.916 303.645" stroke="black" stroke-width="0.9762" stroke-miterlimit="10" stroke-linecap="round" stroke-linejoin="round"/>
<path d="M256.795 296.11L232.43 480.294" stroke="black" stroke-width="0.9762" stroke-miterlimit="10" stroke-linecap="round" stroke-linejoin="round"/>
<path d="M216.241 224.776L213.355 188.228C213.355 188.228 204.859 194.159 197.165 195.762C189.47 197.205 181.936 192.717 181.776 192.717C181.616 192.717 172.799 187.587 172.799 187.587L169.914 225.257C169.433 231.83 165.265 237.6 159.174 240.005C182.578 252.989 193.157 257.317 193.157 257.317L227.301 239.684L226.66 239.364C220.889 236.799 216.882 231.188 216.241 224.776Z" fill="#F8B498" stroke="black" stroke-width="0.9762" stroke-miterlimit="10"/>
<path d="M166.547 153.122C166.708 161.457 160.296 168.35 151.96 168.51C143.624 168.671 136.732 162.259 136.571 153.923C136.411 145.588 142.823 138.695 151.159 138.534C159.494 138.214 166.387 144.786 166.547 153.122Z" fill="#F8B498" stroke="black" stroke-width="0.9762" stroke-miterlimit="10"/>
<path d="M142.984 151.359C142.984 151.359 148.915 148.473 154.686 158.893" stroke="black" stroke-width="0.9762" stroke-miterlimit="10" stroke-linecap="round" stroke-linejoin="round"/>
<path d="M221.531 153.442C221.531 161.777 228.264 168.51 236.599 168.51C244.935 168.51 251.668 161.777 251.668 153.442C251.668 145.106 244.935 138.373 236.599 138.373C228.264 138.534 221.531 145.266 221.531 153.442Z" fill="#F8B498" stroke="black" stroke-width="0.9762" stroke-miterlimit="10"/>
<path d="M244.452 151.197C244.452 151.197 238.36 148.472 233.07 159.052" stroke="black" stroke-width="1.0485" stroke-miterlimit="10" stroke-linecap="round" stroke-linejoin="round"/>
<path d="M169.113 182.136C169.113 182.136 177.609 209.708 197.005 209.387C212.875 209.066 215.44 182.136 215.44 182.136H169.113Z" fill="#1D0300"/>
<path d="M234.674 127.313C234.834 144.305 232.43 159.053 230.025 169.472C227.781 179.731 218.804 186.784 209.347 192.555L207.583 193.677C197.645 199.769 189.47 199.929 179.21 194.158C168.951 188.387 159.494 180.533 157.089 169.632C152.921 149.755 152.44 127.794 152.44 127.794C152.44 127.794 146.67 81.7882 190.912 82.4294C235.315 83.0706 234.674 127.313 234.674 127.313Z" fill="#F8B498" stroke="black" stroke-width="0.9762" stroke-miterlimit="10"/>
<path d="M178.094 140.778C178.094 142.702 176.491 144.305 174.568 144.305C172.644 144.305 171.041 142.702 171.041 140.778C171.041 138.855 172.644 137.252 174.568 137.252C176.491 137.252 178.094 138.855 178.094 140.778Z" fill="#1D0300"/>
<path d="M213.198 140.778C213.198 142.702 211.595 144.305 209.671 144.305C207.748 144.305 206.145 142.702 206.145 140.778C206.145 138.855 207.748 137.252 209.671 137.252C211.595 137.252 213.198 138.855 213.198 140.778Z" fill="#1D0300"/>
<path d="M188.832 150.237V156.007H193.481" stroke="black" stroke-width="0.9762" stroke-miterlimit="10" stroke-linecap="round" stroke-linejoin="round"/>
<path d="M161.1 125.711L184.503 123.627C184.503 123.627 182.419 117.535 172.962 118.497C163.344 119.459 161.1 125.711 161.1 125.711Z" fill="black"/>
<path d="M221.535 125.71L198.131 123.626C198.131 123.626 200.215 117.535 209.672 118.497C219.29 119.458 221.535 125.71 221.535 125.71Z" fill="black"/>
<path d="M180.816 164.182H203.9C203.9 164.182 202.777 171.235 192.037 171.235C181.137 171.235 180.816 164.182 180.816 164.182Z" fill="white" stroke="black" stroke-width="0.9762" stroke-miterlimit="10" stroke-linecap="round" stroke-linejoin="round"/>
<path d="M237.397 121.542H212.711H206.62H176.484H176.163H145.866C141.698 121.542 138.172 124.909 138.172 129.237V140.137C138.172 144.305 141.538 147.832 145.866 147.832H176.644C180.812 147.832 184.338 144.465 184.338 140.137V139.015C184.338 135.008 187.704 131.641 191.712 131.641C195.719 131.641 199.086 135.008 199.086 139.015V140.137C199.086 144.305 202.452 147.832 206.78 147.832H237.558C241.725 147.832 245.252 144.465 245.252 140.137V129.237C245.092 125.069 241.725 121.542 237.397 121.542Z" fill="#FCC503" stroke="black" stroke-width="0.9762" stroke-miterlimit="10"/>
<path d="M210.465 130.68L222.808 138.695" stroke="white" stroke-width="0.6014" stroke-miterlimit="10" stroke-linecap="round" stroke-linejoin="round"/>
<path d="M216.719 127.955L229.062 135.81" stroke="white" stroke-width="0.6014" stroke-miterlimit="10" stroke-linecap="round" stroke-linejoin="round"/>
<path d="M153.078 130.68L165.421 138.695" stroke="white" stroke-width="0.6014" stroke-miterlimit="10" stroke-linecap="round" stroke-linejoin="round"/>
<path d="M159.17 127.955L171.513 135.81" stroke="white" stroke-width="0.6014" stroke-miterlimit="10" stroke-linecap="round" stroke-linejoin="round"/>
<path d="M250.703 123.467C250.703 85.6359 224.254 55.0187 191.713 55.0187C159.172 55.0187 132.723 85.6359 132.723 123.467L133.364 123.306C147.631 95.8951 234.834 104.551 250.703 123.467Z" fill="#FCC503" stroke="black" stroke-width="0.9762" stroke-miterlimit="10"/>
<path d="M191.714 75.2158C196.141 75.2158 199.729 69.6896 199.729 62.8727C199.729 56.0558 196.141 50.5297 191.714 50.5297C187.288 50.5297 183.699 56.0558 183.699 62.8727C183.699 69.6896 187.288 75.2158 191.714 75.2158Z" fill="#FCC503" stroke="black" stroke-width="0.9762" stroke-miterlimit="10"/>
<path d="M154.844 102.147C155.906 102.147 156.767 101.142 156.767 99.9025C156.767 98.6631 155.906 97.6583 154.844 97.6583C153.781 97.6583 152.92 98.6631 152.92 99.9025C152.92 101.142 153.781 102.147 154.844 102.147Z" fill="#FCC503" stroke="black" stroke-width="0.9762" stroke-miterlimit="10"/>
<path d="M162.695 99.9018C163.757 99.9018 164.619 98.8971 164.619 97.6577C164.619 96.4182 163.757 95.4135 162.695 95.4135C161.633 95.4135 160.771 96.4182 160.771 97.6577C160.771 98.8971 161.633 99.9018 162.695 99.9018Z" fill="#FCC503" stroke="black" stroke-width="0.9762" stroke-miterlimit="10"/>
<path d="M170.875 98.4597C171.937 98.4597 172.798 97.4549 172.798 96.2155C172.798 94.9761 171.937 93.9713 170.875 93.9713C169.812 93.9713 168.951 94.9761 168.951 96.2155C168.951 97.4549 169.812 98.4597 170.875 98.4597Z" fill="#FCC503" stroke="black" stroke-width="0.9762" stroke-miterlimit="10"/>
<path d="M132.723 123.466L136.41 126.192C136.41 126.192 145.547 107.436 192.034 107.757C238.52 108.238 247.016 126.192 247.016 126.192L250.543 123.466C250.543 123.466 236.276 101.024 191.873 100.383C147.15 99.7421 132.723 123.466 132.723 123.466Z" fill="#FCC503" stroke="black" stroke-width="0.9762" stroke-miterlimit="10"/>
<path d="M188.187 100.382C188.187 100.382 179.37 73.6121 158.371 67.0398" stroke="black" stroke-width="0.9762" stroke-miterlimit="10"/>
<path d="M195.396 100.382C195.396 100.382 204.213 73.6121 225.212 67.0398" stroke="black" stroke-width="0.9762" stroke-miterlimit="10"/>
<path d="M194.439 422.745L193.317 257.156L148.593 199.127L144.906 246.095L157.891 273.506L193.798 257.156L231.468 199.127L242.208 246.095L228.743 273.506L193.317 257.156" fill="#A9D5F3"/>
<path d="M194.439 422.745L193.317 257.156L148.593 199.127L144.906 246.095L157.891 273.506L193.798 257.156L231.468 199.127L242.208 246.095L228.743 273.506L193.317 257.156" stroke="black" stroke-width="0.9762" stroke-miterlimit="10" stroke-linecap="round" stroke-linejoin="round"/>
<path d="M266.891 373.694H171.834C169.75 373.694 167.826 372.572 166.544 370.809L115.729 293.865C113.004 289.697 115.889 283.926 121.019 283.926H216.076C218.16 283.926 220.084 285.048 221.366 286.812L272.181 363.756C274.906 368.084 271.861 373.694 266.891 373.694Z" fill="white" stroke="black" stroke-width="0.9649" stroke-miterlimit="10"/>
<path d="M263.368 374.656H170.074C167.99 374.656 166.066 373.694 164.944 371.93L115.091 296.91C112.366 292.742 115.251 287.292 120.221 287.292H213.515C215.599 287.292 217.523 288.254 218.645 290.017L268.498 365.038C271.223 369.045 268.338 374.656 263.368 374.656Z" fill="white" stroke="black" stroke-width="0.9437" stroke-miterlimit="10"/>
<path d="M132.885 299.956C135.186 299.956 137.052 298.88 137.052 297.552C137.052 296.224 135.186 295.147 132.885 295.147C130.583 295.147 128.717 296.224 128.717 297.552C128.717 298.88 130.583 299.956 132.885 299.956Z" fill="white" stroke="black" stroke-width="0.9437" stroke-miterlimit="10"/>
<path d="M191.395 342.756C199.982 342.756 206.944 338.809 206.944 333.94C206.944 329.07 199.982 325.123 191.395 325.123C182.807 325.123 175.846 329.07 175.846 333.94C175.846 338.809 182.807 342.756 191.395 342.756Z" fill="white" stroke="black" stroke-width="0.9437" stroke-miterlimit="10"/>
<path d="M141.541 298.834C142.78 298.834 143.785 298.26 143.785 297.552C143.785 296.843 142.78 296.269 141.541 296.269C140.302 296.269 139.297 296.843 139.297 297.552C139.297 298.26 140.302 298.834 141.541 298.834Z" fill="white" stroke="black" stroke-width="0.9437" stroke-miterlimit="10"/>
<path d="M148.432 298.834C149.671 298.834 150.676 298.26 150.676 297.552C150.676 296.843 149.671 296.269 148.432 296.269C147.192 296.269 146.188 296.843 146.188 297.552C146.188 298.26 147.192 298.834 148.432 298.834Z" fill="white" stroke="black" stroke-width="0.9437" stroke-miterlimit="10"/>
<path d="M242.21 374.336L244.775 362.954C246.218 357.023 246.057 350.771 244.294 344.84L241.248 334.421C240.607 331.856 237.562 330.574 234.997 331.536C232.913 332.337 231.47 334.421 231.63 336.505L232.111 347.886L206.303 309.414C205.181 307.811 202.777 307.33 201.174 308.452L200.051 309.254C198.769 310.216 198.288 311.819 199.09 313.261L213.677 336.505L193.319 311.819C192.197 310.216 189.632 309.895 188.189 311.177L187.388 311.819C186.105 312.941 185.785 314.704 186.907 315.986L207.586 342.115L186.907 324.001C185.304 322.559 182.739 322.719 181.457 324.482L181.296 324.803C180.495 325.925 180.655 327.528 181.617 328.65L200.853 349.81L187.388 338.428C185.464 336.825 182.418 337.627 181.777 339.871C181.457 340.993 181.777 342.115 182.579 342.917L227.302 388.442L242.21 374.336Z" fill="#F8B498" stroke="black" stroke-width="0.9367" stroke-miterlimit="10"/>
</g>
<path d="M364.199 156.487C343.681 150.396 335.666 125.71 348.65 108.878C367.084 84.8335 342.879 51.6514 314.346 61.7503C294.308 68.9638 273.309 53.575 273.79 32.2552C274.592 1.95853 235.478 -10.7052 218.326 14.3016C206.304 31.9346 180.335 31.9346 168.313 14.3016C151.321 -10.7052 112.208 2.11883 113.17 32.2552C113.811 53.575 92.8117 68.8035 72.6139 61.7503C44.0805 51.6514 19.8753 84.8335 38.3098 108.878C51.294 125.71 43.279 150.556 22.7607 156.487C-6.25356 164.983 -6.25356 206.18 22.7607 214.676C43.279 220.768 51.294 245.454 38.3098 262.285C19.8753 286.33 44.0805 319.512 72.6139 309.413C92.6514 302.2 113.651 317.589 113.17 338.909C112.368 369.205 151.481 381.869 168.633 356.862C180.656 339.229 206.624 339.229 218.647 356.862C235.799 381.869 274.912 369.045 274.111 338.909C273.469 317.589 294.469 302.36 314.666 309.413C343.2 319.512 367.405 286.33 348.971 262.285C335.986 245.454 344.001 220.607 364.52 214.676C393.213 206.18 393.213 164.983 364.199 156.487Z" stroke="black" stroke-width="0.4993" stroke-miterlimit="10"/>
<path d="M185.945 260.682V283.285" stroke="black" stroke-width="0.9762" stroke-miterlimit="10" stroke-linecap="round" stroke-linejoin="round"/>
<path d="M135.774 249.621C135.774 249.621 124.553 275.59 94.0957 284.887" stroke="black" stroke-width="0.9762" stroke-miterlimit="10" stroke-linecap="round" stroke-linejoin="round"/>
<path d="M253.914 251.225C253.914 251.225 250.708 290.017 296.233 295.788" stroke="black" stroke-width="0.9986" stroke-miterlimit="10"/>
</svg>
