<svg width="45" height="45" viewBox="0 0 45 45" fill="none" xmlns="http://www.w3.org/2000/svg">
<path d="M1 22.2838C1 10.56 10.56 1 22.2838 1C34.0077 1 43.5677 10.56 43.5677 22.2838C43.5677 34.0725 34.0096 43.5677 22.2838 43.5677C10.558 43.5677 1 34.0725 1 22.2838Z" fill="#FCC503" stroke="black" stroke-width="2"/>
<path d="M19.9752 25.9934L20.6823 26.7005L21.3894 25.9934L31.197 16.1858C31.2259 16.1569 31.2804 16.1284 31.3572 16.1284C31.434 16.1284 31.4885 16.1569 31.5174 16.1858L33.6524 18.3208L34.3595 17.6137L33.6524 18.3208C33.6813 18.3497 33.7098 18.4042 33.7098 18.481C33.7098 18.5578 33.6813 18.6123 33.6524 18.6412L34.2952 19.2841L33.6524 18.6412L22.9775 29.3161L20.8425 31.4511C20.8136 31.48 20.7591 31.5085 20.6823 31.5085C20.6055 31.5085 20.551 31.48 20.5221 31.4511L18.3871 29.3161L11.782 22.711C11.7531 22.6821 11.7246 22.6276 11.7246 22.5508C11.7246 22.474 11.7531 22.4195 11.782 22.3906L11.0906 21.6992L11.782 22.3906L13.917 20.2556C13.9459 20.2267 14.0004 20.1982 14.0772 20.1982C14.154 20.1982 14.2085 20.2267 14.2374 20.2556L19.9752 25.9934Z" fill="#003D64" stroke="black" stroke-width="2"/>
</svg>
