<svg width="172" height="37" viewBox="0 0 172 37" fill="none" xmlns="http://www.w3.org/2000/svg">
<path d="M22.3523 0.0800781V13.5747C19.5684 13.5747 17.3089 15.8171 17.3089 18.5801H7.1818L19.7701 3.28354L17.1879 0.120121L0 18.5L16.9862 37L17.1475 36.8398L1.89632 18.5H7.1818L22.433 37V23.3853C20.0929 22.9448 18.358 20.9026 18.358 18.5C18.358 15.9372 20.335 13.7749 22.8768 13.4946C25.3784 13.7348 27.3957 15.8972 27.3957 18.5H37.6439L22.3523 0.0800781Z" fill="white"/>
<path d="M27.8406 0L27.6792 0.24026L42.9304 18.46H37.6046L25.0566 33.7965L27.6389 36.96L44.7057 18.46L27.8406 0Z" fill="white"/>
<path d="M58.5037 19.6213H64.4751V16.8583H58.5037V14.5358H68.7519V11.7728H54.9531V25.2674H68.9132V22.3443H58.5037V19.6213Z" fill="white"/>
<path d="M169.66 14.0953C169.66 14.0953 164.9 20.0217 164.456 20.5423C164.093 20.0217 159.251 14.0953 159.251 14.0953H156.83V25.2674H159.937V18.9406C160.703 19.9016 164.012 24.0261 164.012 24.0261H164.778C164.778 24.0261 168.087 19.9016 168.854 18.9406V25.3075H171.96V14.0953H169.66Z" fill="white"/>
<path d="M142.345 21.5834V14.0953H139.238V25.2674H141.659C141.659 25.2674 149.729 18.5401 150.495 17.8594V25.2674H153.602V14.0953H151.181C151.181 14.0953 143.112 20.9027 142.345 21.5834Z" fill="white"/>
<path d="M135.646 11.7728H131.409C131.409 11.7728 127.939 15.657 127.576 16.0575C127.213 15.6971 123.501 11.7728 123.501 11.7728H118.74C118.74 11.7728 124.994 17.9795 125.317 18.2999C124.954 18.6603 118.902 25.1873 118.902 25.1873H123.219C123.219 25.1873 127.132 20.7025 127.455 20.302C127.818 20.6624 132.135 25.1873 132.135 25.1873H136.977C136.977 25.1873 130.037 18.2999 129.715 17.9795C130.118 17.6191 135.646 11.7728 135.646 11.7728Z" fill="white"/>
<path d="M83.3961 19.5411C83.6382 19.461 83.8399 19.3008 84.0013 19.1006C84.1627 18.9405 84.6065 18.5 84.6065 17.619V16.3376C84.6065 15.8171 84.5258 15.1363 84.0013 14.6158C83.3961 14.0952 82.5085 14.0151 81.8226 14.0151H71.9375V25.2673H81.298C82.3471 25.2673 83.1137 25.1071 83.7189 24.7467C84.4048 24.3063 84.6872 23.7056 84.6872 22.9448V21.5833C84.6872 20.9827 84.4451 20.382 84.082 20.0216C83.9206 19.8615 83.7189 19.7013 83.3961 19.5411ZM75.0846 16.4177H80.6525C81.2577 16.4177 81.4191 16.4978 81.4191 16.4978C81.5805 16.5779 81.5805 16.8582 81.5805 16.9383V17.9794C81.5805 18.1396 81.5805 18.2197 81.4998 18.3398C81.4191 18.4199 81.1367 18.5 80.7332 18.5H75.2056V16.4177H75.0846ZM81.5805 22.184C81.5805 22.3441 81.5805 22.6244 81.4191 22.7045C81.3384 22.7846 81.177 22.8647 80.7332 22.8647H75.0846V20.7024H80.6525C81.177 20.7024 81.3384 20.7824 81.4191 20.8625C81.5805 20.9426 81.5805 21.2229 81.5805 21.3831V22.184Z" fill="white"/>
<path d="M97.3577 14.0953H87.4727V25.2674H90.5794V21.183H97.3577C98.326 21.183 99.0119 21.0228 99.4558 20.6624C100.061 20.1419 100.142 19.381 100.142 18.8605V16.4579C100.142 15.4168 99.7785 14.0953 97.3577 14.0953ZM97.156 18.1397C97.156 18.38 97.156 18.5001 96.9946 18.5802C96.9139 18.6603 96.6315 18.7404 96.3894 18.7404H90.5794V16.4979H96.228C96.4701 16.4979 96.8332 16.4979 96.9946 16.6581C97.0753 16.7382 97.156 16.8183 97.156 17.0986V18.1397Z" fill="white"/>
<path d="M116.402 14.816C115.716 14.2153 114.506 14.2153 113.981 14.2153H105.67C104.54 14.2153 103.854 14.3755 103.411 14.816C102.725 15.4166 102.725 16.5378 102.725 17.0584V22.6645C102.725 23.1049 102.725 24.2262 103.33 24.8268C103.774 25.2673 104.54 25.4275 105.751 25.4275H113.981C114.829 25.4275 115.797 25.3474 116.402 24.7467C117.008 24.1461 117.008 23.1049 117.008 22.7846V17.0184C117.008 16.4177 117.008 15.2965 116.402 14.816ZM113.901 22.7045H105.751V16.698H113.901V22.7045Z" fill="white"/>
</svg>
