<svg width="198" height="190" viewBox="0 0 198 190" fill="none" xmlns="http://www.w3.org/2000/svg">
<path d="M185.962 80.1834C175.513 77.0813 171.432 64.5097 178.044 55.9381C187.432 43.693 175.105 26.7947 160.574 31.9377C150.37 35.6112 139.676 27.7743 139.921 16.917C140.329 1.48814 120.41 -4.96096 111.675 7.77396C105.553 16.7537 92.3282 16.7537 86.2056 7.77396C77.5524 -4.96096 57.6337 1.56977 58.1235 16.917C58.45 27.7743 47.7559 35.5296 37.47 31.9377C22.9392 26.7947 10.6124 43.693 20.0003 55.9381C26.6127 64.5097 22.531 77.163 12.0818 80.1834C-2.69394 84.51 -2.69394 105.49 12.0818 109.817C22.531 112.919 26.6127 125.49 20.0003 134.062C10.6124 146.307 22.9392 163.205 37.47 158.062C47.6743 154.389 58.3684 162.226 58.1235 173.083C57.7153 188.512 77.634 194.961 86.3689 182.226C92.4914 173.246 105.716 173.246 111.839 182.226C120.574 194.961 140.492 188.43 140.084 173.083C139.758 162.226 150.452 154.47 160.738 158.062C175.268 163.205 187.595 146.307 178.207 134.062C171.595 125.49 175.677 112.837 186.126 109.817C200.738 105.49 200.738 84.5917 185.962 80.1834Z" fill="#003D64" stroke="black" stroke-width="0.9986" stroke-miterlimit="10"/>
<mask id="mask0_482_237" style="mask-type:alpha" maskUnits="userSpaceOnUse" x="0" y="0" width="198" height="190">
<path d="M185.962 80.1834C175.513 77.0813 171.432 64.5097 178.044 55.9381C187.432 43.693 175.105 26.7947 160.574 31.9377C150.37 35.6112 139.676 27.7743 139.921 16.917C140.329 1.48814 120.41 -4.96096 111.675 7.77396C105.553 16.7537 92.3282 16.7537 86.2056 7.77396C77.5524 -4.96096 57.6337 1.56977 58.1235 16.917C58.45 27.7743 47.7559 35.5296 37.47 31.9377C22.9392 26.7947 10.6124 43.693 20.0003 55.9381C26.6127 64.5097 22.531 77.163 12.0818 80.1834C-2.69394 84.51 -2.69394 105.49 12.0818 109.817C22.531 112.919 26.6127 125.49 20.0003 134.062C10.6124 146.307 22.9392 163.205 37.47 158.062C47.6743 154.389 58.3684 162.226 58.1235 173.083C57.7153 188.512 77.634 194.961 86.3689 182.226C92.4914 173.246 105.716 173.246 111.839 182.226C120.574 194.961 140.492 188.43 140.084 173.083C139.758 162.226 150.452 154.47 160.738 158.062C175.268 163.205 187.595 146.307 178.207 134.062C171.595 125.49 175.677 112.837 186.126 109.817C200.738 105.49 200.738 84.5917 185.962 80.1834Z" fill="#003D64" stroke="black" stroke-width="0.9986" stroke-miterlimit="10"/>
</mask>
<g mask="url(#mask0_482_237)">
<path d="M76.1641 101.899C76.1641 101.899 99.1032 94.5521 118.369 101.899V121.41H85.3071L76.1641 101.899Z" fill="#A9D5F3" stroke="black" stroke-width="0.9762" stroke-miterlimit="10" stroke-linecap="round" stroke-linejoin="round"/>
<path d="M84.5719 71.7766C88.2454 73.0012 96.6839 87.2054 101.5 93.0015C104.031 96.0219 78.4082 99.1643 69.9999 95.001C61.5916 90.8376 69.7961 73.0828 71.7553 56.756C74.5003 41.0007 84.112 30.5018 98.5003 42.0014C100.704 43.3892 81.7147 52.1028 80.8167 53.8988C78.6942 58.307 75.0207 68.5113 84.5719 71.7766Z" fill="#FCC503" stroke="black" stroke-width="0.9762" stroke-miterlimit="10"/>
<path d="M111.104 71.6394C107.431 72.8639 98.9923 87.0682 94.1759 92.8643C91.6452 95.8847 121.347 98.9084 129.755 94.745C138.163 90.5817 129.959 72.8268 128 56.5C125.255 40.7447 111.564 30.3646 97.1759 41.8642C94.9717 43.2519 113.961 51.9656 114.859 53.7615C116.982 58.1698 120.655 68.3741 111.104 71.6394Z" fill="#FCC503" stroke="black" stroke-width="0.9762" stroke-miterlimit="10"/>
<path d="M151.349 151.124C144.818 132.757 132.573 129.655 132.573 129.655L111.103 120.267L86.6946 120.593L64.4902 129.818C64.082 129.981 62.286 130.716 62.286 130.716C58.3676 132.675 50.7756 137.981 46.1225 151.124C33.061 187.941 19.5098 286.474 19.5098 286.474L42.8571 290.882L76.0006 203.207L89.7967 204.758L115.675 213.003L122.205 203.207L154.614 290.882L177.962 286.474C177.88 286.474 164.41 187.86 151.349 151.124Z" fill="#A9D5F3" stroke="black" stroke-width="0.9762" stroke-miterlimit="10" stroke-linecap="round" stroke-linejoin="round"/>
<path d="M49.2227 256.27L54.937 155.125" stroke="black" stroke-width="0.9762" stroke-miterlimit="10" stroke-linecap="round" stroke-linejoin="round"/>
<path d="M131.268 151.287L141.5 240" stroke="black" stroke-width="0.9762" stroke-miterlimit="10" stroke-linecap="round" stroke-linejoin="round"/>
<path d="M110.614 114.961L109.145 96.348C109.145 96.348 104.818 99.3685 100.9 100.185C96.9816 100.92 93.1448 98.6338 93.0631 98.6338C92.9815 98.6338 88.4916 96.0215 88.4916 96.0215L87.0222 115.205C86.7773 118.552 84.6548 121.491 81.5527 122.716C93.4713 129.328 98.8592 131.532 98.8592 131.532L116.247 122.553L115.921 122.389C112.982 121.083 110.941 118.226 110.614 114.961Z" fill="#F8B498" stroke="black" stroke-width="0.9762" stroke-miterlimit="10"/>
<path d="M85.3081 78.4696C85.3897 82.7146 82.1244 86.2248 77.8794 86.3065C73.6344 86.3881 70.1241 83.1227 70.0425 78.8778C69.9609 74.6328 73.2262 71.1225 77.4712 71.0409C81.7162 70.8776 85.2265 74.2246 85.3081 78.4696Z" fill="#F8B498" stroke="black" stroke-width="0.9762" stroke-miterlimit="10"/>
<path d="M73.3066 77.5715C73.3066 77.5715 76.3271 76.102 79.2659 81.4083" stroke="black" stroke-width="0.9762" stroke-miterlimit="10" stroke-linecap="round" stroke-linejoin="round"/>
<path d="M113.309 78.6326C113.309 82.8776 116.737 86.3062 120.982 86.3062C125.227 86.3062 128.656 82.8776 128.656 78.6326C128.656 74.3876 125.227 70.959 120.982 70.959C116.737 71.0406 113.309 74.4693 113.309 78.6326Z" fill="#F8B498" stroke="black" stroke-width="0.9762" stroke-miterlimit="10"/>
<path d="M124.982 77.4895C124.982 77.4895 121.879 76.1017 119.186 81.4896" stroke="black" stroke-width="1.0485" stroke-miterlimit="10" stroke-linecap="round" stroke-linejoin="round"/>
<path d="M86.6133 93.2461C86.6133 93.2461 90.9399 107.287 100.818 107.124C108.899 106.961 110.206 93.2461 110.206 93.2461H86.6133Z" fill="#1D0300"/>
<path d="M120.002 65.3268C120.084 73.98 118.859 81.4903 117.635 86.7965C116.492 92.0211 111.92 95.613 107.104 98.5518L106.206 99.1233C101.145 102.225 96.9813 102.307 91.7567 99.3682C86.5322 96.4293 81.7157 92.4293 80.4912 86.8782C78.3688 76.7555 78.1238 65.5716 78.1238 65.5716C78.1238 65.5716 75.185 42.1427 97.716 42.4692C120.329 42.7957 120.002 65.3268 120.002 65.3268Z" fill="#F8B498" stroke="black" stroke-width="0.9762" stroke-miterlimit="10"/>
<path d="M91.1857 72.1836C91.1857 73.1633 90.3693 73.9796 89.3897 73.9796C88.4101 73.9796 87.5938 73.1633 87.5938 72.1836C87.5938 71.204 88.4101 70.3877 89.3897 70.3877C90.3693 70.3877 91.1857 71.204 91.1857 72.1836Z" fill="#1D0300"/>
<path d="M109.063 72.1836C109.063 73.1633 108.246 73.9796 107.267 73.9796C106.287 73.9796 105.471 73.1633 105.471 72.1836C105.471 71.204 106.287 70.3877 107.267 70.3877C108.246 70.3877 109.063 71.204 109.063 72.1836Z" fill="#1D0300"/>
<path d="M96.6543 75V81.4388H99.0217" stroke="black" stroke-width="0.9762" stroke-miterlimit="10" stroke-linecap="round" stroke-linejoin="round"/>
<path d="M82.5332 64.5102L94.4518 63.4489C94.4518 63.4489 93.3905 60.3468 88.5741 60.8366C83.6761 61.3264 82.5332 64.5102 82.5332 64.5102Z" fill="black"/>
<path d="M113.311 64.5102L101.393 63.4489C101.393 63.4489 102.454 60.3468 107.27 60.8366C112.168 61.3264 113.311 64.5102 113.311 64.5102Z" fill="black"/>
<path d="M92.5723 88H104.328C104.328 88 103.756 91.5919 98.2867 91.5919C92.7355 91.5919 92.5723 88 92.5723 88Z" fill="white" stroke="black" stroke-width="0.9762" stroke-miterlimit="10" stroke-linecap="round" stroke-linejoin="round"/>
<path d="M99.5101 215.778L98.9387 131.45L76.1627 101.898L74.2852 125.817L80.8975 139.777L99.1836 131.45L118.368 101.898L123.837 125.817L116.98 139.777L98.9387 131.45" fill="#A9D5F3"/>
<path d="M99.5101 215.778L98.9387 131.45L76.1627 101.898L74.2852 125.817L80.8975 139.777L99.1836 131.45L118.368 101.898L123.837 125.817L116.98 139.777L98.9387 131.45" stroke="black" stroke-width="0.9762" stroke-miterlimit="10" stroke-linecap="round" stroke-linejoin="round"/>
</g>
<path d="M185.962 80.1834C175.513 77.0813 171.432 64.5097 178.044 55.9381C187.432 43.693 175.105 26.7947 160.574 31.9377C150.37 35.6112 139.676 27.7743 139.921 16.917C140.329 1.48814 120.41 -4.96096 111.675 7.77396C105.553 16.7537 92.3282 16.7537 86.2056 7.77396C77.5524 -4.96096 57.6337 1.56977 58.1235 16.917C58.45 27.7743 47.7559 35.5296 37.47 31.9377C22.9392 26.7947 10.6124 43.693 20.0003 55.9381C26.6127 64.5097 22.531 77.163 12.0818 80.1834C-2.69394 84.51 -2.69394 105.49 12.0818 109.817C22.531 112.919 26.6127 125.49 20.0003 134.062C10.6124 146.307 22.9392 163.205 37.47 158.062C47.6743 154.389 58.3684 162.226 58.1235 173.083C57.7153 188.512 77.634 194.961 86.3689 182.226C92.4914 173.246 105.716 173.246 111.839 182.226C120.574 194.961 140.492 188.43 140.084 173.083C139.758 162.226 150.452 154.47 160.738 158.062C175.268 163.205 187.595 146.307 178.207 134.062C171.595 125.49 175.677 112.837 186.126 109.817C200.738 105.49 200.738 84.51 185.962 80.1834Z" stroke="black" stroke-miterlimit="10"/>
<path d="M95 133L95 176" stroke="black" stroke-width="0.9762" stroke-miterlimit="10" stroke-linecap="round" stroke-linejoin="round"/>
<path d="M69.6331 127.612C69.6331 127.612 63.9187 140.837 48.4082 145.572" stroke="black" stroke-width="0.9762" stroke-miterlimit="10" stroke-linecap="round" stroke-linejoin="round"/>
<path d="M129.798 128.43C129.798 128.43 128.166 148.185 151.35 151.124" stroke="black" stroke-width="0.9986" stroke-miterlimit="10"/>
</svg>
