<svg width="349" height="523" viewBox="0 0 349 523" fill="none" xmlns="http://www.w3.org/2000/svg">
<path d="M299.613 96.8374C286.906 93.065 281.942 77.7769 289.983 67.3531C301.4 52.4621 286.41 31.9124 268.739 38.1667C256.33 42.634 243.325 33.1037 243.623 19.9003C244.119 1.13756 219.896 -6.70506 209.274 8.78164C201.828 19.7017 185.746 19.7017 178.301 8.78164C167.778 -6.70506 143.555 1.23684 144.15 19.9003C144.547 33.1037 131.543 42.5347 119.034 38.1667C101.363 31.9124 86.3731 52.4621 97.7896 67.3531C105.831 77.7769 100.867 93.1643 88.16 96.8374C70.1915 102.099 70.1915 127.612 88.16 132.874C100.867 136.646 105.831 151.934 97.7896 162.358C86.3731 177.249 101.363 197.799 119.034 191.545C131.443 187.077 144.448 196.608 144.15 209.811C143.654 228.574 167.877 236.416 178.499 220.93C185.945 210.009 202.027 210.009 209.473 220.93C220.095 236.416 244.318 228.474 243.821 209.811C243.424 196.608 256.429 187.177 268.937 191.545C286.608 197.799 301.599 177.249 290.182 162.358C282.141 151.934 287.105 136.547 299.812 132.874C317.582 127.612 317.582 102.198 299.613 96.8374Z" fill="#003D64" stroke="black" stroke-width="0.9986" stroke-miterlimit="10"/>
<mask id="mask0_226_2" style="mask-type:alpha" maskUnits="userSpaceOnUse" x="74" y="0" width="240" height="230">
<path d="M299.613 96.8374C286.906 93.065 281.942 77.7769 289.983 67.3531C301.4 52.4621 286.41 31.9124 268.739 38.1667C256.33 42.634 243.325 33.1037 243.623 19.9003C244.119 1.13756 219.896 -6.70506 209.274 8.78164C201.828 19.7017 185.746 19.7017 178.301 8.78164C167.778 -6.70506 143.555 1.23684 144.15 19.9003C144.547 33.1037 131.543 42.5347 119.034 38.1667C101.363 31.9124 86.3731 52.4621 97.7896 67.3531C105.831 77.7769 100.867 93.1643 88.16 96.8374C70.1915 102.099 70.1915 127.612 88.16 132.874C100.867 136.646 105.831 151.934 97.7896 162.358C86.3731 177.249 101.363 197.799 119.034 191.545C131.443 187.077 144.448 196.608 144.15 209.811C143.654 228.574 167.877 236.416 178.499 220.93C185.945 210.009 202.027 210.009 209.473 220.93C220.095 236.416 244.318 228.474 243.821 209.811C243.424 196.608 256.429 187.177 268.937 191.545C286.608 197.799 301.599 177.249 290.182 162.358C282.141 151.934 287.105 136.547 299.812 132.874C317.582 127.612 317.582 102.198 299.613 96.8374Z" fill="#003D64" stroke="black" stroke-width="0.9986" stroke-miterlimit="10"/>
</mask>
<g mask="url(#mask0_226_2)">
<path d="M166.092 123.245C166.092 123.245 193.988 114.31 217.416 123.245V146.971H177.21L166.092 123.245Z" fill="#A9D5F3" stroke="black" stroke-width="0.9762" stroke-miterlimit="10" stroke-linecap="round" stroke-linejoin="round"/>
<path d="M176.315 86.6122C180.783 88.1013 186.044 87.6049 191.901 94.6533C194.979 98.3265 189.717 109.247 179.492 104.184C169.267 99.1207 158.347 88.2006 160.729 68.3458C162.119 56.7308 166.189 56.6315 169.267 58.5177C171.947 60.2054 172.841 62.6872 171.749 64.8712C169.168 70.232 164.7 82.6412 176.315 86.6122Z" fill="#FCC503" stroke="black" stroke-width="0.9762" stroke-miterlimit="10"/>
<path d="M209.375 86.5131C204.908 88.0022 199.547 87.5058 193.59 94.5542C190.513 98.2273 195.774 109.147 206.099 104.085C216.423 98.9223 227.542 88.1014 225.06 68.2467C223.67 56.6317 219.6 56.5324 216.423 58.4186C213.644 60.1062 212.75 62.5881 213.842 64.7721C216.622 70.1329 221.188 82.5421 209.375 86.5131Z" fill="#FCC503" stroke="black" stroke-width="0.9762" stroke-miterlimit="10"/>
<path d="M257.522 183.107C249.58 160.77 234.689 156.998 234.689 156.998L208.58 145.581L178.898 145.978L151.895 157.196C151.399 157.395 149.215 158.288 149.215 158.288C144.45 160.671 135.217 167.123 129.559 183.107C113.675 227.879 97.1953 347.702 97.1953 347.702L125.588 353.063L165.893 246.443L182.67 248.329L214.14 258.356L222.082 246.443L261.493 353.063L289.886 347.702C289.786 347.702 273.406 227.78 257.522 183.107Z" fill="#A9D5F3" stroke="black" stroke-width="0.9762" stroke-miterlimit="10" stroke-linecap="round" stroke-linejoin="round"/>
<path d="M133.332 310.971L140.281 187.971" stroke="black" stroke-width="0.9762" stroke-miterlimit="10" stroke-linecap="round" stroke-linejoin="round"/>
<path d="M233.101 183.305L218.012 297.37" stroke="black" stroke-width="0.9762" stroke-miterlimit="10" stroke-linecap="round" stroke-linejoin="round"/>
<path d="M207.986 139.128L206.199 116.494C206.199 116.494 200.938 120.167 196.172 121.16C191.407 122.053 186.741 119.273 186.642 119.273C186.543 119.273 181.083 116.097 181.083 116.097L179.296 139.426C178.998 143.496 176.417 147.07 172.645 148.559C187.138 156.6 193.691 159.281 193.691 159.281L214.836 148.361L214.439 148.162C210.865 146.574 208.383 143.099 207.986 139.128Z" fill="#F8B498" stroke="black" stroke-width="0.9762" stroke-miterlimit="10"/>
<path d="M177.212 94.7535C177.312 99.9158 173.341 104.185 168.179 104.284C163.016 104.383 158.748 100.412 158.648 95.2499C158.549 90.0877 162.52 85.8189 167.682 85.7196C172.844 85.5211 177.113 89.5913 177.212 94.7535Z" fill="#F8B498" stroke="black" stroke-width="0.9762" stroke-miterlimit="10"/>
<path d="M162.619 93.6613C162.619 93.6613 166.292 91.8744 169.866 98.3272" stroke="black" stroke-width="0.9762" stroke-miterlimit="10" stroke-linecap="round" stroke-linejoin="round"/>
<path d="M211.264 94.9516C211.264 100.114 215.433 104.283 220.595 104.283C225.758 104.283 229.927 100.114 229.927 94.9516C229.927 89.7894 225.758 85.6199 220.595 85.6199C215.433 85.7191 211.264 89.8886 211.264 94.9516Z" fill="#F8B498" stroke="black" stroke-width="0.9762" stroke-miterlimit="10"/>
<path d="M225.459 93.5618C225.459 93.5618 221.686 91.8741 218.41 98.4262" stroke="black" stroke-width="1.0485" stroke-miterlimit="10" stroke-linecap="round" stroke-linejoin="round"/>
<path d="M178.803 112.722C178.803 112.722 184.064 129.797 196.076 129.598C205.904 129.4 207.493 112.722 207.493 112.722H178.803Z" fill="#1D0300"/>
<path d="M219.403 78.7702C219.502 89.2933 218.013 98.4264 216.524 104.879C215.134 111.233 209.575 115.601 203.717 119.175L202.625 119.87C196.47 123.642 191.407 123.741 185.054 120.167C178.7 116.594 172.843 111.729 171.354 104.978C168.773 92.6686 168.475 79.0681 168.475 79.0681C168.475 79.0681 164.901 50.5765 192.301 50.9736C219.8 51.3707 219.403 78.7702 219.403 78.7702Z" fill="#F8B498" stroke="black" stroke-width="0.9762" stroke-miterlimit="10"/>
<path d="M184.36 87.1093C184.36 88.3006 183.367 89.2933 182.176 89.2933C180.985 89.2933 179.992 88.3006 179.992 87.1093C179.992 85.918 180.985 84.9253 182.176 84.9253C183.367 84.9253 184.36 85.918 184.36 87.1093Z" fill="#1D0300"/>
<path d="M206.1 87.1093C206.1 88.3006 205.108 89.2933 203.916 89.2933C202.725 89.2933 201.732 88.3006 201.732 87.1093C201.732 85.918 202.725 84.9253 203.916 84.9253C205.108 84.9253 206.1 85.918 206.1 87.1093Z" fill="#1D0300"/>
<path d="M191.01 92.9663V96.5402H193.889" stroke="black" stroke-width="0.9762" stroke-miterlimit="10" stroke-linecap="round" stroke-linejoin="round"/>
<path d="M173.836 77.7777L188.33 76.4871C188.33 76.4871 187.039 72.7147 181.182 73.3104C175.226 73.906 173.836 77.7777 173.836 77.7777Z" fill="black"/>
<path d="M211.262 77.7777L196.768 76.4871C196.768 76.4871 198.058 72.7147 203.915 73.3104C209.872 73.906 211.262 77.7777 211.262 77.7777Z" fill="black"/>
<path d="M186.047 101.604H200.342C200.342 101.604 199.647 105.972 192.996 105.972C186.245 105.972 186.047 101.604 186.047 101.604Z" fill="white" stroke="black" stroke-width="0.9762" stroke-miterlimit="10" stroke-linecap="round" stroke-linejoin="round"/>
<path d="M221.087 75.1958H205.799H202.027H183.363H183.165H164.402C161.821 75.1958 159.637 77.2806 159.637 79.9609V86.7116C159.637 89.2927 161.721 91.4767 164.402 91.4767H183.462C186.044 91.4767 188.228 89.3919 188.228 86.7116V86.0166C188.228 83.5348 190.312 81.45 192.794 81.45C195.276 81.45 197.361 83.5348 197.361 86.0166V86.7116C197.361 89.2927 199.445 91.4767 202.126 91.4767H221.186C223.768 91.4767 225.952 89.3919 225.952 86.7116V79.9609C225.852 77.3798 223.768 75.1958 221.087 75.1958Z" fill="#FCC503" stroke="black" stroke-width="0.9762" stroke-miterlimit="10"/>
<path d="M204.408 80.8542L212.052 85.8179" stroke="white" stroke-width="0.6014" stroke-miterlimit="10" stroke-linecap="round" stroke-linejoin="round"/>
<path d="M208.281 79.1667L215.925 84.0312" stroke="white" stroke-width="0.6014" stroke-miterlimit="10" stroke-linecap="round" stroke-linejoin="round"/>
<path d="M168.867 80.8542L176.511 85.8179" stroke="white" stroke-width="0.6014" stroke-miterlimit="10" stroke-linecap="round" stroke-linejoin="round"/>
<path d="M172.641 79.1667L180.285 84.0312" stroke="white" stroke-width="0.6014" stroke-miterlimit="10" stroke-linecap="round" stroke-linejoin="round"/>
<path d="M229.327 76.3872C229.327 52.9586 212.947 33.9973 192.794 33.9973C172.642 33.9973 156.262 52.9586 156.262 76.3872L156.659 76.2879C165.494 59.3121 219.499 64.6729 229.327 76.3872Z" fill="#FCC503" stroke="black" stroke-width="0.9762" stroke-miterlimit="10"/>
<path d="M192.796 46.5057C195.537 46.5057 197.759 43.0833 197.759 38.8616C197.759 34.6399 195.537 31.2175 192.796 31.2175C190.054 31.2175 187.832 34.6399 187.832 38.8616C187.832 43.0833 190.054 46.5057 192.796 46.5057Z" fill="#FCC503" stroke="black" stroke-width="0.9762" stroke-miterlimit="10"/>
<path d="M169.963 63.1837C170.621 63.1837 171.154 62.5615 171.154 61.7939C171.154 61.0263 170.621 60.4041 169.963 60.4041C169.305 60.4041 168.771 61.0263 168.771 61.7939C168.771 62.5615 169.305 63.1837 169.963 63.1837Z" fill="#FCC503" stroke="black" stroke-width="0.9762" stroke-miterlimit="10"/>
<path d="M174.824 61.7938C175.482 61.7938 176.015 61.1716 176.015 60.404C176.015 59.6364 175.482 59.0142 174.824 59.0142C174.166 59.0142 173.633 59.6364 173.633 60.404C173.633 61.1716 174.166 61.7938 174.824 61.7938Z" fill="#FCC503" stroke="black" stroke-width="0.9762" stroke-miterlimit="10"/>
<path d="M179.889 60.9003C180.546 60.9003 181.08 60.278 181.08 59.5104C181.08 58.7429 180.546 58.1206 179.889 58.1206C179.231 58.1206 178.697 58.7429 178.697 59.5104C178.697 60.278 179.231 60.9003 179.889 60.9003Z" fill="#FCC503" stroke="black" stroke-width="0.9762" stroke-miterlimit="10"/>
<path d="M156.262 76.3871L158.545 78.0747C158.545 78.0747 164.204 66.4597 192.993 66.6582C221.782 66.9561 227.044 78.0747 227.044 78.0747L229.228 76.3871C229.228 76.3871 220.393 62.4887 192.894 62.0916C165.196 61.6946 156.262 76.3871 156.262 76.3871Z" fill="#FCC503" stroke="black" stroke-width="0.9762" stroke-miterlimit="10"/>
<path d="M190.609 62.0916C190.609 62.0916 185.149 45.5128 172.145 41.4426" stroke="black" stroke-width="0.9762" stroke-miterlimit="10"/>
<path d="M195.076 62.0916C195.076 62.0916 200.536 45.5128 213.541 41.4426" stroke="black" stroke-width="0.9762" stroke-miterlimit="10"/>
<path d="M194.482 261.731L193.787 159.181L166.09 123.244L163.807 152.331L171.848 169.307L194.085 159.181L217.414 123.244L224.066 152.331L215.727 169.307L193.787 159.181" fill="#A9D5F3"/>
<path d="M194.482 261.731L193.787 159.181L166.09 123.244L163.807 152.331L171.848 169.307L194.085 159.181L217.414 123.244L224.066 152.331L215.727 169.307L193.787 159.181" stroke="black" stroke-width="0.9762" stroke-miterlimit="10" stroke-linecap="round" stroke-linejoin="round"/>
<path d="M239.353 231.353H180.484C179.194 231.353 178.002 230.658 177.208 229.566L145.738 181.915C144.051 179.334 145.838 175.76 149.014 175.76H207.884C209.174 175.76 210.366 176.455 211.16 177.547L242.629 225.198C244.317 227.879 242.431 231.353 239.353 231.353Z" fill="white" stroke="black" stroke-width="0.9649" stroke-miterlimit="10"/>
<path d="M237.17 231.949H179.393C178.102 231.949 176.911 231.353 176.216 230.261L145.342 183.801C143.654 181.22 145.441 177.845 148.518 177.845H206.296C207.586 177.845 208.778 178.44 209.473 179.532L240.347 225.992C242.034 228.474 240.247 231.949 237.17 231.949Z" fill="white" stroke="black" stroke-width="0.9437" stroke-miterlimit="10"/>
<path d="M156.36 185.687C157.786 185.687 158.942 185.021 158.942 184.198C158.942 183.376 157.786 182.709 156.36 182.709C154.935 182.709 153.779 183.376 153.779 184.198C153.779 185.021 154.935 185.687 156.36 185.687Z" fill="white" stroke="black" stroke-width="0.9437" stroke-miterlimit="10"/>
<path d="M192.598 212.194C197.917 212.194 202.228 209.749 202.228 206.733C202.228 203.718 197.917 201.273 192.598 201.273C187.28 201.273 182.969 203.718 182.969 206.733C182.969 209.749 187.28 212.194 192.598 212.194Z" fill="white" stroke="black" stroke-width="0.9437" stroke-miterlimit="10"/>
<path d="M161.722 184.992C162.489 184.992 163.112 184.637 163.112 184.198C163.112 183.76 162.489 183.404 161.722 183.404C160.954 183.404 160.332 183.76 160.332 184.198C160.332 184.637 160.954 184.992 161.722 184.992Z" fill="white" stroke="black" stroke-width="0.9437" stroke-miterlimit="10"/>
<path d="M165.991 184.992C166.759 184.992 167.381 184.637 167.381 184.198C167.381 183.76 166.759 183.404 165.991 183.404C165.224 183.404 164.602 183.76 164.602 184.198C164.602 184.637 165.224 184.992 165.991 184.992Z" fill="white" stroke="black" stroke-width="0.9437" stroke-miterlimit="10"/>
<path d="M224.067 231.75L225.656 224.702C226.549 221.028 226.45 217.157 225.358 213.484L223.472 207.031C223.074 205.443 221.188 204.648 219.6 205.244C218.309 205.74 217.416 207.031 217.515 208.321L217.813 215.37L201.83 191.544C201.135 190.551 199.646 190.254 198.653 190.949L197.958 191.445C197.164 192.041 196.866 193.033 197.363 193.927L206.396 208.321L193.789 193.033C193.094 192.041 191.505 191.842 190.612 192.636L190.116 193.033C189.321 193.728 189.123 194.82 189.818 195.614L202.624 211.796L189.818 200.578C188.825 199.685 187.237 199.784 186.442 200.876L186.343 201.074C185.847 201.769 185.946 202.762 186.542 203.457L198.455 216.561L190.116 209.513C188.924 208.52 187.038 209.016 186.641 210.406C186.442 211.101 186.641 211.796 187.137 212.292L214.835 240.486L224.067 231.75Z" fill="#F8B498" stroke="black" stroke-width="0.9367" stroke-miterlimit="10"/>
</g>
<path d="M299.613 96.8374C286.906 93.065 281.942 77.7769 289.983 67.3531C301.4 52.4621 286.41 31.9124 268.739 38.1667C256.33 42.634 243.325 33.1037 243.623 19.9003C244.119 1.13756 219.896 -6.70506 209.274 8.78164C201.828 19.7017 185.746 19.7017 178.301 8.78164C167.778 -6.70506 143.555 1.23684 144.15 19.9003C144.547 33.1037 131.543 42.5347 119.034 38.1667C101.363 31.9124 86.3731 52.4621 97.7896 67.3531C105.831 77.7769 100.867 93.1643 88.16 96.8374C70.1915 102.099 70.1915 127.612 88.16 132.874C100.867 136.646 105.831 151.934 97.7896 162.358C86.3731 177.249 101.363 197.799 119.034 191.545C131.443 187.077 144.448 196.608 144.15 209.811C143.654 228.574 167.877 236.416 178.499 220.93C185.945 210.009 202.027 210.009 209.473 220.93C220.095 236.416 244.318 228.474 243.821 209.811C243.424 196.608 256.429 187.177 268.937 191.545C286.608 197.799 301.599 177.249 290.182 162.358C282.141 151.934 287.105 136.547 299.812 132.874C317.582 127.612 317.582 102.099 299.613 96.8374Z" stroke="black" stroke-width="0.4993" stroke-miterlimit="10"/>
<path d="M189.223 161.365V175.363" stroke="black" stroke-width="0.9762" stroke-miterlimit="10" stroke-linecap="round" stroke-linejoin="round"/>
<path d="M158.147 154.515C158.147 154.515 151.198 170.598 132.336 176.356" stroke="black" stroke-width="0.9762" stroke-miterlimit="10" stroke-linecap="round" stroke-linejoin="round"/>
<path d="M231.313 155.508C231.313 155.508 229.328 179.532 257.522 183.106" stroke="black" stroke-width="0.9986" stroke-miterlimit="10"/>
<mask id="mask1_226_2" style="mask-type:alpha" maskUnits="userSpaceOnUse" x="0" y="152" width="349" height="371">
<rect y="152" width="349" height="371" fill="#C4C4C4"/>
</mask>
<g mask="url(#mask1_226_2)">
<circle cx="263.855" cy="293.833" r="66.2159" transform="rotate(51.886 263.855 293.833)" stroke="#003D64" stroke-opacity="0.8" stroke-width="1.2575"/>
<circle cx="263.745" cy="294.744" r="112.72" transform="rotate(51.886 263.745 294.744)" stroke="#003D64" stroke-opacity="0.8" stroke-width="3"/>
<circle cx="263.855" cy="293.833" r="87.9956" transform="rotate(51.886 263.855 293.833)" stroke="#003D64" stroke-opacity="0.8" stroke-width="20"/>
<path d="M274.655 257.593L266.44 285.178C260.792 283.496 254.842 286.715 253.16 292.363L232.615 286.244L267.466 262.581L264.153 254.554L218.151 281.847L241.349 329.928L241.774 329.698L221.998 282.993L232.721 286.187L252.4 333.219L260.664 305.47C256.184 303.155 253.908 297.932 255.371 293.021C256.931 287.782 262.258 284.557 267.586 285.519C272.514 287.522 275.291 293.161 273.706 298.482L294.416 304.649L274.655 257.593Z" fill="#003D64" fill-opacity="0.8"/>
<path d="M285.832 260.746L285.358 261.139L305.208 307.598L294.484 304.405L259.633 328.068L262.946 336.094L308.834 308.589L285.832 260.746Z" fill="#003D64" fill-opacity="0.8"/>
</g>
</svg>
