<svg width="198" height="190" viewBox="0 0 198 190" fill="none" xmlns="http://www.w3.org/2000/svg">
<path d="M185.962 80.1834C175.513 77.0813 171.432 64.5097 178.044 55.9381C187.432 43.693 175.105 26.7947 160.574 31.9377C150.37 35.6112 139.676 27.7743 139.921 16.917C140.329 1.48814 120.41 -4.96096 111.675 7.77396C105.553 16.7537 92.3282 16.7537 86.2056 7.77396C77.5524 -4.96096 57.6337 1.56977 58.1235 16.917C58.45 27.7743 47.7559 35.5296 37.47 31.9377C22.9392 26.7947 10.6124 43.693 20.0003 55.9381C26.6127 64.5097 22.531 77.163 12.0818 80.1834C-2.69394 84.51 -2.69394 105.49 12.0818 109.817C22.531 112.919 26.6127 125.49 20.0003 134.062C10.6124 146.307 22.9392 163.205 37.47 158.062C47.6743 154.389 58.3684 162.226 58.1235 173.083C57.7153 188.512 77.634 194.961 86.3689 182.226C92.4914 173.246 105.716 173.246 111.839 182.226C120.574 194.961 140.492 188.43 140.084 173.083C139.758 162.226 150.452 154.47 160.738 158.062C175.268 163.205 187.595 146.307 178.207 134.062C171.595 125.49 175.677 112.837 186.126 109.817C200.738 105.49 200.738 84.5917 185.962 80.1834Z" fill="#003D64" stroke="black" stroke-width="0.9986" stroke-miterlimit="10"/>
<mask id="mask0_512_676" style="mask-type:alpha" maskUnits="userSpaceOnUse" x="0" y="0" width="198" height="190">
<path d="M185.962 80.1834C175.513 77.0813 171.432 64.5097 178.044 55.9381C187.432 43.693 175.105 26.7947 160.574 31.9377C150.37 35.6112 139.676 27.7743 139.921 16.917C140.329 1.48814 120.41 -4.96096 111.675 7.77396C105.553 16.7537 92.3282 16.7537 86.2056 7.77396C77.5524 -4.96096 57.6337 1.56977 58.1235 16.917C58.45 27.7743 47.7559 35.5296 37.47 31.9377C22.9392 26.7947 10.6124 43.693 20.0003 55.9381C26.6127 64.5097 22.531 77.163 12.0818 80.1834C-2.69394 84.51 -2.69394 105.49 12.0818 109.817C22.531 112.919 26.6127 125.49 20.0003 134.062C10.6124 146.307 22.9392 163.205 37.47 158.062C47.6743 154.389 58.3684 162.226 58.1235 173.083C57.7153 188.512 77.634 194.961 86.3689 182.226C92.4914 173.246 105.716 173.246 111.839 182.226C120.574 194.961 140.492 188.43 140.084 173.083C139.758 162.226 150.452 154.47 160.738 158.062C175.268 163.205 187.595 146.307 178.207 134.062C171.595 125.49 175.677 112.837 186.126 109.817C200.738 105.49 200.738 84.5917 185.962 80.1834Z" fill="#003D64" stroke="black" stroke-width="0.9986" stroke-miterlimit="10"/>
</mask>
<g mask="url(#mask0_512_676)">
<path d="M76.1641 101.898C76.1641 101.898 99.1032 94.5511 118.369 101.898V121.409H85.3071L76.1641 101.898Z" fill="#A9D5F3" stroke="black" stroke-width="0.9762" stroke-miterlimit="10" stroke-linecap="round" stroke-linejoin="round"/>
<path d="M151.349 151.124C144.818 132.757 132.573 129.655 132.573 129.655L111.103 120.267L86.6946 120.593L64.4902 129.818C64.082 129.981 62.286 130.716 62.286 130.716C58.3676 132.675 50.7756 137.981 46.1225 151.124C33.061 187.941 19.5098 286.474 19.5098 286.474L42.8571 290.882L76.0006 203.207L89.7967 204.758L115.675 213.003L122.205 203.207L154.614 290.882L177.962 286.474C177.88 286.474 164.41 187.86 151.349 151.124Z" fill="#A9D5F3" stroke="black" stroke-width="0.9762" stroke-miterlimit="10" stroke-linecap="round" stroke-linejoin="round"/>
<path d="M49.2227 256.27L54.937 155.125" stroke="black" stroke-width="0.9762" stroke-miterlimit="10" stroke-linecap="round" stroke-linejoin="round"/>
<path d="M128 153L131 238" stroke="black" stroke-width="0.9762" stroke-miterlimit="10" stroke-linecap="round" stroke-linejoin="round"/>
<path d="M110.614 114.961L109.145 96.348C109.145 96.348 104.818 99.3685 100.9 100.185C96.9816 100.92 93.1448 98.6338 93.0631 98.6338C92.9815 98.6338 88.4916 96.0215 88.4916 96.0215L87.0222 115.205C86.7773 118.552 84.6548 121.491 81.5527 122.716C93.4713 129.328 98.8592 131.532 98.8592 131.532L116.247 122.553L115.921 122.389C112.982 121.083 110.941 118.226 110.614 114.961Z" fill="#F8B498" stroke="black" stroke-width="0.9762" stroke-miterlimit="10"/>
<path d="M74.9448 46.2457C72.5448 52.6457 75.2781 65.9123 76.9448 71.7457L94.4453 76.2461C102.945 83.4128 120.645 92.546 123.445 71.7457C126.945 45.7452 121.945 37.7457 107.445 34.7457C92.9453 31.7457 77.9448 38.2457 74.9448 46.2457Z" fill="#B85E2B" stroke="black" stroke-linejoin="round"/>
<path d="M82.96 77.311C83.0293 80.9145 80.2574 83.8943 76.6539 83.9636C73.0504 84.0329 70.0706 81.261 70.0013 77.6575C69.932 74.054 72.7039 71.0742 76.3074 71.0049C79.9109 70.8663 82.8907 73.7075 82.96 77.311Z" fill="#F8B498" stroke="black" stroke-width="0.9762" stroke-miterlimit="10"/>
<path d="M72.7715 76.5481C72.7715 76.5481 75.3355 75.3008 77.8302 79.8051" stroke="black" stroke-width="0.9762" stroke-miterlimit="10" stroke-linecap="round" stroke-linejoin="round"/>
<path d="M116 77.5C116 81.0957 118.904 84 122.5 84C126.096 84 129 81.0957 129 77.5C129 73.9043 126.096 71 122.5 71C118.904 71.0691 116 73.9734 116 77.5Z" fill="#F8B498" stroke="black" stroke-width="0.9762" stroke-miterlimit="10"/>
<path d="M126 76.1542C126 76.1542 123.324 74.82 121 80" stroke="black" stroke-width="1.0485" stroke-miterlimit="10" stroke-linecap="round" stroke-linejoin="round"/>
<path d="M86.6152 93.2451C86.6152 93.2451 90.9418 107.286 100.82 107.123C108.901 106.96 110.207 93.2451 110.207 93.2451H86.6152Z" fill="#1D0300"/>
<path d="M120.002 65.3261C120.084 73.9793 118.859 81.4897 117.635 86.7959C116.492 92.0205 111.92 95.6124 107.104 98.5512L106.206 99.1226C101.145 102.225 96.9814 102.306 91.7568 99.3675C86.5322 96.4287 81.7158 92.4286 80.4913 86.8775C78.3688 76.7549 78.1239 65.571 78.1239 65.571C78.1239 65.571 75.969 50.6729 98.5 50.9994C121.113 51.326 120.002 65.3261 120.002 65.3261Z" fill="#F8B498" stroke="black" stroke-width="0.9762" stroke-miterlimit="10"/>
<path d="M89.5919 72.1836C89.5919 73.1633 88.7756 73.9796 87.796 73.9796C86.8163 73.9796 86 73.1633 86 72.1836C86 71.204 86.8163 70.3877 87.796 70.3877C88.7756 70.3877 89.5919 71.204 89.5919 72.1836Z" fill="#1D0300"/>
<path d="M109.592 72.1836C109.592 73.1633 108.776 73.9796 107.796 73.9796C106.816 73.9796 106 73.1633 106 72.1836C106 71.204 106.816 70.3877 107.796 70.3877C108.776 70.3877 109.592 71.204 109.592 72.1836Z" fill="#1D0300"/>
<path d="M96 74V82H102" stroke="black" stroke-width="0.9762" stroke-miterlimit="10" stroke-linecap="round" stroke-linejoin="round"/>
<path d="M83 65L94 64.1455C94 64.1455 93.0206 61.6479 88.5753 62.0422C84.0548 62.4366 83 65 83 65Z" fill="black"/>
<path d="M113 65L101 64.1455C101 64.1455 102.068 61.6479 106.918 62.0422C111.849 62.4366 113 65 113 65Z" fill="black"/>
<path d="M92.5723 86H104.328C104.328 86 103.756 89.5919 98.2867 89.5919C92.7355 89.5919 92.5723 86 92.5723 86Z" fill="white" stroke="black" stroke-width="0.9762" stroke-miterlimit="10" stroke-linecap="round" stroke-linejoin="round"/>
<path d="M99.5101 215.778L98.9387 131.45L76.1627 101.898L74.2852 125.817L80.8975 139.777L99.1836 131.45L118.368 101.898L123.837 125.817L116.98 139.777L98.9387 131.45" fill="#A9D5F3"/>
<path d="M99.5101 215.778L98.9387 131.45L76.1627 101.898L74.2852 125.817L80.8975 139.777L99.1836 131.45L118.368 101.898L123.837 125.817L116.98 139.777L98.9387 131.45" stroke="black" stroke-width="0.9762" stroke-miterlimit="10" stroke-linecap="round" stroke-linejoin="round"/>
</g>
<path d="M185.962 80.1834C175.513 77.0813 171.432 64.5097 178.044 55.9381C187.432 43.693 175.105 26.7947 160.574 31.9377C150.37 35.6112 139.676 27.7743 139.921 16.917C140.329 1.48814 120.41 -4.96096 111.675 7.77396C105.553 16.7537 92.3282 16.7537 86.2056 7.77396C77.5524 -4.96096 57.6337 1.56977 58.1235 16.917C58.45 27.7743 47.7559 35.5296 37.47 31.9377C22.9392 26.7947 10.6124 43.693 20.0003 55.9381C26.6127 64.5097 22.531 77.163 12.0818 80.1834C-2.69394 84.51 -2.69394 105.49 12.0818 109.817C22.531 112.919 26.6127 125.49 20.0003 134.062C10.6124 146.307 22.9392 163.205 37.47 158.062C47.6743 154.389 58.3684 162.226 58.1235 173.083C57.7153 188.512 77.634 194.961 86.3689 182.226C92.4914 173.246 105.716 173.246 111.839 182.226C120.574 194.961 140.492 188.43 140.084 173.083C139.758 162.226 150.452 154.47 160.738 158.062C175.268 163.205 187.595 146.307 178.207 134.062C171.595 125.49 175.677 112.837 186.126 109.817C200.738 105.49 200.738 84.51 185.962 80.1834Z" stroke="black" stroke-miterlimit="10"/>
<path d="M95 133L95 176" stroke="black" stroke-width="0.9762" stroke-miterlimit="10" stroke-linecap="round" stroke-linejoin="round"/>
<path d="M69.6331 127.612C69.6331 127.612 63.9187 140.837 48.4082 145.572" stroke="black" stroke-width="0.9762" stroke-miterlimit="10" stroke-linecap="round" stroke-linejoin="round"/>
<path d="M129.798 128.43C129.798 128.43 128.166 148.185 151.35 151.124" stroke="black" stroke-width="0.9986" stroke-miterlimit="10"/>
</svg>
