<svg width="110" height="110" viewBox="0 0 110 110" fill="none" xmlns="http://www.w3.org/2000/svg">
<path d="M79.4897 43.8932L76.3887 38.522L1.13447 81.97L4.23554 87.3412L79.4897 43.8932Z" fill="#FC8C06" stroke="black" stroke-miterlimit="10"/>
<path d="M75.9349 22.6329C82.7344 30.3977 86.0082 36.5347 86.0082 36.5347C86.0082 36.5347 89.6861 42.4383 93.0108 52.2093C96.3355 61.9803 96.9256 69.7206 96.9256 69.7206L95.0761 70.2497C95.0761 70.2497 92.8952 60.0338 89.8059 52.4435C88.0684 48.2209 86.3171 44.8144 85.616 44.6266C84.915 44.4387 80.3067 45.3215 80.3067 45.3215L77.9739 41.281L75.6411 37.2405C75.6411 37.2405 78.6927 33.7548 78.8976 32.99C79.0855 32.2889 76.9472 29.0519 74.2229 25.453C69.2112 18.9187 61.4374 11.9858 61.4374 11.9858L62.8203 10.6486C62.727 10.487 69.1183 14.9319 75.9349 22.6329Z" fill="#FCC503" stroke="black" stroke-miterlimit="10"/>
</svg>
