<svg width="172" height="193" viewBox="0 0 172 193" fill="none" xmlns="http://www.w3.org/2000/svg">
<path d="M94.9999 175.361C137.526 175.361 172 140.887 172 98.3614C172 55.8355 137.526 21.3613 94.9999 21.3613C52.474 21.3613 18 55.8355 18 98.3614C18 140.887 52.474 175.361 94.9999 175.361Z" fill="white" stroke="#1D1D1B" stroke-width="34.8815" stroke-miterlimit="10" stroke-linecap="round" stroke-linejoin="round"/>
<path d="M121.323 144.907L107.619 92.2684L32.3594 2L79.995 109.452L121.323 144.907Z" fill="#95C11F" stroke="black" stroke-width="2.05185" stroke-miterlimit="10" stroke-linecap="round" stroke-linejoin="round"/>
<path d="M92.3959 106.409C96.24 106.409 99.3564 103.292 99.3564 99.4481C99.3564 95.604 96.24 92.4878 92.3959 92.4878C88.5517 92.4878 85.4355 95.604 85.4355 99.4481C85.4355 103.292 88.5517 106.409 92.3959 106.409Z" fill="black"/>
</svg>
