<svg width="121" height="121" viewBox="0 0 121 121" fill="none" xmlns="http://www.w3.org/2000/svg">
<path d="M84.0335 60.1046L84.0335 46.1364L101.472 46.1364C110.636 46.1364 116.152 58.3252 116.152 60.1046C116.152 61.884 110.636 74.0729 101.472 74.0729L83.989 74.0284L84.0335 60.1046Z" fill="#C4C4C4" stroke="black" stroke-miterlimit="10"/>
<path d="M76.5801 62.6776V57.4561H30.7812V62.6776H76.5801Z" fill="#95C11F" stroke="black" stroke-miterlimit="10"/>
<path d="M89.1927 62.6839C89.1927 62.6839 93.2853 61.2604 93.2853 60.0148C93.2408 58.8138 89.1927 57.4347 89.1927 57.4347L76.5589 57.4347L76.5589 62.6839L89.1927 62.6839Z" fill="#95C11F" stroke="black" stroke-miterlimit="10"/>
<path d="M9.21013 69.2682C12.9469 69.3571 16.995 68.6898 20.1534 67.0439C22.6446 65.7983 24.513 64.1079 25.6696 62.6844L30.7408 62.6844L30.7408 61.9726L30.7408 58.1469L30.7408 57.4352L25.6696 57.4352C24.5129 56.0116 22.6446 54.3212 20.1534 53.0756C15.0821 50.4955 10.8116 50.8514 9.21013 50.8514C8.1425 53.8764 7.74214 56.9458 7.74214 60.0598C7.78662 63.1292 8.18698 66.1987 9.21013 69.2682ZM11.5678 67.7112C11.5678 67.7112 10.4557 64.5528 10.4557 60.1043C10.4557 55.6558 11.5678 52.4973 11.5678 52.4973C11.5678 52.4973 15.438 52.3639 19.6196 54.4992C23.7122 56.5455 25.5361 59.6149 25.5361 60.1487C25.5361 60.6826 23.7122 63.752 19.6196 65.7983C15.3935 67.8001 11.5678 67.7112 11.5678 67.7112Z" fill="#95C11F" stroke="black" stroke-miterlimit="10"/>
</svg>
