<svg width="143" height="110" viewBox="0 0 143 110" fill="none" xmlns="http://www.w3.org/2000/svg">
<path d="M79.6609 61.8231C79.7972 61.4893 80.1733 61.3312 80.5072 61.4675C80.841 61.6038 80.999 61.9799 80.8627 62.3137C80.7265 62.6476 80.3504 62.8056 80.0165 62.6693C79.6827 62.533 79.5246 62.1569 79.6609 61.8231Z" fill="white"/>
<path d="M111.835 89.2925L104.873 56.9272C104.678 56.0687 104.428 55.3437 104.112 54.5915L118.398 19.2163C119.521 19.5189 120.88 18.6714 121.48 17.2025L121.779 16.4681C122.406 14.9324 121.923 13.2549 120.721 12.7643L115.78 10.7471L110.839 8.73003C109.637 8.23938 108.118 9.0991 107.491 10.6348L107.191 11.3692C106.591 12.8382 106.969 14.3944 107.983 14.964L93.4294 50.2302C92.7044 50.4795 91.9917 50.8896 91.2517 51.3665L63.6945 69.6392C55.4459 75.152 54.6395 88.7664 62.4242 92.0224L79.5293 99.1613L96.8769 106.088C104.916 109.292 113.935 99.0303 111.835 89.2925Z" fill="white" stroke="black" stroke-width="0.834373" stroke-miterlimit="10"/>
<path d="M108.656 89.6299L103.934 66.2802L103.867 66.253L94.7196 62.5186L85.3052 58.6752L66.1697 71.5837C58.7973 76.2857 57.8316 87.8097 64.9759 90.7264L80.5998 97.1048L96.0234 103.401L96.0902 103.429C103.168 106.318 110.298 98.0118 108.656 89.6299Z" fill="#95C11F" stroke="black" stroke-width="0.928282" stroke-miterlimit="10" stroke-linecap="round" stroke-linejoin="round"/>
<path d="M76.4614 58.9979L49.3958 51.2643C48.6601 51.0487 48.0018 50.9548 47.2828 50.8996L31.3983 26.2164C32.2943 25.4751 32.543 24.1199 31.9233 23.1465L31.6135 22.6598C30.9163 21.5647 29.4616 21.2939 28.3665 21.9911L23.9254 24.8183L19.4843 27.6455C18.3892 28.3427 18.0189 29.7753 18.716 30.8704L19.0259 31.3571C19.6842 32.3913 21.0173 32.7395 22.0295 32.1807L37.6705 57.0188C37.4162 57.6937 37.2227 58.3298 37.1067 59.0876L32.7196 86.8441C31.4433 95.1799 40.499 101.213 47.6169 96.6817L63.1691 86.8666L63.23 86.8279L63.2908 86.7891L78.8872 76.7749C86.0881 72.1053 84.5762 61.2699 76.4614 58.9979Z" fill="white" stroke="black" stroke-width="0.834373" stroke-miterlimit="10"/>
<path d="M76.207 62.494L55.1098 56.3469L38.6838 66.8037L35.6673 87.4468C35.165 93.2381 41.7921 97.7394 48.0584 93.7503L75.4958 76.2835C81.9004 72.3773 80.8592 64.8329 76.207 62.494Z" fill="#FCC503" stroke="black" stroke-width="1.09133" stroke-miterlimit="10"/>
</svg>
