<svg width="59" height="75" viewBox="0 0 59 75" fill="none" xmlns="http://www.w3.org/2000/svg">
<path d="M55.3248 58.0458L36.6461 36.9871C36.1413 36.4102 35.6364 35.9775 35.0595 35.5448L34.9152 6.19252C36.0691 6.04829 37.0067 5.03864 37.0067 3.88474V3.30778C37.0067 2.00965 35.9249 1 34.6268 1L29.3621 1L24.0974 1C22.7993 1 21.7175 2.00965 21.7175 3.30778V3.88474C21.7175 5.11076 22.6551 6.12041 23.809 6.19252L23.6647 35.5448C23.0878 35.9775 22.583 36.4102 22.0781 36.9871L3.47155 58.0458C-2.08158 64.3922 2.31763 74.3446 10.7555 74.3446L29.1457 74.4167H29.2179H29.29L47.8245 74.3446C56.4066 74.2725 60.95 64.3201 55.3248 58.0458Z" fill="white" stroke="black" stroke-width="0.834373" stroke-miterlimit="10"/>
<path d="M53.2326 60.8584L38.7367 44.3433H19.2647L5.6343 60.1372C2.10049 64.7528 5.2737 72.1089 12.7019 72.1089H45.2274C52.7277 72.2532 55.9009 65.3298 53.2326 60.8584Z" fill="#003D64" stroke="black" stroke-width="1.09133" stroke-miterlimit="10"/>
</svg>
