<svg width="235" height="98" viewBox="0 0 235 98" fill="none" xmlns="http://www.w3.org/2000/svg">
<path d="M56.313 49.5694C56.0272 49.7642 51.0844 53.016 51.0844 53.016L55.6629 55.6695L53.1551 57.8859L57.216 59.322L52.3824 60.8021C52.3824 60.8021 55.1165 64.5275 55.3702 64.8529L16.0127 62.2308C15.8204 63.7726 14.3887 64.9466 12.7442 64.8451L11.9704 64.7974C10.2292 64.69 8.9645 63.1555 9.07191 61.4143L9.5075 54.353L9.9431 47.2916C10.0505 45.5504 11.4942 44.183 13.2354 44.2904L14.0092 44.3382C15.5569 44.4336 16.8336 45.7747 16.9316 47.3343L56.313 49.5694Z" fill="#A9D5F3" stroke="black" stroke-miterlimit="10"/>
<path d="M108.29 56.7975C113.496 53.4843 120.714 55.417 123.672 56.7975C139.055 60.3476 132.549 52.6558 139.648 50.8809C146.748 49.1059 145.565 55.0224 148.523 60.3473C151.482 65.6722 182.839 57.9807 182.839 63.8972C182.839 69.8137 168.639 67.4471 165.681 70.4054C162.723 73.3637 172.189 78.6885 161.54 82.2385C150.89 85.7884 131.365 81.0552 132.549 75.7303C133.732 70.4054 111.84 79.2802 104.148 75.7303C96.4569 72.1804 113.614 68.6304 117.756 65.0805C121.898 61.5306 101.781 60.9391 108.29 56.7975Z" fill="#95C11F" stroke="black"/>
<path d="M166.298 57.2192L163.6 19.4884C162.732 8.19766 175.715 1.29974 184.926 8.24061L204.75 23.3198L204.827 23.3787L204.904 23.4377L224.456 38.5527C233.454 45.4525 230.007 59.663 218.896 61.8899L181.834 69.1317C181.834 69.1317 181.572 63.517 181.713 61.3884L175.155 66.0519L177.128 58.6177L172.62 59.6347L173.012 56.2071L166.453 60.8706C166.344 60.0411 166.365 58.2473 166.298 57.2192Z" fill="#A9D5F3" stroke="black" stroke-miterlimit="10"/>
<path d="M101.201 89.3394C93.7067 89.5366 80.1382 91.1143 85.818 95.8475C91.4979 100.581 98.44 93.4809 101.201 89.3394Z" fill="#95C11F" stroke="black"/>
</svg>
