<svg width="88" height="46" viewBox="0 0 88 46" fill="none" xmlns="http://www.w3.org/2000/svg">
<path d="M3.22893 12.0226C3.19476 12.1505 3.16059 12.2784 3.12643 12.4063C3.09226 12.5342 3.05808 12.6621 3.02391 12.79C1.52443 19.1724 2.04647 24.6561 4.34871 25.2711C5.62773 25.6128 7.18887 24.3854 8.68652 22.1134L76.0271 40.1031C79.4804 41.0257 82.9821 38.9465 83.8875 35.5571L84.178 34.4699L84.383 33.7025L84.6905 32.5514C85.6643 28.9062 83.6363 25.2127 80.2469 24.3072L12.9063 6.31754C12.7754 3.47344 12.0685 1.50319 10.7895 1.16151C8.48723 0.546474 5.15068 5.34188 3.22893 12.0226Z" fill="white" stroke="black" stroke-miterlimit="10"/>
<path d="M13.8204 20.3946L75.0048 36.748C77.8826 37.5168 80.71 36.4222 81.2738 34.3118L81.9059 31.9457C82.4697 29.8353 80.5648 27.4765 77.687 26.7077L22.1774 11.8786L13.8204 20.3946Z" fill="#95C11F" stroke="black" stroke-miterlimit="10" stroke-linecap="round" stroke-linejoin="round"/>
<path d="M9.33253 13.7939C10.2195 10.4739 9.99365 7.53008 8.82812 7.21871C7.66258 6.90734 5.9987 9.34634 5.11177 12.6663C4.22485 15.9864 4.45074 18.9302 5.61628 19.2415C6.78182 19.5529 8.44561 17.1139 9.33253 13.7939Z" stroke="black" stroke-miterlimit="10"/>
</svg>
