<svg width="191" height="259" viewBox="0 0 191 259" fill="none" xmlns="http://www.w3.org/2000/svg">
<path d="M69.7542 272.25L87.0517 265.865V249.714H52.8932L35.5957 256.098V272.25H69.7542Z" fill="#1D1D1B"/>
<path d="M35.5918 256.09V272.297H69.7503V256.09H35.5918Z" fill="#A9D5F3"/>
<path d="M69.7542 256.098L87.0517 249.714H52.8932L35.5957 256.098H69.7542Z" fill="#2E6EED"/>
<path d="M69.7542 256.152L87.0517 249.768V233.562H52.8932L35.5957 239.946V256.152H69.7542Z" fill="#1D1D1B"/>
<path d="M35.5977 239.933V260.123H69.7561V239.933H35.5977Z" fill="#A9D5F3"/>
<path d="M69.7542 239.946L87.0517 233.562H52.8932L35.5957 239.946H69.7542Z" fill="#2E6EED"/>
<path d="M87.0517 233.562H52.8932L35.5957 239.946H69.7542L87.0517 233.562Z" fill="#003D64" stroke="black" stroke-width="1.09133" stroke-miterlimit="10" stroke-linecap="round" stroke-linejoin="round"/>
<path d="M69.7542 239.946H35.5957V272.249H69.7542V239.946Z" stroke="#1D1D1B" stroke-width="1.2081" stroke-miterlimit="10" stroke-linecap="round" stroke-linejoin="round"/>
<path d="M86.7778 233.561L104.075 227.177V210.971H69.9713L52.6738 217.355V233.561H86.7778Z" fill="#1D1D1B"/>
<path d="M52.6777 217.375V233.581H86.8362V217.375H52.6777Z" fill="#A9D5F3"/>
<path d="M86.7778 217.355L104.075 210.971H69.9713L52.6738 217.355H86.7778Z" fill="#2E6EED"/>
<path d="M86.7778 217.464L104.075 211.08V194.874H69.9713L52.6738 201.258V217.464H86.7778Z" fill="#1D1D1B"/>
<path d="M52.6816 201.217V221.407H86.8401V201.217H52.6816Z" fill="#A9D5F3"/>
<path d="M86.7778 201.258L104.075 194.874H69.9713L52.6738 201.258H86.7778Z" fill="#2E6EED"/>
<path d="M104.075 194.874H69.9713L52.6738 201.258H86.7778L104.075 194.874Z" fill="#003D64" stroke="black" stroke-width="1.09133" stroke-miterlimit="10" stroke-linecap="round" stroke-linejoin="round"/>
<path d="M86.8323 201.259H52.6738V233.562H86.8323V201.259Z" stroke="#1D1D1B" stroke-width="1.2081" stroke-miterlimit="10" stroke-linecap="round" stroke-linejoin="round"/>
<path d="M104.075 194.875L121.372 188.49V172.284H87.2682L69.9707 178.668V194.875H104.075Z" fill="#1D1D1B"/>
<path d="M69.9824 178.663V194.869H104.141V178.663H69.9824Z" fill="#A9D5F3" stroke="black" stroke-width="1.09133" stroke-miterlimit="10"/>
<path d="M104.075 178.668L121.372 172.284H87.2682L69.9707 178.668H104.075Z" fill="#2E6EED"/>
<path d="M104.075 178.722L121.372 172.338V156.132H87.2682L69.9707 162.516V178.722H104.075Z" fill="#1D1D1B"/>
<path d="M69.9746 162.571V194.765H104.133V162.571H69.9746Z" fill="#A9D5F3" stroke="black" stroke-width="1.09133" stroke-miterlimit="10"/>
<path d="M104.075 162.516L121.372 156.132H87.2682L69.9707 162.516H104.075Z" fill="#2E6EED"/>
<path d="M121.372 156.132H87.2682L69.9707 162.516H104.075L121.372 156.132Z" fill="#003D64" stroke="black" stroke-width="1.09133" stroke-miterlimit="10" stroke-linecap="round" stroke-linejoin="round"/>
<path d="M104.129 162.516H69.9707V194.82H104.129V162.516Z" stroke="#1D1D1B" stroke-width="1.2081" stroke-miterlimit="10" stroke-linecap="round" stroke-linejoin="round"/>
<path d="M120.934 155.805L138.231 149.421V133.269H104.073L86.7754 139.599V155.805H120.934Z" fill="#1D1D1B"/>
<path d="M86.8008 139.607V155.813H120.959V139.607H86.8008Z" fill="#A9D5F3" stroke="black" stroke-width="1.09133" stroke-miterlimit="10"/>
<path d="M120.934 139.599L138.231 133.269H104.073L86.7754 139.599H120.934Z" fill="#2E6EED"/>
<path d="M120.934 139.707L138.231 133.323V117.117H104.073L86.7754 123.501V139.707H120.934Z" fill="#1D1D1B"/>
<path d="M86.8164 123.493V155.742H120.975V123.493H86.8164Z" fill="#A9D5F3" stroke="black" stroke-width="1.09133" stroke-miterlimit="10"/>
<path d="M120.934 123.501L138.231 117.117H104.073L86.7754 123.501H120.934Z" fill="#2E6EED"/>
<path d="M138.231 117.117H104.073L86.7754 123.501H120.934L138.231 117.117Z" fill="#003D64" stroke="black" stroke-width="1.09133" stroke-miterlimit="10" stroke-linecap="round" stroke-linejoin="round"/>
<path d="M120.934 123.502H86.7754V155.805H120.934V123.502Z" stroke="#1D1D1B" stroke-width="1.2081" stroke-miterlimit="10" stroke-linecap="round" stroke-linejoin="round"/>
<path d="M138.235 117.118L155.532 110.734V94.5273H121.374L104.076 100.912V117.118H138.235Z" fill="#1D1D1B"/>
<path d="M104.109 100.894V117.1H138.268V100.894H104.109Z" fill="#A9D5F3" stroke="black" stroke-width="1.09133" stroke-miterlimit="10"/>
<path d="M138.235 100.912L155.532 94.5273H121.374L104.076 100.912H138.235Z" fill="#2E6EED"/>
<path d="M138.235 100.966L155.532 94.6361V78.4299H121.374L104.076 84.8142V100.966H138.235Z" fill="#1D1D1B"/>
<path d="M104.113 84.7907V116.985H138.272V84.7907H104.113Z" fill="#A9D5F3" stroke="black" stroke-width="1.09133" stroke-miterlimit="10"/>
<path d="M138.235 84.8142L155.532 78.4299H121.374L104.076 84.8142H138.235Z" fill="#003D64" stroke="black" stroke-width="0.545663" stroke-miterlimit="10" stroke-linecap="round" stroke-linejoin="round"/>
<path d="M155.532 78.4299H121.374L104.076 84.8142H138.235L155.532 78.4299Z" stroke="#1D1D1B" stroke-width="1.2081" stroke-miterlimit="10" stroke-linecap="round" stroke-linejoin="round"/>
<path d="M104.076 84.8142V117.117H138.235" stroke="#1D1D1B" stroke-width="1.2081" stroke-miterlimit="10" stroke-linecap="round" stroke-linejoin="round"/>
<path d="M155.317 78.4303L172.614 72.046V55.8398H138.456L121.158 62.2241V78.4303H155.317Z" fill="#1D1D1B"/>
<path d="M121.139 62.233V78.4392H155.297V62.233H121.139Z" fill="#A9D5F3" stroke="black" stroke-width="1.09133" stroke-miterlimit="10"/>
<path d="M155.317 62.2241L172.614 55.8398H138.456L121.158 62.2241H155.317Z" fill="#2E6EED"/>
<path d="M155.317 62.2784L172.614 55.8942V39.688H138.456L121.158 46.0722V62.2784H155.317Z" fill="#1D1D1B"/>
<path d="M121.174 46.0487V78.4065H155.332V46.0487H121.174Z" fill="#A9D5F3" stroke="black" stroke-width="1.09133" stroke-miterlimit="10"/>
<path d="M155.317 46.0722L172.614 39.688H138.456L121.158 46.0722H155.317Z" fill="#2E6EED" stroke="black" stroke-width="0.545663" stroke-miterlimit="10"/>
<path d="M172.614 39.688H138.456L121.158 46.0722H155.317L172.614 39.688Z" stroke="#1D1D1B" stroke-width="1.2081" stroke-miterlimit="10" stroke-linecap="round" stroke-linejoin="round"/>
<path d="M121.158 46.0725V78.4303H155.317" stroke="#1D1D1B" stroke-width="1.2081" stroke-miterlimit="10" stroke-linecap="round" stroke-linejoin="round"/>
<path d="M172.612 39.6877L189.855 33.3035V17.1519H155.751L138.453 23.5361V39.6877H172.612Z" fill="#1D1D1B"/>
<path d="M138.441 23.5199V39.7261H172.6V23.5199L138.441 23.5199Z" fill="#70C4FC"/>
<path d="M172.612 23.5361L189.855 17.1519H155.751L138.453 23.5361H172.612Z" fill="#2E6EED"/>
<path d="M172.612 23.5904L189.855 17.2062V1H155.751L138.453 7.38426V23.5904H172.612Z" fill="#1D1D1B"/>
<path d="M138.447 7.36296V27.5525L172.606 27.5525V7.36296L138.447 7.36296Z" fill="#70C4FC"/>
<path d="M172.612 7.38426L189.855 1H155.751L138.453 7.38426H172.612Z" fill="#2E6EED"/>
<path d="M189.855 1H155.751L138.453 7.38426H172.612L189.855 1Z" stroke="black" stroke-width="1.2081" stroke-miterlimit="10" stroke-linecap="round" stroke-linejoin="round"/>
<path d="M138.453 7.38403V39.6873H172.612" stroke="#1D1D1B" stroke-width="1.2081" stroke-miterlimit="10" stroke-linecap="round" stroke-linejoin="round"/>
</svg>
