<svg width="191" height="286" viewBox="0 0 191 286" fill="none" xmlns="http://www.w3.org/2000/svg">
<path d="M52.4593 245.992L69.7568 239.608V223.401H35.5983L18.3008 229.786V245.992H52.4593Z" fill="#1D1D1B"/>
<path d="M18.2891 229.749V245.956H52.4475V229.749H18.2891Z" fill="#A9D5F3"/>
<path d="M52.4593 229.786L69.7568 223.401H35.5983L18.3008 229.786H52.4593Z" fill="#2E6EED"/>
<path d="M52.4573 229.84L69.7548 223.456V207.25H35.5963L18.2988 213.634V229.84H52.4573Z" fill="#1D1D1B"/>
<path d="M18.2949 213.647V233.837H52.4534V213.647H18.2949Z" fill="#A9D5F3"/>
<path d="M52.4573 213.634L69.7548 207.25H35.5963L18.2988 213.634H52.4573Z" fill="#2E6EED"/>
<path d="M69.7548 207.25H35.5963L18.2988 213.634H52.4573L69.7548 207.25Z" fill="#003D64" stroke="black" stroke-width="1.09133" stroke-miterlimit="10" stroke-linecap="round" stroke-linejoin="round"/>
<path d="M52.4593 245.992H18.3008V213.634H52.4593V245.992Z" stroke="#1D1D1B" stroke-width="1.2081" stroke-miterlimit="10" stroke-linecap="round" stroke-linejoin="round"/>
<path d="M35.1585 284.678L52.456 278.294V262.088H18.2975L1 268.472V284.678H35.1585Z" fill="#1D1D1B"/>
<path d="M1.03906 268.462L1.03906 284.668H35.1975V268.462H1.03906Z" fill="#A9D5F3"/>
<path d="M35.1585 268.472L52.456 262.088H18.2975L1 268.472H35.1585Z" fill="#2E6EED"/>
<path d="M35.1585 268.527L52.456 262.197V245.991H18.2975L1 252.375V268.527H35.1585Z" fill="#1D1D1B"/>
<path d="M1.04102 252.359L1.04102 272.549H35.1995V252.359H1.04102Z" fill="#A9D5F3"/>
<path d="M35.1585 252.375L52.456 245.991H18.2975L1 252.375H35.1585Z" fill="#2E6EED"/>
<path d="M52.456 245.991H18.2975L1 252.375H35.1585L52.456 245.991Z" fill="#003D64" stroke="black" stroke-width="1.09133" stroke-miterlimit="10" stroke-linecap="round" stroke-linejoin="round"/>
<path d="M35.1585 252.375H1V284.678H35.1585V252.375Z" stroke="#1D1D1B" stroke-width="1.2081" stroke-miterlimit="10" stroke-linecap="round" stroke-linejoin="round"/>
<path d="M69.7542 207.25L87.0517 200.865V184.714H52.8932L35.5957 191.098V207.25H69.7542Z" fill="#1D1D1B"/>
<path d="M35.5918 191.09V207.297H69.7503V191.09H35.5918Z" fill="#A9D5F3"/>
<path d="M69.7542 191.098L87.0517 184.714H52.8932L35.5957 191.098H69.7542Z" fill="#2E6EED"/>
<path d="M69.7542 191.152L87.0517 184.768V168.562H52.8932L35.5957 174.946V191.152H69.7542Z" fill="#1D1D1B"/>
<path d="M35.5977 174.933V195.123H69.7561V174.933H35.5977Z" fill="#A9D5F3"/>
<path d="M69.7542 174.946L87.0517 168.562H52.8932L35.5957 174.946H69.7542Z" fill="#2E6EED"/>
<path d="M87.0517 168.562H52.8932L35.5957 174.946H69.7542L87.0517 168.562Z" fill="#003D64" stroke="black" stroke-width="1.09133" stroke-miterlimit="10" stroke-linecap="round" stroke-linejoin="round"/>
<path d="M69.7542 174.946H35.5957V207.249H69.7542V174.946Z" stroke="#1D1D1B" stroke-width="1.2081" stroke-miterlimit="10" stroke-linecap="round" stroke-linejoin="round"/>
<path d="M86.7778 168.561L104.075 162.177V145.971H69.9713L52.6738 152.355V168.561H86.7778Z" fill="#1D1D1B"/>
<path d="M52.6777 152.375V168.581H86.8362V152.375H52.6777Z" fill="#A9D5F3"/>
<path d="M86.7778 152.355L104.075 145.971H69.9713L52.6738 152.355H86.7778Z" fill="#2E6EED"/>
<path d="M86.7778 152.464L104.075 146.08V129.874H69.9713L52.6738 136.258V152.464H86.7778Z" fill="#1D1D1B"/>
<path d="M52.6816 136.217V156.407H86.8401V136.217H52.6816Z" fill="#A9D5F3"/>
<path d="M86.7778 136.258L104.075 129.874H69.9713L52.6738 136.258H86.7778Z" fill="#2E6EED"/>
<path d="M104.075 129.874H69.9713L52.6738 136.258H86.7778L104.075 129.874Z" fill="#003D64" stroke="black" stroke-width="1.09133" stroke-miterlimit="10" stroke-linecap="round" stroke-linejoin="round"/>
<path d="M86.8323 136.259H52.6738V168.562H86.8323V136.259Z" stroke="#1D1D1B" stroke-width="1.2081" stroke-miterlimit="10" stroke-linecap="round" stroke-linejoin="round"/>
<path d="M104.075 129.875L121.372 123.49V107.284H87.2682L69.9707 113.668V129.875H104.075Z" fill="#1D1D1B"/>
<path d="M69.9824 113.663V129.869H104.141V113.663H69.9824Z" fill="#A9D5F3" stroke="black" stroke-width="1.09133" stroke-miterlimit="10"/>
<path d="M104.075 113.668L121.372 107.284H87.2682L69.9707 113.668H104.075Z" fill="#2E6EED"/>
<path d="M104.075 113.722L121.372 107.338V91.1318H87.2682L69.9707 97.5161V113.722H104.075Z" fill="#1D1D1B"/>
<path d="M69.9746 97.5705V129.765H104.133V97.5705H69.9746Z" fill="#A9D5F3" stroke="black" stroke-width="1.09133" stroke-miterlimit="10"/>
<path d="M104.075 97.5161L121.372 91.1318H87.2682L69.9707 97.5161H104.075Z" fill="#2E6EED"/>
<path d="M121.372 91.1318H87.2682L69.9707 97.5161H104.075L121.372 91.1318Z" fill="#003D64" stroke="black" stroke-width="1.09133" stroke-miterlimit="10" stroke-linecap="round" stroke-linejoin="round"/>
<path d="M104.129 97.5164H69.9707V129.82H104.129V97.5164Z" stroke="#1D1D1B" stroke-width="1.2081" stroke-miterlimit="10" stroke-linecap="round" stroke-linejoin="round"/>
<path d="M120.934 90.8052L138.231 84.4209V68.2693H104.073L86.7754 74.599V90.8052H120.934Z" fill="#1D1D1B"/>
<path d="M86.8008 74.6068V90.813H120.959V74.6068H86.8008Z" fill="#A9D5F3" stroke="black" stroke-width="1.09133" stroke-miterlimit="10"/>
<path d="M120.934 74.599L138.231 68.2693H104.073L86.7754 74.599H120.934Z" fill="#2E6EED"/>
<path d="M120.934 74.7075L138.231 68.3233V52.1171H104.073L86.7754 58.5013V74.7075H120.934Z" fill="#1D1D1B"/>
<path d="M86.8164 58.4933V90.7419H120.975V58.4933H86.8164Z" fill="#A9D5F3" stroke="black" stroke-width="1.09133" stroke-miterlimit="10"/>
<path d="M120.934 58.5013L138.231 52.1171H104.073L86.7754 58.5013H120.934Z" fill="#2E6EED"/>
<path d="M138.231 52.1171H104.073L86.7754 58.5013H120.934L138.231 52.1171Z" fill="#003D64" stroke="black" stroke-width="1.09133" stroke-miterlimit="10" stroke-linecap="round" stroke-linejoin="round"/>
<path d="M120.934 58.5018H86.7754V90.8051H120.934V58.5018Z" stroke="#1D1D1B" stroke-width="1.2081" stroke-miterlimit="10" stroke-linecap="round" stroke-linejoin="round"/>
<path d="M138.235 52.1177L155.532 45.7334V29.5272H121.374L104.076 35.9115V52.1177H138.235Z" fill="#1D1D1B"/>
<path d="M104.109 35.8938V52.1H138.268V35.8938H104.109Z" fill="#A9D5F3" stroke="black" stroke-width="1.09133" stroke-miterlimit="10"/>
<path d="M138.235 35.9115L155.532 29.5272H121.374L104.076 35.9115H138.235Z" fill="#2E6EED"/>
<path d="M138.235 35.9658L155.532 29.6361V13.4299H121.374L104.076 19.8142V35.9658H138.235Z" fill="#1D1D1B"/>
<path d="M104.113 19.7907V51.9849H138.272V19.7907H104.113Z" fill="#A9D5F3" stroke="black" stroke-width="1.09133" stroke-miterlimit="10"/>
<path d="M138.235 19.8142L155.532 13.4299H121.374L104.076 19.8142H138.235Z" fill="#003D64" stroke="black" stroke-width="0.545663" stroke-miterlimit="10" stroke-linecap="round" stroke-linejoin="round"/>
<path d="M155.532 13.4299H121.374L104.076 19.8142H138.235L155.532 13.4299Z" stroke="#1D1D1B" stroke-width="1.2081" stroke-miterlimit="10" stroke-linecap="round" stroke-linejoin="round"/>
<path d="M104.076 19.8141V52.1173H138.235" stroke="#1D1D1B" stroke-width="1.2081" stroke-miterlimit="10" stroke-linecap="round" stroke-linejoin="round"/>
<path d="M155.317 13.4305L172.614 7.04628V-9.15991H138.456L121.158 -2.77565V13.4305H155.317Z" fill="#1D1D1B"/>
<path d="M121.139 -2.76674V13.4395L155.297 13.4395V-2.76674L121.139 -2.76674Z" fill="#A9D5F3" stroke="black" stroke-width="1.09133" stroke-miterlimit="10"/>
<path d="M121.174 -18.9512V13.4066L155.332 13.4066V-18.9512H121.174Z" fill="#A9D5F3" stroke="black" stroke-width="1.09133" stroke-miterlimit="10"/>
<path d="M121.158 -18.9274V13.4304H155.317" stroke="#1D1D1B" stroke-width="1.2081" stroke-miterlimit="10" stroke-linecap="round" stroke-linejoin="round"/>
</svg>
