<svg width="174" height="150" viewBox="0 0 174 150" fill="none" xmlns="http://www.w3.org/2000/svg">
<path d="M66.3274 90.5315L55.9112 80.6719L30.2285 81.467L30.7851 101.425L41.2013 111.205L66.884 110.489L66.3274 90.5315Z" fill="#003D64" stroke="black" stroke-width="1.09133" stroke-miterlimit="10"/>
<path d="M15.3275 111.973L41 111.212L40.4088 91.2624L14.7364 92.0231L15.3275 111.973Z" fill="black"/>
<path d="M14.7006 91.998L40.373 91.2373L39.7819 71.2876L14.1095 72.0483L14.7006 91.998Z" fill="black"/>
<path d="M64.8157 50.6165L54.3995 40.8364L28.7168 41.552L29.3529 61.5893L39.7691 71.3694L65.4518 70.5742L64.8157 50.6165Z" fill="#1D1D1B"/>
<path d="M39.2147 51.4111L28.7985 41.5515L3.19531 42.3466L3.75191 62.3044L14.1681 72.164L39.8508 71.3689L39.2147 51.4111Z" fill="#1D1D1B"/>
<path d="M12.4162 12.3704L2 2.82886L4.94199 102.3L15.3582 111.841L12.4162 12.3704Z" fill="#003D64" stroke="black" stroke-width="1.09133" stroke-miterlimit="10" stroke-linecap="round" stroke-linejoin="round"/>
<path d="M65.134 50.6165L54.7178 40.8364L29.0352 41.552L29.6713 61.5893L40.0874 71.3694L65.7702 70.5742L65.134 50.6165Z" fill="#003D64" stroke="black" stroke-width="1.09133" stroke-miterlimit="10"/>
<path d="M14.1576 72.071L39.8301 71.3103L39.2389 51.3606L13.5665 52.1213L14.1576 72.071Z" fill="black"/>
<path d="M13.5307 52.1743L39.2031 51.4136L38.612 31.4638L12.9396 32.2246L13.5307 52.1743Z" fill="black"/>
<path d="M38.576 31.533L64.2586 30.7379L63.702 10.7801L53.2859 1L27.6032 1.71564L2 2.51077L12.4162 12.2908L63.702 10.7801" fill="#003D64"/>
<path d="M38.576 31.533L64.2586 30.7379L63.702 10.7801L53.2859 1L27.6032 1.71564L2 2.51077L12.4162 12.2908L63.702 10.7801" stroke="black" stroke-width="1.09133" stroke-miterlimit="10"/>
<path d="M12.4199 12.2908L18.781 12.1318L38.1026 11.4957L63.7058 10.78L64.2624 30.7378L38.6592 31.5329L39.2158 51.4112L65.137 50.6161L65.7731 70.5738L39.0568 71.3689L39.6134 91.3267L66.3297 90.5316L66.8863 110.489L15.3619 112L12.4199 12.2908Z" fill="#73797B" stroke="black" stroke-width="1.09133" stroke-miterlimit="10" stroke-linecap="round" stroke-linejoin="round"/>
<path d="M25.6185 32.9648C29.6147 32.9648 32.8542 29.7253 32.8542 25.7291C32.8542 21.733 29.6147 18.4934 25.6185 18.4934C21.6224 18.4934 18.3828 21.733 18.3828 25.7291C18.3828 29.7253 21.6224 32.9648 25.6185 32.9648Z" fill="white" stroke="#1D1D1B" stroke-width="0.887684" stroke-miterlimit="10"/>
<path d="M28.4826 28.7505C30.5905 28.7505 32.2992 27.0417 32.2992 24.9338C32.2992 22.826 30.5905 21.1172 28.4826 21.1172C26.3748 21.1172 24.666 22.826 24.666 24.9338C24.666 27.0417 26.3748 28.7505 28.4826 28.7505Z" fill="black"/>
<path d="M25.3001 69.0632C29.2963 69.0632 32.5358 65.8236 32.5358 61.8275C32.5358 57.8313 29.2963 54.5918 25.3001 54.5918C21.304 54.5918 18.0645 57.8313 18.0645 61.8275C18.0645 65.8236 21.304 69.0632 25.3001 69.0632Z" fill="white" stroke="#1D1D1B" stroke-width="0.887684" stroke-miterlimit="10"/>
<path d="M28.1623 64.7702C30.2702 64.7702 31.979 63.0614 31.979 60.9536C31.979 58.8457 30.2702 57.137 28.1623 57.137C26.0545 57.137 24.3457 58.8457 24.3457 60.9536C24.3457 63.0614 26.0545 64.7702 28.1623 64.7702Z" fill="black"/>
<path d="M124.543 100.206C124.543 99.7969 124.871 99.4692 125.28 99.4692C125.69 99.4692 126.017 99.7969 126.017 100.206C126.017 100.616 125.69 100.943 125.28 100.943C124.871 100.943 124.543 100.616 124.543 100.206Z" fill="white"/>
<path d="M170.165 115.277L148.952 84.2361C148.379 83.4171 147.805 82.7619 147.15 82.1066L146.986 38.7807C148.297 38.6169 149.362 37.1426 149.362 35.3408V34.4399C149.362 32.5561 148.133 31 146.659 31H140.598H134.537C133.063 31 131.835 32.5561 131.835 34.4399V35.3408C131.835 37.1426 132.899 38.6169 134.21 38.7807L134.046 82.1066C133.391 82.68 132.817 83.4171 132.244 84.2361L111.113 115.277C104.807 124.614 109.803 139.274 119.386 139.356L140.434 139.52L161.647 139.356C171.475 139.274 176.553 124.614 170.165 115.277Z" fill="white" stroke="black" stroke-width="0.834373" stroke-miterlimit="10"/>
<path d="M166.968 116.996L151.98 94.4731H151.898H140.677H129.129L114.551 116.259C108.818 124.367 112.749 136.898 121.512 136.898H140.677H159.597H159.679C168.36 136.898 172.292 125.104 166.968 116.996Z" fill="#95C11F" stroke="black" stroke-width="0.928282" stroke-miterlimit="10" stroke-linecap="round" stroke-linejoin="round"/>
<path d="M138.694 130.493L117.482 106.578C116.908 105.923 116.335 105.431 115.68 104.94L115.516 71.6059C116.826 71.4421 117.891 70.2955 117.891 68.9851V68.3298C117.891 66.8556 116.663 65.709 115.188 65.709H109.21H103.231C101.756 65.709 100.528 66.8556 100.528 68.3298V68.9851C100.528 70.3774 101.593 71.524 102.903 71.6059L102.739 104.94C102.084 105.431 101.511 105.923 100.937 106.578L79.8068 130.493C73.5004 137.701 78.4964 149.003 88.0789 149.003L108.964 149.085H109.046H109.128L130.176 149.003C139.923 148.921 145.082 137.619 138.694 130.493Z" fill="white" stroke="black" stroke-width="0.834373" stroke-miterlimit="10"/>
<path d="M136.319 133.688L119.857 114.933H97.7433L82.2639 132.869C78.2507 138.111 81.8544 146.465 90.2902 146.465H127.228C135.746 146.629 139.349 138.766 136.319 133.688Z" fill="#003D64" stroke="black" stroke-width="1.09133" stroke-miterlimit="10"/>
</svg>
