<svg width="292" height="387" viewBox="0 0 292 387" fill="none" xmlns="http://www.w3.org/2000/svg">
<g clip-path="url(#clip0_966_10)">
<path d="M176.115 21.8926H67.3926V504.936H176.115V21.8926Z" fill="#95C11F" stroke="black" stroke-width="1.02313" stroke-miterlimit="10"/>
<path d="M121.754 41.9196C151.776 41.9196 176.115 32.9533 176.115 21.8929C176.115 10.8325 151.776 1.86621 121.754 1.86621C91.7308 1.86621 67.3926 10.8325 67.3926 21.8929C67.3926 32.9533 91.7308 41.9196 121.754 41.9196Z" fill="#A9D5F3" stroke="black" stroke-width="2.04627" stroke-miterlimit="10"/>
<path d="M121.755 32.2174C140.151 32.2174 155.064 26.7181 155.064 19.9344C155.064 13.1507 140.151 7.65137 121.755 7.65137C103.358 7.65137 88.4453 13.1507 88.4453 19.9344C88.4453 26.7181 103.358 32.2174 121.755 32.2174Z" fill="black"/>
</g>
<g clip-path="url(#clip1_966_10)">
<path d="M127.934 134.354C121.117 132.305 118.461 124.108 122.799 118.495C128.908 110.477 120.939 99.4288 111.466 102.814C104.826 105.22 97.8321 100.142 98.0092 93.0139C98.3633 82.9462 85.4373 78.6696 79.7711 87.0446C75.7871 92.9248 67.1993 92.9248 63.2153 87.0446C57.5491 78.7587 44.6231 82.9462 44.8887 93.0139C45.0658 100.142 38.1601 105.22 31.4316 102.814C21.9584 99.4288 13.9903 110.477 20.0992 118.495C24.4374 124.108 21.7813 132.394 14.9642 134.354C5.31401 137.205 5.31401 150.926 14.9642 153.777C21.7813 155.826 24.4374 164.023 20.0992 169.636C13.9903 177.654 21.9584 188.702 31.4316 185.317C38.0716 182.911 45.0658 187.989 44.8887 195.117C44.6231 205.185 57.5491 209.461 63.2153 201.086C67.1993 195.206 75.7871 195.206 79.7711 201.086C85.4373 209.372 98.3633 205.185 98.0977 195.117C97.9206 187.989 104.826 182.911 111.555 185.317C121.028 188.702 128.996 177.654 122.887 169.636C118.549 164.023 121.205 155.737 128.022 153.777C137.584 150.926 137.584 137.205 127.934 134.354ZM71.4489 163.399C60.8249 163.399 52.2371 154.757 52.2371 144.065C52.2371 133.374 60.8249 124.732 71.4489 124.732C82.073 124.732 90.6608 133.374 90.6608 144.065C90.6608 154.757 82.073 163.399 71.4489 163.399Z" fill="#73797B" stroke="black" stroke-width="2.04627" stroke-miterlimit="10"/>
<path d="M121.116 134.354C114.299 132.305 111.643 124.108 115.981 118.495C122.09 110.477 114.122 99.4288 104.649 102.814C98.0086 105.22 91.0144 100.142 91.1915 93.0139C91.5456 82.9462 78.5311 78.6696 72.8649 87.0446C68.8809 92.9248 60.2931 92.9248 56.309 87.0446C50.6429 78.7587 37.7169 82.9462 37.9825 93.0139C38.1596 100.142 31.2539 105.22 24.5253 102.814C15.1407 99.4288 7.0841 110.566 13.1929 118.495C17.5311 124.108 14.8751 132.394 8.05797 134.354C-1.59224 137.205 -1.59224 150.926 8.05797 153.777C14.8751 155.826 17.5311 164.023 13.1929 169.636C7.0841 177.654 15.0522 188.702 24.5253 185.317C31.1654 182.911 38.1596 187.989 37.9825 195.117C37.7169 205.185 50.6429 209.461 56.309 201.086C60.2931 195.206 68.8809 195.206 72.8649 201.086C78.5311 209.372 91.4571 205.185 91.1915 195.117C91.0144 187.989 97.92 182.911 104.649 185.317C114.122 188.702 122.09 177.654 115.981 169.636C111.643 164.023 114.299 155.737 121.116 153.777C130.766 150.926 130.766 137.205 121.116 134.354ZM64.6312 163.399C54.0071 163.399 45.4193 154.757 45.4193 144.065C45.4193 133.374 54.0071 124.821 64.6312 124.821C75.2553 124.821 83.8431 133.463 83.8431 144.155C83.8431 154.846 75.1668 163.399 64.6312 163.399Z" fill="#A9D5F3" stroke="black" stroke-width="2.04627" stroke-miterlimit="10"/>
</g>
<g clip-path="url(#clip2_966_10)">
<path d="M75.6906 433.174C75.6906 432.859 75.6906 432.649 75.5862 432.334H75.6906L73.7061 249.744L32.7617 250.269L34.7463 432.859H34.8507C34.8507 433.174 34.7463 433.384 34.7463 433.698C34.8507 439.05 44.0423 443.248 55.3229 443.038C66.6035 442.828 75.7951 438.421 75.6906 433.174Z" fill="#95C11F" stroke="black" stroke-width="2.04627" stroke-miterlimit="10"/>
<path d="M53.3374 259.712C64.6427 259.589 73.7611 255.168 73.704 249.837C73.6468 244.506 64.4356 240.283 53.1303 240.405C41.8249 240.528 32.7065 244.949 32.7637 250.28C32.8209 255.612 42.032 259.834 53.3374 259.712Z" fill="#A9D5F3" stroke="black" stroke-width="2.04627" stroke-miterlimit="10"/>
<path d="M74.753 343.662C74.8574 349.014 65.6658 353.316 54.3852 353.526C43.1046 353.736 33.8086 349.434 33.8086 344.082" stroke="black" stroke-width="1.54984" stroke-miterlimit="10"/>
<path d="M74.6475 336.632C74.7519 341.984 65.5603 346.286 54.2798 346.496C42.9992 346.601 33.8076 342.403 33.7031 337.157" stroke="black" stroke-width="1.54984" stroke-miterlimit="10"/>
<path d="M53.2955 255.935C60.2171 255.86 65.8 253.169 65.7652 249.924C65.7304 246.679 60.0911 244.109 53.1695 244.184C46.2478 244.259 40.6649 246.95 40.6997 250.195C40.7345 253.44 46.3739 256.01 53.2955 255.935Z" fill="#003D64" stroke="black" stroke-width="1.54984" stroke-miterlimit="10"/>
</g>
<g clip-path="url(#clip3_966_10)">
<path d="M181.25 486.93L137.403 443.016V331.578H223.974L267.82 375.422V486.93H181.25Z" fill="#1D1D1B"/>
<path d="M267.766 375.487V486.925H181.195V375.487H267.766Z" fill="#A9D5F3"/>
<path d="M181.25 375.422L137.403 331.578H223.974L267.82 375.422H181.25Z" fill="#2E6EED"/>
<path d="M181.25 375.913L137.403 332.069V220.562H223.974L267.82 264.476V375.913H181.25Z" fill="#1D1D1B"/>
<path d="M267.789 264.496V403.336H181.218V264.496H267.789Z" fill="#A9D5F3"/>
<path d="M181.25 264.476L137.403 220.562H223.974L267.82 264.476H181.25Z" fill="#003D64" stroke="black" stroke-width="1.12451" stroke-miterlimit="10"/>
<path d="M137.403 220.562H223.974L267.82 264.476H181.25L137.403 220.562Z" stroke="#1D1D1B" stroke-width="1.82935" stroke-miterlimit="10" stroke-linecap="round"/>
<path d="M267.82 264.477V486.93H181.25" stroke="#1D1D1B" stroke-width="2.24901" stroke-miterlimit="10"/>
<path d="M255.118 316.33C257.784 316.33 260.029 314.152 260.029 311.412V278.458C260.029 275.788 257.855 273.54 255.118 273.54C252.453 273.54 250.208 275.718 250.208 278.458V311.412C250.278 314.152 252.453 316.33 255.118 316.33Z" fill="black"/>
<path d="M250.91 287.874H283.041V293.425H250.91V287.874Z" fill="#95C11F"/>
<path d="M251.682 288.576V292.722H282.339V288.576H251.682ZM250.278 287.171H283.742V294.127H250.208V287.171H250.278Z" fill="black"/>
<path d="M280.936 300.24C275.666 300.24 271.395 295.961 271.395 290.684C271.395 285.406 275.666 281.128 280.936 281.128C286.205 281.128 290.477 285.406 290.477 290.684C290.477 295.961 286.205 300.24 280.936 300.24Z" fill="#95C11F" stroke="black" stroke-width="2.24901" stroke-miterlimit="10"/>
</g>
<defs>
<clipPath id="clip0_966_10">
<rect width="110.498" height="504.405" fill="white" transform="translate(66.5 0.976562)"/>
</clipPath>
<clipPath id="clip1_966_10">
<rect width="136.077" height="124.822" fill="white" transform="translate(0 81.6982)"/>
</clipPath>
<clipPath id="clip2_966_10">
<rect width="45.0179" height="204.627" fill="white" transform="translate(31.7148 239.357)"/>
</clipPath>
<clipPath id="clip3_966_10">
<rect width="155.182" height="267.632" fill="white" transform="matrix(-1 0 0 1 291.182 220)"/>
</clipPath>
</defs>
</svg>
