<svg width="279" height="253" viewBox="0 0 279 253" fill="none" xmlns="http://www.w3.org/2000/svg">
<path d="M23.3584 187.873C23.4794 187.577 23.8132 187.437 24.1096 187.558C24.4059 187.679 24.5462 188.012 24.4252 188.309C24.3042 188.605 23.9704 188.745 23.6741 188.624C23.3777 188.503 23.2374 188.17 23.3584 187.873Z" fill="white"/>
<path d="M51.9234 212.258L45.7436 183.53C45.5707 182.768 45.3494 182.125 45.0688 181.457L57.7496 150.057C58.7462 150.326 59.9521 149.573 60.4844 148.269L60.7506 147.617C61.3071 146.254 60.8778 144.765 59.811 144.33L55.4254 142.539L51.0397 140.749C49.9729 140.313 48.6242 141.077 48.0677 142.44L47.8016 143.092C47.2693 144.396 47.6042 145.777 48.5041 146.282L35.5863 177.586C34.9428 177.807 34.3102 178.171 33.6534 178.594L9.1928 194.814C1.87107 199.707 1.15532 211.791 8.06523 214.682L23.2482 221.018L38.6464 227.166C45.7825 230.01 53.7879 220.902 51.9234 212.258Z" fill="white" stroke="black" stroke-width="0.834373" stroke-miterlimit="10"/>
<path d="M49.1024 212.558L44.9105 191.832L44.8512 191.808L36.7318 188.493L28.3753 185.082L11.39 196.54C4.8461 200.714 3.98898 210.943 10.3304 213.531L24.1986 219.193L37.889 224.782L37.9483 224.806C44.2305 227.371 50.5594 219.998 49.1024 212.558Z" fill="#95C11F" stroke="black" stroke-width="0.928282" stroke-miterlimit="10" stroke-linecap="round" stroke-linejoin="round"/>
<path d="M134.122 107.898L135.918 113.318L139.345 108.694L143.543 81.081L138.32 80.2846L134.122 107.898Z" fill="#FC8C06" stroke="black" stroke-miterlimit="10" stroke-linecap="round" stroke-linejoin="round"/>
<path d="M138.525 80.2873L143.312 80.9947C147.246 81.5877 150.914 78.8891 151.507 74.956L153.867 59.4328L134.91 56.5521L132.551 72.0753C131.958 76.0084 134.656 79.6771 138.525 80.2873Z" fill="#FCC503" stroke="black" stroke-miterlimit="10" stroke-linecap="round" stroke-linejoin="round"/>
<path d="M129.19 55.6915L159.673 60.3559C160.672 60.4999 161.593 59.8413 161.737 58.842L166.724 26.4887L132.663 21.2734L127.676 53.6268C127.515 54.562 128.191 55.5475 129.19 55.6915Z" fill="#FCC503" stroke="black" stroke-miterlimit="10" stroke-linecap="round" stroke-linejoin="round"/>
<path d="M132.647 21.2073L166.709 26.4226L167.577 20.7001C168.056 17.6211 165.935 14.827 162.92 14.331L139.885 10.8275C136.806 10.3487 134.012 12.4699 133.516 15.4849L132.647 21.2073Z" fill="#FC8C06" stroke="black" stroke-miterlimit="10" stroke-linecap="round" stroke-linejoin="round"/>
<path d="M113.465 26.208L131.423 28.9447L132.452 22.287L114.495 19.5502C112.641 19.292 110.973 20.4938 110.651 22.3643C108.879 29.8385 111.659 25.8686 113.465 26.208Z" fill="#FCC503" stroke="black" stroke-miterlimit="10" stroke-linecap="round" stroke-linejoin="round"/>
<path d="M183.445 36.8941L165.487 34.1574L166.517 27.4996L184.474 30.2364C186.328 30.4946 187.547 32.2267 187.288 34.08C186.568 41.8902 185.315 37.2163 183.445 36.8941Z" fill="#FCC503" stroke="black" stroke-miterlimit="10" stroke-linecap="round" stroke-linejoin="round"/>
<path d="M136.037 30.2413L160.736 34.0283L161.108 31.6043L136.409 27.8173L136.037 30.2413Z" fill="#1D1D1B"/>
<path d="M135.322 35.0499L160.021 38.8369L160.393 36.4129L135.694 32.6259L135.322 35.0499Z" fill="#1D1D1B"/>
<path d="M134.602 39.9093L159.301 43.6963L159.672 41.2722L134.973 37.4852L134.602 39.9093Z" fill="#1D1D1B"/>
<path d="M145.87 81.3876L136.043 79.8809L135.691 82.1739L145.519 83.6806L145.87 81.3876Z" fill="#FCC503" stroke="black" stroke-miterlimit="10" stroke-linecap="round" stroke-linejoin="round"/>
<path d="M133.589 111.269L135.384 116.689L138.812 112.065L143.01 84.4521L137.787 83.6557L133.589 111.269Z" fill="#FC8C06" stroke="black" stroke-miterlimit="10" stroke-linecap="round" stroke-linejoin="round"/>
<path d="M137.997 83.6639L142.785 84.3712C146.718 84.9642 150.387 82.2657 150.98 78.3325L153.339 62.8093L134.365 59.8646L132.006 75.3878C131.43 79.3849 134.128 83.0537 137.997 83.6639Z" fill="#FCC503" stroke="black" stroke-miterlimit="10" stroke-linecap="round" stroke-linejoin="round"/>
<path d="M166.714 26.4256L167.061 24.1366C167.54 21.0576 165.419 18.2635 162.404 17.7675L139.369 14.264C136.29 13.7853 133.496 15.9064 133 18.9214L132.653 21.2104" fill="#FCC503"/>
<path d="M166.714 26.4256L167.061 24.1366C167.54 21.0576 165.419 18.2635 162.404 17.7675L139.369 14.264C136.29 13.7853 133.496 15.9064 133 18.9214L132.653 21.2104" stroke="black" stroke-miterlimit="10" stroke-linecap="round" stroke-linejoin="round"/>
<path d="M112.934 29.579L130.891 32.3158L131.921 25.6581L113.963 22.9213C112.11 22.6631 110.442 23.8649 110.12 25.7354C109.862 27.5888 111.144 29.3037 112.934 29.579Z" fill="#FC8C06" stroke="black" stroke-miterlimit="10" stroke-linecap="round" stroke-linejoin="round"/>
<path d="M182.929 40.3306L164.972 37.5939L166.001 30.9362L183.959 33.6729C185.812 33.9311 187.031 35.6632 186.773 37.5166C186.497 39.3059 184.782 40.5888 182.929 40.3306Z" fill="#FC8C06" stroke="black" stroke-miterlimit="10" stroke-linecap="round" stroke-linejoin="round"/>
<path d="M145.316 84.7753L135.488 83.2686L135.137 85.5616L144.964 87.0683L145.316 84.7753Z" fill="#FCC503" stroke="black" stroke-miterlimit="10" stroke-linecap="round" stroke-linejoin="round"/>
<path d="M128.657 59.0654L159.14 63.7299C160.139 63.8738 161.061 63.2152 161.205 62.2159L166.712 26.4291L132.651 21.2139L127.143 57.0007C126.999 57.9999 127.658 58.9214 128.657 59.0654Z" fill="#FCC503" stroke="black" stroke-miterlimit="10" stroke-linecap="round" stroke-linejoin="round"/>
<path d="M136.706 33.7822L159.032 37.2012C159.677 37.3029 160.312 36.8581 160.414 36.2132C160.516 35.5684 160.071 34.9327 159.426 34.831L137.1 31.4121C136.455 31.3104 135.819 31.7552 135.718 32.4C135.616 33.0449 136.061 33.6805 136.706 33.7822Z" fill="black"/>
<path d="M135.999 38.5684L158.325 41.9873C158.97 42.089 159.605 41.6442 159.707 40.9993C159.809 40.3545 159.364 39.7188 158.719 39.6171L136.393 36.1982C135.748 36.0965 135.112 36.5413 135.011 37.1862C134.845 37.8482 135.29 38.4838 135.999 38.5684Z" fill="black"/>
<path d="M135.243 43.4316L157.569 46.8506C158.214 46.9523 158.849 46.5075 158.951 45.8626C159.053 45.2178 158.608 44.5821 157.963 44.4804L135.637 41.0615C134.992 40.9598 134.356 41.4046 134.255 42.0494C134.089 42.7114 134.598 43.3299 135.243 43.4316Z" fill="black"/>
<path d="M248.803 185.278L237.871 174.346L251.519 160.698C258.691 153.526 272.548 158.749 273.941 160.141C275.333 161.534 280.556 175.391 273.383 182.563L259.666 196.211L248.803 185.278Z" fill="#95C11F" stroke="black" stroke-width="2" stroke-miterlimit="10"/>
<path d="M244.983 193.126L240.896 189.039L205.052 224.884L209.139 228.97L244.983 193.126Z" fill="#95C11F" stroke="black" stroke-width="2" stroke-miterlimit="10"/>
<path d="M254.859 183.259C254.859 183.259 256.948 178.942 255.973 177.967C254.999 177.061 250.751 179.15 250.751 179.15L240.863 189.038L244.972 193.147L254.859 183.259Z" fill="#95C11F" stroke="black" stroke-width="2" stroke-miterlimit="10"/>
<path d="M197.414 251.011C200.408 248.157 203.054 244.466 204.238 240.706C205.213 237.781 205.352 234.996 205.143 232.977L209.112 229.008L208.555 228.451L205.561 225.456L205.004 224.899L201.035 228.868C199.015 228.66 196.23 228.799 193.306 229.774C187.317 231.723 184.253 235.344 183 236.598C184.532 239.801 186.621 242.516 189.058 244.953C191.495 247.321 194.211 249.41 197.414 251.011ZM198.041 247.948C198.041 247.948 194.698 246.346 191.217 242.864C187.735 239.383 186.133 236.041 186.133 236.041C186.133 236.041 189.058 232.907 194.002 231.306C198.807 229.704 202.636 230.679 203.054 231.097C203.472 231.514 204.447 235.344 202.845 240.149C201.104 245.023 198.041 247.948 198.041 247.948Z" fill="#95C11F" stroke="black" stroke-width="2" stroke-miterlimit="10"/>
</svg>
