<svg width="302" height="178" viewBox="0 0 302 178" fill="none" xmlns="http://www.w3.org/2000/svg">
<path d="M119 177C146.614 177 169 154.614 169 127C169 99.3858 146.614 77 119 77C91.3857 77 69 99.3858 69 127C69 154.614 91.3857 177 119 177Z" fill="#FCC503" stroke="black" stroke-width="1.1481" stroke-miterlimit="10"/>
<path d="M88.6075 106.454C83.0556 95.9987 69.9738 91.9679 59.3807 97.4472C55.2328 99.5886 52.0421 102.927 50.1276 106.768C43.5548 100.911 33.7912 99.3996 25.4954 103.682C15.8595 108.658 11.6478 119.805 15.0937 129.631C14.2642 129.945 13.4346 130.323 12.605 130.701C2.0119 136.181 -2.07223 149.092 3.47959 159.546C9.03141 170.001 22.1133 174.032 32.7064 168.553C35.7695 166.978 38.2582 164.774 40.1726 162.192C46.6817 169.183 57.2748 171.261 66.2088 166.663C70.2929 164.522 73.4197 161.31 75.398 157.531C79.4182 157.909 83.5661 157.153 87.395 155.201C97.9881 149.721 102.072 136.81 96.5204 126.355C95.0527 123.647 93.1383 121.38 90.841 119.554C91.5429 115.208 90.841 110.673 88.6075 106.454Z" fill="white" stroke="#1D1D1B" stroke-width="1.1481" stroke-miterlimit="10"/>
<path d="M290.607 12.4535C285.056 1.99866 271.974 -2.03212 261.381 3.44723C257.233 5.58858 254.042 8.92657 252.128 12.7684C245.555 6.91118 235.791 5.39964 227.495 9.68234C217.86 14.6578 213.648 25.8055 217.094 35.6305C216.264 35.9454 215.435 36.3233 214.605 36.7012C204.012 42.1805 199.928 55.0916 205.48 65.5465C211.031 76.0013 224.113 80.0321 234.706 74.5528C237.769 72.9782 240.258 70.7739 242.173 68.1917C248.682 75.1826 259.275 77.2609 268.209 72.6633C272.293 70.522 275.42 67.31 277.398 63.5311C281.418 63.909 285.566 63.1532 289.395 61.2008C299.988 55.7214 304.072 42.8103 298.52 32.3555C297.053 29.6473 295.138 27.38 292.841 25.5536C293.543 21.2079 292.841 16.6732 290.607 12.4535Z" fill="white" stroke="#1D1D1B" stroke-width="1.1481" stroke-miterlimit="10"/>
</svg>
