<svg width="189" height="1492" viewBox="0 0 189 1492" fill="none" xmlns="http://www.w3.org/2000/svg">
<path d="M15.4059 1C15.228 1 15.1391 1 14.9613 1C14.7834 1 14.6945 1 14.5166 1C6.95796 1.17785 1 3.40098 1 6.15767C1 7.6694 2.86746 9.0922 5.802 9.98145V89.7476C5.802 93.8382 9.09217 97.1284 13.1827 97.1284H14.5166H15.317H16.7398C21.0082 97.1284 24.5652 93.8382 24.5652 89.7476V9.98145C27.6776 9.00327 29.634 7.6694 29.634 6.15767C29.8118 3.40098 23.4092 1.17785 15.4059 1Z" fill="white" stroke="black" stroke-width="0.929919" stroke-miterlimit="10"/>
<path d="M9.45752 26.0745V87.6998C9.45752 91.1679 11.5028 93.9246 13.9927 93.9246H16.8384C19.3283 93.9246 21.3736 91.1679 21.3736 87.6998V26.0745H9.45752Z" fill="#003D64" stroke="black" stroke-width="0.464959" stroke-miterlimit="10"/>
<path d="M15.3152 8.29211C19.2442 8.29211 22.4292 7.17735 22.4292 5.80221C22.4292 4.42707 19.2442 3.31226 15.3152 3.31226C11.3862 3.31226 8.20117 4.42707 8.20117 5.80221C8.20117 7.17735 11.3862 8.29211 15.3152 8.29211Z" stroke="black" stroke-width="0.929919" stroke-miterlimit="10"/>
<path d="M29.7262 17.9229C29.5483 17.9229 29.4594 17.9229 29.2816 17.9229C29.1037 17.9229 29.0148 17.9229 28.8369 17.9229C21.2783 18.1007 15.3203 20.3238 15.3203 23.0805C15.3203 24.5923 17.1878 26.015 20.1223 26.9043V106.67C20.1223 110.761 23.4125 114.051 27.5031 114.051H28.8369H29.6373H31.0601C35.3285 114.051 38.8856 110.761 38.8856 106.67V26.9043C41.9979 25.9261 43.9543 24.5923 43.9543 23.0805C44.1321 20.3238 37.7295 18.1007 29.7262 17.9229Z" fill="white" stroke="black" stroke-width="0.929919" stroke-miterlimit="10"/>
<path d="M23.7715 43.0012V104.627C23.7715 108.095 25.8167 110.851 28.3067 110.851H31.1523C33.6423 110.851 35.6875 108.095 35.6875 104.627V43.0012H23.7715Z" fill="#A9D5F3" stroke="black" stroke-width="0.464959" stroke-miterlimit="10"/>
<path d="M29.635 25.2147C33.564 25.2147 36.7491 24.1 36.7491 22.7248C36.7491 21.3497 33.564 20.2349 29.635 20.2349C25.7061 20.2349 22.521 21.3497 22.521 22.7248C22.521 24.1 25.7061 25.2147 29.635 25.2147Z" stroke="black" stroke-width="0.929919" stroke-miterlimit="10"/>
<path d="M109.26 611.8L137.61 587.789C138.784 586.819 139.307 585.261 139.081 583.728L132.495 547.23C132.191 545.716 131.2 544.463 129.721 543.921L94.7643 531.354C93.2855 530.812 91.6938 531.136 90.519 532.107C88.7375 533.652 88.4972 536.31 89.9837 538.19L94.2036 543.222C94.679 543.77 95.3115 544.278 96.0409 544.51L118.734 552.681C120.39 553.261 121.54 554.809 121.57 556.56L122.086 574.265C122.094 575.602 121.57 576.825 120.532 577.677L102.01 593.308C101.051 594.14 99.7151 594.482 98.3954 594.234L81.0221 590.813C79.2693 590.509 77.9036 589.1 77.6178 587.331L73.3275 563.392C73.2249 562.664 72.8664 561.919 72.3911 561.371L68.2114 556.496C66.6664 554.714 64.0088 554.474 62.1286 555.961L62.05 555.981C60.8752 556.952 60.353 558.509 60.5783 560.042L67.1649 596.54C67.4688 598.054 68.4598 599.307 69.9385 599.85L104.895 612.416C106.414 613.115 108.105 612.85 109.26 611.8Z" fill="#95C11F" stroke="black" stroke-width="1.09133" stroke-miterlimit="10"/>
<path d="M109.577 595.386L121.265 585.441C122.029 584.827 123.209 584.859 123.844 585.701L165.051 634.433C165.665 635.197 165.633 636.378 164.79 637.012L153.102 646.957C152.338 647.571 151.158 647.539 150.523 646.697L109.316 597.965C108.702 597.201 108.833 596.079 109.577 595.386Z" fill="#728E19" stroke="black" stroke-width="1.09133" stroke-miterlimit="10"/>
<path d="M141.234 643.131L147.918 621.824C149.077 618.177 152.922 616.188 156.569 617.347L212.056 634.87C215.702 636.029 217.692 639.874 216.533 643.521L209.849 664.828C208.689 668.475 204.845 670.465 201.198 669.305L145.711 651.782C142.065 650.623 140.075 646.778 141.234 643.131Z" fill="#95C11F" stroke="black" stroke-width="1.09133" stroke-miterlimit="10"/>
<path d="M124.643 594.707C124.042 592.364 121.656 590.951 119.312 591.551C116.968 592.151 115.555 594.538 116.156 596.881C116.756 599.225 119.143 600.638 121.486 600.038C123.83 599.438 125.243 597.051 124.643 594.707Z" fill="#95C11F" stroke="black" stroke-width="1.09133" stroke-miterlimit="10"/>
<path d="M158.204 634.513C157.604 632.169 155.217 630.756 152.874 631.356C150.53 631.957 149.117 634.343 149.717 636.687C150.317 639.031 152.704 640.444 155.048 639.843C157.391 639.243 158.805 636.856 158.204 634.513Z" fill="#728E19" stroke="black" stroke-width="1.09133" stroke-miterlimit="10"/>
<path d="M202.789 1214.28H136V1510.41H202.789V1214.28Z" fill="#003D64" stroke="black" stroke-width="0.545663" stroke-miterlimit="10"/>
<path d="M169.395 1226.55C187.838 1226.55 202.79 1221.06 202.79 1214.28C202.79 1207.5 187.838 1202 169.395 1202C150.952 1202 136 1207.5 136 1214.28C136 1221.06 150.952 1226.55 169.395 1226.55Z" fill="#A9D5F3" stroke="black" stroke-width="1.09133" stroke-miterlimit="10"/>
<path d="M169.395 1220.55C180.696 1220.55 189.857 1217.18 189.857 1213.02C189.857 1208.86 180.696 1205.49 169.395 1205.49C158.094 1205.49 148.933 1208.86 148.933 1213.02C148.933 1217.18 158.094 1220.55 169.395 1220.55Z" fill="black"/>
<path d="M149.789 1341.28H83V1637.41H149.789V1341.28Z" fill="#003D64" stroke="black" stroke-width="0.545663" stroke-miterlimit="10"/>
<path d="M116.395 1353.55C134.838 1353.55 149.79 1348.06 149.79 1341.28C149.79 1334.5 134.838 1329 116.395 1329C97.9517 1329 83.0005 1334.5 83.0005 1341.28C83.0005 1348.06 97.9517 1353.55 116.395 1353.55Z" fill="#A9D5F3" stroke="black" stroke-width="1.09133" stroke-miterlimit="10"/>
<path d="M116.395 1347.55C127.696 1347.55 136.857 1344.18 136.857 1340.02C136.857 1335.86 127.696 1332.49 116.395 1332.49C105.094 1332.49 95.9326 1335.86 95.9326 1340.02C95.9326 1344.18 105.094 1347.55 116.395 1347.55Z" fill="black"/>
<path d="M115.006 246.912C114.733 257.825 123.409 266.883 134.323 267.156C138.633 267.265 142.617 265.956 145.945 263.718C148.565 271.358 155.658 276.923 164.225 277.142C174.156 277.36 182.559 270.266 184.142 260.717C184.96 260.826 185.779 260.936 186.597 260.936C197.51 261.208 206.569 252.532 206.841 241.619C207.114 230.706 198.438 221.648 187.525 221.375C184.36 221.32 181.359 221.975 178.74 223.23C176.721 214.718 169.136 208.334 159.969 208.115C155.767 208.006 151.784 209.261 148.51 211.444C145.454 209.37 141.798 208.115 137.87 208.006C126.956 207.733 117.898 216.409 117.625 227.323C117.571 230.16 118.117 232.888 119.099 235.344C116.589 238.509 115.115 242.547 115.006 246.912Z" fill="white" stroke="#1D1D1B" stroke-width="1.09133" stroke-miterlimit="10"/>
<path d="M156.184 1076.26C145.273 1076.63 136.734 1085.81 137.095 1096.72C137.236 1101.03 138.775 1104.93 141.202 1108.13C133.727 1111.18 128.582 1118.59 128.862 1127.15C129.22 1137.08 136.789 1145.06 146.414 1146.08C146.353 1146.91 146.291 1147.73 146.339 1148.55C146.7 1159.46 155.887 1168 166.798 1167.64C177.708 1167.28 186.248 1158.09 185.887 1147.18C185.757 1144.02 184.93 1141.06 183.525 1138.52C191.905 1136.01 197.839 1128.06 197.525 1118.9C197.39 1114.7 195.906 1110.8 193.537 1107.65C195.43 1104.48 196.47 1100.76 196.351 1096.83C195.99 1085.92 186.803 1077.38 175.892 1077.74C173.057 1077.85 170.365 1078.56 167.97 1079.68C164.665 1077.36 160.548 1076.12 156.184 1076.26Z" fill="white" stroke="#1D1D1B" stroke-width="1.09133" stroke-miterlimit="10"/>
<path d="M51.5023 880.231C49.4287 880.231 47.6826 878.539 47.6826 876.411V850.82C47.6826 848.746 49.3742 847 51.5023 847C53.5758 847 55.3219 848.692 55.3219 850.82V876.411C55.2673 878.539 53.5758 880.231 51.5023 880.231Z" fill="black"/>
<path d="M54.7746 858.186H29.7832V862.496H54.7746V858.186Z" fill="#95C11F"/>
<path d="M54.175 858.731V861.951H30.2749V858.731H54.175ZM55.2663 857.64H29.1836V863.042H55.2663V857.64Z" fill="black"/>
<path d="M31.421 867.79C35.5195 867.79 38.842 864.467 38.842 860.369C38.842 856.27 35.5195 852.948 31.421 852.948C27.3225 852.948 24 856.27 24 860.369C24 864.467 27.3225 867.79 31.421 867.79Z" fill="#95C11F" stroke="black" stroke-width="1.09133" stroke-miterlimit="10"/>
</svg>
