<svg width="399" height="353" viewBox="0 0 399 353" fill="none" xmlns="http://www.w3.org/2000/svg">
<path d="M285.112 263.004C284.948 263.004 284.839 263.059 284.675 263.059V263.004L189.948 269.716L191.476 291.051L286.203 284.34V284.285C286.367 284.285 286.476 284.285 286.64 284.285C289.368 284.067 291.278 279.156 290.841 273.263C290.459 267.479 287.895 262.841 285.112 263.004Z" fill="#73797B" stroke="black" stroke-width="0.82657" stroke-miterlimit="10" stroke-linecap="round" stroke-linejoin="round"/>
<path d="M191.517 291.074C194.282 290.879 196.186 285.944 195.77 280.052C195.353 274.16 192.773 269.542 190.008 269.738C187.242 269.933 185.338 274.868 185.755 280.76C186.171 286.652 188.751 291.27 191.517 291.074Z" fill="#003D64" stroke="black" stroke-width="0.82657" stroke-miterlimit="10"/>
<path d="M238.729 266.333C241.458 266.115 244.022 270.753 244.459 276.646C244.895 282.539 242.986 287.505 240.257 287.668" stroke="black" stroke-width="0.82657" stroke-miterlimit="10"/>
<path d="M235.074 266.551C237.802 266.333 240.367 270.971 240.803 276.864C241.24 282.757 239.33 287.723 236.602 287.887" stroke="black" stroke-width="0.82657" stroke-miterlimit="10"/>
<path d="M277.908 263.55C280.636 263.332 283.201 267.97 283.637 273.863C284.074 279.756 282.164 284.722 279.436 284.885" stroke="black" stroke-width="0.82657" stroke-miterlimit="10"/>
<path d="M274.307 263.768C277.035 263.55 279.6 268.188 280.036 274.081C280.473 279.974 278.563 284.94 275.834 285.104" stroke="black" stroke-width="0.82657" stroke-miterlimit="10"/>
<path d="M191.226 286.938C192.909 286.819 194.067 283.798 193.812 280.19C193.556 276.583 191.985 273.755 190.302 273.874C188.618 273.994 187.46 277.014 187.715 280.622C187.971 284.229 189.542 287.057 191.226 286.938Z" fill="#1D1D1B"/>
<path d="M300.112 247.004C299.948 247.004 299.839 247.059 299.675 247.059V247.004L204.948 253.716L206.476 275.051L301.203 268.34V268.285C301.367 268.285 301.476 268.285 301.64 268.285C304.368 268.067 306.278 263.156 305.841 257.263C305.459 251.479 302.895 246.841 300.112 247.004Z" fill="#73797B" stroke="black" stroke-width="0.82657" stroke-miterlimit="10" stroke-linecap="round" stroke-linejoin="round"/>
<path d="M206.517 275.074C209.282 274.879 211.186 269.944 210.77 264.052C210.353 258.16 207.773 253.542 205.008 253.738C202.242 253.933 200.338 258.868 200.755 264.76C201.171 270.652 203.751 275.27 206.517 275.074Z" fill="#003D64" stroke="black" stroke-width="0.82657" stroke-miterlimit="10"/>
<path d="M253.729 250.333C256.458 250.115 259.022 254.753 259.459 260.646C259.895 266.539 257.986 271.505 255.257 271.668" stroke="black" stroke-width="0.82657" stroke-miterlimit="10"/>
<path d="M250.074 250.551C252.802 250.333 255.367 254.971 255.803 260.864C256.24 266.757 254.33 271.723 251.602 271.887" stroke="black" stroke-width="0.82657" stroke-miterlimit="10"/>
<path d="M292.908 247.55C295.636 247.332 298.201 251.97 298.637 257.863C299.074 263.756 297.164 268.722 294.436 268.885" stroke="black" stroke-width="0.82657" stroke-miterlimit="10"/>
<path d="M289.307 247.768C292.035 247.55 294.6 252.188 295.036 258.081C295.473 263.974 293.563 268.94 290.834 269.104" stroke="black" stroke-width="0.82657" stroke-miterlimit="10"/>
<path d="M206.226 270.938C207.909 270.819 209.067 267.798 208.812 264.19C208.556 260.583 206.985 257.755 205.302 257.874C203.618 257.994 202.46 261.014 202.715 264.622C202.971 268.229 204.542 271.057 206.226 270.938Z" fill="#1D1D1B"/>
<path d="M340.371 327L375 293.079V206L306.629 207L272 240.921V327H340.371Z" fill="#1D1D1B"/>
<path d="M339.645 240.748L373.749 206.645H306.414L272.311 240.748H339.645Z" fill="#2E6EED"/>
<path d="M340.371 241L375 206.811V120H306.629L272 154.189V241H340.371Z" fill="#1D1D1B"/>
<path d="M272.311 154.534V227.707V241.13V327.291H339.645V241.13V227.707V154.534H272.311Z" fill="#A9D5F3" stroke="black" stroke-width="1.09133" stroke-miterlimit="10" stroke-linejoin="round"/>
<path d="M339.645 154.534L373.749 120.43H306.414L272.311 154.534H339.645Z" fill="#003D64" stroke="black" stroke-width="0.545663" stroke-miterlimit="10" stroke-linejoin="round"/>
<path d="M373.749 120.43H306.414L272.311 154.534H339.645L373.749 120.43Z" stroke="#1D1D1B" stroke-width="0.887684" stroke-miterlimit="10" stroke-linecap="round" stroke-linejoin="round"/>
<path d="M272.311 154.534V327.291H339.645" stroke="#1D1D1B" stroke-width="1.09133" stroke-miterlimit="10" stroke-linejoin="round"/>
<path d="M324.908 194.41H321.143C318.36 194.41 316.068 192.118 316.068 189.335V173.075C316.068 170.292 318.36 168 321.143 168H324.908C327.691 168 329.983 170.292 329.983 173.075V189.335C329.983 192.173 327.691 194.41 324.908 194.41Z" fill="white" stroke="black" stroke-width="1.77537" stroke-miterlimit="10"/>
<path d="M330.8 310.8V314.565C330.8 317.348 328.508 319.64 325.725 319.64H309.464C306.681 319.64 304.39 317.348 304.39 314.565V310.8C304.39 308.017 306.681 305.726 309.464 305.726H325.725C328.508 305.726 330.8 308.017 330.8 310.8Z" fill="white" stroke="black" stroke-width="1.77537" stroke-miterlimit="10"/>
<path d="M288.84 251.815H285.075C282.292 251.815 280 249.523 280 246.74V230.48C280 227.697 282.292 225.405 285.075 225.405H288.84C291.623 225.405 293.914 227.697 293.914 230.48V246.74C293.86 249.523 291.623 251.815 288.84 251.815Z" fill="white" stroke="black" stroke-width="1.77537" stroke-miterlimit="10"/>
<path d="M286.929 225.404V251.814" stroke="black" stroke-width="1.09133" stroke-miterlimit="10"/>
<path d="M322.998 194.411V168.383" stroke="black" stroke-width="1.09133" stroke-miterlimit="10"/>
<path d="M330.637 312.71H304.555" stroke="black" stroke-width="1.09133" stroke-miterlimit="10"/>
<path d="M336.351 349.255L342.335 348.907L338.578 344.176L311.721 332.418L309.495 337.497L336.351 349.255Z" fill="#FC8C06" stroke="black" stroke-width="0.781226" stroke-miterlimit="10" stroke-linecap="round" stroke-linejoin="round"/>
<path d="M309.565 337.288L311.583 332.626C313.252 328.799 311.513 324.347 307.686 322.677L292.588 316.067L284.517 334.505L299.615 341.115C303.442 342.784 307.895 341.045 309.565 337.288Z" fill="#FCC503" stroke="black" stroke-width="1.09133" stroke-miterlimit="10" stroke-linecap="round" stroke-linejoin="round"/>
<path d="M282.082 340.072L295.093 310.432C295.51 309.458 295.093 308.345 294.119 307.927L262.67 294.082L248.128 327.2L279.577 341.046C280.482 341.463 281.664 341.046 282.082 340.072Z" fill="#FCC503" stroke="black" stroke-width="1.09133" stroke-miterlimit="10" stroke-linecap="round" stroke-linejoin="round"/>
<path d="M248.06 327.2L262.601 294.081L257.035 291.646C254.043 290.324 250.634 291.715 249.312 294.638L239.502 317.041C238.18 320.033 239.571 323.442 242.493 324.764L248.06 327.2Z" fill="#FC8C06" stroke="black" stroke-width="1.09133" stroke-miterlimit="10" stroke-linecap="round" stroke-linejoin="round"/>
<path d="M247.921 348.003L255.575 330.54L249.104 327.687L241.45 345.151C240.685 346.96 241.45 348.978 243.259 349.812C250.356 353.639 247.086 349.743 247.921 348.003Z" fill="#FCC503" stroke="black" stroke-width="1.09133" stroke-miterlimit="10" stroke-linecap="round" stroke-linejoin="round"/>
<path d="M277.769 279.957L270.116 297.421L263.645 294.568L271.298 277.104C272.064 275.295 274.151 274.53 275.96 275.295C283.683 278.148 278.604 278.148 277.769 279.957Z" fill="#FCC503" stroke="black" stroke-width="1.09133" stroke-miterlimit="10" stroke-linecap="round" stroke-linejoin="round"/>
<path d="M258.143 326.215L268.693 302.201L266.337 301.166L255.787 325.18L258.143 326.215Z" fill="#1D1D1B"/>
<path d="M262.819 328.245L273.369 304.231L271.012 303.196L260.462 327.21L262.819 328.245Z" fill="#1D1D1B"/>
<path d="M267.553 330.297L278.103 306.283L275.746 305.248L265.196 329.262L267.553 330.297Z" fill="#1D1D1B"/>
<path d="M312.669 330.141L308.471 339.696L310.701 340.675L314.898 331.121L312.669 330.141Z" fill="#FCC503" stroke="black" stroke-width="1.09133" stroke-miterlimit="10" stroke-linecap="round" stroke-linejoin="round"/>
<path d="M339.627 350.715L345.611 350.367L341.854 345.636L314.997 333.878L312.771 338.957L339.627 350.715Z" fill="#FC8C06" stroke="black" stroke-width="0.781226" stroke-miterlimit="10" stroke-linecap="round" stroke-linejoin="round"/>
<path d="M312.839 338.748L314.857 334.086C316.527 330.259 314.787 325.807 310.96 324.137L295.862 317.527L287.722 335.965L302.82 342.575C306.716 344.244 311.169 342.505 312.839 338.748Z" fill="#FCC503" stroke="black" stroke-width="1.09133" stroke-miterlimit="10" stroke-linecap="round" stroke-linejoin="round"/>
<path d="M262.604 294.08L260.378 293.106C257.386 291.784 253.977 293.175 252.655 296.097L242.844 318.501C241.522 321.493 242.914 324.902 245.836 326.224L248.063 327.198" fill="#FCC503"/>
<path d="M262.604 294.08L260.378 293.106C257.386 291.784 253.977 293.175 252.655 296.097L242.844 318.501C241.522 321.493 242.914 324.902 245.836 326.224L248.063 327.198" stroke="black" stroke-width="1.09133" stroke-miterlimit="10" stroke-linecap="round" stroke-linejoin="round"/>
<path d="M251.193 349.463L258.846 332L252.376 329.147L244.722 346.611C243.957 348.42 244.722 350.438 246.531 351.272C248.34 352.038 250.428 351.203 251.193 349.463Z" fill="#FC8C06" stroke="black" stroke-width="1.09133" stroke-miterlimit="10" stroke-linecap="round" stroke-linejoin="round"/>
<path d="M281.112 281.417L273.458 298.881L266.988 296.028L274.641 278.564C275.407 276.755 277.494 275.99 279.303 276.755C281.042 277.52 281.877 279.608 281.112 281.417Z" fill="#FC8C06" stroke="black" stroke-width="1.09133" stroke-miterlimit="10" stroke-linecap="round" stroke-linejoin="round"/>
<path d="M315.958 331.627L311.76 341.182L313.99 342.161L318.187 332.607L315.958 331.627Z" fill="#FCC503" stroke="black" stroke-width="1.09133" stroke-miterlimit="10" stroke-linecap="round" stroke-linejoin="round"/>
<path d="M285.355 341.531L298.366 311.891C298.784 310.917 298.366 309.804 297.392 309.387L262.604 294.08L248.062 327.198L282.85 342.505C283.825 342.923 284.938 342.505 285.355 341.531Z" fill="#FCC503" stroke="black" stroke-width="1.09133" stroke-miterlimit="10" stroke-linecap="round" stroke-linejoin="round"/>
<path d="M261.908 326.502L271.44 304.794C271.719 304.168 271.44 303.403 270.814 303.124C270.188 302.846 269.423 303.124 269.144 303.75L259.612 325.458C259.334 326.085 259.612 326.85 260.238 327.128C260.865 327.407 261.63 327.128 261.908 326.502Z" fill="black"/>
<path d="M266.57 328.521L276.102 306.813C276.38 306.186 276.102 305.421 275.476 305.143C274.85 304.864 274.084 305.143 273.806 305.769L264.274 327.477C263.996 328.103 264.274 328.869 264.9 329.147C265.526 329.495 266.292 329.216 266.57 328.521Z" fill="black"/>
<path d="M271.299 330.608L280.831 308.9C281.11 308.273 280.831 307.508 280.205 307.23C279.579 306.951 278.814 307.23 278.535 307.856L269.003 329.564C268.725 330.19 269.003 330.955 269.63 331.234C270.256 331.582 271.021 331.234 271.299 330.608Z" fill="black"/>
<path d="M343.067 113.577L322.823 108.065L322.932 106.919L343.121 112.431L343.067 113.577Z" fill="#95C11F"/>
<path d="M325.769 100.808L346.013 106.32C345.359 106.156 344.595 106.156 343.722 106.265L323.478 100.754C324.351 100.645 325.115 100.645 325.769 100.808Z" fill="#95C11F"/>
<path d="M343.722 106.266L323.478 100.755C323.587 100.755 323.696 100.755 323.805 100.7L344.05 106.211C343.94 106.266 343.831 106.266 343.722 106.266Z" fill="#95C11F"/>
<path d="M344.05 106.21L323.806 100.698C324.134 100.644 324.406 100.644 324.679 100.644L344.923 106.155C344.65 106.21 344.378 106.21 344.05 106.21Z" fill="#95C11F"/>
<path d="M344.924 106.209L324.68 100.698C324.898 100.698 325.062 100.698 325.28 100.753L345.524 106.264C345.36 106.209 345.142 106.209 344.924 106.209Z" fill="#95C11F"/>
<path d="M345.523 106.264L325.279 100.753C325.443 100.753 325.552 100.808 325.716 100.862L345.96 106.373C345.796 106.264 345.687 106.264 345.523 106.264Z" fill="#95C11F"/>
<path d="M345.959 106.319L325.715 100.807H325.769L345.959 106.319C346.014 106.319 345.959 106.319 345.959 106.319Z" fill="#95C11F"/>
<path d="M337.229 124.816L317.039 119.305L317.639 118.159L337.883 123.671L337.229 124.816Z" fill="#95C11F"/>
<path d="M340.284 130.11L320.04 124.598L317.039 119.305L337.229 124.817L340.284 130.11Z" fill="#95C11F" stroke="black" stroke-width="0.545663" stroke-miterlimit="10" stroke-linecap="round" stroke-linejoin="round"/>
<path d="M343.176 101.135L322.932 95.6239L322.496 95.0237L342.74 100.535L343.176 101.135Z" fill="#95C11F"/>
<path d="M325.224 87.3837L345.468 92.8949C344.485 92.6221 343.503 93.1132 342.467 94.1499C341.812 94.8047 341.102 95.7323 340.393 96.7691L320.149 91.2579C320.858 90.2211 321.568 89.2935 322.222 88.6387C323.259 87.602 324.241 87.1109 325.224 87.3837Z" fill="#95C11F"/>
<path d="M345.197 92.8405L324.953 87.3293C325.007 87.3293 325.116 87.3293 325.171 87.3839L345.415 92.8951C345.36 92.8405 345.251 92.8405 345.197 92.8405Z" fill="#003D64" stroke="black" stroke-width="1.09133" stroke-miterlimit="10"/>
<path d="M328.168 136.603L307.924 131.092L308.851 122.743L325.276 123.834L329.096 128.254L328.168 136.603Z" fill="#95C11F" stroke="black" stroke-width="0.545663" stroke-miterlimit="10" stroke-linecap="round" stroke-linejoin="round"/>
<path d="M317.531 89.7306L337.775 95.2418C337.393 95.1327 337.066 95.0781 336.684 95.0781L316.439 89.5669C316.821 89.5669 317.203 89.676 317.531 89.7306Z" fill="#95C11F"/>
<path d="M336.684 95.0781L316.439 89.5669C316.549 89.5669 316.712 89.5669 316.821 89.6214L337.066 95.1327C336.902 95.0781 336.793 95.0781 336.684 95.0781Z" fill="#95C11F"/>
<path d="M337.064 95.1326L316.82 89.6213C317.038 89.6759 317.256 89.6759 317.475 89.7305L337.719 95.2417C337.5 95.1871 337.282 95.1326 337.064 95.1326Z" fill="#95C11F"/>
<path d="M337.719 95.2417L317.475 89.7305H317.529L337.773 95.2417H337.719Z" fill="#95C11F"/>
<path d="M330.299 127.49L310.055 121.979C309.127 121.706 308.254 121.215 307.436 120.451L327.68 125.962C328.444 126.726 329.371 127.272 330.299 127.49Z" fill="#728E19" stroke="black" stroke-width="0.545663" stroke-miterlimit="10" stroke-linecap="round" stroke-linejoin="round"/>
<path d="M332.862 95.9512L312.618 90.44C313.055 86.8932 313.764 84.2194 315.456 82.5278C316.165 81.8185 317.093 81.2728 318.184 81L338.428 86.5112C337.282 86.8386 336.409 87.3297 335.7 88.0391C334.008 89.7306 333.299 92.4044 332.862 95.9512Z" fill="#95C11F"/>
<path d="M332.862 95.9512L312.618 90.44C313.055 86.8932 313.764 84.2194 315.456 82.5278C316.165 81.8185 317.093 81.2728 318.184 81L338.428 86.5112C337.282 86.8386 336.409 87.3297 335.7 88.0391C334.008 89.7306 333.299 92.4044 332.862 95.9512Z" stroke="black" stroke-width="0.545663" stroke-miterlimit="10" stroke-linecap="round" stroke-linejoin="round"/>
<path d="M328.554 99.6073L308.31 94.0961C308.692 93.605 309.128 93.1685 309.51 92.732C310.492 91.7498 311.529 90.9858 312.566 90.4402L332.81 95.9514C331.773 96.4971 330.736 97.261 329.754 98.2432C329.372 98.6252 328.99 99.1163 328.554 99.6073Z" fill="#95C11F"/>
<path d="M312.621 90.4402C312.457 90.4948 312.348 90.6039 312.184 90.6585C311.802 90.8767 311.366 91.1496 310.984 91.477C310.493 91.8589 310.056 92.2409 309.565 92.732C309.129 93.1685 308.747 93.605 308.365 94.0961L328.609 99.6073C328.991 99.1163 329.427 98.6797 329.809 98.2432C330.246 97.8067 330.737 97.3701 331.228 96.9881C331.61 96.6607 332.047 96.3879 332.428 96.1696C332.592 96.0605 332.701 96.006 332.865 95.9514L312.621 90.4402Z" fill="#95C11F" stroke="black" stroke-width="0.545663" stroke-miterlimit="10" stroke-linecap="round" stroke-linejoin="round"/>
<path d="M324.132 122.906L303.888 117.395C303.179 115.594 302.797 113.521 302.688 111.284L322.932 116.795C323.041 119.032 323.423 121.16 324.132 122.906Z" fill="#95C11F"/>
<path d="M322.984 117.286L302.74 111.774C302.74 111.611 302.74 111.447 302.74 111.338L322.984 116.849C322.984 116.958 322.984 117.122 322.984 117.286Z" fill="#95C11F"/>
<path d="M324.132 122.906L303.888 117.395C303.179 115.594 302.797 113.521 302.688 111.284L322.932 116.795C323.041 119.032 323.423 121.16 324.132 122.906Z" stroke="black" stroke-width="0.545663" stroke-miterlimit="10" stroke-linecap="round" stroke-linejoin="round"/>
<path d="M321.13 130.219L300.886 124.707C300.177 124.544 299.522 123.943 298.812 122.907L319.057 128.418C319.766 129.455 320.475 130 321.13 130.219Z" fill="#95C11F"/>
<path d="M321.13 130.219L300.886 124.707C300.177 124.544 299.522 123.943 298.812 122.907L319.057 128.418C319.766 129.455 320.475 130 321.13 130.219Z" stroke="black" stroke-width="0.545663" stroke-miterlimit="10" stroke-linecap="round" stroke-linejoin="round"/>
<path d="M319.057 128.418L298.812 122.907L303.178 116.414L323.367 121.925L319.057 128.418Z" fill="#95C11F" stroke="black" stroke-width="0.545663" stroke-miterlimit="10" stroke-linecap="round" stroke-linejoin="round"/>
<path d="M323.423 111.284L303.179 105.773C303.615 103.372 304.379 101.026 305.416 98.7886L325.66 104.3C324.623 106.482 323.859 108.883 323.423 111.284Z" fill="#95C11F"/>
<path d="M323.422 111.284L303.178 105.773C303.178 105.718 303.178 105.664 303.233 105.609L323.477 111.12C323.422 111.175 323.422 111.229 323.422 111.284Z" fill="#95C11F"/>
<path d="M323.422 111.12L303.178 105.609C303.233 105.227 303.342 104.845 303.396 104.518L323.641 110.029C323.586 110.356 323.477 110.738 323.422 111.12Z" fill="#95C11F"/>
<path d="M323.423 111.284L303.179 105.773C303.615 103.372 304.379 101.026 305.416 98.7886L325.66 104.3C324.623 106.482 323.859 108.883 323.423 111.284Z" stroke="black" stroke-width="0.545663" stroke-miterlimit="10" stroke-linecap="round" stroke-linejoin="round"/>
<path d="M325.66 104.3L305.416 98.7886C303.615 95.4601 303.124 92.4044 306.071 87.4934L326.315 93.0046C323.368 97.9156 323.859 100.971 325.66 104.3Z" fill="#95C11F"/>
<path d="M325.66 104.3L305.416 98.7886C303.615 95.4601 303.124 92.4044 306.071 87.4934L326.315 93.0046C323.368 97.9156 323.859 100.971 325.66 104.3Z" stroke="black" stroke-width="0.545663" stroke-miterlimit="10" stroke-linecap="round" stroke-linejoin="round"/>
<path d="M318.293 110.357L298.049 104.845L303.233 103.972L323.477 109.484L318.293 110.357Z" fill="#95C11F" stroke="black" stroke-width="0.545663" stroke-miterlimit="10" stroke-linecap="round" stroke-linejoin="round"/>
<path d="M320.585 116.741L300.341 111.23C298.65 110.793 297.776 109.102 298.049 104.845L318.293 110.357C317.966 114.613 318.894 116.304 320.585 116.741Z" fill="#95C11F"/>
<path d="M320.585 116.741L300.341 111.23C298.65 110.793 297.776 109.102 298.049 104.845L318.293 110.357C317.966 114.613 318.894 116.304 320.585 116.741Z" stroke="black" stroke-width="0.545663" stroke-miterlimit="10" stroke-linecap="round" stroke-linejoin="round"/>
<path d="M326.315 93.0048L329.316 98.2978L328.552 99.6074C328.934 99.1163 329.371 98.6798 329.753 98.2432C330.735 97.261 331.771 96.4971 332.808 95.9514C333.245 92.4046 333.954 89.7309 335.646 88.0393C336.355 87.33 337.283 86.7843 338.374 86.5115L337.446 94.8055L336.628 95.0784C337.992 95.1875 339.247 95.7332 340.338 96.7699C341.048 95.7332 341.757 94.8056 342.412 94.1508C344.158 92.4046 345.795 92.1864 347.487 94.6964L343.121 101.19L342.63 100.59C343.23 102.281 343.612 104.246 343.667 106.319C346.777 105.937 348.632 106.865 348.196 112.758L343.012 113.631L343.067 112.485C342.576 114.668 341.866 116.85 340.884 118.924C342.63 122.198 343.121 125.254 340.175 130.165L337.174 124.926L337.828 123.78C337.501 124.162 337.174 124.49 336.846 124.817C335.809 125.854 334.718 126.618 333.681 127.163C333.245 130.71 332.535 133.438 330.844 135.075C330.135 135.785 329.207 136.331 328.061 136.603L328.989 128.309L330.025 127.982C328.607 127.927 327.297 127.327 326.206 126.29C325.442 127.382 324.732 128.309 324.023 129.019C322.277 130.765 320.64 130.983 318.948 128.473L323.314 121.98L324.078 122.962C323.368 121.161 322.986 119.088 322.877 116.85C319.712 117.287 317.803 116.359 318.239 110.412L323.423 109.538L323.314 111.285C323.75 108.884 324.514 106.537 325.551 104.3C323.859 100.972 323.368 97.9158 326.315 93.0048Z" fill="#728E19" stroke="black" stroke-width="0.545663" stroke-miterlimit="10" stroke-linecap="round" stroke-linejoin="round"/>
<path fill-rule="evenodd" clip-rule="evenodd" d="M328.498 103.263C332.482 97.4247 337.829 96.388 340.503 100.972C343.177 105.555 342.085 113.958 338.156 119.797C334.173 125.636 328.826 126.672 326.152 122.089C323.478 117.56 324.515 109.102 328.498 103.263Z" fill="#95C11F" stroke="black" stroke-width="0.545663" stroke-miterlimit="10" stroke-linecap="round" stroke-linejoin="round"/>
<path fill-rule="evenodd" clip-rule="evenodd" d="M332.372 109.92C333.136 108.774 334.172 108.556 334.718 109.483C335.264 110.356 335.045 112.048 334.282 113.194C333.518 114.34 332.481 114.558 331.935 113.63C331.39 112.703 331.553 111.066 332.372 109.92Z" fill="#1C1C1C"/>
<path d="M1.00626 30.9121C0.733431 41.8253 9.40947 50.8833 20.3227 51.1561C24.6335 51.2653 28.6168 49.9557 31.9454 47.7184C34.5645 55.3577 41.6581 60.9235 50.2251 61.1417C60.1561 61.36 68.5593 54.2664 70.1418 44.7173C70.9603 44.8264 71.7787 44.9356 72.5972 44.9356C83.5105 45.2084 92.5685 36.5324 92.8413 25.6191C93.1142 14.7058 84.4381 5.64784 73.5249 5.37501C70.36 5.32044 67.3589 5.97525 64.7397 7.23027C62.7207 -1.28207 55.136 -7.66633 45.9689 -7.8846C41.7673 -7.99373 37.7839 -6.73872 34.51 -4.55607C31.4543 -6.62959 27.7983 -7.8846 23.8695 -7.99374C12.9563 -8.26657 3.89828 0.409487 3.62544 11.3227C3.57088 14.1602 4.11654 16.8885 5.09873 19.344C2.58868 22.5088 1.1154 26.5468 1.00626 30.9121Z" fill="white" stroke="#1D1D1B" stroke-width="1.09133" stroke-miterlimit="10"/>
<path d="M381.138 271.316V257.784C383.594 257.184 385.122 256.256 385.122 255.219C385.122 253.473 380.647 252 375.082 252C369.516 252 365.041 253.419 365.041 255.219C365.041 256.256 366.624 257.184 369.025 257.784V271.371C359.203 274.045 352 283.43 352 294.125C352 306.894 362.313 317.207 375.082 317.207C387.85 317.207 398.163 306.894 398.163 294.125C398.163 283.43 390.96 273.99 381.138 271.316Z" fill="white" stroke="black" stroke-width="0.928282" stroke-miterlimit="10" stroke-linecap="round" stroke-linejoin="round"/>
<path d="M395.762 293.907H395.489H375.081H354.619C354.728 305.093 363.84 314.151 375.026 314.151C378.191 314.151 381.192 313.441 383.866 312.132C390.905 308.858 395.707 301.928 395.762 293.907Z" fill="#A9D5F3" stroke="black" stroke-width="1.09133" stroke-miterlimit="10"/>
<path d="M374.864 256.092C377.636 256.092 379.884 255.579 379.884 254.946C379.884 254.313 377.636 253.8 374.864 253.8C372.091 253.8 369.844 254.313 369.844 254.946C369.844 255.579 372.091 256.092 374.864 256.092Z" fill="white" stroke="black" stroke-width="0.928282" stroke-miterlimit="10" stroke-linecap="round" stroke-linejoin="round"/>
</svg>
