<svg width="122" height="88" viewBox="0 0 122 88" fill="none" xmlns="http://www.w3.org/2000/svg">
<path d="M110.412 84.4533L117.137 84.0623L112.914 78.745L82.7307 65.53L80.2285 71.2382L110.412 84.4533Z" fill="#FC8C06" stroke="black" stroke-width="0.781226" stroke-miterlimit="10" stroke-linecap="round" stroke-linejoin="round"/>
<path d="M80.3056 71.0041L82.5733 65.765C84.45 61.4643 82.4951 56.4598 78.1943 54.5831L61.2259 47.1545L52.1553 67.8763L69.1237 75.3049C73.4244 77.1816 78.4289 75.2267 80.3056 71.0041Z" fill="#FCC503" stroke="black" stroke-width="1.09133" stroke-miterlimit="10" stroke-linecap="round" stroke-linejoin="round"/>
<path d="M49.4201 74.1317L64.0427 40.8204C64.5118 39.7256 64.0426 38.4745 62.9479 38.0054L27.6036 22.4445L11.2607 59.6655L46.6051 75.2264C47.6216 75.6955 48.9509 75.2264 49.4201 74.1317Z" fill="#FCC503" stroke="black" stroke-width="1.09133" stroke-miterlimit="10" stroke-linecap="round" stroke-linejoin="round"/>
<path d="M11.1818 59.6655L27.5247 22.4445L21.269 19.7076C17.9066 18.2219 14.0751 19.7859 12.5894 23.0701L1.56379 48.249C0.0780747 51.6114 1.64197 55.443 4.92618 56.9287L11.1818 59.6655Z" fill="#FC8C06" stroke="black" stroke-width="1.09133" stroke-miterlimit="10" stroke-linecap="round" stroke-linejoin="round"/>
<path d="M11.0248 83.0465L19.6263 63.4194L12.3541 60.2134L3.75256 79.8405C2.89241 81.8736 3.75259 84.1412 5.78567 85.0796C13.7616 89.3803 10.0864 85.0014 11.0248 83.0465Z" fill="#FCC503" stroke="black" stroke-width="1.09133" stroke-miterlimit="10" stroke-linecap="round" stroke-linejoin="round"/>
<path d="M44.5714 6.57076L35.9699 26.1978L28.6978 22.9918L37.2993 3.36477C38.1594 1.33169 40.5053 0.471509 42.5384 1.33166C51.218 4.53767 45.5098 4.53768 44.5714 6.57076Z" fill="#FCC503" stroke="black" stroke-width="1.09133" stroke-miterlimit="10" stroke-linecap="round" stroke-linejoin="round"/>
<path d="M22.5144 58.5603L34.3711 31.5717L31.7224 30.408L19.8656 57.3967L22.5144 58.5603Z" fill="#1D1D1B"/>
<path d="M27.7707 60.8414L39.6274 33.8528L36.9787 32.6891L25.122 59.6778L27.7707 60.8414Z" fill="#1D1D1B"/>
<path d="M33.0915 63.147L44.9482 36.1583L42.2995 34.9947L30.4428 61.9833L33.0915 63.147Z" fill="#1D1D1B"/>
<path d="M83.7927 62.9715L79.0752 73.7097L81.5808 74.8105L86.2983 64.0723L83.7927 62.9715Z" fill="#FCC503" stroke="black" stroke-width="1.09133" stroke-miterlimit="10" stroke-linecap="round" stroke-linejoin="round"/>
<path d="M114.09 86.0948L120.814 85.7038L116.592 80.3866L86.4085 67.1715L83.9062 72.8798L114.09 86.0948Z" fill="#FC8C06" stroke="black" stroke-width="0.781226" stroke-miterlimit="10" stroke-linecap="round" stroke-linejoin="round"/>
<path d="M83.9835 72.645L86.2511 67.4058C88.1278 63.1051 86.1729 58.1006 81.8722 56.2239L64.9038 48.7953L55.7549 69.5171L72.7233 76.9457C77.1022 78.8224 82.1068 76.8675 83.9835 72.645Z" fill="#FCC503" stroke="black" stroke-width="1.09133" stroke-miterlimit="10" stroke-linecap="round" stroke-linejoin="round"/>
<path d="M27.5276 22.4439L25.0254 21.3492C21.663 19.8635 17.8314 21.4274 16.3457 24.7116L5.32013 49.8905C3.83441 53.2529 5.39836 57.0845 8.68257 58.5702L11.1848 59.6649" fill="#FCC503"/>
<path d="M27.5276 22.4439L25.0254 21.3492C21.663 19.8635 17.8314 21.4274 16.3457 24.7116L5.32013 49.8905C3.83441 53.2529 5.39836 57.0845 8.68257 58.5702L11.1848 59.6649" stroke="black" stroke-width="1.09133" stroke-miterlimit="10" stroke-linecap="round" stroke-linejoin="round"/>
<path d="M14.7029 84.6881L23.3044 65.061L16.0323 61.855L7.43078 81.482C6.57063 83.5151 7.43081 85.7828 9.46389 86.7211C11.497 87.5813 13.8428 86.6429 14.7029 84.6881Z" fill="#FC8C06" stroke="black" stroke-width="1.09133" stroke-miterlimit="10" stroke-linecap="round" stroke-linejoin="round"/>
<path d="M48.3278 8.21231L39.7263 27.8393L32.4541 24.6333L41.0556 5.00627C41.9157 2.97319 44.2616 2.11306 46.2947 2.97321C48.2496 3.83336 49.1879 6.17923 48.3278 8.21231Z" fill="#FC8C06" stroke="black" stroke-width="1.09133" stroke-miterlimit="10" stroke-linecap="round" stroke-linejoin="round"/>
<path d="M87.4905 64.6425L82.7729 75.3807L85.2785 76.4814L89.9961 65.7432L87.4905 64.6425Z" fill="#FCC503" stroke="black" stroke-width="1.09133" stroke-miterlimit="10" stroke-linecap="round" stroke-linejoin="round"/>
<path d="M53.0983 75.773L67.7209 42.4618C68.19 41.367 67.7209 40.1159 66.6261 39.6467L27.5284 22.4437L11.1855 59.6648L50.2833 76.8678C51.378 77.3369 52.6292 76.8677 53.0983 75.773Z" fill="#FCC503" stroke="black" stroke-width="1.09133" stroke-miterlimit="10" stroke-linecap="round" stroke-linejoin="round"/>
<path d="M26.7451 58.8832L37.4579 34.4862C37.7707 33.7825 37.4579 32.9223 36.7542 32.6095C36.0504 32.2967 35.1903 32.6095 34.8775 33.3133L24.1647 57.7103C23.8519 58.414 24.1647 59.2742 24.8684 59.5869C25.5722 59.8997 26.4324 59.587 26.7451 58.8832Z" fill="black"/>
<path d="M31.9849 61.151L42.6977 36.7541C43.0105 36.0503 42.6977 35.1901 41.9939 34.8773C41.2901 34.5646 40.43 34.8774 40.1172 35.5811L29.4045 59.9781C29.0917 60.6818 29.4044 61.542 30.1082 61.8548C30.8119 62.2457 31.6721 61.9329 31.9849 61.151Z" fill="black"/>
<path d="M37.2998 63.4964L48.0126 39.0995C48.3254 38.3958 48.0126 37.5356 47.3088 37.2228C46.6051 36.91 45.745 37.2228 45.4322 37.9266L34.7194 62.3235C34.4066 63.0273 34.7194 63.8874 35.4231 64.2002C36.1269 64.5912 36.9871 64.2002 37.2998 63.4964Z" fill="black"/>
</svg>
