<svg width="87" height="85" viewBox="0 0 87 85" fill="none" xmlns="http://www.w3.org/2000/svg">
<path d="M69.2021 54.9446C67.1094 52.2827 68.3631 48.3358 71.5793 47.3787C76.1898 45.9476 76.1066 39.46 71.4733 38.135C68.2519 37.1915 66.9384 33.2978 69.0049 30.5668C71.9398 26.7733 68.0628 21.4602 63.4915 23.1302C60.3145 24.3262 56.9078 21.8798 57.0259 18.4872C57.0977 13.6915 50.9437 11.6959 48.2174 15.6392C46.2899 18.4701 42.1806 18.4696 40.2573 15.7186C37.5211 11.7516 31.2972 13.8154 31.4643 18.5719C31.5851 21.9254 28.2457 24.3745 25.0547 23.2421C20.5016 21.6586 16.7073 26.9423 19.6627 30.7507C21.7555 33.4126 20.5018 37.3596 17.2855 38.3166C12.6751 39.7477 12.7582 46.2353 17.3916 47.5604C20.613 48.5038 21.9265 52.3975 19.8599 55.1285C16.9251 58.922 20.8021 64.2351 25.3733 62.5651C28.5504 61.3692 31.957 63.8155 31.839 67.2081C31.7672 72.0038 37.9212 73.9994 40.6475 70.0561C42.5749 67.2253 46.6843 67.2257 48.6076 69.9767C51.3438 73.9437 57.5677 71.8799 57.4006 67.1234C57.2797 63.77 60.6191 61.3207 63.8102 62.4531C68.3632 64.0367 72.1576 58.7529 69.2021 54.9446ZM39.0753 50.3812C34.9734 47.4356 34.0327 41.702 36.9783 37.6002C39.9238 33.4983 45.6574 32.5575 49.7593 35.5031C53.8612 38.4487 54.8018 44.1822 51.8563 48.2841C48.9107 52.386 43.2467 53.3767 39.0753 50.3812Z" fill="#003D64" stroke="black" stroke-width="1.09133" stroke-miterlimit="10"/>
<path d="M67.4501 54.2492C65.3574 51.5873 66.6111 47.6403 69.8274 46.6833C74.4378 45.2522 74.3547 38.7646 69.7214 37.4395C66.5 36.4961 65.1864 32.6024 67.253 29.8713C70.1878 26.0779 66.3108 20.7648 61.7396 22.4348C58.5625 23.6307 55.1559 21.1844 55.2739 17.7918C55.3457 12.9961 49.1917 11.0005 46.4654 14.9437C44.5379 17.7746 40.4286 17.7742 38.5053 15.0231C35.7691 11.0561 29.5452 13.12 29.7123 17.8765C29.8332 21.2299 26.4938 23.6791 23.3027 22.5467C18.7496 20.9631 14.9553 26.2469 17.9108 30.0552C20.0035 32.7172 18.7498 36.6641 15.5336 37.6211C10.9232 39.0523 11.0062 45.5398 15.6396 46.8649C18.861 47.8083 20.1745 51.7021 18.108 54.4331C15.1731 58.2265 19.0502 63.5397 23.6214 61.8696C26.7984 60.6737 30.2051 63.1201 30.0871 66.5127C30.0153 71.3084 36.1692 73.3039 38.8955 69.3607C40.823 66.5298 44.9323 66.5302 46.8556 69.2813C49.5918 73.2483 55.8158 71.1844 55.6487 66.428C55.5278 63.0745 58.8672 60.6253 62.0582 61.7577C66.6113 63.3413 70.4056 58.0575 67.4501 54.2492ZM37.3233 49.6857C33.2214 46.7401 32.2807 41.0066 35.2263 36.9047C38.1719 32.8028 43.9054 31.8621 48.0073 34.8077C52.1092 37.7532 53.0499 43.4868 50.1043 47.5887C47.1587 51.6906 41.4252 52.6313 37.3233 49.6857Z" fill="#A9D5F3" stroke="black" stroke-width="1.09133" stroke-miterlimit="10"/>
</svg>
