<svg width="169" height="341" viewBox="0 0 169 341" fill="none" xmlns="http://www.w3.org/2000/svg">
<path d="M9 340.535C9 340.535 49 336.535 88.5 336.035C128 335.535 168 340.535 168 340.535" stroke="black" stroke-width="0.5"/>
<mask id="path-2-inside-1_1016_10" fill="white">
<path fill-rule="evenodd" clip-rule="evenodd" d="M32.8577 44C16.3681 44 3.00056 34.1503 3.00056 22C3.00056 9.84974 16.3681 0 32.8577 0C49.3473 0 62.7148 9.84974 62.7148 22C62.7148 27.1507 60.3127 31.8879 56.2888 35.6366L58.5242 42.9524L49.7935 40.1208C44.9813 42.5673 39.1465 44 32.8577 44Z"/>
</mask>
<path fill-rule="evenodd" clip-rule="evenodd" d="M32.8577 44C16.3681 44 3.00056 34.1503 3.00056 22C3.00056 9.84974 16.3681 0 32.8577 0C49.3473 0 62.7148 9.84974 62.7148 22C62.7148 27.1507 60.3127 31.8879 56.2888 35.6366L58.5242 42.9524L49.7935 40.1208C44.9813 42.5673 39.1465 44 32.8577 44Z" fill="white"/>
<path d="M56.2888 35.6366L55.3325 35.9289L55.1498 35.3311L55.6072 34.905L56.2888 35.6366ZM58.5242 42.9524L59.4805 42.6601L60.0414 44.4957L58.2157 43.9036L58.5242 42.9524ZM49.7935 40.1208L49.3403 39.2294L49.7088 39.042L50.102 39.1696L49.7935 40.1208ZM4.00056 22C4.00056 27.6821 7.12409 32.9089 12.3387 36.7513C17.5529 40.5934 24.8042 43 32.8577 43V45C24.4215 45 16.7442 42.4818 11.1523 38.3614C5.56077 34.2413 2.00056 28.4681 2.00056 22H4.00056ZM32.8577 1C24.8042 1 17.5529 3.40664 12.3387 7.24871C7.12409 11.0911 4.00056 16.3179 4.00056 22H2.00056C2.00056 15.5319 5.56077 9.75868 11.1523 5.63859C16.7442 1.51823 24.4215 -1 32.8577 -1V1ZM61.7148 22C61.7148 16.3179 58.5913 11.0911 53.3767 7.24871C48.1625 3.40664 40.9112 1 32.8577 1V-1C41.2939 -1 48.9712 1.51823 54.5631 5.6386C60.1546 9.75868 63.7148 15.5319 63.7148 22H61.7148ZM55.6072 34.905C59.4696 31.3066 61.7148 26.821 61.7148 22H63.7148C63.7148 27.4803 61.1557 32.4692 56.9705 36.3683L55.6072 34.905ZM57.2452 35.3444L59.4805 42.6601L57.5678 43.2446L55.3325 35.9289L57.2452 35.3444ZM58.2157 43.9036L49.485 41.072L50.102 39.1696L58.8327 42.0011L58.2157 43.9036ZM32.8577 43C38.9973 43 44.6757 41.6009 49.3403 39.2294L50.2467 41.0122C45.2868 43.5338 39.2957 45 32.8577 45V43Z" fill="black" mask="url(#path-2-inside-1_1016_10)"/>
<path d="M29.7084 18V12.687H27.0904L26.1664 15.25L25.2534 12.687H22.6354V18H24.6154V15.107L25.6384 18H26.7164L27.7394 15.107V18H29.7084ZM32.7903 18V16.086H34.4073V18H36.3873V12.687H34.4073V14.37H32.7903V12.687H30.8103V18H32.7903ZM40.0879 18.132C40.8799 18.132 41.8259 17.923 42.3539 17.472L41.5399 16.251C41.2759 16.482 40.6159 16.625 40.3189 16.625C39.6699 16.625 39.2849 16.295 39.1749 15.954H42.7829V15.547C42.7829 13.677 41.5839 12.555 40.0219 12.555C38.3059 12.555 37.1289 13.798 37.1289 15.338C37.1289 17.087 38.4269 18.132 40.0879 18.132ZM40.9019 14.7H39.1529C39.2189 14.458 39.4169 14.062 40.0219 14.062C40.6599 14.062 40.8469 14.469 40.9019 14.7ZM20.8318 30V22.663H18.9178L16.1128 25.413L17.3668 26.722L18.6098 25.49V30H20.8318ZM24.2572 30.121C26.5342 30.121 28.1072 28.779 28.1072 26.326C28.1072 24.181 27.0182 22.542 24.6092 22.542C22.8712 22.542 21.5622 23.587 21.5622 25.182C21.5622 26.744 22.8382 27.613 24.1582 27.613C24.8292 27.613 25.4892 27.349 25.8632 26.865C25.8632 26.876 25.8632 26.887 25.8632 26.898C25.8632 27.613 25.1922 28.163 24.2572 28.163C23.7182 28.163 23.3222 28.064 22.9042 27.767L21.9692 29.483C22.5522 29.879 23.4212 30.121 24.2572 30.121ZM24.8402 25.732C24.4002 25.732 23.8172 25.567 23.8172 25.094C23.8172 24.786 24.1912 24.5 24.7412 24.5C25.5222 24.5 25.8302 24.94 25.8742 25.435C25.5772 25.666 25.2142 25.732 24.8402 25.732ZM31.3069 30.132C33.0779 30.132 33.7709 29.12 34.0019 27.492L34.1559 26.403H35.2559V30H37.2359V24.687H32.4619L32.0879 27.228C31.9449 28.251 31.6699 28.515 31.3069 28.515V30.132ZM40.9365 30.132C41.7285 30.132 42.6745 29.923 43.2025 29.472L42.3885 28.251C42.1245 28.482 41.4645 28.625 41.1675 28.625C40.5185 28.625 40.1335 28.295 40.0235 27.954H43.6315V27.547C43.6315 25.677 42.4325 24.555 40.8705 24.555C39.1545 24.555 37.9775 25.798 37.9775 27.338C37.9775 29.087 39.2755 30.132 40.9365 30.132ZM41.7505 26.7H40.0015C40.0675 26.458 40.2655 26.062 40.8705 26.062C41.5085 26.062 41.6955 26.469 41.7505 26.7ZM47.3272 30V26.403H48.7242V24.687H43.9282V26.403H45.3472V30H47.3272Z" fill="black"/>
<path d="M56.1967 199.477L62.7333 209.467C63.3474 210.406 63.014 211.707 61.9874 212.379L45.1396 223.403C44.1129 224.074 42.7869 223.859 42.1727 222.92L35.6362 212.93C35.022 211.991 35.3554 210.69 36.3821 210.018L53.2299 198.994C54.2565 198.323 55.5826 198.538 56.1967 199.477Z" fill="#EDF5F7" stroke="black" stroke-width="0.43" stroke-miterlimit="10"/>
<path d="M34.024 213.324L41.1927 224.281C41.7551 225.14 42.9224 225.384 43.782 224.822L63.7572 211.752C64.6296 211.181 64.8607 210.022 64.2983 209.162L57.1296 198.206C56.5588 197.334 55.3999 197.103 54.5403 197.665L34.5651 210.735C33.6971 211.285 33.4532 212.452 34.024 213.324ZM53.6592 198.755C53.9415 198.57 54.3235 198.65 54.5082 198.932L62.5667 211.248C62.7513 211.53 62.6715 211.912 62.3893 212.097L44.6591 223.698C44.3769 223.883 43.9949 223.803 43.8102 223.521L35.7517 211.204C35.567 210.922 35.6468 210.54 35.9291 210.356L53.6592 198.755Z" fill="#3E4546" stroke="black" stroke-width="0.43" stroke-miterlimit="10"/>
<path d="M58.5346 202.398L61.0109 206.183C61.0781 206.285 61.047 206.434 60.9444 206.501C60.8418 206.568 60.6932 206.537 60.626 206.435L58.1413 202.637C58.0742 202.534 58.1052 202.386 58.2079 202.319C58.3105 202.252 58.4591 202.283 58.5346 202.398Z" fill="#90A6B4" stroke="black" stroke-width="0.43" stroke-miterlimit="10"/>
<path d="M134.2 337.653L133.741 337.929C133.466 338.021 133.374 338.296 133.466 338.48L134.2 337.653ZM134.2 337.653C134.384 337.561 134.567 337.653 134.751 337.745L134.2 337.653ZM130.069 339.214C129.886 339.306 129.702 339.398 129.702 339.581C129.564 339.581 129.45 339.604 129.335 339.627C129.22 339.65 129.105 339.673 128.968 339.673C128.738 339.673 128.509 339.696 128.279 339.719C128.121 339.735 127.964 339.751 127.806 339.759L130.069 339.214ZM130.069 339.214L130.62 339.122L130.069 339.214ZM128.621 337.684L128.623 337.683C131.228 337.404 133.537 336.497 135.234 335.256C136.502 334.329 137.441 333.206 137.893 332.009C137.912 332.077 137.934 332.143 137.958 332.204C138.006 332.322 138.082 332.465 138.206 332.554C138.145 334.314 136.881 336.182 134.74 337.5C134.675 337.47 134.602 337.44 134.528 337.422C134.401 337.39 134.254 337.386 134.104 337.461L134.097 337.465L134.09 337.469L133.649 337.733C133.361 337.841 133.202 338.106 133.217 338.362C132.582 338.663 131.881 338.897 131.174 339.064C131.117 339 131.049 338.947 130.969 338.913C130.84 338.858 130.695 338.856 130.557 338.915L130.034 339.002L130.002 339.007L129.973 339.022L129.963 339.027C129.879 339.069 129.768 339.124 129.679 339.198C129.624 339.244 129.571 339.302 129.535 339.376C129.447 339.386 129.369 339.401 129.298 339.415L129.293 339.416C129.177 339.44 129.082 339.458 128.968 339.458C128.727 339.458 128.489 339.482 128.263 339.505L128.258 339.505C128.083 339.523 127.916 339.539 127.751 339.546C127.713 339.477 127.658 339.421 127.595 339.379C127.483 339.305 127.347 339.274 127.223 339.274H126.673C126.51 339.274 126.37 339.354 126.269 339.441C126.201 339.499 126.141 339.569 126.091 339.642H126.087H126.082H126.077H126.072H126.068H126.063H126.058H126.053H126.048H126.043H126.038H126.033H126.028H126.023H126.018H126.014H126.009H126.004H125.999H125.994H125.989H125.984H125.979H125.974H125.969H125.964H125.959H125.954H125.949H125.945H125.94H125.935H125.93H125.925H125.92H125.915H125.91H125.905H125.9H125.895H125.89H125.885H125.88H125.875H125.87H125.865H125.86H125.855H125.85H125.845H125.84H125.835H125.83H125.825H125.82H125.815H125.81H125.805H125.8H125.795H125.79H125.785H125.78H125.776H125.771H125.766H125.761H125.756H125.751H125.746H125.741H125.735H125.73H125.725H125.72H125.715H125.71H125.705H125.7H125.695H125.69H125.685H125.68H125.675H125.67H125.665H125.66H125.655H125.65H125.645H125.64H125.635H125.63H125.625H125.62H125.615H125.61H125.605H125.6H125.595H125.59H125.585H125.58H125.575H125.57H125.565H125.56H125.554H125.549H125.544H125.539H125.534H125.529H125.524H125.519H125.514H125.509H125.504H125.499H125.494H125.489H125.484H125.479H125.474H125.469H125.463H125.458H125.453H125.448H125.443H125.438H125.433H125.428H125.423H125.418H125.413H125.408H125.403H125.398H125.392H125.387H125.382H125.377H125.372H125.367H125.362H125.357H125.352H125.347H125.342H125.337H125.332H125.326H125.321H125.316H125.311H125.306H125.301H125.296H125.291H125.286H125.281H125.276H125.27H125.265H125.26H125.255H125.25H125.245H125.24H125.235H125.23H125.225H125.22H125.214H125.209H125.204H125.199H125.194H125.189H125.184H125.179H125.174H125.169H125.163H125.158H125.153H125.148H125.143H125.138H125.133H125.128H125.123H125.118H125.112H125.107H125.102H125.097H125.092H125.087H125.082H125.077H125.072H125.066H125.061H125.056H125.051H125.046H125.041H125.036H125.031H125.026H125.02H125.015H125.01H125.005H125H124.995H124.99H124.985H124.98H124.975H124.969H124.964H124.959H124.954H124.949H124.944H124.939H124.934H124.929H124.923H124.918H124.913H124.908H124.903H124.898H124.893H124.888H124.883H124.877H124.872H124.867H124.862H124.857H124.852H124.847H124.842H124.837H124.831H124.826H124.821H124.816H124.811H124.806H124.801H124.796H124.791H124.785H124.78H124.775H124.77H124.765H124.76H124.755H124.75H124.745H124.74H124.734H124.729H124.724H124.719H124.714H124.709H124.704H124.699H124.694H124.688H124.683H124.678H124.673H124.668H124.663H124.658H124.653H124.648H124.643H124.637H124.632H124.627H124.622H124.617H124.612H124.607H124.602H124.597H124.592H124.587H124.581H124.576H124.571H124.566H124.561H124.556H124.551H124.546H124.541H124.536H124.531H124.526H124.52H124.515H124.51H124.505H124.5H124.495H124.49H124.485H124.48H124.475H124.47H124.465H124.459H124.454H124.449H124.444H124.439H124.434H124.429H124.424H124.419H124.414H124.409H124.404H124.399H124.394H124.388H124.383H124.378H124.373H124.368H124.363H124.358H124.353H124.348H124.343H124.338H124.333H124.328H124.323H124.318H124.313H124.308H124.303H124.297H124.292H124.287H124.282H124.277H124.272H124.267H124.262H124.257H124.252H124.247H124.242H124.237H124.232H124.227H124.222H124.217H124.212H124.207H124.202H124.197H124.192H124.187H124.182H124.177H124.172H124.167H124.162H124.157H124.152H124.147H124.142H124.137H124.132H124.127H124.122H124.117H124.112H124.107H124.102H124.097H124.092H124.087H124.082H124.077H124.072H124.067H124.062H124.057H124.052H124.047H124.042H124.037H124.032H124.027H124.022H124.017H124.012H124.007H124.002H123.997H123.992H123.987H123.982H123.977H123.972H123.967H123.962H123.957H123.952H123.947H123.942H123.937H123.932H123.927H123.922H123.917H123.913H123.908H123.903H123.898H123.893H123.888H123.883H123.878H123.873H123.868H123.863H123.858H123.853H123.848H123.843H123.839H123.834H123.829H123.824H123.819H123.814H123.809H123.804H123.799H123.794H123.789H123.785H123.78H123.775H123.77H123.766C123.716 339.569 123.656 339.499 123.588 339.441C123.487 339.354 123.347 339.274 123.184 339.274H122.634C122.425 339.274 122.209 339.361 122.065 339.54C121.018 339.445 120.102 339.264 119.527 338.936L119.525 338.935C118.754 338.503 118.175 338.112 117.675 337.762C117.598 337.709 117.523 337.656 117.449 337.605C117.043 337.319 116.673 337.059 116.28 336.835C115.335 336.297 114.267 335.971 112.181 335.878C110.958 335.784 109.925 335.973 109.005 336.157L108.843 336.19L108.833 336.355L108.649 339.292L108.649 339.292V339.306C108.649 339.374 108.613 339.459 108.539 339.533C108.466 339.606 108.381 339.642 108.313 339.642H107.145C107.001 339.456 106.781 339.366 106.569 339.366H106.018C105.806 339.366 105.585 339.456 105.441 339.642H105.192H103.932C103.788 339.456 103.568 339.366 103.356 339.366H102.805C102.593 339.366 102.372 339.456 102.228 339.642H101.045C101.013 339.569 100.966 339.504 100.914 339.452C100.815 339.353 100.672 339.274 100.51 339.274C100.386 339.274 100.25 339.305 100.138 339.379C100.089 339.412 100.044 339.455 100.008 339.505C99.0176 339.189 98.3072 338.221 98.0578 337.057L98.0563 337.05L98.0543 337.043C97.7245 335.889 97.6203 335.037 97.5348 334.338C97.5265 334.27 97.5183 334.203 97.5102 334.138L97.5102 334.138L97.5097 334.134C97.4651 333.822 97.3967 333.073 97.374 332.401C97.3705 332.299 97.3681 332.199 97.367 332.103L97.4489 332.021C97.5184 331.952 97.6197 331.921 97.7993 331.95C97.9842 331.979 98.2079 332.066 98.4733 332.181C98.5342 332.208 98.5971 332.236 98.6615 332.264C98.8686 332.356 99.0918 332.455 99.3146 332.536C99.6084 332.643 99.9226 332.727 100.234 332.727H100.449V332.512V332.328C100.449 332.261 100.485 332.175 100.559 332.102C100.632 332.029 100.717 331.992 100.785 331.992H107.211C107.295 331.992 107.453 331.973 107.618 331.953L107.626 331.952L107.644 331.95C107.817 331.929 108.015 331.905 108.205 331.888C108.404 331.871 108.58 331.864 108.702 331.875C108.714 331.876 108.725 331.878 108.734 331.879L108.557 335.071L108.546 335.276L108.75 335.297C109.216 335.343 109.704 335.366 110.208 335.389L110.276 335.392C110.76 335.414 111.262 335.437 111.783 335.48L111.783 335.481L111.792 335.481C114.182 335.586 115.631 336.083 117.151 336.604C117.593 336.756 118.041 336.909 118.52 337.056C120.651 337.708 123.319 338.191 128.621 337.684Z" fill="#1A2230" stroke="black" stroke-width="0.43"/>
<path d="M111.697 334.747L111.698 334.747C114.096 334.852 115.546 335.366 117.072 335.905C117.508 336.06 117.951 336.217 118.424 336.366C120.555 337.042 123.224 337.548 128.527 337.041C131.131 336.809 133.44 335.948 135.138 334.742C135.744 334.311 136.275 333.834 136.713 333.324C136.298 333.895 135.766 334.444 135.132 334.949C133.479 336.265 131.155 337.26 128.486 337.531C123.232 338.034 120.623 337.53 118.554 336.875C118.1 336.731 117.668 336.578 117.237 336.425C115.703 335.882 114.184 335.344 111.718 335.235C109.174 335.104 107.537 335.47 106.057 335.802C105.97 335.821 105.883 335.841 105.797 335.86C104.259 336.202 102.846 336.47 100.639 336.065L100.638 336.065C99.6971 335.894 98.96 335.315 98.4082 334.575C98.3051 334.437 98.2088 334.294 98.1192 334.147C98.6695 334.842 99.4238 335.396 100.377 335.57C102.668 335.99 104.17 335.708 105.763 335.362C105.848 335.343 105.933 335.325 106.018 335.306C107.528 334.976 109.163 334.618 111.697 334.747Z" fill="#D46B0B" stroke="black" stroke-width="0.43"/>
<path d="M131.743 324.003L131.742 324.003C128.339 324.371 125.987 324.329 124.213 323.824C122.424 323.314 121.24 322.339 120.163 320.887L131.743 324.003ZM131.743 324.003C133.319 323.822 134.768 324.052 135.842 324.91C136.912 325.764 137.656 327.277 137.746 329.764C137.789 331.274 136.837 332.845 135.179 334.131C133.526 335.413 131.201 336.387 128.575 336.704C123.323 337.206 120.713 336.703 118.645 336.047C118.191 335.903 117.759 335.75 117.328 335.598C115.793 335.054 114.275 334.517 111.809 334.408C109.271 334.277 107.595 334.641 106.075 334.972C105.982 334.992 105.889 335.012 105.797 335.032C104.212 335.374 102.753 335.643 100.546 335.237L100.545 335.237C99.6044 335.066 98.8694 334.488 98.3544 333.743C97.8391 332.997 97.5534 332.096 97.5089 331.309C97.4641 328.774 97.9159 327.193 98.3476 325.864C98.3845 325.75 98.4214 325.638 98.458 325.527C98.8489 324.339 99.1977 323.279 99.0694 321.85C99.0671 321.749 99.0376 321.381 98.9928 320.838C98.9799 320.68 98.9655 320.507 98.95 320.319C98.9087 319.82 98.8591 319.221 98.805 318.55C98.6558 316.703 98.4724 314.318 98.3348 312.025C98.1849 309.251 97.9738 306.111 97.7516 302.804C97.7016 302.06 97.6509 301.306 97.6003 300.547L97.6002 300.545M131.743 324.003L97.6002 300.545M97.6002 300.545C97.2381 295.656 96.5192 288.002 95.883 282.506H121.016M97.6002 300.545L121.016 282.506M121.016 282.506C120.421 288.337 119.611 297.023 119.237 304.682C119.048 308.563 118.97 312.186 119.09 315.042C119.149 316.469 119.258 317.71 119.429 318.699C119.598 319.677 119.832 320.442 120.163 320.887L121.016 282.506Z" fill="#EBA600" stroke="black" stroke-width="0.43"/>
<path d="M100.454 335.145L100.454 335.145C99.5155 334.975 98.7801 334.376 98.2635 333.618C97.7464 332.859 97.4611 331.956 97.417 331.215C97.3268 328.635 97.7784 327.055 98.2207 325.74C98.2661 325.605 98.3116 325.472 98.3566 325.341C98.7502 324.193 99.1037 323.162 98.9776 321.757C98.9762 321.717 98.969 321.65 98.9607 321.576C98.955 321.526 98.9479 321.465 98.9397 321.395C98.9334 321.341 98.9264 321.281 98.919 321.217C98.8847 320.919 98.839 320.508 98.7933 320.005L98.7932 320.004C98.6097 318.077 98.3349 314.961 98.2433 311.939L98.2434 311.939L98.2431 311.934C98.2101 311.339 98.177 310.721 98.1429 310.083C97.9876 307.174 97.8097 303.844 97.5085 300.454C97.3843 298.283 97.1346 295.608 96.8728 292.803C96.7466 291.452 96.6176 290.07 96.4984 288.699L96.4985 288.699L96.4977 288.692C96.268 286.778 96.1023 284.928 95.9468 283.192C95.9233 282.93 95.9001 282.671 95.877 282.414H121.016C120.42 288.245 119.588 296.931 119.203 304.59C119.008 308.471 118.927 312.094 119.051 314.95C119.113 316.378 119.226 317.619 119.403 318.608C119.578 319.586 119.821 320.351 120.164 320.797C121.242 322.249 122.449 323.223 124.248 323.732C126.033 324.237 128.385 324.279 131.742 323.911L131.743 323.911C133.317 323.731 134.789 323.982 135.876 324.852C136.959 325.718 137.701 327.231 137.746 329.669L137.746 329.671C137.79 331.229 136.836 332.823 135.168 334.108C133.505 335.389 131.157 336.34 128.485 336.612C123.231 337.114 120.622 336.611 118.553 335.955C118.099 335.811 117.667 335.658 117.237 335.506C115.702 334.962 114.183 334.425 111.717 334.316C109.125 334.184 107.444 334.552 105.928 334.884C105.842 334.903 105.756 334.922 105.671 334.94C104.097 335.282 102.662 335.551 100.454 335.145Z" fill="#FF8D23" stroke="black" stroke-width="0.43"/>
<path d="M95.7884 282.506H120.921C120.473 286.386 119.944 291.616 119.584 296.949H97.2173C96.9197 293.207 96.4526 288.793 96.0458 284.949C95.9563 284.103 95.8697 283.284 95.7884 282.506Z" fill="#1A2230" stroke="black" stroke-width="0.43"/>
<path d="M120.951 281.006V282.076H95.7687V281.006C95.7687 280.666 96.0397 280.395 96.3799 280.395H120.34C120.68 280.395 120.951 280.666 120.951 281.006Z" fill="#FF8D23" stroke="black" stroke-width="0.43"/>
<path d="M98.1534 311.938L98.1535 311.938L98.1532 311.933C98.1202 311.339 98.0872 310.72 98.0531 310.082C97.8977 307.173 97.7199 303.843 97.4186 300.453C97.2944 298.282 97.0447 295.607 96.7829 292.802C96.6639 291.527 96.5423 290.226 96.4289 288.932H102.249C104.615 289.021 106.444 290.858 106.444 293.215V315.617C106.444 317.974 104.524 319.809 102.253 319.809H98.6849C98.5019 317.871 98.242 314.861 98.1534 311.938Z" fill="#1A2230" stroke="black" stroke-width="0.43"/>
<path d="M104.608 312.497C104.608 313.842 103.516 314.852 102.253 314.852C100.908 314.852 99.8976 313.76 99.8976 312.497V310.293C99.8976 308.948 100.99 307.938 102.253 307.938C103.598 307.938 104.608 309.03 104.608 310.293V312.497Z" fill="#EBA600" stroke="black" stroke-width="0.43"/>
<path d="M106.872 294.836V293.43H118.56V294.836H106.872Z" fill="#FF8D23" stroke="black" stroke-width="0.43"/>
<path d="M106.872 291.258V289.852H118.56V291.258H106.872Z" fill="#FF8D23" stroke="black" stroke-width="0.43"/>
<path d="M50.5448 337.653L51.0038 337.929C51.2792 338.021 51.371 338.296 51.2792 338.48L50.5448 337.653ZM50.5448 337.653C50.3612 337.561 50.1776 337.653 49.994 337.745L50.5448 337.653ZM54.6758 339.214C54.8594 339.306 55.043 339.398 55.043 339.581C55.1807 339.581 55.2955 339.604 55.4102 339.627C55.525 339.65 55.6397 339.673 55.7774 339.673C56.0069 339.673 56.2364 339.696 56.4659 339.719C56.6238 339.735 56.7816 339.751 56.9394 339.759L54.6758 339.214ZM54.6758 339.214L54.125 339.122L54.6758 339.214ZM56.1241 337.684L56.1217 337.683C53.5171 337.404 51.2085 336.497 49.5114 335.256C48.2433 334.329 47.3044 333.206 46.8519 332.009C46.833 332.077 46.8114 332.143 46.7867 332.204C46.7388 332.322 46.6626 332.465 46.5394 332.554C46.6005 334.314 47.8638 336.182 50.0053 337.5C50.0703 337.47 50.1427 337.44 50.2173 337.422C50.3441 337.39 50.4913 337.386 50.641 337.461L50.6484 337.465L50.6555 337.469L51.096 337.733C51.3845 337.841 51.5431 338.106 51.5283 338.362C52.1633 338.663 52.8642 338.897 53.5715 339.064C53.6277 339 53.6965 338.947 53.7764 338.913C53.9055 338.858 54.0506 338.856 54.1886 338.915L54.7112 339.002L54.7431 339.007L54.772 339.022L54.7818 339.027C54.8664 339.069 54.9776 339.124 55.0659 339.198C55.1208 339.244 55.174 339.302 55.2104 339.376C55.2982 339.386 55.3765 339.401 55.4471 339.415L55.4524 339.416C55.5681 339.44 55.6636 339.458 55.7774 339.458C56.0177 339.458 56.2561 339.482 56.4823 339.505L56.4873 339.505C56.662 339.523 56.8295 339.539 56.9945 339.546C57.0326 339.477 57.0876 339.421 57.1499 339.379C57.2619 339.305 57.3979 339.274 57.5216 339.274H58.0724C58.2349 339.274 58.3747 339.354 58.4763 339.441C58.5441 339.499 58.6043 339.569 58.6539 339.642H58.658H58.6629H58.6677H58.6726H58.6775H58.6824H58.6874H58.6923H58.6972H58.7021H58.707H58.7119H58.7168H58.7217H58.7266H58.7316H58.7365H58.7414H58.7463H58.7513H58.7562H58.7611H58.766H58.771H58.7759H58.7808H58.7858H58.7907H58.7957H58.8006H58.8056H58.8105H58.8155H58.8204H58.8254H58.8303H58.8353H58.8402H58.8452H58.8501H58.8551H58.8601H58.865H58.87H58.875H58.8799H58.8849H58.8899H58.8948H58.8998H58.9048H58.9098H58.9147H58.9197H58.9247H58.9297H58.9347H58.9397H58.9447H58.9496H58.9546H58.9596H58.9646H58.9696H58.9746H58.9796H58.9846H58.9896H58.9946H58.9996H59.0046H59.0096H59.0146H59.0196H59.0246H59.0297H59.0347H59.0397H59.0447H59.0497H59.0547H59.0597H59.0648H59.0698H59.0748H59.0798H59.0849H59.0899H59.0949H59.0999H59.105H59.11H59.115H59.1201H59.1251H59.1301H59.1352H59.1402H59.1452H59.1503H59.1553H59.1604H59.1654H59.1704H59.1755H59.1805H59.1856H59.1906H59.1957H59.2007H59.2058H59.2108H59.2159H59.2209H59.226H59.231H59.2361H59.2412H59.2462H59.2513H59.2563H59.2614H59.2665H59.2715H59.2766H59.2816H59.2867H59.2918H59.2968H59.3019H59.307H59.312H59.3171H59.3222H59.3273H59.3323H59.3374H59.3425H59.3476H59.3526H59.3577H59.3628H59.3679H59.3729H59.378H59.3831H59.3882H59.3933H59.3983H59.4034H59.4085H59.4136H59.4187H59.4238H59.4288H59.4339H59.439H59.4441H59.4492H59.4543H59.4594H59.4645H59.4696H59.4746H59.4797H59.4848H59.4899H59.495H59.5001H59.5052H59.5103H59.5154H59.5205H59.5256H59.5307H59.5358H59.5409H59.546H59.5511H59.5562H59.5613H59.5664H59.5715H59.5766H59.5817H59.5868H59.5919H59.597H59.6021H59.6072H59.6123H59.6174H59.6225H59.6276H59.6327H59.6378H59.6429H59.648H59.6531H59.6582H59.6633H59.6684H59.6736H59.6787H59.6838H59.6889H59.694H59.6991H59.7042H59.7093H59.7144H59.7195H59.7246H59.7297H59.7349H59.74H59.7451H59.7502H59.7553H59.7604H59.7655H59.7706H59.7757H59.7808H59.7859H59.7911H59.7962H59.8013H59.8064H59.8115H59.8166H59.8217H59.8268H59.8319H59.837H59.8422H59.8473H59.8524H59.8575H59.8626H59.8677H59.8728H59.8779H59.883H59.8881H59.8932H59.8984H59.9035H59.9086H59.9137H59.9188H59.9239H59.929H59.9341H59.9392H59.9443H59.9494H59.9545H59.9597H59.9648H59.9699H59.975H59.9801H59.9852H59.9903H59.9954H60.0005H60.0056H60.0107H60.0158H60.0209H60.026H60.0311H60.0362H60.0413H60.0464H60.0515H60.0566H60.0617H60.0668H60.0719H60.077H60.0821H60.0872H60.0923H60.0974H60.1025H60.1076H60.1127H60.1178H60.1229H60.128H60.1331H60.1382H60.1433H60.1484H60.1535H60.1586H60.1637H60.1687H60.1738H60.1789H60.184H60.1891H60.1942H60.1993H60.2044H60.2094H60.2145H60.2196H60.2247H60.2298H60.2349H60.2399H60.245H60.2501H60.2552H60.2603H60.2653H60.2704H60.2755H60.2806H60.2857H60.2907H60.2958H60.3009H60.306H60.311H60.3161H60.3212H60.3262H60.3313H60.3364H60.3414H60.3465H60.3516H60.3566H60.3617H60.3668H60.3718H60.3769H60.3819H60.387H60.3921H60.3971H60.4022H60.4072H60.4123H60.4173H60.4224H60.4274H60.4325H60.4375H60.4426H60.4476H60.4527H60.4577H60.4628H60.4678H60.4729H60.4779H60.4829H60.488H60.493H60.498H60.5031H60.5081H60.5132H60.5182H60.5232H60.5282H60.5333H60.5383H60.5433H60.5484H60.5534H60.5584H60.5634H60.5684H60.5735H60.5785H60.5835H60.5885H60.5935H60.5985H60.6036H60.6086H60.6136H60.6186H60.6236H60.6286H60.6336H60.6386H60.6436H60.6486H60.6536H60.6586H60.6636H60.6686H60.6736H60.6786H60.6836H60.6886H60.6935H60.6985H60.7035H60.7085H60.7135H60.7185H60.7234H60.7284H60.7334H60.7384H60.7433H60.7483H60.7533H60.7583H60.7632H60.7682H60.7732H60.7781H60.7831H60.788H60.793H60.7979H60.8029H60.8079H60.8128H60.8178H60.8227H60.8277H60.8326H60.8375H60.8425H60.8474H60.8524H60.8573H60.8622H60.8672H60.8721H60.877H60.882H60.8869H60.8918H60.8967H60.9016H60.9066H60.9115H60.9164H60.9213H60.9262H60.9311H60.936H60.941H60.9459H60.9508H60.9557H60.9606H60.9655H60.9704H60.9753H60.9793C61.0289 339.569 61.0891 339.499 61.1569 339.441C61.2585 339.354 61.3983 339.274 61.5608 339.274H62.1116C62.3197 339.274 62.5357 339.361 62.68 339.54C63.7272 339.445 64.6432 339.264 65.2179 338.936L65.2197 338.935C65.9911 338.503 66.5697 338.112 67.0705 337.762C67.147 337.709 67.222 337.656 67.2957 337.605C67.7023 337.319 68.0726 337.059 68.4656 336.835C69.4101 336.297 70.4785 335.971 72.5638 335.878C73.7871 335.784 74.8206 335.973 75.7401 336.157L75.9022 336.19L75.9125 336.355L76.0961 339.292L76.0965 339.292V339.306C76.0965 339.374 76.1326 339.459 76.2057 339.533C76.2788 339.606 76.3646 339.642 76.4323 339.642H77.5999C77.7442 339.456 77.9645 339.366 78.1765 339.366H78.7273C78.9394 339.366 79.1597 339.456 79.304 339.642H79.5535H80.8129C80.9572 339.456 81.1775 339.366 81.3895 339.366H81.9403C82.1524 339.366 82.3727 339.456 82.5169 339.642H83.6999C83.7323 339.569 83.7787 339.504 83.8308 339.452C83.9298 339.353 84.0736 339.274 84.2353 339.274C84.359 339.274 84.495 339.305 84.607 339.379C84.6565 339.412 84.7014 339.455 84.7369 339.505C85.7275 339.189 86.438 338.221 86.6873 337.057L86.6888 337.05L86.6908 337.043C87.0206 335.889 87.1248 335.037 87.2103 334.338C87.2186 334.27 87.2268 334.203 87.235 334.138L87.2349 334.138L87.2355 334.134C87.28 333.822 87.3484 333.073 87.3711 332.401C87.3746 332.299 87.377 332.199 87.3781 332.103L87.2963 332.021C87.2267 331.952 87.1254 331.921 86.9458 331.95C86.7609 331.979 86.5372 332.066 86.2718 332.181C86.211 332.208 86.148 332.236 86.0836 332.264C85.8765 332.356 85.6533 332.455 85.4305 332.536C85.1367 332.643 84.8226 332.727 84.5107 332.727H84.2957V332.512V332.328C84.2957 332.261 84.2597 332.175 84.1865 332.102C84.1134 332.029 84.0277 331.992 83.9599 331.992H77.5339C77.4497 331.992 77.2922 331.973 77.1272 331.953L77.1192 331.952L77.1015 331.95C76.9283 331.929 76.7299 331.905 76.5402 331.888C76.3411 331.871 76.1649 331.864 76.043 331.875C76.031 331.876 76.0203 331.878 76.0107 331.879L76.188 335.071L76.1994 335.276L75.9947 335.297C75.529 335.343 75.0414 335.366 74.5373 335.389L74.4695 335.392C73.9847 335.414 73.4835 335.437 72.9618 335.48L72.9618 335.481L72.9534 335.481C70.5632 335.586 69.1137 336.083 67.5937 336.604C67.1518 336.756 66.7039 336.909 66.2252 337.056C64.0945 337.708 61.4265 338.191 56.1241 337.684Z" fill="#1A2230" stroke="black" stroke-width="0.43"/>
<path d="M73.0466 334.747L73.0452 334.747C70.6476 334.852 69.197 335.366 67.6713 335.905C67.2347 336.06 66.7919 336.217 66.319 336.366C64.1879 337.042 61.5193 337.548 56.2166 337.041C53.6124 336.809 51.3034 335.948 49.6055 334.742C48.9995 334.311 48.4686 333.834 48.0299 333.324C48.4449 333.895 48.9769 334.444 49.6115 334.949C51.2643 336.265 53.5884 337.26 56.2575 337.531C61.5108 338.034 64.1204 337.53 66.189 336.875C66.6434 336.731 67.0752 336.578 67.5057 336.425C69.0406 335.882 70.559 335.344 73.0253 335.235C75.5688 335.104 77.206 335.47 78.6857 335.802C78.773 335.821 78.8597 335.841 78.946 335.86C80.4843 336.202 81.8972 336.47 84.1046 336.065L84.105 336.065C85.046 335.894 85.7831 335.315 86.335 334.575C86.4381 334.437 86.5344 334.294 86.624 334.147C86.0737 334.842 85.3194 335.396 84.3659 335.57C82.0752 335.99 80.5735 335.708 78.9799 335.362C78.8953 335.343 78.8104 335.325 78.725 335.306C77.2155 334.976 75.5804 334.618 73.0466 334.747Z" fill="#D46B0B" stroke="black" stroke-width="0.43"/>
<path d="M52.9979 324.003L52.9992 324.003C56.4023 324.371 58.7544 324.329 60.5285 323.824C62.3168 323.314 63.5012 322.339 64.5781 320.887L52.9979 324.003ZM52.9979 324.003C51.422 323.822 49.9735 324.052 48.8992 324.91C47.8288 325.764 47.0854 327.277 46.9948 329.764C46.9521 331.274 47.9042 332.845 49.5624 334.131C51.2152 335.413 53.5406 336.387 56.1667 336.704C61.4187 337.206 64.0279 336.703 66.0962 336.047C66.5506 335.903 66.9824 335.75 67.4128 335.598C68.9478 335.054 70.4661 334.517 72.9323 334.408C75.4702 334.277 77.1466 334.641 78.6664 334.972C78.7593 334.992 78.8518 335.012 78.9437 335.032C80.5289 335.374 81.9878 335.643 84.1954 335.237L84.1958 335.237C85.1368 335.066 85.8718 334.488 86.3868 333.743C86.9021 332.997 87.1878 332.096 87.2323 331.309C87.2771 328.774 86.8253 327.193 86.3936 325.864C86.3567 325.75 86.3198 325.638 86.2832 325.527C85.8924 324.339 85.5435 323.279 85.6718 321.85C85.6741 321.749 85.7036 321.381 85.7484 320.838C85.7613 320.68 85.7757 320.507 85.7912 320.319C85.8325 319.82 85.8821 319.221 85.9362 318.55C86.0854 316.703 86.2688 314.318 86.4064 312.025C86.5563 309.251 86.7674 306.111 86.9896 302.804C87.0396 302.06 87.0903 301.306 87.1409 300.547L87.141 300.545M52.9979 324.003L87.141 300.545M87.141 300.545C87.5031 295.656 88.222 288.002 88.8582 282.506H63.7256M87.141 300.545L63.7256 282.506M63.7256 282.506C64.3203 288.337 65.13 297.023 65.5038 304.682C65.6933 308.563 65.7711 312.186 65.6516 315.042C65.5919 316.469 65.4827 317.71 65.3121 318.699C65.1433 319.677 64.9092 320.442 64.5782 320.887L63.7256 282.506Z" fill="#EBA600" stroke="black" stroke-width="0.43"/>
<path d="M84.2872 335.145L84.2876 335.145C85.2257 334.975 85.9611 334.376 86.4777 333.618C86.9948 332.859 87.2801 331.956 87.3242 331.215C87.4145 328.635 86.9628 327.055 86.5205 325.74C86.4751 325.605 86.4296 325.472 86.3846 325.341C85.9911 324.193 85.6375 323.162 85.7636 321.757C85.765 321.717 85.7722 321.65 85.7806 321.576C85.7862 321.526 85.7933 321.465 85.8015 321.395C85.8078 321.341 85.8148 321.281 85.8222 321.217C85.8565 320.919 85.9022 320.508 85.9479 320.005L85.948 320.004C86.1315 318.077 86.4063 314.961 86.4979 311.939L86.4978 311.939L86.4981 311.934C86.5311 311.339 86.5642 310.721 86.5983 310.083C86.7536 307.174 86.9315 303.844 87.2328 300.454C87.3569 298.283 87.6066 295.608 87.8685 292.803C87.9946 291.452 88.1237 290.07 88.2428 288.699L88.2427 288.699L88.2435 288.692C88.4732 286.778 88.6389 284.928 88.7944 283.192C88.8179 282.93 88.8411 282.671 88.8642 282.414H63.7256C64.3209 288.245 65.153 296.931 65.5382 304.59C65.7334 308.471 65.8141 312.094 65.6903 314.95C65.6285 316.378 65.5153 317.619 65.3383 318.608C65.1632 319.586 64.9204 320.351 64.577 320.797C63.4994 322.249 62.2919 323.223 60.4937 323.732C58.7085 324.237 56.3567 324.279 52.9989 323.911L52.9979 323.911C51.4246 323.731 49.9521 323.982 48.865 324.852C47.7826 325.718 47.0401 327.231 46.9949 329.669L46.9949 329.671C46.9516 331.229 47.9056 332.823 49.5734 334.108C51.2367 335.389 53.5844 336.34 56.2565 336.612C61.5098 337.114 64.1194 336.611 66.188 335.955C66.6424 335.811 67.0742 335.658 67.5046 335.506C69.0396 334.962 70.5581 334.425 73.0245 334.316C75.616 334.184 77.2977 334.552 78.8134 334.884C78.8995 334.903 78.9851 334.922 79.0703 334.94C80.6438 335.282 82.0797 335.551 84.2872 335.145Z" fill="#FF8D23" stroke="black" stroke-width="0.43"/>
<path d="M88.9557 282.506H63.8236C64.2715 286.386 64.8003 291.616 65.1603 296.949H87.5268C87.8245 293.207 88.2916 288.793 88.6983 284.949C88.7879 284.103 88.8745 283.284 88.9557 282.506Z" fill="#1A2230" stroke="black" stroke-width="0.43"/>
<path d="M63.7933 281.006V282.076H88.9754V281.006C88.9754 280.666 88.7045 280.395 88.3642 280.395H64.4045C64.0643 280.395 63.7933 280.666 63.7933 281.006Z" fill="#FF8D23" stroke="black" stroke-width="0.43"/>
<path d="M86.5897 311.938L86.5897 311.938L86.59 311.933C86.623 311.339 86.656 310.72 86.6901 310.082C86.8455 307.173 87.0233 303.843 87.3246 300.453C87.4487 298.282 87.6984 295.607 87.9603 292.802C88.0793 291.527 88.2008 290.226 88.3142 288.932H82.4941C80.1285 289.021 78.2987 290.858 78.2987 293.215V315.617C78.2987 317.974 80.2191 319.809 82.4901 319.809H86.0583C86.2413 317.871 86.5012 314.861 86.5897 311.938Z" fill="#1A2230" stroke="black" stroke-width="0.43"/>
<path d="M80.1357 312.497C80.1357 313.842 81.2279 314.852 82.4911 314.852C83.8362 314.852 84.8465 313.76 84.8465 312.497V310.293C84.8465 308.948 83.7544 307.938 82.4911 307.938C81.1461 307.938 80.1357 309.03 80.1357 310.293V312.497Z" fill="#EBA600" stroke="black" stroke-width="0.43"/>
<path d="M77.868 294.836V293.43H66.1805V294.836H77.868Z" fill="#FF8D23" stroke="black" stroke-width="0.43"/>
<path d="M77.868 291.258V289.852H66.1805V291.258H77.868Z" fill="#FF8D23" stroke="black" stroke-width="0.43"/>
<path d="M77.6572 82.7529C77.6572 82.7529 90.8634 78.5232 101.955 82.7529V93.9853H82.9209L77.6572 82.7529Z" fill="#A9D5F3" stroke="black" stroke-width="0.43" stroke-miterlimit="10" stroke-linecap="round" stroke-linejoin="round"/>
<path d="M82.4834 66.9743C84.5983 67.6793 87.0892 67.4443 89.862 70.7811C91.3189 72.52 88.8281 77.6897 83.9874 75.2929C79.1466 72.896 73.977 67.7263 75.1049 58.3269C75.7628 52.8282 77.6897 52.7812 79.1466 53.6742C80.4156 54.4731 80.8385 55.648 80.3216 56.682C79.0996 59.2198 76.9848 65.0945 82.4834 66.9743Z" fill="#FCC503" stroke="black" stroke-width="0.43" stroke-miterlimit="10"/>
<path d="M98.1342 66.9255C96.0193 67.6305 93.4814 67.3955 90.6616 70.7323C89.2047 72.4712 91.6955 77.6409 96.5833 75.244C101.471 72.8002 106.735 67.6775 105.56 58.278C104.902 52.7794 102.975 52.7324 101.471 53.6253C100.155 54.4243 99.7321 55.5992 100.249 56.6331C101.565 59.171 103.727 65.0456 98.1342 66.9255Z" fill="#FCC503" stroke="black" stroke-width="0.43" stroke-miterlimit="10"/>
<path d="M119.951 313.747H102.045L93.083 190.015L93.0683 189.813L92.8658 189.816L89.153 189.863L88.9448 189.866L88.9408 190.074L86.548 313.747H67.3743L67.3729 313.589L67.3637 312.502C67.3558 311.548 67.3442 310.148 67.33 308.358C67.3016 304.778 67.2623 299.641 67.2189 293.413C67.1323 280.957 67.0295 264.139 66.9649 246.685C66.8364 212 66.859 174.823 67.4579 164.396L113.304 164.07C113.818 170.002 115.465 207.069 116.993 242.865C117.766 260.97 118.508 278.747 119.056 291.997C119.331 298.622 119.557 304.116 119.714 307.953C119.793 309.872 119.855 311.376 119.896 312.401L119.944 313.571L119.951 313.747Z" fill="#068985" stroke="black" stroke-width="0.43"/>
<path d="M83.9883 190.08H99.0274" stroke="black" stroke-width="0.43" stroke-miterlimit="10" stroke-linecap="round" stroke-linejoin="round"/>
<path d="M156.988 159.915L143.966 173.155L143.965 173.156C141.559 175.645 138.227 177.022 134.949 176.966L134.948 176.966L126.253 176.862C126.253 176.862 126.252 176.862 126.251 176.862C124.955 176.816 124.185 175.508 124.778 174.324L124.782 174.317L124.785 174.31C125.046 173.681 125.665 173.278 126.364 173.179L132.952 172.446L132.952 172.446C135.303 172.176 137.636 171.154 139.413 169.49L140.559 168.462L140.366 168.092L136.249 169.056L136.249 169.056L136.246 169.057C135.202 169.317 134.277 168.705 134.045 167.706C133.848 166.76 134.436 165.763 135.363 165.381L135.364 165.381L141.947 162.626L142.001 162.603L142.036 162.556C144.234 159.604 146.961 158.039 149.14 157.211C150.23 156.796 151.181 156.567 151.859 156.441C152.198 156.379 152.468 156.342 152.653 156.321C152.735 156.311 152.801 156.305 152.847 156.301L156.988 159.915Z" fill="#FFCA00" stroke="black" stroke-width="0.43"/>
<path d="M57.2484 178.029L51.2328 193.397L46.5801 192.88L50.1049 173.047L57.2484 178.029Z" fill="#FFCA00"/>
<path d="M51.5305 197.313L51.5096 197.368L51.5195 197.425L52.7082 204.399L52.7083 204.401C52.8804 205.38 52.3606 206.401 51.4699 206.737C50.5166 207.074 49.5187 206.627 49.1828 205.615L49.1774 205.599L49.1696 205.584L47.595 202.548L47.486 202.338L47.2873 202.467L40.4363 206.9L45.8214 183.398L51.0208 184.941C51.0421 184.982 51.0713 185.04 51.1068 185.113C51.1869 185.279 51.2993 185.525 51.4263 185.842C51.6804 186.476 51.993 187.394 52.2246 188.526C52.6878 190.79 52.8264 193.904 51.5305 197.313Z" fill="#FCC503" stroke="black" stroke-width="0.43"/>
<path d="M120.921 112.657C117.161 102.083 110.112 100.297 110.112 100.297L97.7513 94.8926L83.6992 95.0806L70.9159 100.391C70.681 100.485 69.647 100.908 69.647 100.908C67.3912 102.036 63.0204 105.091 60.3416 112.657C52.822 133.853 45.0205 190.579 45.0205 190.579L58.4617 193.117L68.212 127.54L67.0285 165.65H113.186L121.314 127.54L127.656 157.586L137.956 168.315C137.909 168.315 128.44 133.806 120.921 112.657Z" fill="#A9D5F3" stroke="black" stroke-width="0.43" stroke-miterlimit="10" stroke-linecap="round" stroke-linejoin="round"/>
<path d="M97.4683 91.8369L96.6223 81.1216C96.6223 81.1216 94.1315 82.8605 91.8756 83.3305C89.6198 83.7534 87.4109 82.4375 87.3639 82.4375C87.3169 82.4375 84.7321 80.9336 84.7321 80.9336L83.8861 91.9779C83.7451 93.9048 82.5232 95.5967 80.7373 96.3017C87.5989 100.108 90.7007 101.377 90.7007 101.377L100.711 96.2077L100.523 96.1137C98.8312 95.3617 97.6563 93.7168 97.4683 91.8369Z" fill="#F8B498" stroke="black" stroke-width="0.43" stroke-miterlimit="10"/>
<path d="M82.9075 70.8269C82.9545 73.2708 81.0746 75.2916 78.6308 75.3386C76.1869 75.3856 74.166 73.5058 74.119 71.0619C74.072 68.618 75.9519 66.5972 78.3958 66.5502C80.8396 66.4562 82.8605 68.3831 82.9075 70.8269Z" fill="#F8B498" stroke="black" stroke-width="0.43" stroke-miterlimit="10"/>
<path d="M75.998 70.3106C75.998 70.3106 77.7369 69.4646 79.4288 72.5195" stroke="black" stroke-width="0.43" stroke-miterlimit="10" stroke-linecap="round" stroke-linejoin="round"/>
<path d="M99.0273 70.9197C99.0273 73.3635 101.001 75.3374 103.445 75.3374C105.889 75.3374 107.863 73.3635 107.863 70.9197C107.863 68.4758 105.889 66.502 103.445 66.502C101.001 66.549 99.0273 68.5228 99.0273 70.9197Z" fill="#F8B498" stroke="black" stroke-width="0.43" stroke-miterlimit="10"/>
<path d="M105.747 70.2623C105.747 70.2623 103.961 69.4633 102.41 72.5651" stroke="black" stroke-width="0.43" stroke-miterlimit="10" stroke-linecap="round" stroke-linejoin="round"/>
<path d="M83.6621 79.332C83.6621 79.332 86.153 87.4155 91.8396 87.3215C96.4923 87.2276 97.2443 79.332 97.2443 79.332H83.6621Z" fill="#1D0300"/>
<path d="M102.88 63.2608C102.927 68.2425 102.222 72.5662 101.517 75.621C100.859 78.6288 98.2275 80.6967 95.4547 82.3886L94.9377 82.7176C92.0239 84.5035 89.627 84.5505 86.6192 82.8586C83.6114 81.1667 80.8385 78.8638 80.1336 75.668C78.9117 69.8404 78.7707 63.4018 78.7707 63.4018C78.7707 63.4018 77.0788 49.9136 90.05 50.1016C103.068 50.2895 102.88 63.2608 102.88 63.2608Z" fill="#F8B498" stroke="black" stroke-width="0.43" stroke-miterlimit="10"/>
<path d="M86.2915 67.2078C86.2915 67.7717 85.8215 68.2417 85.2576 68.2417C84.6936 68.2417 84.2236 67.7717 84.2236 67.2078C84.2236 66.6438 84.6936 66.1738 85.2576 66.1738C85.8215 66.1738 86.2915 66.6438 86.2915 67.2078Z" fill="#1D0300"/>
<path d="M96.5835 67.2078C96.5835 67.7717 96.1135 68.2417 95.5496 68.2417C94.9856 68.2417 94.5156 67.7717 94.5156 67.2078C94.5156 66.6438 94.9856 66.1738 95.5496 66.1738C96.1135 66.1738 96.5835 66.6438 96.5835 67.2078Z" fill="#1D0300"/>
<path d="M89.4414 69.9805V71.6724H90.8043" stroke="black" stroke-width="0.43" stroke-miterlimit="10" stroke-linecap="round" stroke-linejoin="round"/>
<path d="M81.3096 62.7896L88.1712 62.1786C88.1712 62.1786 87.5602 60.3927 84.7874 60.6747C81.9675 60.9567 81.3096 62.7896 81.3096 62.7896Z" fill="black"/>
<path d="M99.0266 62.7896L92.165 62.1786C92.165 62.1786 92.776 60.3927 95.5488 60.6747C98.3687 60.9567 99.0266 62.7896 99.0266 62.7896Z" fill="black"/>
<path d="M87.0898 74.0684H93.8574C93.8574 74.0684 93.5285 76.1362 90.3796 76.1362C87.1838 76.1362 87.0898 74.0684 87.0898 74.0684Z" fill="white" stroke="black" stroke-width="0.43" stroke-miterlimit="10" stroke-linecap="round" stroke-linejoin="round"/>
<path d="M78.3922 63.0193C76.3092 63.398 73.7351 57.2009 79.1788 50.3363C84.6226 43.4717 98.1934 44.0447 103.796 51.7566C105.995 54.7834 106.085 58.5222 102.535 59.469C98.9843 60.4158 104.584 53.9676 93.5413 52.6043C74.3682 50.2373 80.9959 62.5459 78.3922 63.0193Z" fill="#FCC503" stroke="black" stroke-width="0.43"/>
<path d="M103.951 63.8184H96.7131H94.9272H86.0917H85.9977H77.1152C75.8933 63.8184 74.8594 64.8053 74.8594 66.0742V69.27C74.8594 70.492 75.8463 71.5259 77.1152 71.5259H86.1387C87.3606 71.5259 88.3946 70.539 88.3946 69.27V68.9411C88.3946 67.7661 89.3815 66.7792 90.5564 66.7792C91.7314 66.7792 92.7183 67.7661 92.7183 68.9411V69.27C92.7183 70.492 93.7052 71.5259 94.9742 71.5259H103.998C105.22 71.5259 106.253 70.539 106.253 69.27V66.0742C106.206 64.8523 105.22 63.8184 103.951 63.8184Z" fill="#FCC503" stroke="black" stroke-width="0.43" stroke-miterlimit="10"/>
<path d="M96.0537 66.498L99.6725 68.8479" stroke="white" stroke-width="0.43" stroke-miterlimit="10" stroke-linecap="round" stroke-linejoin="round"/>
<path d="M97.8877 65.6973L101.506 68.0001" stroke="white" stroke-width="0.43" stroke-miterlimit="10" stroke-linecap="round" stroke-linejoin="round"/>
<path d="M79.2285 66.498L82.8473 68.8479" stroke="white" stroke-width="0.43" stroke-miterlimit="10" stroke-linecap="round" stroke-linejoin="round"/>
<path d="M81.0166 65.6973L84.6354 68.0001" stroke="white" stroke-width="0.43" stroke-miterlimit="10" stroke-linecap="round" stroke-linejoin="round"/>
<path d="M107.851 64.3842C107.851 53.2929 100.096 44.3164 90.5557 44.3164C81.0153 44.3164 73.2607 53.2929 73.2607 64.3842L73.4487 64.3372C77.6315 56.3007 103.198 58.8385 107.851 64.3842Z" fill="white" stroke="black" stroke-width="0.43" stroke-miterlimit="10" stroke-linejoin="round"/>
<path d="M90.5549 50.2376C91.8527 50.2376 92.9048 48.6174 92.9048 46.6188C92.9048 44.6202 91.8527 43 90.5549 43C89.2571 43 88.2051 44.6202 88.2051 46.6188C88.2051 48.6174 89.2571 50.2376 90.5549 50.2376Z" fill="white" stroke="black" stroke-width="0.43" stroke-miterlimit="10" stroke-linejoin="round"/>
<path d="M79.7466 58.1323C80.0581 58.1323 80.3105 57.8377 80.3105 57.4744C80.3105 57.111 80.0581 56.8164 79.7466 56.8164C79.4351 56.8164 79.1826 57.111 79.1826 57.4744C79.1826 57.8377 79.4351 58.1323 79.7466 58.1323Z" fill="white" stroke="black" stroke-width="0.43" stroke-miterlimit="10" stroke-linejoin="round"/>
<path d="M82.0474 57.4761C82.3588 57.4761 82.6113 57.1815 82.6113 56.8181C82.6113 56.4547 82.3588 56.1602 82.0474 56.1602C81.7359 56.1602 81.4834 56.4547 81.4834 56.8181C81.4834 57.1815 81.7359 57.4761 82.0474 57.4761Z" fill="white" stroke="black" stroke-width="0.43" stroke-miterlimit="10" stroke-linejoin="round"/>
<path d="M84.4458 57.0523C84.7573 57.0523 85.0098 56.7577 85.0098 56.3943C85.0098 56.0309 84.7573 55.7363 84.4458 55.7363C84.1343 55.7363 83.8818 56.0309 83.8818 56.3943C83.8818 56.7577 84.1343 57.0523 84.4458 57.0523Z" fill="white" stroke="black" stroke-width="0.43" stroke-miterlimit="10" stroke-linejoin="round"/>
<path d="M73.2607 64.3827L74.3417 65.1816C74.3417 65.1816 77.0205 59.6829 90.6497 59.7769C104.279 59.9179 106.77 65.1816 106.77 65.1816L107.804 64.3827C107.804 64.3827 103.621 57.8031 90.6027 57.6151C77.4905 57.4271 73.2607 64.3827 73.2607 64.3827Z" fill="white" stroke="black" stroke-width="0.43" stroke-miterlimit="10" stroke-linejoin="round"/>
<path d="M89.5217 57.6153C89.5217 57.6153 86.9369 49.7667 80.7803 47.8398" stroke="black" stroke-width="0.43" stroke-miterlimit="10" stroke-linejoin="round"/>
<path d="M91.6348 57.6153C91.6348 57.6153 94.2196 49.7667 100.376 47.8398" stroke="black" stroke-width="0.43" stroke-miterlimit="10" stroke-linejoin="round"/>
<path d="M58.5557 144.721L52.4561 163.223L54.8221 164.326L60.9218 145.825L58.5557 144.721Z" fill="#FFCA00"/>
<path d="M91.219 196.846L91.1079 196.847L90.8999 196.847L90.8949 197.055L88.0373 314.606L63.2345 314.689L61.4801 176.361L61.0522 176.331L58.5201 194.202L40.7911 189.655L55.605 111.868C56.3535 107.937 58.7787 104.537 62.2479 102.554L64.1482 101.468L79.2074 94.7835L90.326 100.419L91.219 196.846Z" fill="#A9D5F3" stroke="black" stroke-width="0.43"/>
<path d="M121.989 314.531L97.0932 314.614L92.2469 197.091L92.2383 196.883L92.0301 196.884L91.8104 196.884L90.9158 99.9664L102.093 94.7485L118.059 102.44C121.942 104.31 124.737 107.883 125.617 112.097L136.398 163.78L119.101 162.092L118.866 162.069L118.866 162.304L118.866 175.78L118.866 175.785L121.989 314.531Z" fill="#A9D5F3" stroke="black" stroke-width="0.43"/>
<path d="M128.639 173.465C127.839 174.466 127.296 176.555 131.518 176.898" stroke="black" stroke-width="0.43"/>
<path d="M134.952 176.898C134.105 176.898 132.365 176.212 133.236 173.465" stroke="black" stroke-width="0.43"/>
<path d="M88.5516 285.176L62.1788 285.292L62.1111 275.894L88.8002 275.777L88.5516 285.176Z" fill="#CCDCFF" stroke="black" stroke-width="0.43"/>
<path d="M88.0839 300.755L62.2624 300.869L62.2107 293.696L88.2403 293.582L88.0839 300.755Z" fill="#CCDCFF" stroke="black" stroke-width="0.43"/>
<path d="M95.8938 300.682L95.634 293.511L121.664 293.397L121.715 300.569L95.8938 300.682Z" fill="#CCDCFF" stroke="black" stroke-width="0.43"/>
<path d="M95.256 285.104L94.7665 275.708L121.563 275.591L121.631 284.989L95.256 285.104Z" fill="#CCDCFF" stroke="black" stroke-width="0.43"/>
<path d="M104.143 237.855L103.819 201.861L119.492 201.809L119.815 237.803L104.143 237.855Z" fill="#173B66" stroke="black" stroke-width="0.43"/>
<path d="M103.9 210.867L103.819 201.861L119.592 201.809L119.673 210.815L103.9 210.867Z" fill="#133054" stroke="black" stroke-width="0.43"/>
<path d="M112.116 205.513C112.846 205.51 113.45 206.161 113.459 207.126C113.467 208.091 112.875 208.746 112.145 208.749C111.416 208.751 110.811 208.1 110.803 207.135C110.794 206.17 111.386 205.515 112.116 205.513Z" fill="#FFCA00" stroke="black" stroke-width="0.43"/>
<path d="M62.0214 238.187L61.6984 202.193L77.3712 202.141L77.6942 238.135L62.0214 238.187Z" fill="#173B66" stroke="black" stroke-width="0.43"/>
<path d="M61.7794 211.2L61.6984 202.193L77.4703 202.141L77.5514 211.148L61.7794 211.2Z" fill="#133054" stroke="black" stroke-width="0.43"/>
<path d="M67.9082 207.473C67.8996 206.508 68.4919 205.853 69.2217 205.851C69.9515 205.848 70.5556 206.499 70.5643 207.464C70.573 208.429 69.9806 209.084 69.2508 209.087C68.5211 209.089 67.9169 208.438 67.9082 207.473Z" fill="#FFCA00" stroke="black" stroke-width="0.43"/>
<path d="M91.5873 100.338L89.916 100.346L90.5578 194.39L92.229 194.383L91.5873 100.338Z" fill="#133054"/>
<path d="M65.9509 134.342L65.9314 131.622L85.352 131.537L85.3715 134.256L65.9509 134.342Z" fill="#FFCA00" stroke="black" stroke-width="0.43"/>
<path d="M65.9861 140.363L65.9665 137.644L85.3871 137.558L85.4067 140.278L65.9861 140.363Z" fill="#FFCA00" stroke="black" stroke-width="0.43"/>
<path d="M96.4626 147L96.4431 144.28L115.202 144.198L115.222 146.917L96.4626 147Z" fill="#FFCA00" stroke="black" stroke-width="0.43"/>
<path d="M96.3508 175.807L96.2152 162.349L101.919 162.334L102.054 175.792L96.3508 175.807Z" fill="#173B66" stroke="black" stroke-width="0.43"/>
<path d="M96.2466 165.459L96.2152 162.349L101.957 162.334L101.988 165.443L96.2466 165.459Z" fill="#133054" stroke="black" stroke-width="0.43"/>
<path d="M99.0988 164.051C99.2027 164.051 99.2797 164.09 99.3345 164.154C99.3921 164.222 99.4373 164.333 99.4389 164.49C99.4405 164.648 99.3976 164.759 99.3413 164.827C99.2878 164.891 99.2116 164.931 99.1076 164.931C99.0037 164.931 98.9267 164.892 98.8719 164.828C98.8143 164.761 98.7691 164.65 98.7675 164.492C98.7659 164.334 98.8089 164.223 98.8651 164.155C98.9186 164.091 98.9948 164.052 99.0988 164.051Z" fill="#FFCA00" stroke="black" stroke-width="0.43"/>
<path d="M103.18 175.77L103.056 162.318L108.777 162.299L108.902 175.752L103.18 175.77Z" fill="#173B66" stroke="black" stroke-width="0.43"/>
<path d="M103.085 165.426L103.056 162.318L108.798 162.299L108.827 165.407L103.085 165.426Z" fill="#133054" stroke="black" stroke-width="0.43"/>
<path d="M105.938 164.018C106.042 164.018 106.119 164.056 106.174 164.121C106.232 164.188 106.277 164.299 106.278 164.457C106.28 164.614 106.237 164.725 106.18 164.793C106.127 164.858 106.051 164.897 105.947 164.897C105.843 164.898 105.766 164.859 105.711 164.795C105.653 164.727 105.608 164.616 105.607 164.459C105.605 164.301 105.648 164.19 105.705 164.122C105.758 164.058 105.835 164.018 105.938 164.018Z" fill="#FFCA00" stroke="black" stroke-width="0.43"/>
<path d="M110.03 175.733L109.892 162.273L115.588 162.258L115.726 175.718L110.03 175.733Z" fill="#173B66" stroke="black" stroke-width="0.43"/>
<path d="M109.924 165.382L109.892 162.273L115.634 162.258L115.666 165.367L109.924 165.382Z" fill="#133054" stroke="black" stroke-width="0.43"/>
<path d="M112.776 163.975C112.879 163.975 112.957 164.014 113.011 164.078C113.069 164.146 113.114 164.257 113.116 164.414C113.117 164.572 113.074 164.683 113.018 164.751C112.965 164.815 112.889 164.855 112.785 164.855C112.681 164.855 112.604 164.816 112.549 164.752C112.491 164.684 112.446 164.573 112.444 164.416C112.443 164.258 112.486 164.147 112.542 164.079C112.595 164.015 112.672 163.976 112.776 163.975Z" fill="#FFCA00" stroke="black" stroke-width="0.43"/>
<path d="M65.9722 129.248L65.8373 115.791L71.5416 115.775L71.6765 129.233L65.9722 129.248Z" fill="#173B66" stroke="black" stroke-width="0.43"/>
<path d="M65.8685 118.9L65.8373 115.791L71.5789 115.775L71.6102 118.884L65.8685 118.9Z" fill="#133054" stroke="black" stroke-width="0.43"/>
<path d="M68.7228 117.493C68.8267 117.492 68.9038 117.531 68.9585 117.596C69.0161 117.663 69.0613 117.774 69.0629 117.932C69.0645 118.089 69.0215 118.2 68.9653 118.268C68.9118 118.333 68.8355 118.372 68.7316 118.372C68.6277 118.373 68.5507 118.334 68.4959 118.27C68.4383 118.202 68.3931 118.091 68.3915 117.933C68.3899 117.776 68.4329 117.665 68.4891 117.597C68.5426 117.532 68.6189 117.493 68.7228 117.493Z" fill="#FFCA00" stroke="black" stroke-width="0.43"/>
<path d="M72.8083 129.204L72.6828 115.751L78.4024 115.733L78.5278 129.186L72.8083 129.204Z" fill="#173B66" stroke="black" stroke-width="0.43"/>
<path d="M72.7119 118.859L72.6828 115.751L78.4252 115.733L78.4542 118.841L72.7119 118.859Z" fill="#133054" stroke="black" stroke-width="0.43"/>
<path d="M75.5635 117.452C75.6674 117.451 75.7444 117.49 75.7992 117.554C75.8567 117.622 75.9018 117.733 75.9033 117.89C75.9048 118.048 75.8617 118.159 75.8054 118.227C75.7519 118.291 75.6756 118.331 75.5717 118.331C75.4678 118.331 75.3907 118.293 75.336 118.228C75.2784 118.161 75.2333 118.05 75.2319 117.892C75.2304 117.735 75.2734 117.624 75.3297 117.556C75.3832 117.491 75.4595 117.452 75.5635 117.452Z" fill="#FFCA00" stroke="black" stroke-width="0.43"/>
<path d="M79.5452 129.17L79.4076 115.711L85.1057 115.695L85.2433 129.154L79.5452 129.17Z" fill="#173B66" stroke="black" stroke-width="0.43"/>
<path d="M85.362 115.48L79.1904 115.496L79.2267 119.036L85.3983 119.019L85.362 115.48Z" fill="#133054"/>
<path d="M82.9548 117.849C82.9508 117.456 82.7278 117.195 82.3974 117.196C82.067 117.197 81.8494 117.459 81.8534 117.852C81.8574 118.245 82.0804 118.506 82.4108 118.505C82.6311 118.505 82.9588 118.242 82.9548 117.849Z" fill="#FFCA00"/>
<path d="M96.2349 140.331L96.1508 131.982L101.878 131.966L101.962 140.315L96.2349 140.331Z" fill="#173B66" stroke="black" stroke-width="0.43"/>
<path d="M96.1821 135.091L96.1508 131.982L101.892 131.966L101.924 135.076L96.1821 135.091Z" fill="#133054" stroke="black" stroke-width="0.43"/>
<path d="M99.0333 133.553C99.1372 133.553 99.2143 133.592 99.2691 133.656C99.3267 133.724 99.3719 133.835 99.3735 133.992C99.375 134.15 99.3321 134.261 99.2759 134.329C99.2224 134.393 99.1461 134.433 99.0422 134.433C98.9383 134.433 98.8612 134.394 98.8064 134.33C98.7488 134.263 98.7037 134.152 98.7021 133.994C98.7005 133.836 98.7434 133.725 98.7997 133.657C98.8532 133.593 98.9294 133.554 99.0333 133.553Z" fill="#FFCA00" stroke="black" stroke-width="0.43"/>
<path d="M103.068 140.292L102.99 131.947L108.725 131.929L108.803 140.274L103.068 140.292Z" fill="#173B66" stroke="black" stroke-width="0.43"/>
<path d="M103.019 135.055L102.99 131.947L108.733 131.928L108.762 135.036L103.019 135.055Z" fill="#133054" stroke="black" stroke-width="0.43"/>
<path d="M105.872 133.516C105.976 133.516 106.053 133.554 106.108 133.619C106.165 133.686 106.21 133.797 106.212 133.955C106.213 134.112 106.17 134.223 106.114 134.291C106.06 134.356 105.984 134.395 105.88 134.396C105.776 134.396 105.699 134.357 105.645 134.293C105.587 134.225 105.542 134.114 105.54 133.957C105.539 133.799 105.582 133.688 105.638 133.62C105.692 133.556 105.768 133.516 105.872 133.516Z" fill="#FFCA00" stroke="black" stroke-width="0.43"/>
<path d="M109.911 140.251L109.826 131.902L115.55 131.887L115.635 140.236L109.911 140.251Z" fill="#173B66" stroke="black" stroke-width="0.43"/>
<path d="M109.857 135.011L109.826 131.902L115.567 131.887L115.599 134.996L109.857 135.011Z" fill="#133054" stroke="black" stroke-width="0.43"/>
<path d="M112.707 133.473C112.811 133.473 112.888 133.512 112.943 133.576C113.001 133.644 113.046 133.755 113.047 133.912C113.049 134.046 112.994 134.158 112.918 134.238C112.836 134.325 112.751 134.353 112.716 134.353C112.612 134.353 112.535 134.314 112.48 134.25C112.423 134.182 112.378 134.072 112.376 133.914C112.374 133.756 112.417 133.645 112.474 133.577C112.527 133.513 112.603 133.474 112.707 133.473Z" fill="#FFCA00" stroke="black" stroke-width="0.43"/>
<path d="M95.968 129.713L95.8361 115.066L115.562 115.001L115.694 129.648L95.968 129.713Z" fill="#173B66" stroke="black" stroke-width="0.43"/>
<path d="M115.578 115L115.613 118.825L105.822 121.684L95.8705 118.89L95.8361 115.066L115.578 115Z" fill="#133054" stroke="black" stroke-width="0.43"/>
<path d="M105.85 120.783L105.829 120.779L105.808 120.779C105.298 120.78 104.806 120.26 104.799 119.557C104.793 118.854 105.276 118.33 105.786 118.328C106.295 118.326 106.788 118.847 106.794 119.55C106.798 119.968 106.675 120.309 106.495 120.526C106.319 120.738 106.092 120.83 105.85 120.783Z" fill="#FFCA00" stroke="black" stroke-width="0.43"/>
<path d="M66.011 176.092L65.879 161.445L85.6053 161.38L85.7372 176.027L66.011 176.092Z" fill="#173B66" stroke="black" stroke-width="0.43"/>
<path d="M85.6215 161.379L85.6547 165.073L75.8637 167.932L65.9122 165.138L65.879 161.445L85.6215 161.379Z" fill="#133054" stroke="black" stroke-width="0.43"/>
<path d="M75.8307 164.707C76.3401 164.705 76.8329 165.226 76.8392 165.929C76.8456 166.632 76.3622 167.156 75.8527 167.157C75.3433 167.159 74.8505 166.639 74.8442 165.936C74.8378 165.233 75.3212 164.709 75.8307 164.707Z" fill="#FFCA00" stroke="black" stroke-width="0.43"/>
<path d="M91.6174 100.614L89.9863 100.621L89.5666 99.9336L90.1828 99.0861L91.3988 99.0808L92.0271 99.9229L91.6174 100.614Z" fill="#FFCA00" stroke="black" stroke-width="0.43"/>
<path d="M91.0233 102.29C90.9566 102.233 90.866 102.186 90.7586 102.186C90.6511 102.186 90.5614 102.234 90.4958 102.292C90.4559 102.044 90.4291 101.755 90.4187 101.439L91.085 101.437C91.0803 101.753 91.0586 102.042 91.0233 102.29Z" fill="#FFCA00" stroke="black" stroke-width="0.43"/>
<path d="M90.633 101.011L90.631 100.787L90.8627 100.786L90.8648 101.01L90.633 101.011Z" fill="#FFCA00" stroke="black" stroke-width="0.43"/>
<path d="M69.3596 111.542L69.3489 98.8377L78.5449 94.3547L85.8285 94.3486L85.9025 182.341L61.5216 182.361L61.4785 131.116C62.2957 131.047 63.1618 130.589 63.9998 129.802C64.9145 128.942 65.8144 127.671 66.6074 126.016C68.1939 122.706 69.3649 117.831 69.3596 111.542Z" fill="#FFCA00" stroke="black" stroke-width="0.43"/>
<path d="M61.4239 152.749L61.4134 140.34L85.7943 140.319L85.8047 152.728L61.4239 152.749Z" fill="#C2D5FC" stroke="black" stroke-width="0.43"/>
<path d="M61.4434 175.114L61.433 162.705L85.8138 162.685L85.8243 175.093L61.4434 175.114Z" fill="#C2D5FC" stroke="black" stroke-width="0.43"/>
<path d="M111.364 111.538L111.375 98.8338L102.179 94.3508L94.8951 94.3447L94.8212 182.337L119.202 182.357L119.245 131.112C118.428 131.043 117.562 130.586 116.724 129.798C115.809 128.938 114.909 127.667 114.116 126.012C112.53 122.702 111.359 117.827 111.364 111.538Z" fill="#FFCA00" stroke="black" stroke-width="0.43"/>
<path d="M119.3 152.745L119.31 140.336L94.9293 140.315L94.9189 152.724L119.3 152.745Z" fill="#C2D5FC" stroke="black" stroke-width="0.43"/>
<path d="M119.28 175.11L119.291 162.701L94.9098 162.681L94.8994 175.089L119.28 175.11Z" fill="#C2D5FC" stroke="black" stroke-width="0.43"/>
<path d="M91.0973 148.313L90.7683 99.7649L77.6561 82.752L76.5752 96.5221L80.382 104.559L90.9093 99.7649L101.954 82.752L105.102 96.5221L101.155 104.559L90.7683 99.7649" fill="#A9D5F3"/>
<path d="M91.0973 148.313L90.7683 99.7649M90.7683 99.7649L77.6561 82.752L76.5752 96.5221L80.382 104.559L90.9093 99.7649L101.954 82.752L105.102 96.5221L101.155 104.559L90.7683 99.7649Z" stroke="black" stroke-width="0.43" stroke-miterlimit="10" stroke-linecap="round" stroke-linejoin="round"/>
<path d="M65.1365 101.311C64.8715 106.788 62.327 118.327 54.2695 120.659" stroke="black" stroke-width="0.43"/>
<path d="M116.554 101.84C116.82 107.318 119.629 118.856 127.687 121.188" stroke="black" stroke-width="0.43"/>
<path d="M160.634 136.66H118.447C117.774 136.66 117.256 137.204 117.256 137.851V163.5C117.256 163.81 117.127 164.121 116.894 164.354L109.207 170.98H108.353V172.248C108.353 172.869 108.818 173.464 109.569 173.464H150.644C151.757 173.464 152.818 173.024 153.62 172.222L161.488 164.354C161.721 164.121 161.851 163.81 161.851 163.5V137.851C161.825 137.178 161.281 136.66 160.634 136.66Z" fill="#90A6B4" stroke="black" stroke-width="0.43" stroke-miterlimit="10"/>
<path d="M116.092 137.773V162.232C116.092 162.542 115.962 162.853 115.729 163.086L108.689 170.126C107.939 170.876 108.482 172.17 109.543 172.17H149.454C150.566 172.17 151.628 171.73 152.43 170.928L160.298 163.06C160.531 162.827 160.66 162.516 160.66 162.206V137.747C160.66 137.074 160.117 136.557 159.47 136.557H117.282C116.635 136.583 116.092 137.126 116.092 137.773Z" fill="#EDF5F7" stroke="black" stroke-width="0.43" stroke-miterlimit="10"/>
<path d="M157.219 161.223H119.638C118.318 161.223 117.257 160.161 117.257 158.841V140.672C117.257 139.352 118.318 138.291 119.638 138.291H157.219C158.539 138.291 159.6 139.352 159.6 140.672V158.841C159.626 160.161 158.539 161.223 157.219 161.223Z" fill="#3E4546" stroke="black" stroke-width="0.43" stroke-miterlimit="10"/>
<path d="M150.023 170.023H112.856C112.675 170.023 112.597 169.816 112.701 169.687L117.23 165.028C117.566 164.666 118.032 164.484 118.524 164.484H155.536C155.717 164.484 155.794 164.691 155.691 164.821L151.058 169.609C150.773 169.868 150.411 170.023 150.023 170.023Z" fill="#90A6B4" stroke="black" stroke-width="0.43" stroke-miterlimit="10"/>
<path d="M136.332 170.903H126.885C126.73 170.903 126.678 170.722 126.781 170.618L129.499 167.875C129.628 167.745 129.784 167.693 129.939 167.693H139.282C139.438 167.693 139.49 167.875 139.386 167.978L136.591 170.799C136.513 170.877 136.435 170.903 136.332 170.903Z" fill="#3E4546" stroke="black" stroke-width="0.43" stroke-miterlimit="10"/>
</svg>
