<svg width="119" height="62" viewBox="0 0 119 62" fill="none" xmlns="http://www.w3.org/2000/svg">
<mask id="path-1-inside-1_687_3989" fill="white">
<path fill-rule="evenodd" clip-rule="evenodd" d="M59.3574 62C26.5752 62 0 48.1208 0 31C0 13.8792 26.5752 0 59.3574 0C92.1396 0 118.715 13.8792 118.715 31C118.715 38.2576 113.939 44.9326 105.94 50.2149L110.384 60.5238L93.0269 56.5337C83.4599 59.9812 71.8601 62 59.3574 62Z"/>
</mask>
<path fill-rule="evenodd" clip-rule="evenodd" d="M59.3574 62C26.5752 62 0 48.1208 0 31C0 13.8792 26.5752 0 59.3574 0C92.1396 0 118.715 13.8792 118.715 31C118.715 38.2576 113.939 44.9326 105.94 50.2149L110.384 60.5238L93.0269 56.5337C83.4599 59.9812 71.8601 62 59.3574 62Z" fill="#FCC503"/>
<path d="M105.94 50.2149L104.104 51.0066L103.441 49.4687L104.838 48.5459L105.94 50.2149ZM110.384 60.5238L112.221 59.732L113.784 63.3574L109.936 62.473L110.384 60.5238ZM93.0269 56.5337L92.3489 54.6522L92.902 54.4529L93.475 54.5846L93.0269 56.5337ZM2 31C2 38.4404 7.81312 45.6648 18.3112 51.1475C28.7132 56.58 43.2219 60 59.3574 60V64C42.7107 64 27.5408 60.4804 16.4595 54.6931C5.47449 48.9561 -2 40.6804 -2 31H2ZM59.3574 2C43.2219 2 28.7132 5.41998 18.3112 10.8525C7.81312 16.3352 2 23.5596 2 31H-2C-2 21.3196 5.47449 13.0439 16.4595 7.3069C27.5408 1.5196 42.7107 -2 59.3574 -2V2ZM116.715 31C116.715 23.5596 110.902 16.3352 100.404 10.8525C90.0017 5.41998 75.4929 2 59.3574 2V-2C76.0041 -2 91.1741 1.5196 102.255 7.3069C113.24 13.0439 120.715 21.3196 120.715 31H116.715ZM104.838 48.5459C112.559 43.4476 116.715 37.3063 116.715 31H120.715C120.715 39.2088 115.32 46.4176 107.042 51.8838L104.838 48.5459ZM107.777 49.4231L112.221 59.732L108.548 61.3156L104.104 51.0066L107.777 49.4231ZM109.936 62.473L92.5788 58.4829L93.475 54.5846L110.832 58.5746L109.936 62.473ZM59.3574 60C71.6541 60 83.0218 58.0132 92.3489 54.6522L93.7049 58.4153C83.8979 61.9492 72.066 64 59.3574 64V60Z" fill="black" mask="url(#path-1-inside-1_687_3989)"/>
<path d="M42.4679 22.132C44.3929 22.132 45.3719 20.966 45.8009 19.987L43.8869 19.107C43.6999 19.679 43.1279 20.174 42.4679 20.174C41.4009 20.174 40.6859 19.36 40.6859 18.337C40.6859 17.314 41.4009 16.5 42.4679 16.5C43.1279 16.5 43.6999 16.995 43.8869 17.567L45.8009 16.676C45.3609 15.664 44.3929 14.542 42.4679 14.542C40.1689 14.542 38.4309 16.071 38.4309 18.337C38.4309 20.592 40.1689 22.132 42.4679 22.132ZM49.4668 22V18.403H50.8638V16.687H46.0678V18.403H47.4868V22H49.4668ZM51.5219 24.068C51.7089 24.123 52.1489 24.156 52.2919 24.156C53.4139 24.123 54.2939 23.892 54.7669 22.66L57.0769 16.687H54.9869L53.9639 19.723L52.9519 16.687H50.8619L52.9519 22.088L52.9079 22.198C52.8419 22.341 52.5999 22.407 52.2149 22.407C52.0829 22.407 51.9179 22.374 51.7969 22.308L51.5219 24.068ZM63.0406 22V16.687H57.4636V22H59.4436V18.403H61.0606V22H63.0406ZM66.7412 22.132C67.5332 22.132 68.4792 21.923 69.0072 21.472L68.1932 20.251C67.9292 20.482 67.2692 20.625 66.9722 20.625C66.3232 20.625 65.9382 20.295 65.8282 19.954H69.4362V19.547C69.4362 17.677 68.2372 16.555 66.6752 16.555C64.9592 16.555 63.7822 17.798 63.7822 19.338C63.7822 21.087 65.0802 22.132 66.7412 22.132ZM67.5552 18.7H65.8062C65.8722 18.458 66.0702 18.062 66.6752 18.062C67.3132 18.062 67.5002 18.469 67.5552 18.7ZM72.0979 22V20.086H73.7149V22H75.6949V16.687H73.7149V18.37H72.0979V16.687H70.1179V22H72.0979ZM76.7995 16.687V22H80.4515C81.7275 22 82.4865 21.142 82.4865 20.141C82.4865 19.129 81.8045 18.271 80.4515 18.271H78.7795V16.687H76.7995ZM80.0775 19.822C80.3195 19.822 80.4845 19.954 80.4845 20.141C80.4845 20.317 80.3195 20.449 80.0775 20.449H78.7795V19.822H80.0775ZM85.4673 21.197C85.4673 20.295 84.8623 19.778 84.1913 19.778C83.5753 19.778 83.0473 20.295 83.0473 20.933C83.0473 21.549 83.4763 21.956 84.0043 21.956C84.1253 21.956 84.2353 21.934 84.2903 21.912C84.1473 22.33 83.6413 22.814 83.2893 22.968L84.0923 23.617C84.9503 23.012 85.4673 22.165 85.4673 21.197ZM35.0105 34V32.086H36.6275V34H38.6075V28.687H36.6275V30.37H35.0105V28.687H33.0305V34H35.0105ZM44.7611 34V30.788C44.7611 29.017 43.4741 28.555 42.1541 28.555C41.3511 28.555 40.3611 28.786 39.6461 29.358L40.3171 30.579C40.7351 30.26 41.2961 30.062 41.7911 30.062C42.4401 30.062 42.7811 30.348 42.7811 30.722V31.272C42.4951 30.909 41.8681 30.689 41.1751 30.689C40.3831 30.689 39.3491 31.063 39.3491 32.383C39.3491 33.593 40.3831 34.132 41.1751 34.132C41.8351 34.132 42.4841 33.868 42.7811 33.494V34H44.7611ZM42.0001 32.845C41.6701 32.845 41.3071 32.746 41.3071 32.416C41.3071 32.086 41.6701 31.976 42.0001 31.976C42.3081 31.976 42.6491 32.075 42.7811 32.262V32.559C42.6491 32.746 42.3081 32.845 42.0001 32.845ZM54.3694 34L52.4224 31.107L54.2484 28.687H51.8614L50.6404 30.579V28.687H48.6604V34H50.6404V32.801L51.0254 32.284L51.9384 34H54.3694ZM57.294 34.132C59.186 34.132 60.286 32.823 60.286 31.338C60.286 29.853 59.186 28.555 57.294 28.555C55.413 28.555 54.313 29.853 54.313 31.338C54.313 32.823 55.413 34.132 57.294 34.132ZM57.294 32.383C56.689 32.383 56.348 31.932 56.348 31.338C56.348 30.755 56.689 30.304 57.294 30.304C57.91 30.304 58.251 30.755 58.251 31.338C58.251 31.932 57.91 32.383 57.294 32.383ZM64.0386 34V30.403H65.4356V28.687H60.6396V30.403H62.0586V34H64.0386ZM68.7666 34.132C70.6586 34.132 71.7586 32.823 71.7586 31.338C71.7586 29.853 70.6586 28.555 68.7666 28.555C66.8856 28.555 65.7856 29.853 65.7856 31.338C65.7856 32.823 66.8856 34.132 68.7666 34.132ZM68.7666 32.383C68.1616 32.383 67.8206 31.932 67.8206 31.338C67.8206 30.755 68.1616 30.304 68.7666 30.304C69.3826 30.304 69.7236 30.755 69.7236 31.338C69.7236 31.932 69.3826 32.383 68.7666 32.383ZM75.9733 34.132C77.2933 34.132 78.3053 33.164 78.3053 31.338C78.3053 29.523 77.2933 28.555 75.9733 28.555C75.4233 28.555 74.9063 28.742 74.4773 29.248V28.687H72.4973V36.024H74.4773V33.439C74.9173 33.945 75.4233 34.132 75.9733 34.132ZM75.2913 32.383C75.0383 32.383 74.6533 32.24 74.4773 32.02V30.667C74.6643 30.436 75.0383 30.304 75.2913 30.304C75.8193 30.304 76.2813 30.678 76.2813 31.338C76.2813 32.009 75.8193 32.383 75.2913 32.383ZM81.6573 34.132C83.5493 34.132 84.6493 32.823 84.6493 31.338C84.6493 29.853 83.5493 28.555 81.6573 28.555C79.7763 28.555 78.6763 29.853 78.6763 31.338C78.6763 32.823 79.7763 34.132 81.6573 34.132ZM81.6573 32.383C81.0523 32.383 80.7113 31.932 80.7113 31.338C80.7113 30.755 81.0523 30.304 81.6573 30.304C82.2733 30.304 82.6143 30.755 82.6143 31.338C82.6143 31.932 82.2733 32.383 81.6573 32.383ZM87.2799 34L88.9849 31.481V34H90.9649V28.687H88.9629L87.3679 31.052V28.687H85.3879V34H87.2799ZM90.1069 27.268L89.2819 26.586C89.0179 26.96 88.6439 27.169 88.1819 27.169C87.6979 27.169 87.3239 26.927 87.0819 26.586L86.2459 27.268C86.6969 27.862 87.4009 28.236 88.1819 28.236C88.9739 28.236 89.6669 27.862 90.1069 27.268ZM38.7891 46V42.403H40.1861V40.687H35.3901V42.403H36.8091V46H38.7891ZM40.8991 40.687V46H44.5511C45.8271 46 46.5861 45.142 46.5861 44.141C46.5861 43.129 45.9041 42.271 44.5511 42.271H42.8791V40.687H40.8991ZM44.1771 43.822C44.4191 43.822 44.5841 43.954 44.5841 44.141C44.5841 44.317 44.4191 44.449 44.1771 44.449H42.8791V43.822H44.1771ZM49.0171 46V40.687H47.0371V46H49.0171ZM55.5376 46.132C56.7476 46.132 57.4956 45.571 57.7926 45.131L56.5166 43.921C56.3516 44.163 56.0436 44.383 55.6256 44.383C55.0646 44.383 54.5806 44.02 54.5806 43.338C54.5806 42.656 55.0646 42.304 55.6256 42.304C56.0436 42.304 56.3516 42.502 56.5166 42.755L57.7926 41.556C57.4956 41.105 56.7476 40.555 55.5376 40.555C53.8546 40.555 52.5566 41.655 52.5566 43.338C52.5566 45.032 53.8546 46.132 55.5376 46.132ZM61.0371 46.132C61.8291 46.132 62.7751 45.923 63.3031 45.472L62.4891 44.251C62.2251 44.482 61.5651 44.625 61.2681 44.625C60.6191 44.625 60.2341 44.295 60.1241 43.954H63.7321V43.547C63.7321 41.677 62.5331 40.555 60.9711 40.555C59.2551 40.555 58.0781 41.798 58.0781 43.338C58.0781 45.087 59.3761 46.132 61.0371 46.132ZM61.8511 42.7H60.1021C60.1681 42.458 60.3661 42.062 60.9711 42.062C61.6091 42.062 61.7961 42.469 61.8511 42.7ZM66.3058 46L68.0108 43.481V46H69.9908V40.687H67.9888L66.3938 43.052V40.687H64.4138V46H66.3058ZM69.1328 39.268L68.3078 38.586C68.0438 38.96 67.6698 39.169 67.2078 39.169C66.7238 39.169 66.3498 38.927 66.1078 38.586L65.2718 39.268C65.7228 39.862 66.4268 40.236 67.2078 40.236C67.9998 40.236 68.6928 39.862 69.1328 39.268ZM70.9854 40.687V42.788C70.9854 43.932 71.5244 44.68 72.9654 44.68C73.6914 44.68 74.2744 44.46 74.5824 44.262V46H76.5624V40.687H74.5824V42.7C74.4174 42.81 74.1864 42.931 73.7354 42.931C73.2624 42.931 72.9654 42.722 72.9654 42.172V40.687H70.9854ZM82.7079 46V42.788C82.7079 41.017 81.4209 40.555 80.1009 40.555C79.2979 40.555 78.3079 40.786 77.5929 41.358L78.2639 42.579C78.6819 42.26 79.2429 42.062 79.7379 42.062C80.3869 42.062 80.7279 42.348 80.7279 42.722V43.272C80.4419 42.909 79.8149 42.689 79.1219 42.689C78.3299 42.689 77.2959 43.063 77.2959 44.383C77.2959 45.593 78.3299 46.132 79.1219 46.132C79.7819 46.132 80.4309 45.868 80.7279 45.494V46H82.7079ZM79.9469 44.845C79.6169 44.845 79.2539 44.746 79.2539 44.416C79.2539 44.086 79.6169 43.976 79.9469 43.976C80.2549 43.976 80.5959 44.075 80.7279 44.262V44.559C80.5959 44.746 80.2549 44.845 79.9469 44.845ZM86.4214 46.132C87.6314 46.132 88.3794 45.571 88.6764 45.131L87.4004 43.921C87.2354 44.163 86.9274 44.383 86.5094 44.383C85.9484 44.383 85.4644 44.02 85.4644 43.338C85.4644 42.656 85.9484 42.304 86.5094 42.304C86.9274 42.304 87.2354 42.502 87.4004 42.755L88.6764 41.556C88.3794 41.105 87.6314 40.555 86.4214 40.555C84.7384 40.555 83.4404 41.655 83.4404 43.338C83.4404 45.032 84.7384 46.132 86.4214 46.132Z" fill="black"/>
</svg>
