<svg width="194" height="172" viewBox="0 0 194 172" fill="none" xmlns="http://www.w3.org/2000/svg">
<path d="M152.323 125.462C145.439 106.1 132.53 102.83 132.53 102.83L109.898 92.9336L84.1673 93.2778L60.7602 103.002C60.33 103.174 58.4367 103.949 58.4367 103.949C54.3061 106.014 38.227 107.65 33.3218 121.505C19.553 160.315 13.3438 268.142 13.3438 268.142L37.9556 272.789L56.8978 150.049L58.8018 222.716L138.815 221.13L134.914 150.049L159.949 223.958L179.766 209.802C179.766 209.802 166.092 164.187 152.323 125.462Z" fill="#173B66" stroke="black" stroke-width="0.707776" stroke-miterlimit="10" stroke-linecap="round" stroke-linejoin="round"/>
<path d="M109.384 87.3379L107.835 67.7173C107.835 67.7173 103.274 70.9013 99.1432 71.7619C95.0125 72.5364 90.9679 70.1268 90.8819 70.1268C90.7958 70.1268 86.0627 67.373 86.0627 67.373L84.5138 87.5961C84.2556 91.1243 82.0181 94.2223 78.748 95.5132C91.3121 102.484 96.9918 104.807 96.9918 104.807L115.322 95.341L114.977 95.1689C111.879 93.792 109.728 90.7801 109.384 87.3379Z" fill="#F8B498" stroke="black" stroke-width="0.707776" stroke-miterlimit="10"/>
<path d="M126.749 117.962C119.864 98.5992 132.531 102.826 132.531 102.826L112.593 93.1895L97.7297 105.222L79.3275 95.3128L60.7607 102.998C60.3304 103.17 58.4372 103.945 58.4372 103.945C54.3066 106.01 53.0898 114.016 48.1846 127.87C50.3089 143.442 51.7244 143.442 51.7244 143.442L45.3545 154.058L56.8983 150.045L58.8022 222.712L138.816 221.126L134.915 150.045L129.58 168.921L126.749 135.656C126.749 135.656 140.518 156.687 126.749 117.962Z" fill="white" stroke="black" stroke-width="0.707776" stroke-miterlimit="10" stroke-linecap="round" stroke-linejoin="round"/>
<path d="M54.0411 202.021L54.0473 201.966L54.0362 201.911L36.5409 115.759C36.5709 115.719 36.609 115.669 36.6556 115.61C36.7967 115.43 37.0157 115.165 37.3224 114.827C37.9358 114.151 38.9004 113.186 40.2961 112.041C43.0871 109.752 47.6044 106.744 54.4883 103.899C61.4002 101.043 66.3745 99.1111 69.6196 97.894C71.2422 97.2854 72.4324 96.8555 73.2165 96.5778C73.5559 96.4577 73.8192 96.366 74.0085 96.3008L89.5993 163.364L86.8301 289.39C86.6174 289.373 86.3159 289.348 85.9348 289.313C85.1189 289.239 83.9383 289.118 82.4814 288.935C79.5671 288.57 75.55 287.956 71.1384 286.963C62.3554 284.986 52.0803 281.521 45.7953 275.577L54.0411 202.021Z" fill="#173B66" stroke="black" stroke-width="0.707776"/>
<path d="M67.2128 136.566L67.2297 136.552L67.2448 136.536L72.6613 130.802L72.9262 130.522L72.624 130.282L68.7497 127.207L68.725 127.188L68.6974 127.173L68.6973 127.173L68.6972 127.173L68.6971 127.173L68.6952 127.172L68.6857 127.167C68.6814 127.164 68.6759 127.161 68.6692 127.157C68.6623 127.153 68.6542 127.149 68.6449 127.144C68.6083 127.123 68.5536 127.091 68.4834 127.047C68.3429 126.961 68.1411 126.831 67.8999 126.658C67.4169 126.311 66.78 125.793 66.1637 125.113C64.9306 123.75 63.8004 121.76 64.1041 119.175L64.105 119.167L64.1056 119.16L65.6302 98.9103L73.5018 96.2497L79.6467 103.077L89.534 163.107V168.538L66.4153 143.277C66.4144 143.275 66.4134 143.273 66.4124 143.271C66.3971 143.24 66.3744 143.194 66.3463 143.134C66.29 143.013 66.2123 142.835 66.1285 142.613C65.9605 142.167 65.7705 141.549 65.6786 140.853C65.495 139.463 65.7049 137.81 67.2128 136.566Z" fill="#003D64" stroke="black" stroke-width="0.707776"/>
<path d="M113.268 93.5549L135.503 103.988L135.532 104.001L135.563 104.009L135.563 104.009L135.563 104.009L135.564 104.01L135.569 104.011L135.594 104.018C135.617 104.024 135.651 104.034 135.696 104.048C135.786 104.075 135.919 104.117 136.088 104.175C136.427 104.291 136.911 104.473 137.485 104.733C138.633 105.253 140.134 106.082 141.552 107.319C144.372 109.779 146.882 113.864 145.593 120.429L145.59 120.445L145.588 120.462L138.099 194.653L138.097 194.679L138.098 194.706L141.842 273.341L141.844 273.371L141.85 273.4L113.268 93.5549ZM113.268 93.5549L110.125 160.695L119.401 285.138C132.309 286.295 137.864 283.28 140.225 280.108C141.42 278.503 141.827 276.822 141.933 275.539C141.987 274.897 141.965 274.357 141.93 273.98C141.913 273.791 141.892 273.643 141.876 273.544C141.868 273.494 141.861 273.457 141.857 273.433L141.851 273.406L141.85 273.401L141.85 273.4L113.268 93.5549Z" fill="#173B66" stroke="black" stroke-width="0.707776"/>
<path d="M124.086 138.031L110.632 165.374L110.061 160.238L113.572 93.5323L131.233 101.004L127.211 117.793L127.206 117.815L127.203 117.838L127.203 117.838L127.203 117.838L127.203 117.838L127.203 117.84L127.202 117.848L127.198 117.884C127.194 117.916 127.187 117.964 127.178 118.026C127.159 118.15 127.128 118.329 127.081 118.547C126.987 118.985 126.828 119.572 126.572 120.174C126.053 121.394 125.174 122.593 123.701 122.872L123.679 122.876L123.658 122.883L117.585 124.837L117.031 125.016L117.444 125.426L123.984 131.914L123.985 131.915L123.985 131.915L123.985 131.915L123.985 131.916L123.986 131.916L123.991 131.922C123.996 131.927 124.004 131.935 124.015 131.946C124.037 131.969 124.069 132.003 124.11 132.049C124.191 132.141 124.306 132.276 124.434 132.449C124.692 132.796 124.999 133.285 125.209 133.861C125.419 134.437 125.528 135.089 125.405 135.772C125.282 136.451 124.925 137.189 124.157 137.933L124.113 137.976L124.086 138.031Z" fill="#003D64" stroke="black" stroke-width="0.707776"/>
<path d="M88.3061 106.332L91.9361 100.761L93.0289 102.27L91.1351 107.34L88.3061 106.332Z" fill="#A9D5F3" stroke="black" stroke-width="0.707776"/>
<path d="M104.735 106.287L101.067 100.659L99.5126 102.284L101.88 107.304L104.735 106.287Z" fill="#A9D5F3" stroke="black" stroke-width="0.707776"/>
<path d="M101.211 102.215L102.913 100.092" stroke="black" stroke-width="0.707776"/>
<path d="M92.8494 101.972C92.8944 101.992 92.9441 102.014 92.9987 102.035C93.2994 102.156 93.7456 102.296 94.3477 102.388C95.5164 102.568 97.2633 102.569 99.6657 101.912C99.8211 102.107 99.98 102.302 100.139 102.497C100.638 103.108 101.14 103.723 101.546 104.372C102.104 105.265 102.429 106.147 102.29 107.05L99.0481 112.741H94.9923L90.9224 107.018C90.9168 106.988 90.9098 106.938 90.9066 106.866C90.8991 106.703 90.911 106.425 91.0041 106.009C91.1823 105.212 91.6567 103.919 92.8494 101.972Z" fill="#A9D5F3" stroke="black" stroke-width="0.707776"/>
<path d="M99.4528 218.247L91.1884 204.491L94.7132 111.79L99.1391 111.764L106.042 204.505L99.4528 218.247Z" fill="#A9D5F3" stroke="black" stroke-width="0.707776"/>
<path d="M69.3613 97.2564L81.3935 93.0098L92.7179 100.088L80.6857 117.074L69.3613 97.2564Z" fill="white" stroke="black" stroke-width="0.707776"/>
<path d="M121.737 97.2599L111.121 91.5977L100.504 100.799L110.413 115.662L121.737 97.2599Z" fill="white" stroke="black" stroke-width="0.707776"/>
<path d="M82.3214 41.4781C86.3138 42.8089 91.016 42.3653 96.2504 48.6644C99.0007 51.947 94.2986 61.7062 85.1604 57.1815C76.0223 52.6568 66.2631 42.8976 68.3924 25.1536C69.6345 14.7734 73.272 14.6847 76.0223 16.3704C78.4177 17.8786 79.2162 20.0966 78.2403 22.0484C75.9336 26.8393 71.9412 37.9293 82.3214 41.4781Z" fill="#C4C4C4" stroke="black" stroke-width="0.707776" stroke-miterlimit="10"/>
<path d="M111.866 41.3921C107.873 42.7229 103.082 42.2793 97.7592 48.5784C95.0089 51.8611 99.7111 61.6203 108.938 57.0956C118.165 52.4821 128.101 42.8117 125.883 25.0677C124.641 14.6875 121.004 14.5987 118.165 16.2844C115.681 17.7927 114.882 20.0107 115.858 21.9625C118.342 26.7534 122.423 37.8433 111.866 41.3921Z" fill="#C4C4C4" stroke="black" stroke-width="0.707776" stroke-miterlimit="10"/>
<path d="M83.1225 44.4704C83.2112 49.0838 79.6624 52.8987 75.049 52.9875C70.4356 53.0762 66.6206 49.5274 66.5319 44.914C66.4432 40.3005 69.992 36.4856 74.6054 36.3969C79.2188 36.2194 83.0338 39.8569 83.1225 44.4704Z" fill="#F8B498" stroke="black" stroke-width="0.707776" stroke-miterlimit="10"/>
<path d="M70.0811 43.4978C70.0811 43.4978 73.3637 41.9009 76.5576 47.6676" stroke="black" stroke-width="0.707776" stroke-miterlimit="10" stroke-linecap="round" stroke-linejoin="round"/>
<path d="M113.553 43.3162C113.553 47.9297 117.279 51.6559 121.892 51.6559C126.506 51.6559 130.232 47.9297 130.232 43.3162C130.232 38.7028 126.506 34.9766 121.892 34.9766C117.279 35.0653 113.553 38.7915 113.553 43.3162Z" fill="#F8B498" stroke="black" stroke-width="0.707776" stroke-miterlimit="10"/>
<path d="M126.241 42.0728C126.241 42.0728 122.869 40.5646 119.941 46.4201" stroke="black" stroke-width="0.707776" stroke-miterlimit="10" stroke-linecap="round" stroke-linejoin="round"/>
<path d="M84.5479 67.5137C84.5479 67.5137 89.25 82.7735 99.9851 82.596C108.768 82.4186 110.188 67.5137 110.188 67.5137H84.5479Z" fill="#1D0300"/>
<path d="M120.827 34.4708C120.916 43.8751 121.49 52.0373 120.159 57.8041C118.538 69.1341 112.044 71.5343 106.809 74.7282L105.833 75.3492C100.333 78.7206 95.8079 78.8093 90.1299 75.6154C84.4518 72.4215 76.4102 69.9443 75.3135 57.8041C73.0067 46.8028 74.3168 30.7283 74.3168 30.7283C74.3168 30.7283 72.1197 9.27434 96.6064 9.62922C121.182 9.9841 120.827 34.4708 120.827 34.4708Z" fill="#F8B498" stroke="black" stroke-width="0.707776" stroke-miterlimit="10"/>
<path d="M89.514 39.7585C89.514 40.8231 88.6268 41.7103 87.5622 41.7103C86.4976 41.7103 85.6104 40.8231 85.6104 39.7585C85.6104 38.6938 86.4976 37.8066 87.5622 37.8066C88.6268 37.8066 89.514 38.6938 89.514 39.7585Z" fill="#1D0300"/>
<path d="M108.942 39.7585C108.942 40.8231 108.055 41.7103 106.99 41.7103C105.925 41.7103 105.038 40.8231 105.038 39.7585C105.038 38.6938 105.925 37.8066 106.99 37.8066C108.055 37.8066 108.942 38.6938 108.942 39.7585Z" fill="#1D0300"/>
<path d="M80.1064 36.1939L93.0595 35.0406C93.0595 35.0406 91.9062 31.6692 86.6717 32.2015C81.3485 32.7339 80.1064 36.1939 80.1064 36.1939Z" fill="black"/>
<path d="M113.553 36.1939L100.6 35.0406C100.6 35.0406 101.753 31.6692 106.987 32.2015C112.311 32.7339 113.553 36.1939 113.553 36.1939Z" fill="black"/>
<path d="M73.9813 31.0581C70.0491 31.7731 63.7061 22.9497 73.9827 9.99085C84.2592 -2.96801 111.982 -1.80622 122.559 12.7521C126.71 18.4661 126.88 25.524 120.177 27.3114C113.475 29.0988 124.045 16.926 103.199 14.3524C67.0051 9.88396 78.8966 30.1645 73.9813 31.0581Z" fill="#C4C4C4" stroke="black" stroke-width="0.707776"/>
<path d="M91.0195 59.4102H103.795C103.795 59.4102 103.174 63.3138 97.2299 63.3138C91.197 63.3138 91.0195 59.4102 91.0195 59.4102Z" fill="white" stroke="black" stroke-width="0.707776" stroke-miterlimit="10" stroke-linecap="round" stroke-linejoin="round"/>
<path d="M96.2588 44.8789V50.5411H97.6743" stroke="black" stroke-width="1.00517" stroke-miterlimit="10" stroke-linecap="round" stroke-linejoin="round"/>
</svg>
