<svg width="185" height="174" viewBox="0 0 185 174" fill="none" xmlns="http://www.w3.org/2000/svg">
<path d="M76.0304 43.2234C80.1999 44.6132 85.1106 44.1499 90.5772 50.7284C93.4495 54.1566 88.5388 64.3486 78.9954 59.6232C69.4519 54.8979 59.2599 44.7058 61.4836 26.1749C62.7808 15.3343 66.5796 15.2416 69.4519 17.0021C71.9536 18.5772 72.7875 20.8936 71.7683 22.932C69.3593 27.9353 65.1898 39.5172 76.0304 43.2234Z" fill="#FCC503" stroke="black" stroke-width="0.7" stroke-miterlimit="10"/>
<path d="M106.886 43.1316C102.717 44.5214 97.7135 44.0581 92.1542 50.6366C89.2819 54.0648 94.1926 64.2568 103.829 59.5314C113.465 54.7134 123.842 44.614 121.526 26.0831C120.229 15.2425 116.43 15.1498 113.465 16.9103C110.87 18.4854 110.037 20.8018 111.056 22.8402C113.65 27.8435 117.912 39.4254 106.886 43.1316Z" fill="#FCC503" stroke="black" stroke-width="0.7" stroke-miterlimit="10"/>
<path d="M151.827 133.283C144.414 112.436 130.516 108.915 130.516 108.915L106.148 98.2598L78.4443 98.6304L53.2422 109.1C52.7789 109.286 50.7405 110.12 50.7405 110.12C46.2931 112.343 37.6762 118.366 32.3949 133.283C17.5701 175.071 2.18945 286.905 2.18945 286.905L28.6887 291.908L49.0836 159.755L45.5782 237.757L137.283 236.288L133.083 159.755L157.816 291.908L180.216 287.154C180.216 287.154 166.652 174.978 151.827 133.283Z" fill="#A9D5F3" stroke="black" stroke-width="0.7" stroke-miterlimit="10" stroke-linecap="round" stroke-linejoin="round"/>
<path d="M105.595 92.2361L103.928 71.1109C103.928 71.1109 99.0169 74.5391 94.5695 75.4656C90.1221 76.2995 85.7673 73.7052 85.6747 73.7052C85.582 73.7052 80.486 70.7402 80.486 70.7402L78.8182 92.5141C78.5403 96.3129 76.1312 99.6485 72.6104 101.038C86.1379 108.543 92.2532 111.045 92.2532 111.045L111.989 100.853L111.618 100.668C108.282 99.1852 105.966 95.9423 105.595 92.2361Z" fill="#F8B498" stroke="black" stroke-width="0.7" stroke-miterlimit="10"/>
<path d="M76.8731 50.8189C76.9657 55.637 73.2595 59.6211 68.4415 59.7138C63.6234 59.8064 59.6393 56.1003 59.5466 51.2822C59.454 46.4642 63.1602 42.48 67.9782 42.3874C72.7962 42.2021 76.7804 46.0009 76.8731 50.8189Z" fill="#F8B498" stroke="black" stroke-width="0.7" stroke-miterlimit="10"/>
<path d="M63.252 49.7998C63.252 49.7998 66.6802 48.132 70.0158 54.1545" stroke="black" stroke-width="0.7" stroke-miterlimit="10" stroke-linecap="round" stroke-linejoin="round"/>
<path d="M108.653 51.0064C108.653 55.8245 112.545 59.716 117.363 59.716C122.181 59.716 126.072 55.8245 126.072 51.0064C126.072 46.1884 122.181 42.2969 117.363 42.2969C112.545 42.3895 108.653 46.281 108.653 51.0064Z" fill="#F8B498" stroke="black" stroke-width="0.7" stroke-miterlimit="10"/>
<path d="M121.903 49.7094C121.903 49.7094 118.382 48.1343 115.324 54.2495" stroke="black" stroke-width="0.7" stroke-miterlimit="10" stroke-linecap="round" stroke-linejoin="round"/>
<path d="M78.3545 67.5898C78.3545 67.5898 83.2652 83.5265 94.4764 83.3411C103.649 83.1558 105.132 67.5898 105.132 67.5898H78.3545Z" fill="#1D0300"/>
<path d="M116.25 35.9042C116.343 45.7256 114.953 54.2498 113.563 60.2724C112.266 66.2023 107.077 70.2791 101.61 73.6147L100.591 74.2632C94.8466 77.7841 90.1212 77.8768 84.1913 74.5412C78.2614 71.2056 72.7948 66.6656 71.405 60.365C68.9959 48.8759 68.718 36.1822 68.718 36.1822C68.718 36.1822 65.3824 9.59025 90.9551 9.96087C116.62 10.3315 116.25 35.9042 116.25 35.9042Z" fill="#F8B498" stroke="black" stroke-width="0.7" stroke-miterlimit="10"/>
<path d="M83.5397 43.6888C83.5397 44.8006 82.6132 45.7272 81.5013 45.7272C80.3894 45.7272 79.4629 44.8006 79.4629 43.6888C79.4629 42.5769 80.3894 41.6504 81.5013 41.6504C82.6132 41.6504 83.5397 42.5769 83.5397 43.6888Z" fill="#1D0300"/>
<path d="M103.83 43.6888C103.83 44.8006 102.903 45.7272 101.791 45.7272C100.679 45.7272 99.7529 44.8006 99.7529 43.6888C99.7529 42.5769 100.679 41.6504 101.791 41.6504C102.903 41.6504 103.83 42.5769 103.83 43.6888Z" fill="#1D0300"/>
<path d="M89.7471 49.1562V52.4918H92.4341" stroke="black" stroke-width="0.7" stroke-miterlimit="10" stroke-linecap="round" stroke-linejoin="round"/>
<path d="M73.7188 34.979L87.2463 33.7745C87.2463 33.7745 86.0418 30.2536 80.5752 30.8095C75.0159 31.3655 73.7188 34.979 73.7188 34.979Z" fill="black"/>
<path d="M108.647 34.979L95.1191 33.7745C95.1191 33.7745 96.3236 30.2536 101.79 30.8095C107.35 31.3655 108.647 34.979 108.647 34.979Z" fill="black"/>
<path d="M85.1182 57.2148H98.4605C98.4605 57.2148 97.8119 61.2916 91.604 61.2916C85.3035 61.2916 85.1182 57.2148 85.1182 57.2148Z" fill="white" stroke="black" stroke-width="0.7" stroke-miterlimit="10" stroke-linecap="round" stroke-linejoin="round"/>
<path d="M67.9818 35.4313C63.8751 36.178 57.2486 23.5326 67.9809 9.99897C78.7133 -3.53463 107.02 -1.97713 118.066 13.2269C122.401 19.1943 120.012 33.2932 116.745 33.2932C109.501 33.2932 119.618 17.5858 97.8482 14.8981C60.0485 10.2315 73.1151 34.498 67.9818 35.4313Z" fill="#FCC503" stroke="black" stroke-width="0.7"/>
</svg>
