<svg width="100" height="112" viewBox="0 0 100 112" fill="none" xmlns="http://www.w3.org/2000/svg">
<path d="M30.8248 58.9173C31.0209 58.6147 31.4198 58.5294 31.7225 58.7255C32.0251 58.9216 32.1103 59.3206 31.9142 59.6232C31.7181 59.9258 31.3192 60.011 31.0166 59.8149C30.714 59.6189 30.6287 59.2199 30.8248 58.9173Z" fill="white"/>
<path d="M57.321 91.8982L56.5083 58.8026C56.4768 57.9228 56.3669 57.1641 56.1965 56.3662L76.821 24.2706C77.8678 24.777 79.3605 24.1974 80.2233 22.8659L80.6546 22.2001C81.5566 20.808 81.3939 19.0699 80.3045 18.364L75.8257 15.4619L71.3469 12.5599C70.2575 11.854 68.6045 12.4157 67.7025 13.8078L67.2712 14.4735C66.4084 15.8051 66.4893 17.4043 67.3792 18.1528L46.5127 50.0915C45.7539 50.2015 44.9773 50.4717 44.1615 50.8024L13.6832 63.6231C4.5522 67.5031 1.22437 80.7291 8.26646 85.378L23.7427 95.5777L39.4968 105.614C46.7989 110.259 57.5712 101.857 57.321 91.8982Z" fill="white" stroke="black" stroke-width="0.834373" stroke-miterlimit="10"/>
<path d="M54.1365 91.6381L53.8451 67.8174L53.7846 67.7782L45.4928 62.4055L36.959 56.876L15.7541 65.9947C7.63497 69.2414 4.53998 80.384 11.016 84.5802L25.1787 93.7569L39.1597 102.816L39.2202 102.855C45.6358 107.012 54.1881 100.179 54.1365 91.6381Z" fill="#95C11F" stroke="black" stroke-width="0.928282" stroke-miterlimit="10" stroke-linecap="round" stroke-linejoin="round"/>
</svg>
