<svg width="88" height="93" viewBox="0 0 88 93" fill="none" xmlns="http://www.w3.org/2000/svg">
<path d="M76.4614 49.4557L49.3958 41.7221C48.6601 41.5065 48.0018 41.4126 47.2828 41.3574L31.3983 16.6742C32.2943 15.9328 32.543 14.5777 31.9233 13.6043L31.6135 13.1176C30.9163 12.0225 29.4616 11.7517 28.3665 12.4488L23.9254 15.2761L19.4843 18.1033C18.3892 18.8004 18.0189 20.2331 18.716 21.3281L19.0259 21.8148C19.6842 22.8491 21.0173 23.1973 22.0295 22.6385L37.6705 47.4766C37.4162 48.1514 37.2227 48.7876 37.1067 49.5454L32.7196 77.3019C31.4433 85.6377 40.499 91.6708 47.6169 87.1395L63.1691 77.3244L63.23 77.2856L63.2908 77.2469L78.8872 67.2327C86.0881 62.5631 84.5762 51.7276 76.4614 49.4557Z" fill="white" stroke="black" stroke-width="0.834373" stroke-miterlimit="10"/>
<path d="M76.207 52.9518L55.1098 46.8046L38.6838 57.2615L35.6673 77.9046C35.165 83.6959 41.7921 88.1972 48.0584 84.2081L75.4958 66.7413C81.9004 62.8351 80.8592 55.2907 76.207 52.9518Z" fill="#FCC503" stroke="black" stroke-width="1.09133" stroke-miterlimit="10"/>
</svg>
