<svg width="169" height="514" viewBox="0 0 169 514" fill="none" xmlns="http://www.w3.org/2000/svg">
<path d="M70.4701 496.191L70.4674 496.266L70.4901 496.337C71.9196 500.785 72.264 503.918 71.8283 506.129C71.4005 508.3 70.2156 509.609 68.4592 510.432C66.669 511.271 64.2822 511.603 61.4805 511.751C60.0854 511.825 58.6018 511.852 57.0527 511.878C56.9517 511.88 56.8503 511.881 56.7487 511.883C55.2954 511.907 53.7879 511.932 52.2562 511.994C51.2543 512.034 50.1976 512.081 49.1003 512.129C43.0306 512.395 35.7189 512.715 29.5633 512.422C25.9258 512.248 22.7279 511.862 20.4415 511.138C19.2977 510.775 18.4128 510.338 17.8163 509.825C17.2291 509.321 16.9332 508.756 16.9183 508.108C16.8593 505.552 18.1248 503.557 20.3493 501.875C22.5889 500.181 25.762 498.836 29.4142 497.607C31.8132 496.8 34.3905 496.052 37.0213 495.288C38.3959 494.889 39.7852 494.486 41.1713 494.068C45.1951 492.854 49.1741 491.519 52.5875 489.818L52.8104 489.707L52.8282 489.46C54.0717 472.22 56.0272 459.179 58.2106 450.531C59.3033 446.203 60.4472 443 61.5746 440.924C62.1391 439.885 62.6859 439.155 63.1992 438.706C63.7088 438.26 64.1488 438.121 64.5316 438.172C64.9252 438.225 65.3675 438.493 65.8395 439.099C66.3096 439.702 66.7757 440.597 67.2218 441.81C68.1132 444.232 68.8945 447.835 69.4979 452.659C70.7038 462.301 71.1894 476.742 70.4701 496.191Z" fill="#A9D5F3" stroke="black" stroke-width="0.853665"/>
<path d="M102.906 495.224L102.933 495.14L102.924 495.053C101.004 474.447 100.992 460.65 102.092 452.333C102.644 448.164 103.469 445.427 104.433 443.897C104.913 443.136 105.403 442.714 105.873 442.534C106.329 442.36 106.824 442.393 107.38 442.667C108.533 443.236 109.846 444.801 111.194 447.341C112.529 449.858 113.858 453.255 115.08 457.377C117.523 465.62 119.523 476.716 120.293 489.359L120.308 489.605L120.529 489.715C123.968 491.425 127.978 492.767 132.033 493.988C133.43 494.409 134.83 494.815 136.215 495.216C138.867 495.984 141.465 496.737 143.883 497.549C147.564 498.785 150.764 500.138 153.023 501.844C155.268 503.538 156.545 505.548 156.486 508.121C156.471 508.773 156.173 509.339 155.583 509.845C154.983 510.36 154.092 510.8 152.939 511.164C150.635 511.892 147.412 512.281 143.746 512.456C137.542 512.751 130.172 512.429 124.055 512.161C122.949 512.113 121.884 512.066 120.874 512.025C119.857 511.984 118.858 511.953 117.881 511.923C115.675 511.854 113.582 511.79 111.658 511.619C108.88 511.374 106.528 510.912 104.776 509.945C103.051 508.993 101.892 507.544 101.493 505.247C101.09 502.918 101.466 499.696 102.906 495.224Z" fill="#A9D5F3" stroke="black" stroke-width="0.853665"/>
<path d="M69.5403 39.6223C73.3539 40.8935 77.8455 40.4698 82.8455 46.4868C85.4726 49.6224 80.9811 58.9445 72.2522 54.6224C63.5233 50.3004 54.2012 40.9783 56.2351 24.029C57.4216 14.1136 60.8962 14.0289 63.5233 15.6391C65.8115 17.0798 66.5742 19.1984 65.642 21.0628C63.4386 25.6391 59.625 36.2324 69.5403 39.6223Z" fill="#FCC503" stroke="black" stroke-width="0.833347" stroke-miterlimit="10"/>
<path d="M97.7622 39.538C93.9486 40.8092 89.3723 40.3854 84.2875 46.4024C81.6604 49.538 86.1519 58.8602 94.9656 54.5381C103.779 50.1313 113.271 40.8939 111.152 23.9446C109.966 14.0293 106.491 13.9445 103.779 15.5547C101.406 16.9954 100.644 19.1141 101.576 20.9785C103.949 25.5548 107.847 36.1481 97.7622 39.538Z" fill="#FCC503" stroke="black" stroke-width="0.833347" stroke-miterlimit="10"/>
<path d="M124.494 478.789L124.492 479.073H100.319L88.6985 261.498L88.6766 261.089L88.2668 261.094L81.5719 261.179L81.1666 261.184L81.1508 261.589L72.5042 482.073H46.3307L46.3242 481.825L46.2743 479.886C46.2306 478.185 46.1669 475.686 46.0866 472.493C45.9259 466.106 45.6989 456.94 45.4333 445.827C44.9022 423.601 44.217 393.585 43.6006 362.426C42.3764 300.537 41.4247 234.172 42.4883 215.334L125.084 214.747C125.503 220.049 125.682 238.655 125.712 263.761C125.743 289.51 125.617 322.064 125.436 354.025C125.254 385.986 125.017 417.354 124.826 440.731C124.73 452.42 124.645 462.111 124.585 468.88C124.555 472.265 124.53 474.919 124.514 476.726L124.494 478.789Z" fill="#173B66" stroke="black" stroke-width="0.853665"/>
<path d="M72.2554 261.606H99.3742" stroke="black" stroke-width="0.853665" stroke-miterlimit="10" stroke-linecap="round" stroke-linejoin="round"/>
<path d="M144.374 239.879L155.221 267.591L163.611 266.659L157.17 230.896L144.374 239.879Z" fill="#F8B498"/>
<path d="M161.943 261.518L167.519 285.569L167.519 285.569L167.519 285.572C168.594 290.037 167.765 294.746 165.375 298.373L165.373 298.375L159.02 308.117C158.098 309.459 156.195 309.399 155.334 307.965L155.326 307.952L155.318 307.94C154.83 307.243 154.812 306.309 155.185 305.485L159.08 297.524L159.081 297.523C160.474 294.65 160.998 291.254 160.388 288.025L160.05 285.995L159.226 285.925L157.362 291.264L157.362 291.264L157.36 291.27C156.93 292.558 155.66 293.128 154.436 292.698C153.299 292.269 152.623 290.962 152.846 289.699L152.846 289.697L154.457 280.29L154.476 280.175L154.435 280.066C152.691 275.498 152.877 271.326 153.501 268.291C153.812 266.774 154.233 265.543 154.575 264.694C154.746 264.27 154.897 263.941 155.004 263.72C155.038 263.65 155.068 263.59 155.092 263.542L161.943 261.518Z" fill="#F8B498" stroke="black" stroke-width="0.853665"/>
<path d="M24.0351 239.879L13.1875 267.591L4.79761 266.659L11.1536 230.896L24.0351 239.879Z" fill="#F8B498"/>
<path d="M13.9746 280.066L13.933 280.175L13.9527 280.29L15.5629 289.697L15.5632 289.699C15.7861 290.962 15.1106 292.269 13.9731 292.698C12.7496 293.128 11.479 292.558 11.0495 291.269L11.0495 291.269L11.0475 291.264L9.1831 285.925L8.3591 285.995L8.02088 288.024C7.41103 291.254 7.93533 294.65 9.32827 297.523L9.32895 297.524L13.2245 305.485C13.5973 306.309 13.5793 307.243 13.0915 307.939L13.0829 307.952L13.0752 307.965C12.2147 309.399 10.3114 309.459 9.38924 308.116L3.03591 298.375L3.03477 298.373C0.643868 294.745 -0.184828 290.036 0.889966 285.572L0.890779 285.568L6.46648 261.518L13.3171 263.542C13.3417 263.59 13.3714 263.65 13.4055 263.72C13.5128 263.941 13.6636 264.269 13.8344 264.694C14.1761 265.543 14.5969 266.773 14.9087 268.291C15.5323 271.326 15.7185 275.498 13.9746 280.066Z" fill="#F8B498" stroke="black" stroke-width="0.853665"/>
<path d="M138.864 121.996C132.084 102.928 119.372 99.7081 119.372 99.7081L97.0838 89.9623L71.7446 90.3013L48.6936 99.8776C48.2699 100.047 46.4054 100.81 46.4054 100.81C42.3376 102.844 34.4562 108.352 29.6256 121.996C16.0662 160.217 1.99829 262.506 1.99829 262.506L26.2358 267.082L44.8899 146.209L41.6837 217.553L125.561 216.209L121.72 146.209L144.342 267.082L164.83 262.734C164.83 262.734 152.423 160.132 138.864 121.996Z" fill="#A9D5F3" stroke="black" stroke-width="0.833347" stroke-miterlimit="10" stroke-linecap="round" stroke-linejoin="round"/>
<path d="M96.5765 84.4537L95.051 65.1315C95.051 65.1315 90.5595 68.2671 86.4916 69.1146C82.4238 69.8773 78.4407 67.5044 78.356 67.5044C78.2712 67.5044 73.6102 64.7925 73.6102 64.7925L72.0848 84.7079C71.8305 88.1825 69.6271 91.2334 66.4067 92.5046C78.7797 99.369 84.373 101.657 84.373 101.657L102.424 92.3351L102.085 92.1656C99.0341 90.8096 96.9155 87.8435 96.5765 84.4537Z" fill="#F8B498" stroke="black" stroke-width="0.833347" stroke-miterlimit="10"/>
<path d="M70.3062 46.5724C70.3909 50.9792 67.0011 54.6233 62.5942 54.708C58.1874 54.7928 54.5433 51.4029 54.4586 46.9961C54.3738 42.5893 57.7637 38.9452 62.1705 38.8604C66.5773 38.6909 70.2214 42.1655 70.3062 46.5724Z" fill="#F8B498" stroke="black" stroke-width="0.833347" stroke-miterlimit="10"/>
<path d="M57.8484 45.64C57.8484 45.64 60.984 44.1145 64.0349 49.623" stroke="black" stroke-width="0.833347" stroke-miterlimit="10" stroke-linecap="round" stroke-linejoin="round"/>
<path d="M99.3745 46.7414C99.3745 51.1483 102.934 54.7076 107.341 54.7076C111.747 54.7076 115.307 51.1483 115.307 46.7414C115.307 42.3346 111.747 38.7753 107.341 38.7753C102.934 38.86 99.3745 42.4194 99.3745 46.7414Z" fill="#F8B498" stroke="black" stroke-width="0.833347" stroke-miterlimit="10"/>
<path d="M111.492 45.5551C111.492 45.5551 108.271 44.1144 105.475 49.7077" stroke="black" stroke-width="0.895067" stroke-miterlimit="10" stroke-linecap="round" stroke-linejoin="round"/>
<path d="M71.6638 61.9113C71.6638 61.9113 76.1554 76.4876 86.4097 76.3182C94.7996 76.1487 96.1555 61.9113 96.1555 61.9113H71.6638Z" fill="#1D0300"/>
<path d="M106.322 32.928C106.407 41.9111 105.136 49.7078 103.865 55.2163C102.678 60.6401 97.9324 64.3689 92.9324 67.4198L92.0002 68.013C86.7459 71.2334 82.4238 71.3181 77 68.2672C71.5763 65.2164 66.5762 61.0638 65.305 55.301C63.1016 44.7925 62.8474 33.1822 62.8474 33.1822C62.8474 33.1822 59.7965 8.85996 83.1865 9.19895C106.661 9.53793 106.322 32.928 106.322 32.928Z" fill="#F8B498" stroke="black" stroke-width="0.833347" stroke-miterlimit="10"/>
<path d="M76.408 40.0468C76.408 41.0638 75.5606 41.9112 74.5436 41.9112C73.5267 41.9112 72.6792 41.0638 72.6792 40.0468C72.6792 39.0298 73.5267 38.1824 74.5436 38.1824C75.5606 38.1824 76.408 39.0298 76.408 40.0468Z" fill="#1D0300"/>
<path d="M94.9669 40.0468C94.9669 41.0638 94.1194 41.9112 93.1025 41.9112C92.0855 41.9112 91.238 41.0638 91.238 40.0468C91.238 39.0298 92.0855 38.1824 93.1025 38.1824C94.1194 38.1824 94.9669 39.0298 94.9669 40.0468Z" fill="#1D0300"/>
<path d="M82.0845 45.0466V48.0975H84.5421" stroke="black" stroke-width="0.833347" stroke-miterlimit="10" stroke-linecap="round" stroke-linejoin="round"/>
<path d="M67.4238 32.0808L79.7968 30.9791C79.7968 30.9791 78.6951 27.7587 73.6951 28.2672C68.6103 28.7757 67.4238 32.0808 67.4238 32.0808Z" fill="black"/>
<path d="M99.3727 32.0807L86.9998 30.979C86.9998 30.979 88.1015 27.7586 93.1015 28.2671C98.1863 28.7756 99.3727 32.0807 99.3727 32.0807Z" fill="black"/>
<path d="M77.8479 52.4199H90.0514C90.0514 52.4199 89.4582 56.1488 83.7802 56.1488C78.0174 56.1488 77.8479 52.4199 77.8479 52.4199Z" fill="white" stroke="black" stroke-width="0.833347" stroke-miterlimit="10" stroke-linecap="round" stroke-linejoin="round"/>
<path d="M62.1792 32.4927C58.4231 33.1756 53.7814 22.0008 63.5977 9.6223C73.414 -2.75618 97.8853 -1.7229 107.989 12.1834C111.954 17.6415 109.769 30.5371 106.781 30.5371C100.154 30.5371 109.409 16.1703 89.4965 13.712C54.9231 9.44372 66.8744 31.639 62.1792 32.4927Z" fill="#FCC503" stroke="black" stroke-width="0.853665"/>
</svg>
