<svg width="103" height="115" viewBox="0 0 103 115" fill="none" xmlns="http://www.w3.org/2000/svg">
<path d="M84.6299 103.73L84.6347 103.73C89.3377 103.226 93.5074 101.587 96.5735 99.3455C98.826 97.6987 100.507 95.7069 101.341 93.581C101.367 93.6653 101.396 93.747 101.428 93.8248C101.512 94.0332 101.648 94.2917 101.87 94.4601C101.751 97.6062 99.4928 100.949 95.6573 103.316C95.5435 103.264 95.4172 103.214 95.2871 103.181C95.0521 103.122 94.7766 103.114 94.496 103.255L94.4814 103.262L94.4673 103.27L93.6761 103.745C93.1523 103.942 92.8576 104.421 92.8732 104.89C91.7439 105.423 90.4995 105.839 89.2428 106.136C89.1409 106.025 89.0177 105.933 88.8751 105.872C88.6337 105.769 88.3627 105.765 88.1054 105.874L87.1677 106.03L87.1044 106.04L87.0469 106.069L87.0281 106.079C86.8763 106.154 86.6723 106.256 86.5094 106.392C86.412 106.473 86.3167 106.577 86.2486 106.706C86.0971 106.724 85.9616 106.751 85.8402 106.775L85.8299 106.777C85.621 106.819 85.4523 106.852 85.2514 106.852C84.8162 106.852 84.3846 106.895 83.9773 106.936L83.9674 106.937C83.6607 106.967 83.3673 106.996 83.079 107.01C83.0077 106.889 82.9089 106.79 82.7982 106.717C82.5884 106.577 82.3351 106.521 82.1062 106.521H81.113C80.8072 106.521 80.5463 106.67 80.3593 106.83C80.2395 106.933 80.1328 107.055 80.0438 107.183H80.0395H80.0307H80.0218H80.013H80.0042H79.9953H79.9865H79.9776H79.9688H79.9599H79.951H79.9422H79.9333H79.9244H79.9156H79.9067H79.8978H79.8889H79.88H79.8712H79.8623H79.8534H79.8445H79.8356H79.8267H79.8177H79.8088H79.7999H79.791H79.7821H79.7732H79.7642H79.7553H79.7464H79.7374H79.7285H79.7196H79.7106H79.7017H79.6927H79.6838H79.6748H79.6659H79.6569H79.6479H79.639H79.63H79.621H79.6121H79.6031H79.5941H79.5851H79.5761H79.5672H79.5582H79.5492H79.5402H79.5312H79.5222H79.5132H79.5042H79.4952H79.4862H79.4772H79.4681H79.4591H79.4501H79.4411H79.4321H79.423H79.414H79.405H79.3959H79.3869H79.3779H79.3688H79.3598H79.3507H79.3417H79.3326H79.3236H79.3145H79.3055H79.2964H79.2874H79.2783H79.2692H79.2602H79.2511H79.242H79.233H79.2239H79.2148H79.2057H79.1967H79.1876H79.1785H79.1694H79.1603H79.1512H79.1421H79.133H79.1239H79.1148H79.1057H79.0966H79.0875H79.0784H79.0693H79.0602H79.0511H79.042H79.0329H79.0238H79.0146H79.0055H78.9964H78.9873H78.9782H78.969H78.9599H78.9508H78.9417H78.9325H78.9234H78.9142H78.9051H78.896H78.8868H78.8777H78.8686H78.8594H78.8503H78.8411H78.832H78.8228H78.8137H78.8045H78.7954H78.7862H78.7771H78.7679H78.7587H78.7496H78.7404H78.7312H78.7221H78.7129H78.7038H78.6946H78.6854H78.6762H78.6671H78.6579H78.6487H78.6396H78.6304H78.6212H78.612H78.6028H78.5937H78.5845H78.5753H78.5661H78.5569H78.5478H78.5386H78.5294H78.5202H78.511H78.5018H78.4926H78.4834H78.4742H78.4651H78.4559H78.4467H78.4375H78.4283H78.4191H78.4099H78.4007H78.3915H78.3823H78.3731H78.3639H78.3547H78.3455H78.3363H78.3271H78.3179H78.3087H78.2995H78.2903H78.2811H78.2719H78.2626H78.2534H78.2442H78.235H78.2258H78.2166H78.2074H78.1982H78.189H78.1798H78.1706H78.1613H78.1521H78.1429H78.1337H78.1245H78.1153H78.1061H78.0969H78.0876H78.0784H78.0692H78.06H78.0508H78.0416H78.0324H78.0232H78.0139H78.0047H77.9955H77.9863H77.9771H77.9679H77.9587H77.9494H77.9402H77.931H77.9218H77.9126H77.9034H77.8941H77.8849H77.8757H77.8665H77.8573H77.8481H77.8389H77.8297H77.8204H77.8112H77.802H77.7928H77.7836H77.7744H77.7652H77.756H77.7468H77.7375H77.7283H77.7191H77.7099H77.7007H77.6915H77.6823H77.6731H77.6639H77.6547H77.6455H77.6363H77.6271H77.6179H77.6087H77.5994H77.5902H77.581H77.5718H77.5626H77.5534H77.5442H77.535H77.5258H77.5167H77.5075H77.4983H77.4891H77.4799H77.4707H77.4615H77.4523H77.4431H77.4339H77.4247H77.4155H77.4063H77.3972H77.388H77.3788H77.3696H77.3604H77.3512H77.3421H77.3329H77.3237H77.3145H77.3054H77.2962H77.287H77.2778H77.2687H77.2595H77.2503H77.2411H77.232H77.2228H77.2136H77.2045H77.1953H77.1862H77.177H77.1678H77.1587H77.1495H77.1404H77.1312H77.1221H77.1129H77.1038H77.0946H77.0855H77.0763H77.0672H77.058H77.0489H77.0398H77.0306H77.0215H77.0123H77.0032H76.9941H76.9849H76.9758H76.9667H76.9576H76.9484H76.9393H76.9302H76.9211H76.912H76.9028H76.8937H76.8846H76.8755H76.8664H76.8573H76.8482H76.8391H76.83H76.8209H76.8118H76.8027H76.7936H76.7845H76.7754H76.7663H76.7572H76.7482H76.7391H76.73H76.7209H76.7118H76.7028H76.6937H76.6846H76.6756H76.6665H76.6574H76.6484H76.6393H76.6302H76.6212H76.6121H76.6031H76.594H76.585H76.5759H76.5669H76.5579H76.5488H76.5398H76.5308H76.5217H76.5127H76.5037H76.4946H76.4856H76.4766H76.4676H76.4586H76.4496H76.4406H76.4315H76.4225H76.4135H76.4045H76.3955H76.3865H76.3776H76.3686H76.3596H76.3506H76.3416H76.3326H76.3237H76.3147H76.3057H76.2967H76.2878H76.2788H76.2699H76.2609H76.252H76.243H76.2341H76.2251H76.2162H76.2072H76.1983H76.1894H76.1804H76.1715H76.1626H76.1536H76.1447H76.1358H76.1269H76.118H76.1091H76.1002H76.0913H76.0824H76.0735H76.0646H76.0557H76.0468H76.0379H76.029H76.0202H76.0113H76.0024H75.9935H75.9847H75.9758H75.967H75.9581H75.9493H75.9404H75.9316H75.9227H75.9139H75.9051H75.8962H75.892C75.803 107.055 75.6963 106.933 75.5764 106.83C75.3894 106.67 75.1285 106.521 74.8227 106.521H73.8295C73.4502 106.521 73.0555 106.676 72.7873 106.997C70.9085 106.825 69.2723 106.5 68.2475 105.915L68.244 105.913C66.8547 105.136 65.8125 104.431 64.9099 103.801C64.7721 103.705 64.6371 103.61 64.5041 103.517C63.771 103.002 63.1015 102.532 62.3912 102.127C60.6811 101.153 58.7481 100.564 54.9843 100.396C52.7728 100.227 50.9049 100.568 49.2465 100.9L48.9247 100.965L48.9042 101.292L48.5732 106.59L48.5723 106.603V106.616C48.5723 106.726 48.5133 106.871 48.3869 106.998C48.2606 107.124 48.1154 107.183 48.006 107.183H45.9196C45.6512 106.848 45.248 106.686 44.8608 106.686H43.8676C43.4803 106.686 43.0771 106.848 42.8088 107.183H42.3777H40.1258C39.8575 106.848 39.4543 106.686 39.067 106.686H38.0738C37.6866 106.686 37.2834 106.848 37.015 107.183H34.926C34.8661 107.056 34.7838 106.944 34.6925 106.853C34.5084 106.669 34.2398 106.521 33.9354 106.521C33.7066 106.521 33.4533 106.577 33.2435 106.717C33.1582 106.773 33.0801 106.845 33.0161 106.93C31.2609 106.355 29.9977 104.632 29.5523 102.554L29.5493 102.54L29.5453 102.526C28.9514 100.447 28.7639 98.9141 28.6097 97.6536C28.5947 97.5307 28.58 97.4105 28.5652 97.2925L28.5653 97.2925L28.5643 97.2851C28.4841 96.724 28.361 95.3739 28.32 94.1648C28.3139 93.9858 28.3097 93.8114 28.3077 93.6443L28.4435 93.5084C28.5566 93.3953 28.7242 93.3393 29.0416 93.3901C29.3696 93.4426 29.7687 93.5967 30.2476 93.805C30.3568 93.8524 30.4698 93.9026 30.5859 93.9541C30.9594 94.1198 31.3637 94.2992 31.7669 94.4458C32.2984 94.6391 32.8699 94.7923 33.4388 94.7923H33.8657V94.3655V94.0344C33.8657 93.9249 33.9247 93.7796 34.0511 93.6533C34.1774 93.5269 34.3226 93.4679 34.4321 93.4679H46.0195C46.1739 93.4679 46.4594 93.4331 46.7544 93.3971L46.7722 93.3949L46.8038 93.391C47.1164 93.3529 47.4734 93.3094 47.8148 93.2801C48.1736 93.2493 48.4883 93.237 48.7045 93.2566C48.7116 93.2573 48.7184 93.2579 48.7251 93.2586L48.4075 98.9773L48.3848 99.3851L48.7912 99.4257C49.6321 99.5098 50.5125 99.5516 51.4214 99.5929L51.5434 99.5985C52.4178 99.6381 53.3209 99.6791 54.2609 99.7574L54.2692 99.7581L54.2775 99.7585C58.5815 99.9484 61.1894 100.842 63.9293 101.781C64.7268 102.054 65.5354 102.331 66.4003 102.596C70.248 103.774 75.0642 104.645 84.6299 103.73Z" fill="#1A2230" stroke="black" stroke-width="0.853665"/>
<path d="M54.1083 98.4339L54.1112 98.434C58.4283 98.6245 61.0379 99.5477 63.7881 100.521C64.576 100.799 65.3755 101.082 66.2299 101.353C70.0784 102.573 74.8958 103.486 84.4623 102.571C89.1643 102.151 93.3347 100.597 96.4025 98.4176C97.2047 97.8477 97.9345 97.2327 98.5794 96.5816C97.9447 97.3298 97.1963 98.0512 96.3447 98.7291C93.3706 101.096 89.1868 102.888 84.381 103.377C74.9127 104.283 70.2123 103.375 66.4879 102.195C65.6702 101.936 64.8926 101.66 64.1169 101.386C61.3482 100.405 58.604 99.4335 54.1504 99.2368C49.5588 98.9995 46.6022 99.6615 43.9334 100.259C43.776 100.294 43.6195 100.329 43.4638 100.364C40.6919 100.98 38.1502 101.463 34.1773 100.733L34.1765 100.733C32.4921 100.427 31.1709 99.391 30.1798 98.0628C30.1155 97.9766 30.0526 97.8893 29.9913 97.801C30.9441 98.8388 32.1794 99.6421 33.692 99.9174C37.8302 100.678 40.5441 100.167 43.4195 99.5422C43.5721 99.509 43.7252 99.4755 43.879 99.4418C46.6004 98.8462 49.5445 98.2018 54.1083 98.4339Z" fill="#D46B0B" stroke="black" stroke-width="0.853665"/>
<path d="M90.263 79.0622L90.2656 79.0619C93.1018 78.7377 95.7017 79.1521 97.6276 80.689C99.5458 82.2199 100.884 84.9361 101.047 89.4127C101.123 92.1189 99.4172 94.9412 96.4321 97.2564C93.458 99.5631 89.2718 101.316 84.543 101.888C75.0773 102.793 70.3777 101.885 66.6538 100.705C65.8362 100.446 65.0585 100.17 64.2828 99.8956C61.5142 98.9153 58.7701 97.9436 54.3167 97.7468C49.7351 97.51 46.708 98.1685 43.967 98.7648C43.7993 98.8013 43.6326 98.8376 43.4668 98.8734C40.6101 99.49 37.9854 99.9732 34.0122 99.2433L34.0114 99.2432C32.327 98.9369 31.0099 97.9018 30.0857 96.5647C29.1608 95.2263 28.6479 93.6091 28.5679 92.1975C28.4874 87.6314 29.3007 84.7861 30.0785 82.3911C30.1451 82.1861 30.2117 81.9837 30.2776 81.7832C30.9823 79.6421 31.6136 77.7235 31.3819 75.1384C31.3773 74.9527 31.3239 74.2877 31.2437 73.3129C31.2204 73.0287 31.1945 72.7159 31.1664 72.3771C31.0921 71.4783 31.0026 70.3972 30.905 69.1876C30.6361 65.8572 30.3053 61.5568 30.0573 57.4227C29.7869 52.4209 29.4063 46.7571 29.0056 40.7952C28.9153 39.452 28.824 38.0937 28.7327 36.7245L28.7325 36.7213C28.0805 27.9176 26.787 14.1431 25.641 4.23457H70.8734C69.8013 14.749 68.3444 30.3882 67.6711 44.1819C67.3295 51.1812 67.1891 57.7148 67.4046 62.866C67.5123 65.4409 67.7093 67.6808 68.0173 69.4653C68.3218 71.2298 68.745 72.6171 69.3479 73.4289C71.2937 76.0518 73.4361 77.8166 76.6711 78.7379C79.8778 79.6512 84.1254 79.7258 90.263 79.0622Z" fill="#EBA600" stroke="black" stroke-width="0.853665"/>
<path d="M33.8459 99.0777L33.8466 99.0778C37.8197 99.8076 40.4029 99.3245 43.2385 98.708C43.3921 98.6746 43.5465 98.6408 43.7018 98.6068C46.4358 98.0083 49.4727 97.3435 54.1516 97.5813C54.1517 97.5813 54.1519 97.5814 54.1521 97.5814L54.1304 98.0076C58.5161 98.2011 61.1931 99.1486 63.953 100.125C68.2766 101.656 72.8038 103.258 84.4234 102.146L33.8459 99.0777ZM33.8459 99.0777C32.1672 98.7724 30.8493 97.7012 29.9218 96.3395C28.9935 94.9764 28.4813 93.3561 28.4022 92.0276C28.2398 87.3802 29.0528 84.5375 29.8495 82.1678C29.9313 81.9245 30.0133 81.6852 30.0945 81.4485C30.8041 79.3794 31.4442 77.5127 31.2163 74.9715C31.2137 74.896 31.2004 74.7745 31.1856 74.6426C31.1753 74.5521 31.1626 74.4425 31.1478 74.3165C31.1364 74.2188 31.1239 74.1112 31.1104 73.9949C31.0486 73.4587 30.9662 72.7174 30.8839 71.8115L30.8837 71.8097C30.5528 68.335 30.0574 62.7175 29.8923 57.2686L29.8924 57.2686L29.8918 57.2579C29.8323 56.1866 29.7727 55.072 29.7113 53.9208C29.4311 48.6753 29.1104 42.6711 28.5671 36.5563C28.3432 32.641 27.8928 27.8173 27.4206 22.759C27.1931 20.3219 26.9605 17.8303 26.7457 15.3596L26.7459 15.3596L26.7442 15.3457C26.3301 11.8944 26.0314 8.55913 25.751 5.42866C25.71 4.971 25.6694 4.51773 25.6289 4.06911H70.8734C69.8002 14.5825 68.3028 30.222 67.6091 44.0158C67.2571 51.0152 67.1115 57.5493 67.3348 62.7012C67.4464 65.2764 67.6506 67.517 67.9702 69.3024C68.2859 71.0658 68.7249 72.4537 69.3503 73.2666C71.2974 75.8903 73.4816 77.6525 76.7339 78.5726C79.9606 79.4855 84.2075 79.5604 90.2636 78.8966L90.2656 78.8964C93.0967 78.5728 95.7401 79.0258 97.6893 80.5853C99.6293 82.1375 100.966 84.8538 101.047 89.2412L101.047 89.2451C101.124 92.038 99.4143 94.9018 96.4125 97.2142C93.4195 99.5199 89.1934 101.232 84.3816 101.722L33.8459 99.0777Z" fill="#FF8D23" stroke="black" stroke-width="0.853665"/>
<path d="M25.4703 4.23457H70.7019C69.8962 11.2174 68.9466 20.6158 68.2989 30.2005H28.0396C27.5028 23.4599 26.6622 15.5156 25.93 8.59598C25.7702 7.08563 25.6155 5.6241 25.4703 4.23457Z" fill="#1A2230" stroke="black" stroke-width="0.853665"/>
<path d="M70.7541 1.48996V3.3809H25.4234V1.48996C25.4234 0.8979 25.8944 0.426832 26.4864 0.426832H69.6911C70.283 0.426832 70.7541 0.8979 70.7541 1.48996Z" fill="#FF8D23" stroke="black" stroke-width="0.853665"/>
<path d="M29.7272 57.2685L29.7274 57.2684L29.7268 57.2577C29.6673 56.1865 29.6077 55.0718 29.5462 53.9206C29.2661 48.6751 28.9454 42.6709 28.4021 36.5561C28.1781 32.6407 27.7278 27.8169 27.2556 22.7584C27.0423 20.4739 26.8245 18.1414 26.6212 15.8233H37.0727C41.3179 15.9844 44.5996 19.2796 44.5996 23.5085V63.9035C44.5996 68.132 41.1547 71.4232 37.0807 71.4232H30.6821C30.3523 67.9276 29.8863 62.5197 29.7272 57.2685Z" fill="#1A2230" stroke="black" stroke-width="0.853665"/>
<path d="M41.2894 58.2748C41.2894 60.6781 39.3385 62.4834 37.0812 62.4834C34.6783 62.4834 32.873 60.5324 32.873 58.2748V54.3015C32.873 51.8982 34.8239 50.0928 37.0812 50.0928C39.4841 50.0928 41.2894 52.0439 41.2894 54.3015V58.2748Z" fill="#EBA600" stroke="black" stroke-width="0.853665"/>
<path d="M45.4529 26.3927V23.9353H66.4499V26.3927H45.4529Z" fill="#FF8D23" stroke="black" stroke-width="0.853665"/>
<path d="M45.4529 19.9363V17.4789H66.4499V19.9363H45.4529Z" fill="#FF8D23" stroke="black" stroke-width="0.853665"/>
<path d="M59.4666 110.518L59.4714 110.517C64.1743 110.014 68.344 108.375 71.4101 106.133C73.7218 104.443 75.4313 102.39 76.2417 100.201C76.2727 100.336 76.3077 100.467 76.3479 100.587C76.4019 100.749 76.4719 100.914 76.5674 101.054C76.6048 101.108 76.651 101.166 76.7075 101.219C76.6017 104.373 74.3413 107.73 70.4939 110.104C70.3801 110.052 70.2538 110.001 70.1237 109.969C69.8887 109.91 69.6132 109.902 69.3327 110.042L69.318 110.05L69.304 110.058L68.5127 110.533C67.9889 110.73 67.6943 111.209 67.7098 111.678C66.5806 112.211 65.3361 112.627 64.0794 112.924C63.9776 112.813 63.8543 112.721 63.7117 112.66C63.4703 112.557 63.1993 112.553 62.942 112.661L62.0043 112.818L61.941 112.828L61.8836 112.857L61.8648 112.866C61.713 112.942 61.5089 113.044 61.346 113.18C61.2487 113.261 61.1533 113.365 61.0852 113.494C60.9337 113.512 60.7983 113.539 60.6769 113.563L60.6665 113.565C60.4576 113.607 60.289 113.64 60.0881 113.64C59.6529 113.64 59.2213 113.683 58.814 113.723L58.8041 113.724C58.4973 113.755 58.204 113.784 57.9156 113.798C57.8443 113.677 57.7455 113.578 57.6349 113.504C57.425 113.364 57.1717 113.308 56.9429 113.308H55.9497C55.6439 113.308 55.383 113.458 55.196 113.618C55.0761 113.721 54.9694 113.842 54.8804 113.971H54.8762H54.8673H54.8585H54.8496H54.8408H54.832H54.8231H54.8143H54.8054H54.7966H54.7877H54.7788H54.77H54.7611H54.7522H54.7433H54.7345H54.7256H54.7167H54.7078H54.6989H54.69H54.6811H54.6722H54.6633H54.6544H54.6455H54.6366H54.6277H54.6187H54.6098H54.6009H54.592H54.583H54.5741H54.5652H54.5562H54.5473H54.5383H54.5294H54.5204H54.5115H54.5025H54.4935H54.4846H54.4756H54.4667H54.4577H54.4487H54.4397H54.4308H54.4218H54.4128H54.4038H54.3948H54.3858H54.3768H54.3678H54.3588H54.3498H54.3408H54.3318H54.3228H54.3138H54.3048H54.2958H54.2868H54.2777H54.2687H54.2597H54.2507H54.2416H54.2326H54.2236H54.2145H54.2055H54.1964H54.1874H54.1783H54.1693H54.1602H54.1512H54.1421H54.1331H54.124H54.115H54.1059H54.0968H54.0878H54.0787H54.0696H54.0605H54.0515H54.0424H54.0333H54.0242H54.0151H54.006H53.997H53.9879H53.9788H53.9697H53.9606H53.9515H53.9424H53.9333H53.9242H53.9151H53.906H53.8969H53.8878H53.8786H53.8695H53.8604H53.8513H53.8422H53.8331H53.8239H53.8148H53.8057H53.7966H53.7874H53.7783H53.7692H53.76H53.7509H53.7418H53.7326H53.7235H53.7143H53.7052H53.6961H53.6869H53.6778H53.6686H53.6595H53.6503H53.6412H53.632H53.6228H53.6137H53.6045H53.5954H53.5862H53.5771H53.5679H53.5587H53.5496H53.5404H53.5312H53.5221H53.5129H53.5037H53.4945H53.4854H53.4762H53.467H53.4578H53.4487H53.4395H53.4303H53.4211H53.4119H53.4028H53.3936H53.3844H53.3752H53.366H53.3568H53.3476H53.3385H53.3293H53.3201H53.3109H53.3017H53.2925H53.2833H53.2741H53.2649H53.2557H53.2465H53.2373H53.2281H53.2189H53.2097H53.2005H53.1913H53.1821H53.1729H53.1637H53.1545H53.1453H53.1361H53.1269H53.1177H53.1085H53.0993H53.0901H53.0809H53.0717H53.0625H53.0532H53.044H53.0348H53.0256H53.0164H53.0072H52.998H52.9888H52.9796H52.9704H52.9611H52.9519H52.9427H52.9335H52.9243H52.9151H52.9059H52.8966H52.8874H52.8782H52.869H52.8598H52.8506H52.8414H52.8321H52.8229H52.8137H52.8045H52.7953H52.7861H52.7769H52.7677H52.7584H52.7492H52.74H52.7308H52.7216H52.7124H52.7032H52.6939H52.6847H52.6755H52.6663H52.6571H52.6479H52.6387H52.6295H52.6202H52.611H52.6018H52.5926H52.5834H52.5742H52.565H52.5558H52.5466H52.5373H52.5281H52.5189H52.5097H52.5005H52.4913H52.4821H52.4729H52.4637H52.4545H52.4453H52.4361H52.4269H52.4177H52.4085H52.3993H52.3901H52.3809H52.3717H52.3625H52.3533H52.3441H52.3349H52.3257H52.3165H52.3073H52.2981H52.2889H52.2797H52.2706H52.2614H52.2522H52.243H52.2338H52.2246H52.2154H52.2062H52.1971H52.1879H52.1787H52.1695H52.1603H52.1512H52.142H52.1328H52.1236H52.1145H52.1053H52.0961H52.087H52.0778H52.0686H52.0595H52.0503H52.0411H52.032H52.0228H52.0136H52.0045H51.9953H51.9862H51.977H51.9679H51.9587H51.9496H51.9404H51.9313H51.9221H51.913H51.9038H51.8947H51.8855H51.8764H51.8673H51.8581H51.849H51.8399H51.8307H51.8216H51.8125H51.8033H51.7942H51.7851H51.776H51.7668H51.7577H51.7486H51.7395H51.7304H51.7213H51.7122H51.703H51.6939H51.6848H51.6757H51.6666H51.6575H51.6484H51.6393H51.6302H51.6211H51.6121H51.603H51.5939H51.5848H51.5757H51.5666H51.5576H51.5485H51.5394H51.5303H51.5213H51.5122H51.5031H51.4941H51.485H51.4759H51.4669H51.4578H51.4488H51.4397H51.4307H51.4216H51.4126H51.4035H51.3945H51.3855H51.3764H51.3674H51.3584H51.3493H51.3403H51.3313H51.3223H51.3132H51.3042H51.2952H51.2862H51.2772H51.2682H51.2592H51.2502H51.2412H51.2322H51.2232H51.2142H51.2052H51.1962H51.1872H51.1783H51.1693H51.1603H51.1513H51.1424H51.1334H51.1244H51.1155H51.1065H51.0975H51.0886H51.0796H51.0707H51.0617H51.0528H51.0439H51.0349H51.026H51.0171H51.0081H50.9992H50.9903H50.9814H50.9725H50.9635H50.9546H50.9457H50.9368H50.9279H50.919H50.9101H50.9012H50.8923H50.8834H50.8746H50.8657H50.8568H50.8479H50.8391H50.8302H50.8213H50.8125H50.8036H50.7948H50.7859H50.7771H50.7682H50.7594H50.7505H50.7417H50.7329H50.7286C50.6396 113.842 50.5329 113.721 50.413 113.618C50.226 113.458 49.9651 113.308 49.6593 113.308H48.6661C48.2868 113.308 47.8921 113.463 47.6239 113.785C45.7452 113.613 44.1089 113.288 43.0842 112.702L43.0806 112.7C41.6913 111.924 40.6492 111.219 39.7465 110.589C39.6087 110.493 39.4737 110.398 39.3408 110.305C38.6077 109.79 37.9382 109.32 37.2278 108.915C35.5177 107.941 33.5847 107.352 29.8209 107.184C27.6094 107.015 25.7415 107.356 24.0831 107.688L23.7613 107.752L23.7409 108.08L23.4098 113.378L23.409 113.391V113.404C23.409 113.514 23.3499 113.659 23.2236 113.785C23.0973 113.912 22.9521 113.971 22.8426 113.971H20.7562C20.4879 113.635 20.0846 113.474 19.6974 113.474H18.7042C18.317 113.474 17.9138 113.635 17.6454 113.971H17.2144H14.9625C14.6941 113.635 14.2909 113.474 13.9037 113.474H12.9105C12.5232 113.474 12.12 113.635 11.8517 113.971H9.76262C9.70276 113.844 9.6204 113.732 9.52914 113.64C9.34509 113.456 9.07646 113.308 8.77209 113.308C8.54324 113.308 8.28997 113.364 8.08009 113.504C7.99488 113.561 7.91672 113.633 7.85271 113.718C6.09755 113.143 4.8343 111.42 4.38891 109.341L4.3859 109.327L4.38196 109.314C3.78807 107.235 3.60056 105.702 3.44637 104.441C3.43134 104.318 3.41663 104.198 3.40189 104.08L3.40195 104.08L3.40089 104.073C3.32075 103.512 3.19762 102.162 3.15663 100.952C3.15057 100.774 3.14636 100.599 3.14432 100.432L3.28018 100.296C3.39325 100.183 3.56087 100.127 3.87825 100.178C4.20622 100.23 4.60535 100.384 5.08425 100.593C5.19339 100.64 5.30645 100.69 5.42248 100.742C5.79601 100.908 6.2003 101.087 6.60357 101.234C7.13502 101.427 7.70652 101.58 8.27548 101.58H8.70231V101.153V100.822C8.70231 100.713 8.76136 100.567 8.88768 100.441C9.01399 100.315 9.1592 100.256 9.26867 100.256H20.8562C21.0105 100.256 21.296 100.221 21.5911 100.185L21.6088 100.183L21.6405 100.179C21.953 100.141 22.31 100.097 22.6514 100.068C23.0102 100.037 23.325 100.025 23.5411 100.044C23.5482 100.045 23.5551 100.046 23.5618 100.046L23.2441 105.765L23.2215 106.173L23.6278 106.213C24.4688 106.298 25.3492 106.339 26.2581 106.381L26.3802 106.386C27.2545 106.426 28.1576 106.467 29.0975 106.545L29.1058 106.546L29.1141 106.546C33.4181 106.736 36.026 107.63 38.7659 108.569C39.5634 108.842 40.372 109.119 41.2369 109.384C45.0846 110.561 49.9009 111.433 59.4666 110.518Z" fill="#1A2230" stroke="black" stroke-width="0.853665"/>
<path d="M29.1117 105.222L29.1145 105.222C33.4316 105.412 36.0413 106.335 38.7914 107.308C39.5794 107.587 40.3789 107.87 41.2333 108.141C45.0818 109.361 49.8992 110.274 59.4657 109.359C64.1677 108.939 68.3381 107.385 71.4059 105.205C72.208 104.636 72.9377 104.021 73.5826 103.37C72.9479 104.118 72.1996 104.839 71.3481 105.517C68.374 107.884 64.1902 109.676 59.3844 110.165C49.9161 111.071 45.2157 110.163 41.4913 108.983C40.6736 108.723 39.896 108.448 39.1203 108.173C36.3516 107.193 33.6074 106.221 29.1537 106.025C24.5621 105.787 21.6055 106.449 18.9368 107.047C18.7794 107.082 18.6229 107.117 18.4672 107.152C15.6953 107.768 13.1536 108.251 9.1807 107.521L9.17995 107.521C7.49553 107.215 6.17427 106.179 5.18314 104.85C5.11883 104.764 5.05599 104.677 4.99462 104.589C5.94741 105.626 7.18278 106.43 8.69541 106.705C12.8336 107.465 15.5475 106.955 18.4229 106.33C18.5755 106.297 18.7286 106.263 18.8823 106.23C21.6038 105.634 24.5479 104.99 29.1117 105.222Z" fill="#FFA200" stroke="black" stroke-width="0.853665"/>
<path d="M65.2653 85.8499L65.2678 85.8496C68.1041 85.5254 70.704 85.9398 72.6298 87.4767C74.5481 89.0076 75.8861 91.7238 76.0492 96.2005C76.1258 98.993 74.4154 101.856 71.4358 104.146C68.4641 106.431 64.2807 108.101 59.5545 108.509L59.5505 108.509C50.0813 109.415 45.3807 108.508 41.6561 107.327C40.8384 107.068 40.0608 106.792 39.2851 106.518C36.5165 105.537 33.7724 104.566 29.319 104.369C24.7374 104.132 21.7102 104.791 18.9693 105.387C18.8016 105.423 18.6349 105.46 18.469 105.496C15.6124 106.112 12.9876 106.595 9.01444 105.865L9.01369 105.865C7.32926 105.559 6.01212 104.524 5.088 103.187C4.16308 101.848 3.6502 100.231 3.5702 98.8196C3.4897 94.2535 4.30297 91.4082 5.08075 89.0133C5.14734 88.8082 5.21394 88.6058 5.2799 88.4054C5.98471 86.2636 6.61624 84.3445 6.384 81.7584C6.38116 81.6758 6.3667 81.4884 6.3466 81.2394C6.32292 80.9462 6.28859 80.5367 6.24593 80.0299L6.22301 79.7577C6.13985 78.7703 6.03 77.4659 5.90721 75.9544C5.63834 72.6449 5.30759 68.3444 5.05956 64.2104C4.78921 59.2085 4.40855 53.5448 4.00786 47.5829C3.91758 46.2397 3.82629 44.8814 3.73503 43.5121L3.7348 43.509C3.08274 34.7052 1.78924 20.9307 0.64322 11.0222H45.8757C44.8036 21.5366 43.3467 37.1758 42.6734 50.9696C42.3317 57.9689 42.1914 64.5025 42.4068 69.6537C42.5146 72.2286 42.7115 74.4684 43.0195 76.253C43.3241 78.0174 43.7473 79.4048 44.3502 80.2166C46.296 82.8395 48.4384 84.6043 51.6734 85.5256C54.88 86.4388 59.1276 86.5135 65.2653 85.8499Z" fill="#FDB813" stroke="black" stroke-width="0.853665"/>
<path d="M59.3896 108.509L59.385 108.509L29.1326 104.795L29.1543 104.369C29.1542 104.369 29.154 104.369 29.1538 104.369C24.475 104.131 21.438 104.796 18.704 105.395C18.5487 105.429 18.3944 105.462 18.2408 105.496C15.4051 106.112 12.822 106.595 8.84892 105.866L8.84817 105.865C7.16949 105.56 5.85156 104.489 4.92412 103.127C3.99602 101.764 3.48391 100.145 3.40452 98.8164C3.24154 93.3329 4.05855 90.4913 4.84777 88.346C4.95933 88.0427 5.07167 87.7506 5.18165 87.4647C5.8535 85.7179 6.43745 84.1997 6.21859 81.7597C6.21606 81.6843 6.20277 81.5624 6.18785 81.4303C6.17763 81.3398 6.16483 81.2302 6.15011 81.1041C6.1387 81.0064 6.12614 80.8988 6.11272 80.7825C6.05087 80.2464 5.96852 79.5051 5.88618 78.5992L5.88601 78.5974C5.55511 75.1227 5.05961 69.5051 4.89451 64.0563L4.89464 64.0563L4.89405 64.0455C4.83454 62.9743 4.77501 61.8596 4.71352 60.7085C4.43335 55.4629 4.11266 49.4587 3.56933 43.3439C3.34542 39.4285 2.89508 34.6046 2.42283 29.5461C2.19533 27.1091 1.96274 24.6177 1.74794 22.1472L1.74816 22.1472L1.7465 22.1333C1.33234 18.6816 1.03358 15.3459 0.75317 12.2151C0.712217 11.7579 0.671655 11.305 0.631183 10.8568H45.8757C44.8025 21.3702 43.305 37.0096 42.6113 50.8035C42.2593 57.8029 42.1137 64.337 42.337 69.4889C42.4487 72.0641 42.6528 74.3047 42.9725 76.0901C43.2882 77.8534 43.7272 79.2413 44.3525 80.0543C46.2997 82.678 48.4838 84.4402 51.7362 85.3603C54.9629 86.2732 59.2098 86.3481 65.2659 85.6843L65.2679 85.6841C68.0989 85.3605 70.7423 85.8135 72.6915 87.373C74.6315 88.9252 75.9678 91.6414 76.049 96.0289L76.0491 96.0325C76.1269 98.9118 74.4127 101.817 71.4148 104.126C68.4236 106.43 64.1996 108.101 59.3896 108.509Z" fill="#FFCA00" stroke="black" stroke-width="0.853665"/>
<path d="M0.473679 11.0223H45.7053C44.8996 18.0051 43.9499 27.4035 43.3022 36.9883H3.04298C2.50606 30.2473 1.6654 22.3023 0.933201 15.3825C0.773436 13.8725 0.618834 12.4114 0.473679 11.0223Z" fill="#263248" stroke="black" stroke-width="0.853665"/>
<path d="M45.7584 8.27762V10.1685H0.427656V8.27762C0.427656 7.68555 0.898729 7.21449 1.49063 7.21449H44.6954C45.2873 7.21449 45.7584 7.68555 45.7584 8.27762Z" fill="#FFCD00" stroke="black" stroke-width="0.853665"/>
<path d="M4.73058 64.0562L4.73072 64.0562L4.73012 64.0454C4.6706 62.9739 4.61105 61.8591 4.54956 60.7076C4.2694 55.4623 3.94873 49.4584 3.40543 43.3439C3.18153 39.4285 2.73119 34.6048 2.25896 29.5465C2.04567 27.2618 1.82791 24.9292 1.62452 22.6109H12.0761C16.3213 22.772 19.603 26.0673 19.603 30.2962V70.6912C19.603 74.9197 16.1581 78.2109 12.0841 78.2109H5.68545C5.35568 74.7153 4.88969 69.3074 4.73058 64.0562Z" fill="#263248" stroke="black" stroke-width="0.853665"/>
<path d="M16.2927 65.0624C16.2927 67.4657 14.3418 69.2711 12.0846 69.2711C9.68164 69.2711 7.87639 67.32 7.87639 65.0624V61.0891C7.87639 58.6858 9.8273 56.8804 12.0846 56.8804C14.4875 56.8804 16.2927 58.8315 16.2927 61.0891V65.0624Z" fill="#FFCD00" stroke="black" stroke-width="0.853665"/>
<path d="M20.4563 33.1804V30.723H41.4533V33.1804H20.4563Z" fill="#FFCD00" stroke="black" stroke-width="0.853665"/>
<path d="M20.4563 26.724V24.2666H41.4533V26.724H20.4563Z" fill="#FFCD00" stroke="black" stroke-width="0.853665"/>
</svg>
