<svg width="160" height="103" viewBox="0 0 160 103" fill="none" xmlns="http://www.w3.org/2000/svg">
<path d="M142.815 98.8284L142.82 98.8279C147.301 98.3478 151.273 96.7866 154.195 94.6509C156.341 93.0819 157.942 91.1842 158.737 89.1588C158.762 89.2391 158.789 89.3169 158.819 89.391C158.9 89.5896 159.029 89.8359 159.241 89.9963C159.128 92.9938 156.976 96.1788 153.322 98.434C153.213 98.3844 153.093 98.3361 152.969 98.3051C152.745 98.2491 152.482 98.2417 152.215 98.3753L152.201 98.3823L152.188 98.3903L151.434 98.8427C150.935 99.03 150.654 99.4863 150.669 99.9331C149.593 100.441 148.408 100.838 147.21 101.121C147.113 101.015 146.996 100.927 146.86 100.869C146.63 100.771 146.372 100.767 146.127 100.87L145.233 101.019L145.173 101.029L145.118 101.057L145.1 101.066C144.956 101.138 144.761 101.235 144.606 101.364C144.513 101.442 144.422 101.54 144.357 101.664C144.213 101.681 144.084 101.706 143.968 101.73L143.959 101.731C143.76 101.771 143.599 101.802 143.407 101.802C142.993 101.802 142.582 101.844 142.194 101.882L142.184 101.883C141.892 101.913 141.612 101.94 141.338 101.953C141.27 101.838 141.176 101.744 141.07 101.674C140.87 101.54 140.629 101.487 140.411 101.487H139.465C139.173 101.487 138.925 101.629 138.747 101.782C138.632 101.88 138.531 101.996 138.446 102.118H138.442H138.433H138.425H138.417H138.408H138.4H138.391H138.383H138.374H138.366H138.358H138.349H138.341H138.332H138.324H138.315H138.307H138.298H138.29H138.281H138.273H138.264H138.256H138.248H138.239H138.231H138.222H138.214H138.205H138.197H138.188H138.18H138.171H138.163H138.154H138.146H138.137H138.128H138.12H138.111H138.103H138.094H138.086H138.077H138.069H138.06H138.052H138.043H138.035H138.026H138.017H138.009H138H137.992H137.983H137.975H137.966H137.958H137.949H137.94H137.932H137.923H137.915H137.906H137.897H137.889H137.88H137.872H137.863H137.854H137.846H137.837H137.829H137.82H137.811H137.803H137.794H137.786H137.777H137.768H137.76H137.751H137.742H137.734H137.725H137.717H137.708H137.699H137.691H137.682H137.673H137.665H137.656H137.647H137.639H137.63H137.621H137.613H137.604H137.596H137.587H137.578H137.57H137.561H137.552H137.544H137.535H137.526H137.517H137.509H137.5H137.491H137.483H137.474H137.465H137.457H137.448H137.439H137.431H137.422H137.413H137.405H137.396H137.387H137.378H137.37H137.361H137.352H137.344H137.335H137.326H137.317H137.309H137.3H137.291H137.283H137.274H137.265H137.256H137.248H137.239H137.23H137.222H137.213H137.204H137.195H137.187H137.178H137.169H137.16H137.152H137.143H137.134H137.126H137.117H137.108H137.099H137.091H137.082H137.073H137.064H137.056H137.047H137.038H137.029H137.021H137.012H137.003H136.994H136.986H136.977H136.968H136.959H136.951H136.942H136.933H136.924H136.915H136.907H136.898H136.889H136.88H136.872H136.863H136.854H136.845H136.837H136.828H136.819H136.81H136.802H136.793H136.784H136.775H136.766H136.758H136.749H136.74H136.731H136.723H136.714H136.705H136.696H136.688H136.679H136.67H136.661H136.652H136.644H136.635H136.626H136.617H136.609H136.6H136.591H136.582H136.573H136.565H136.556H136.547H136.538H136.53H136.521H136.512H136.503H136.494H136.486H136.477H136.468H136.459H136.451H136.442H136.433H136.424H136.415H136.407H136.398H136.389H136.38H136.372H136.363H136.354H136.345H136.336H136.328H136.319H136.31H136.301H136.293H136.284H136.275H136.266H136.257H136.249H136.24H136.231H136.222H136.214H136.205H136.196H136.187H136.178H136.17H136.161H136.152H136.143H136.135H136.126H136.117H136.108H136.1H136.091H136.082H136.073H136.064H136.056H136.047H136.038H136.029H136.021H136.012H136.003H135.994H135.986H135.977H135.968H135.959H135.951H135.942H135.933H135.924H135.916H135.907H135.898H135.889H135.881H135.872H135.863H135.854H135.846H135.837H135.828H135.819H135.811H135.802H135.793H135.784H135.776H135.767H135.758H135.749H135.741H135.732H135.723H135.715H135.706H135.697H135.688H135.68H135.671H135.662H135.654H135.645H135.636H135.627H135.619H135.61H135.601H135.593H135.584H135.575H135.566H135.558H135.549H135.54H135.532H135.523H135.514H135.506H135.497H135.488H135.479H135.471H135.462H135.453H135.445H135.436H135.427H135.419H135.41H135.401H135.393H135.384H135.375H135.367H135.358H135.349H135.341H135.332H135.323H135.315H135.306H135.297H135.289H135.28H135.271H135.263H135.254H135.245H135.237H135.228H135.22H135.211H135.202H135.194H135.185H135.176H135.168H135.159H135.151H135.142H135.133H135.125H135.116H135.107H135.099H135.09H135.082H135.073H135.064H135.056H135.047H135.039H135.03H135.022H135.013H135.004H134.996H134.987H134.979H134.97H134.961H134.953H134.944H134.936H134.927H134.919H134.91H134.902H134.893H134.884H134.876H134.867H134.859H134.85H134.842H134.833H134.825H134.816H134.808H134.799H134.791H134.782H134.774H134.765H134.757H134.748H134.74H134.731H134.723H134.714H134.706H134.697H134.689H134.68H134.672H134.663H134.655H134.646H134.638H134.629H134.621H134.612H134.604H134.596H134.587H134.579H134.57H134.562H134.553H134.545H134.536H134.528H134.52H134.511H134.503H134.494H134.49C134.405 101.996 134.304 101.88 134.19 101.782C134.011 101.629 133.763 101.487 133.472 101.487H132.525C132.164 101.487 131.788 101.635 131.532 101.941C129.742 101.777 128.183 101.468 127.207 100.91L127.204 100.908C125.88 100.168 124.887 99.4964 124.027 98.896C123.896 98.8044 123.767 98.7141 123.641 98.6251C122.942 98.1347 122.304 97.6868 121.627 97.3013C119.998 96.3731 118.157 95.8116 114.571 95.6516C112.464 95.4905 110.684 95.816 109.104 96.1321L108.797 96.1934L108.778 96.5055L108.462 101.553L108.462 101.565V101.578C108.462 101.683 108.405 101.821 108.285 101.941C108.165 102.062 108.026 102.118 107.922 102.118H105.934C105.679 101.798 105.294 101.645 104.925 101.645H103.979C103.61 101.645 103.226 101.798 102.97 102.118H102.56H100.414C100.159 101.798 99.7744 101.645 99.4055 101.645H98.4593C98.0903 101.645 97.7062 101.798 97.4505 102.118H95.4601C95.4031 101.997 95.3247 101.89 95.2377 101.803C95.0623 101.628 94.8064 101.487 94.5164 101.487C94.2984 101.487 94.0571 101.54 93.8571 101.674C93.7759 101.728 93.7015 101.796 93.6405 101.877C91.9683 101.33 90.7647 99.688 90.3404 97.7074L90.3375 97.6941L90.3338 97.6809C89.7679 95.7003 89.5893 94.2398 89.4424 93.0389C89.4281 92.9218 89.414 92.8072 89.4 92.6949L89.4001 92.6949L89.399 92.6878C89.3227 92.1533 89.2054 90.8669 89.1663 89.715C89.1606 89.5445 89.1565 89.3783 89.1546 89.2191L89.284 89.0896C89.3918 88.9819 89.5515 88.9285 89.8539 88.9769C90.1663 89.0269 90.5466 89.1738 91.0029 89.3722C91.1068 89.4174 91.2146 89.4652 91.3251 89.5142C91.681 89.6721 92.0662 89.843 92.4504 89.9827C92.9567 90.1669 93.5012 90.3128 94.0433 90.3128H94.4499V89.9062V89.5907C94.4499 89.4864 94.5062 89.348 94.6266 89.2276C94.7469 89.1073 94.8853 89.051 94.9896 89.051H106.029C106.177 89.051 106.449 89.0178 106.73 88.9835L106.747 88.9815L106.777 88.9778C107.074 88.9415 107.415 88.9 107.74 88.8721C108.082 88.8428 108.382 88.831 108.588 88.8497C108.594 88.8503 108.601 88.851 108.607 88.8516L108.305 94.3001L108.283 94.6885L108.67 94.7273C109.471 94.8074 110.31 94.8472 111.176 94.8866L111.292 94.8919C112.125 94.9296 112.986 94.9687 113.881 95.0433L113.889 95.044L113.897 95.0443C117.998 95.2252 120.482 96.0767 123.093 96.9712C123.853 97.2316 124.623 97.4956 125.447 97.7477C129.113 98.8696 133.702 99.7002 142.815 98.8284Z" fill="#1A2230" stroke="black" stroke-width="0.813324"/>
<path d="M113.736 93.7822L113.739 93.7823C117.852 93.9638 120.338 94.8434 122.958 95.7703C123.709 96.0359 124.471 96.3054 125.285 96.5634C128.951 97.7256 133.541 98.596 142.655 97.7243C147.135 97.324 151.109 95.8431 154.031 93.7667C154.796 93.2237 155.491 92.6378 156.106 92.0175C155.501 92.7303 154.788 93.4176 153.976 94.0634C151.143 96.319 147.157 98.026 142.578 98.4919C133.557 99.3548 129.079 98.4902 125.53 97.3654C124.751 97.1185 124.011 96.8561 123.272 96.5944C120.634 95.6604 118.019 94.7346 113.776 94.5472C109.401 94.3211 106.584 94.9518 104.042 95.5211C103.892 95.5547 103.743 95.5881 103.594 95.6211C100.954 96.208 98.5319 96.6683 94.7467 95.973L94.746 95.9728C93.1412 95.681 91.8824 94.6941 90.9381 93.4286C90.8768 93.3465 90.817 93.2633 90.7585 93.1792C91.6664 94.1681 92.8435 94.9336 94.2849 95.1957C98.2273 95.9198 100.813 95.4337 103.552 94.8381C103.698 94.8065 103.843 94.7746 103.99 94.7425C106.583 94.175 109.388 93.5611 113.736 93.7822Z" fill="#D46B0B" stroke="black" stroke-width="0.813324"/>
<path d="M148.184 75.3257L148.182 75.326C142.334 75.9582 138.287 75.8871 135.232 75.017C132.15 74.1392 130.109 72.4578 128.255 69.9589M148.184 75.3257L128.582 69.7166M148.184 75.3257C150.886 75.0168 153.363 75.4116 155.198 76.8759C157.026 78.3345 158.301 80.9224 158.456 85.1877C158.529 87.7659 156.903 90.4547 154.059 92.6604C151.226 94.8581 147.237 96.528 142.732 97.0727C133.714 97.935 129.236 97.0705 125.688 95.9459C124.909 95.6989 124.168 95.4366 123.429 95.1749C120.791 94.2409 118.177 93.3151 113.934 93.1276C109.569 92.902 106.685 93.5294 104.074 94.0975C103.914 94.1323 103.755 94.1669 103.597 94.201C100.875 94.7884 98.3745 95.2488 94.589 94.5534L94.5883 94.5533C92.9835 94.2615 91.7286 93.2753 90.8481 92.0013C89.9669 90.7262 89.4783 89.1855 89.402 87.8405C89.3253 83.4902 90.1002 80.7794 90.8412 78.4976C90.9046 78.3022 90.9681 78.1094 91.0309 77.9184C91.7023 75.8784 92.3038 74.0505 92.083 71.5876M148.184 75.3257L91.6767 71.6093M128.255 69.9589L128.582 69.7166M128.255 69.9589C128.255 69.9589 128.255 69.959 128.255 69.959L128.582 69.7166M128.255 69.9589C127.681 69.1854 127.277 67.8637 126.987 66.1826C126.694 64.4823 126.506 62.3484 126.403 59.8951C126.198 54.9873 126.332 48.7625 126.657 42.094C127.299 28.9521 128.687 14.0519 129.708 4.03435M128.582 69.7166C124.509 64.2331 128.06 24.2027 130.117 4.03435H129.708M129.708 4.03435C129.722 3.89788 129.736 3.76232 129.75 3.62769L130.159 3.62769L86.5662 3.62769C86.5819 3.76245 86.5976 3.89802 86.6134 4.03435M129.708 4.03435H86.6134M86.6134 4.03435H86.204C86.1882 3.89801 86.1725 3.76245 86.1567 3.62769L89.1533 35.016C89.2403 36.3212 89.3273 37.6158 89.4133 38.8958C89.7951 44.5763 90.1576 49.9694 90.415 54.7322M86.6134 4.03435C87.7052 13.4747 88.9376 26.5982 89.5588 34.9859L89.559 34.9889C89.646 36.2935 89.733 37.5877 89.819 38.8674C90.2007 44.5475 90.5634 49.9436 90.821 54.709M90.821 54.709C90.821 54.7086 90.8209 54.7082 90.8209 54.7079L90.415 54.7322M90.821 54.709C90.821 54.7094 90.821 54.7098 90.8211 54.7103L90.415 54.7322M90.821 54.709C91.0573 58.6477 91.3724 62.745 91.6286 65.918C91.7217 67.0705 91.8069 68.1005 91.8777 68.9569C91.9044 69.2796 91.9291 69.5777 91.9514 69.8483C92.0278 70.7771 92.0787 71.4107 92.083 71.5876M90.415 54.7322C90.7375 60.1076 91.2065 65.7761 91.4725 68.9907C91.5967 70.4924 91.6767 71.4586 91.6767 71.6093M91.6767 71.6093L92.0817 71.5725C92.0821 71.5775 92.0826 71.5826 92.083 71.5876M91.6767 71.6093H92.0834C92.0834 71.6031 92.0833 71.5958 92.083 71.5876" fill="#EBA600" stroke="black" stroke-width="0.813324"/>
<path d="M94.4313 94.3956L94.4306 94.3955C92.8312 94.1047 91.5756 93.0841 90.692 91.7867C89.8075 90.4881 89.3195 88.9443 89.2441 87.6786C89.0894 83.2508 89.864 80.5425 90.623 78.2847C90.7009 78.0529 90.7791 77.8249 90.8564 77.5995C91.5325 75.6281 92.1424 73.8496 91.9252 71.4285C91.9227 71.3566 91.9101 71.2408 91.896 71.1152C91.8862 71.029 91.874 70.9246 91.86 70.8046C91.8492 70.7114 91.8372 70.6089 91.8244 70.498C91.7655 69.9872 91.687 69.2809 91.6085 68.4179L91.6084 68.4161C91.2931 65.1056 90.8211 59.7535 90.6638 54.5622L90.6639 54.5621L90.6633 54.5519C90.6066 53.5313 90.5499 52.4693 90.4913 51.3725C90.2244 46.3749 89.9189 40.6544 89.4012 34.8286C89.1879 31.0983 88.7588 26.5026 88.3089 21.6833C88.0921 19.3614 87.8705 16.9875 87.6659 14.6336L87.6661 14.6336L87.6645 14.6204C87.2699 11.3322 86.9853 8.15449 86.7182 5.17195C86.6792 4.73592 86.6405 4.30406 86.6019 3.87663H129.708C128.686 13.8932 127.259 28.7936 126.598 41.9357C126.263 48.6043 126.124 54.8296 126.337 59.738C126.443 62.1915 126.638 64.3262 126.942 66.0273C127.243 67.7073 127.661 69.0296 128.257 69.8041C130.112 72.3039 132.193 73.9828 135.292 74.8595C138.366 75.7292 142.412 75.8005 148.182 75.1681L148.184 75.1679C150.881 74.8596 153.4 75.2912 155.257 76.777C157.105 78.2559 158.378 80.8438 158.456 85.0239L158.456 85.0276C158.53 87.6885 156.901 90.417 154.041 92.6201C151.189 94.8167 147.163 96.4479 142.579 96.9145C133.557 97.7775 129.079 96.9129 125.53 95.7881C124.751 95.5412 124.011 95.2788 123.272 95.0171C120.634 94.0831 118.019 93.1572 113.776 92.9698C109.319 92.7433 106.425 93.3767 103.821 93.9469C103.673 93.9793 103.526 94.0115 103.379 94.0434C100.678 94.6307 98.2166 95.091 94.4313 94.3956Z" fill="#FF8D23" stroke="black" stroke-width="0.813324"/>
<path d="M86.4515 4.03435H129.546C128.778 10.6872 127.873 19.6414 127.256 28.7733H88.8994C88.3879 22.3512 87.5871 14.7823 86.8895 8.18966C86.7372 6.75068 86.5899 5.35822 86.4515 4.03435Z" fill="#1A2230" stroke="black" stroke-width="0.813324"/>
<path d="M129.596 1.41955V3.22113H86.4076V1.41955C86.4076 0.855469 86.8565 0.406662 87.4204 0.406662H128.583C129.147 0.406662 129.596 0.85547 129.596 1.41955Z" fill="#FF8D23" stroke="black" stroke-width="0.813324"/>
<path d="M90.5077 54.562L90.5079 54.562L90.5073 54.5518C90.4506 53.5312 90.3939 52.4692 90.3353 51.3724C90.0684 46.3748 89.7628 40.6544 89.2452 34.8285C89.0319 31.0981 88.6028 26.5022 88.1529 21.6828C87.9497 19.5062 87.7422 17.284 87.5485 15.0754H97.5062C101.551 15.2289 104.677 18.3684 104.677 22.3975V60.8836C104.677 64.9122 101.395 68.0479 97.5138 68.0479H91.4175C91.1033 64.7175 90.6593 59.5652 90.5077 54.562Z" fill="#1A2230" stroke="black" stroke-width="0.813324"/>
<path d="M101.523 55.5209C101.523 57.8106 99.664 59.5306 97.5134 59.5306C95.224 59.5306 93.5041 57.6718 93.5041 55.5209V51.7353C93.5041 49.4456 95.3628 47.7255 97.5134 47.7255C99.8027 47.7255 101.523 49.5844 101.523 51.7353V55.5209Z" fill="#EBA600" stroke="black" stroke-width="0.813324"/>
<path d="M105.489 25.1455V22.8042H125.494V25.1455H105.489Z" fill="#FF8D23" stroke="black" stroke-width="0.813324"/>
<path d="M105.489 18.9939V16.6526H125.494V18.9939H105.489Z" fill="#FF8D23" stroke="black" stroke-width="0.813324"/>
<path d="M16.8365 98.8284L16.8319 98.8279C12.3513 98.3478 8.3786 96.7866 5.45734 94.6509C3.31129 93.0819 1.71 91.1842 0.915054 89.1588C0.890121 89.2391 0.862762 89.3169 0.832726 89.391C0.752251 89.5896 0.622581 89.8359 0.411308 89.9963C0.524307 92.9938 2.67599 96.1788 6.33028 98.434C6.43866 98.3844 6.55902 98.3361 6.68298 98.3051C6.9069 98.2491 7.16938 98.2417 7.43665 98.3753L7.45061 98.3823L7.464 98.3903L8.21786 98.8427C8.71694 99.03 8.99763 99.4863 8.98285 99.9331C10.0587 100.441 11.2444 100.838 12.4417 101.121C12.5387 101.015 12.6561 100.927 12.792 100.869C13.0219 100.771 13.2802 100.767 13.5253 100.87L14.4187 101.019L14.479 101.029L14.5337 101.057L14.5517 101.066C14.6963 101.138 14.8907 101.235 15.0459 101.364C15.1386 101.442 15.2294 101.54 15.2944 101.664C15.4387 101.681 15.5678 101.706 15.6835 101.73L15.6933 101.731C15.8923 101.771 16.053 101.802 16.2444 101.802C16.659 101.802 17.0703 101.844 17.4583 101.882L17.4677 101.883C17.76 101.913 18.0395 101.94 18.3142 101.953C18.3821 101.838 18.4762 101.744 18.5817 101.674C18.7816 101.54 19.0229 101.487 19.241 101.487H20.1872C20.4786 101.487 20.7272 101.629 20.9053 101.782C21.0195 101.88 21.1212 101.996 21.206 102.118H21.21H21.2184H21.2269H21.2353H21.2437H21.2521H21.2606H21.269H21.2774H21.2859H21.2943H21.3028H21.3112H21.3197H21.3281H21.3366H21.345H21.3535H21.362H21.3704H21.3789H21.3874H21.3959H21.4043H21.4128H21.4213H21.4298H21.4383H21.4468H21.4553H21.4638H21.4723H21.4808H21.4893H21.4978H21.5063H21.5149H21.5234H21.5319H21.5404H21.549H21.5575H21.566H21.5746H21.5831H21.5916H21.6002H21.6087H21.6173H21.6258H21.6344H21.6429H21.6515H21.6601H21.6686H21.6772H21.6858H21.6943H21.7029H21.7115H21.7201H21.7286H21.7372H21.7458H21.7544H21.763H21.7716H21.7802H21.7888H21.7974H21.806H21.8146H21.8232H21.8318H21.8404H21.849H21.8576H21.8662H21.8749H21.8835H21.8921H21.9007H21.9094H21.918H21.9266H21.9353H21.9439H21.9525H21.9612H21.9698H21.9785H21.9871H21.9958H22.0044H22.0131H22.0217H22.0304H22.039H22.0477H22.0563H22.065H22.0737H22.0823H22.091H22.0997H22.1083H22.117H22.1257H22.1344H22.143H22.1517H22.1604H22.1691H22.1778H22.1865H22.1951H22.2038H22.2125H22.2212H22.2299H22.2386H22.2473H22.256H22.2647H22.2734H22.2821H22.2908H22.2995H22.3082H22.3169H22.3257H22.3344H22.3431H22.3518H22.3605H22.3692H22.3779H22.3867H22.3954H22.4041H22.4128H22.4216H22.4303H22.439H22.4477H22.4565H22.4652H22.4739H22.4827H22.4914H22.5001H22.5089H22.5176H22.5263H22.5351H22.5438H22.5526H22.5613H22.5701H22.5788H22.5875H22.5963H22.605H22.6138H22.6225H22.6313H22.64H22.6488H22.6575H22.6663H22.6751H22.6838H22.6926H22.7013H22.7101H22.7188H22.7276H22.7364H22.7451H22.7539H22.7626H22.7714H22.7802H22.7889H22.7977H22.8065H22.8152H22.824H22.8328H22.8415H22.8503H22.8591H22.8678H22.8766H22.8854H22.8942H22.9029H22.9117H22.9205H22.9292H22.938H22.9468H22.9556H22.9643H22.9731H22.9819H22.9907H22.9994H23.0082H23.017H23.0258H23.0345H23.0433H23.0521H23.0609H23.0697H23.0784H23.0872H23.096H23.1048H23.1135H23.1223H23.1311H23.1399H23.1487H23.1574H23.1662H23.175H23.1838H23.1926H23.2013H23.2101H23.2189H23.2277H23.2365H23.2452H23.254H23.2628H23.2716H23.2803H23.2891H23.2979H23.3067H23.3155H23.3242H23.333H23.3418H23.3506H23.3593H23.3681H23.3769H23.3857H23.3944H23.4032H23.412H23.4208H23.4295H23.4383H23.4471H23.4559H23.4646H23.4734H23.4822H23.4909H23.4997H23.5085H23.5173H23.526H23.5348H23.5436H23.5523H23.5611H23.5699H23.5786H23.5874H23.5961H23.6049H23.6137H23.6224H23.6312H23.64H23.6487H23.6575H23.6662H23.675H23.6837H23.6925H23.7013H23.71H23.7188H23.7275H23.7363H23.745H23.7538H23.7625H23.7713H23.78H23.7888H23.7975H23.8062H23.815H23.8237H23.8325H23.8412H23.8499H23.8587H23.8674H23.8762H23.8849H23.8936H23.9024H23.9111H23.9198H23.9285H23.9373H23.946H23.9547H23.9634H23.9722H23.9809H23.9896H23.9983H24.007H24.0158H24.0245H24.0332H24.0419H24.0506H24.0593H24.068H24.0767H24.0854H24.0941H24.1028H24.1115H24.1202H24.1289H24.1376H24.1463H24.155H24.1637H24.1724H24.1811H24.1898H24.1985H24.2072H24.2158H24.2245H24.2332H24.2419H24.2505H24.2592H24.2679H24.2766H24.2852H24.2939H24.3026H24.3112H24.3199H24.3285H24.3372H24.3459H24.3545H24.3632H24.3718H24.3805H24.3891H24.3977H24.4064H24.415H24.4237H24.4323H24.4409H24.4496H24.4582H24.4668H24.4754H24.4841H24.4927H24.5013H24.5099H24.5185H24.5272H24.5358H24.5444H24.553H24.5616H24.5702H24.5788H24.5874H24.596H24.6046H24.6132H24.6217H24.6303H24.6389H24.6475H24.6561H24.6647H24.6732H24.6818H24.6904H24.6989H24.7075H24.7161H24.7246H24.7332H24.7417H24.7503H24.7588H24.7674H24.7759H24.7845H24.793H24.8015H24.8101H24.8186H24.8271H24.8357H24.8442H24.8527H24.8612H24.8697H24.8783H24.8868H24.8953H24.9038H24.9123H24.9208H24.9293H24.9378H24.9462H24.9547H24.9632H24.9717H24.9802H24.9887H24.9971H25.0056H25.0141H25.0225H25.031H25.0394H25.0479H25.0564H25.0648H25.0732H25.0817H25.0901H25.0986H25.107H25.1154H25.1239H25.1323H25.1407H25.1491H25.1575H25.1616C25.2464 101.996 25.348 101.88 25.4622 101.782C25.6404 101.629 25.889 101.487 26.1803 101.487H27.1266C27.488 101.487 27.864 101.635 28.1195 101.941C29.9095 101.777 31.4685 101.468 32.4448 100.91L32.4482 100.908C33.7718 100.168 34.7647 99.4964 35.6247 98.896C35.756 98.8044 35.8847 98.7141 36.0113 98.6251C36.7097 98.1347 37.3476 97.6868 38.0244 97.3013C39.6537 96.3731 41.4953 95.8116 45.0813 95.6516C47.1883 95.4905 48.9678 95.816 50.5479 96.1321L50.8545 96.1934L50.874 96.5055L51.1894 101.553L51.1902 101.565V101.578C51.1902 101.683 51.2465 101.821 51.3668 101.941C51.4872 102.062 51.6255 102.118 51.7298 102.118H53.7176C53.9733 101.798 54.3575 101.645 54.7264 101.645H55.6726C56.0416 101.645 56.4257 101.798 56.6814 102.118H57.0921H59.2376C59.4932 101.798 59.8774 101.645 60.2463 101.645H61.1926C61.5615 101.645 61.9457 101.798 62.2014 102.118H64.1917C64.2487 101.997 64.3272 101.89 64.4142 101.803C64.5895 101.628 64.8454 101.487 65.1354 101.487C65.3535 101.487 65.5948 101.54 65.7947 101.674C65.8759 101.728 65.9504 101.796 66.0114 101.877C67.6836 101.33 68.8871 99.688 69.3115 97.7074L69.3143 97.6941L69.3181 97.6809C69.8839 95.7003 70.0626 94.2398 70.2095 93.0389C70.2238 92.9218 70.2378 92.8072 70.2519 92.6949L70.2518 92.6949L70.2528 92.6878C70.3292 92.1533 70.4465 90.8669 70.4855 89.715C70.4913 89.5445 70.4953 89.3783 70.4973 89.2191L70.3678 89.0896C70.2601 88.9819 70.1004 88.9285 69.798 88.9769C69.4855 89.0269 69.1053 89.1738 68.649 89.3722C68.545 89.4174 68.4373 89.4652 68.3267 89.5142C67.9709 89.6721 67.5857 89.843 67.2015 89.9827C66.6951 90.1669 66.1506 90.3128 65.6086 90.3128H65.2019V89.9062V89.5907C65.2019 89.4864 65.1456 89.348 65.0253 89.2276C64.9049 89.1073 64.7666 89.051 64.6623 89.051H53.6224C53.4753 89.051 53.2033 89.0178 52.9222 88.9835L52.9053 88.9815L52.8751 88.9778C52.5774 88.9415 52.2372 88.9 51.9119 88.8721C51.5702 88.8428 51.2702 88.831 51.0643 88.8497C51.0576 88.8503 51.051 88.851 51.0446 88.8516L51.3473 94.3001L51.3689 94.6885L50.9817 94.7273C50.1805 94.8074 49.3417 94.8472 48.4757 94.8866L48.3594 94.8919C47.5264 94.9296 46.666 94.9687 45.7705 95.0433L45.7626 95.044L45.7547 95.0443C41.654 95.2252 39.1694 96.0767 36.5589 96.9712C35.7992 97.2316 35.0287 97.4956 34.2047 97.7477C30.5389 98.8696 25.9502 99.7002 16.8365 98.8284Z" fill="#1A2230" stroke="black" stroke-width="0.813324"/>
<path d="M45.916 93.7822L45.9132 93.7823C41.8002 93.9638 39.3138 94.8434 36.6937 95.7703C35.9429 96.0359 35.1812 96.3054 34.3671 96.5634C30.7006 97.7256 26.1108 98.596 16.9964 97.7243C12.5166 97.324 8.54321 95.8431 5.62042 93.7667C4.85611 93.2237 4.1608 92.6378 3.54633 92.0175C4.15112 92.7303 4.86415 93.4176 5.67549 94.0634C8.50905 96.319 12.4951 98.026 17.0739 98.4919C26.0947 99.3548 30.573 98.4902 34.1214 97.3654C34.9004 97.1185 35.6413 96.8561 36.3803 96.5944C39.0182 95.6604 41.6327 94.7346 45.8759 94.5472C50.2505 94.3211 53.0674 94.9518 55.61 95.5211C55.76 95.5547 55.9091 95.5881 56.0575 95.6211C58.6984 96.208 61.1199 96.6683 64.9051 95.973L64.9058 95.9728C66.5107 95.681 67.7695 94.6941 68.7138 93.4286C68.775 93.3465 68.8349 93.2633 68.8933 93.1792C67.9855 94.1681 66.8083 94.9336 65.3669 95.1957C61.4246 95.9198 58.839 95.4337 56.0997 94.8381C55.9543 94.8065 55.8085 94.7746 55.6619 94.7425C53.0691 94.175 50.2641 93.5611 45.916 93.7822Z" fill="#D46B0B" stroke="black" stroke-width="0.813324"/>
<path d="M11.4677 75.3257L11.4702 75.326C17.3178 75.9582 21.3647 75.8871 24.4198 75.017C27.5019 74.1392 29.5431 72.4578 31.3969 69.9589M11.4677 75.3257L31.0703 69.7166M11.4677 75.3257C8.76554 75.0168 6.28846 75.4116 4.45363 76.8759C2.62601 78.3345 1.35116 80.9224 1.19585 85.1877C1.12309 87.7659 2.7487 90.4547 5.59262 92.6604C8.42619 94.8581 12.4145 96.528 16.9199 97.0727C25.9383 97.935 30.4158 97.0705 33.9637 95.9459C34.7427 95.6989 35.4836 95.4366 36.2227 95.1749C38.8604 94.2409 41.4749 93.3151 45.7178 93.1276C50.0828 92.902 52.9669 93.5294 55.5783 94.0975C55.7382 94.1323 55.897 94.1669 56.0551 94.201C58.7767 94.7884 61.2774 95.2488 65.0629 94.5534L65.0636 94.5533C66.6684 94.2615 67.9233 93.2753 68.8037 92.0013C69.685 90.7262 70.1736 89.1855 70.2498 87.8405C70.3265 83.4902 69.5517 80.7794 68.8107 78.4976C68.7472 78.3022 68.6838 78.1094 68.6209 77.9184C67.9496 75.8784 67.3481 74.0505 67.5688 71.5876M11.4677 75.3257L67.9752 71.6093M31.3969 69.9589L31.0703 69.7166M31.3969 69.9589C31.3969 69.9589 31.3968 69.959 31.3968 69.959L31.0703 69.7166M31.3969 69.9589C31.9713 69.1854 32.3746 67.8637 32.6647 66.1826C32.9581 64.4823 33.1458 62.3484 33.2484 59.8951C33.4537 54.9873 33.32 48.7625 32.9945 42.094C32.353 28.9521 30.9649 14.0519 29.9435 4.03435M31.0703 69.7166C35.1433 64.2331 31.5919 24.2027 29.5348 4.03435H29.9435M29.9435 4.03435C29.9296 3.89788 29.9158 3.76232 29.902 3.62769L29.4932 3.62769L73.0857 3.62769C73.07 3.76245 73.0543 3.89802 73.0385 4.03435M29.9435 4.03435H73.0385M73.0385 4.03435H73.4479C73.4636 3.89801 73.4794 3.76245 73.4951 3.62769L70.4986 35.016C70.4116 36.3212 70.3246 37.6158 70.2385 38.8958C69.8568 44.5763 69.4943 49.9694 69.2369 54.7322M73.0385 4.03435C71.9466 13.4747 70.7143 26.5982 70.093 34.9859L70.0928 34.9889C70.0059 36.2935 69.9189 37.5877 69.8329 38.8674C69.4511 44.5475 69.0884 49.9436 68.8309 54.709M68.8309 54.709C68.8309 54.7086 68.8309 54.7082 68.8309 54.7079L69.2369 54.7322M68.8309 54.709C68.8308 54.7094 68.8308 54.7098 68.8308 54.7103L69.2369 54.7322M68.8309 54.709C68.5946 58.6477 68.2794 62.745 68.0232 65.918C67.9302 67.0705 67.845 68.1005 67.7741 68.9569C67.7474 69.2796 67.7227 69.5777 67.7005 69.8483C67.6241 70.7771 67.5732 71.4107 67.5688 71.5876M69.2369 54.7322C68.9144 60.1076 68.4454 65.7761 68.1794 68.9907C68.0551 70.4924 67.9752 71.4586 67.9752 71.6093M67.9752 71.6093L67.5702 71.5725C67.5697 71.5775 67.5693 71.5826 67.5688 71.5876M67.9752 71.6093H67.5685C67.5685 71.6031 67.5686 71.5958 67.5688 71.5876" fill="#EBA600" stroke="black" stroke-width="0.813324"/>
<path d="M65.2206 94.3956L65.2213 94.3955C66.8206 94.1047 68.0763 93.0841 68.9599 91.7867C69.8444 90.4881 70.3323 88.9443 70.4078 87.6786C70.5625 83.2508 69.7878 80.5425 69.0288 78.2847C68.9509 78.0529 68.8727 77.825 68.7954 77.5995C68.1194 75.6281 67.5095 73.8496 67.7267 71.4285C67.7291 71.3566 67.7417 71.2408 67.7559 71.1152C67.7656 71.0289 67.7778 70.9246 67.7918 70.8045C67.8027 70.7114 67.8147 70.6088 67.8275 70.498C67.8864 69.9872 67.9649 69.2809 68.0433 68.4179L68.0435 68.4161C68.3587 65.1056 68.8308 59.7535 68.9881 54.5622L68.988 54.5621L68.9885 54.5519C69.0452 53.5313 69.102 52.4693 69.1605 51.3725C69.4275 46.3749 69.733 40.6544 70.2506 34.8286C70.464 31.0983 70.893 26.5026 71.3429 21.6833C71.5597 19.3614 71.7813 16.9875 71.986 14.6336L71.9858 14.6336L71.9874 14.6204C72.3819 11.3322 72.6665 8.15449 72.9336 5.17195C72.9727 4.73592 73.0114 4.30406 73.05 3.87663H29.9435C30.966 13.8932 32.3927 28.7936 33.0536 41.9357C33.389 48.6043 33.5277 54.8296 33.315 59.738C33.2086 62.1915 33.0141 64.3262 32.7095 66.0273C32.4088 67.7073 31.9905 69.0296 31.3947 69.8041C29.5396 72.3039 27.4587 73.9828 24.3599 74.8595C21.2858 75.7292 17.2395 75.8005 11.4696 75.1681L11.4677 75.1679C8.77042 74.8596 6.25196 75.2912 4.39487 76.777C2.54652 78.2559 1.27341 80.8438 1.19602 85.0239L1.19592 85.0276C1.12202 87.6885 2.75134 90.417 5.61127 92.6201C8.46265 94.8167 12.4889 96.4479 17.073 96.9145C26.0945 97.7775 30.5729 96.9129 34.1214 95.7881C34.9004 95.5412 35.6413 95.2788 36.3803 95.0171C39.0182 94.0831 41.6328 93.1572 45.8761 92.9698C50.3333 92.7433 53.2265 93.3767 55.8311 93.9469C55.9791 93.9793 56.1262 94.0115 56.2725 94.0434C58.9742 94.6307 61.4353 95.091 65.2206 94.3956Z" fill="#FF8D23" stroke="black" stroke-width="0.813324"/>
<path d="M73.2003 4.03435H30.1062C30.8738 10.6872 31.7786 19.6414 32.3956 28.7733H70.7524C71.2639 22.3512 72.0648 14.7823 72.7624 8.18966C72.9146 6.75068 73.062 5.35822 73.2003 4.03435Z" fill="#1A2230" stroke="black" stroke-width="0.813324"/>
<path d="M30.0556 1.41955V3.22113H73.2442V1.41955C73.2442 0.855469 72.7954 0.406662 72.2314 0.406662H31.0684C30.5044 0.406662 30.0556 0.85547 30.0556 1.41955Z" fill="#FF8D23" stroke="black" stroke-width="0.813324"/>
<path d="M69.1441 54.562L69.144 54.562L69.1445 54.5518C69.2012 53.5312 69.258 52.4692 69.3165 51.3724C69.5835 46.3748 69.889 40.6544 70.4067 34.8285C70.62 31.0981 71.049 26.5022 71.499 21.6828C71.7022 19.5062 71.9096 17.284 72.1034 15.0754H62.1457C58.1011 15.2289 54.9745 18.3684 54.9745 22.3975V60.8836C54.9745 64.9122 58.2566 68.0479 62.1381 68.0479H68.2344C68.5485 64.7175 68.9925 59.5652 69.1441 54.562Z" fill="#1A2230" stroke="black" stroke-width="0.813324"/>
<path d="M58.1292 55.5209C58.1292 57.8106 59.9879 59.5306 62.1385 59.5306C64.4278 59.5306 66.1478 57.6718 66.1478 55.5209V51.7353C66.1478 49.4456 64.2891 47.7255 62.1385 47.7255C59.8491 47.7255 58.1292 49.5844 58.1292 51.7353V55.5209Z" fill="#EBA600" stroke="black" stroke-width="0.813324"/>
<path d="M54.1627 25.1455V22.8042H34.1579V25.1455H54.1627Z" fill="#FF8D23" stroke="black" stroke-width="0.813324"/>
<path d="M54.1627 18.9939V16.6526H34.1579V18.9939H54.1627Z" fill="#FF8D23" stroke="black" stroke-width="0.813324"/>
</svg>
