<svg width="61" height="40" viewBox="0 0 61 40" fill="none" xmlns="http://www.w3.org/2000/svg">
<path d="M60.4259 37.7375C60.4259 18.6824 47.1035 3.26074 30.713 3.26074C14.3224 3.26074 1 18.6824 1 37.7375L1.32297 37.6567C8.50898 23.8499 52.4325 28.2099 60.4259 37.7375Z" fill="white" stroke="black" stroke-width="0.793967" stroke-miterlimit="10" stroke-linejoin="round"/>
<path d="M30.7131 13.4342C32.9427 13.4342 34.7502 10.6507 34.7502 7.21711C34.7502 3.78349 32.9427 1 30.7131 1C28.4835 1 26.676 3.78349 26.676 7.21711C26.676 10.6507 28.4835 13.4342 30.7131 13.4342Z" fill="white" stroke="black" stroke-width="0.793967" stroke-miterlimit="10" stroke-linejoin="round"/>
<path d="M12.1432 26.9989C12.6783 26.9989 13.1121 26.4928 13.1121 25.8685C13.1121 25.2442 12.6783 24.7382 12.1432 24.7382C11.6081 24.7382 11.1743 25.2442 11.1743 25.8685C11.1743 26.4928 11.6081 26.9989 12.1432 26.9989Z" fill="white" stroke="black" stroke-width="0.793967" stroke-miterlimit="10" stroke-linejoin="round"/>
<path d="M16.0973 25.8686C16.6324 25.8686 17.0662 25.3625 17.0662 24.7382C17.0662 24.1139 16.6324 23.6078 16.0973 23.6078C15.5622 23.6078 15.1284 24.1139 15.1284 24.7382C15.1284 25.3625 15.5622 25.8686 16.0973 25.8686Z" fill="white" stroke="black" stroke-width="0.793967" stroke-miterlimit="10" stroke-linejoin="round"/>
<path d="M20.2169 25.1418C20.7521 25.1418 21.1858 24.6357 21.1858 24.0114C21.1858 23.3871 20.7521 22.881 20.2169 22.881C19.6818 22.881 19.248 23.3871 19.248 24.0114C19.248 24.6357 19.6818 25.1418 20.2169 25.1418Z" fill="white" stroke="black" stroke-width="0.793967" stroke-miterlimit="10" stroke-linejoin="round"/>
<path d="M1 37.7375L2.85706 39.1101C2.85706 39.1101 7.45934 29.6633 30.8744 29.8248C54.2895 30.067 58.5689 39.1101 58.5689 39.1101L60.3452 37.7375C60.3452 37.7375 53.1592 26.4336 30.7937 26.1107C8.26676 25.7877 1 37.7375 1 37.7375Z" fill="white" stroke="black" stroke-width="0.793967" stroke-miterlimit="10" stroke-linejoin="round"/>
<path d="M28.9352 26.1106C28.9352 26.1106 24.4944 12.6267 13.9172 9.31628" stroke="black" stroke-width="0.793967" stroke-miterlimit="10" stroke-linejoin="round"/>
<path d="M32.5691 26.1106C32.5691 26.1106 37.0099 12.6267 47.587 9.31628" stroke="black" stroke-width="0.793967" stroke-miterlimit="10" stroke-linejoin="round"/>
</svg>
