<svg width="131" height="122" viewBox="0 0 131 122" fill="none" xmlns="http://www.w3.org/2000/svg">
<path d="M89.4742 119.842C110.605 91.9404 108.2 54.5856 84.2 36.4093C60.2003 18.233 23.5913 26.0403 2.46023 53.9415L3.02267 54.1814C28.8558 41.9338 88.3354 97.0268 89.4742 119.842Z" fill="white" stroke="black" stroke-width="1.45834" stroke-miterlimit="10" stroke-linejoin="round"/>
<path d="M72.9208 51.3074C76.1856 53.7799 81.9189 51.7085 85.7266 46.6809C89.5343 41.6533 89.9744 35.5732 86.7097 33.1006C83.445 30.6281 77.7117 32.6994 73.904 37.7271C70.0963 42.7547 69.6561 48.8348 72.9208 51.3074Z" fill="white" stroke="black" stroke-width="1.45834" stroke-miterlimit="10"/>
<path d="M30.6863 50.5754C31.4698 51.1688 32.6662 50.9088 33.3585 49.9947C34.0508 49.0806 33.9769 47.8585 33.1934 47.2651C32.4098 46.6717 31.2134 46.9316 30.5211 47.8458C29.8288 48.7599 29.9028 49.982 30.6863 50.5754Z" fill="white" stroke="black" stroke-width="1.45834" stroke-miterlimit="10"/>
<path d="M37.7271 53.3031C38.5107 53.8965 39.7071 53.6365 40.3994 52.7224C41.0917 51.8083 41.0177 50.5862 40.2342 49.9928C39.4507 49.3994 38.2543 49.6594 37.562 50.5735C36.8696 51.4876 36.9436 52.7097 37.7271 53.3031Z" fill="white" stroke="black" stroke-width="1.45834" stroke-miterlimit="10"/>
<path d="M44.5654 56.8079C45.349 57.4013 46.5454 57.1413 47.2377 56.2272C47.93 55.313 47.856 54.091 47.0725 53.4976C46.289 52.9041 45.0926 53.1641 44.4003 54.0783C43.708 54.9924 43.7819 56.2145 44.5654 56.8079Z" fill="white" stroke="black" stroke-width="1.45834" stroke-miterlimit="10"/>
<path d="M2.46039 53.9412L3.65743 58.0104C3.65743 58.0104 20.8723 49.2817 54.9786 75.4843C88.9953 101.805 85.233 119.792 85.233 119.792L89.3561 119.752C89.3561 119.752 91.3694 95.2314 58.9791 69.9564C26.3523 44.5023 2.46039 53.9412 2.46039 53.9412Z" fill="white" stroke="black" stroke-width="1.45834" stroke-miterlimit="10"/>
<path d="M56.2589 67.896C56.2589 67.896 64.7094 43.2277 52.8929 26.6509L56.2589 67.896Z" fill="white"/>
<path d="M56.2589 67.896C56.2589 67.896 64.7094 43.2277 52.8929 26.6509" stroke="black" stroke-width="1.45834" stroke-miterlimit="10"/>
<path d="M61.5786 71.9249C61.5786 71.9249 83.0339 57.1058 102.193 63.9881L61.5786 71.9249Z" fill="white"/>
<path d="M61.5786 71.9249C61.5786 71.9249 83.0339 57.1058 102.193 63.9881" stroke="black" stroke-width="1.45834" stroke-miterlimit="10"/>
</svg>
