<svg width="177" height="403" viewBox="0 0 177 403" fill="none" xmlns="http://www.w3.org/2000/svg">
<path d="M108.915 2.6875L99.9146 15.6875L98.9146 1.1875C101.315 1.1875 106.915 1.85417 108.915 2.6875Z" fill="#A9D5F3" stroke="black" stroke-width="0.79" stroke-linejoin="round"/>
<path d="M33.3474 109.432L22.8464 141.238L26.9045 143.133L37.4055 111.327L33.3474 109.432Z" fill="#FFCA00"/>
<path d="M90.0722 198.864L89.9105 198.865L89.5174 198.867L89.5063 199.26L83.8323 401.085L40.6714 401.327L38.4323 163.845L37.6233 163.79L33.1106 194.448L2.30613 186.728L29.0806 50.5623C30.0844 45.4575 33.2703 41.047 37.801 38.4899L43.5053 35.2704L69.775 23.7365L89.0865 33.3523L90.0722 198.864Z" fill="#A9D5F3" stroke="black" stroke-width="0.813324"/>
<path d="M137.147 162.833L141.771 401.029L98.4277 401.272L90.6748 199.524L90.6597 199.13L90.2661 199.132L89.9147 199.134L88.9286 32.7792L108.414 23.7888L138.736 38.1278C143.868 40.5549 147.535 45.2838 148.609 50.8588L174.666 186.174L145.558 192.917L137.948 162.726L137.147 162.833Z" fill="#A9D5F3" stroke="black" stroke-width="0.813324"/>
<path d="M137.554 163.882V72.3833" stroke="black" stroke-width="0.813324"/>
<path d="M38.0208 163.882V72.3833" stroke="black" stroke-width="0.813324"/>
<path d="M84.8024 350.696L39.5587 350.951L39.4685 334.897L85.2532 334.64L84.8024 350.696Z" fill="#CCDCFF" stroke="black" stroke-width="0.813324"/>
<path d="M84.0043 377.464L39.7099 377.713L39.6411 365.482L84.2909 365.231L84.0043 377.464Z" fill="#CCDCFF" stroke="black" stroke-width="0.813324"/>
<path d="M97.4878 377.388L97.0637 365.16L141.713 364.909L141.782 377.139L97.4878 377.388Z" fill="#CCDCFF" stroke="black" stroke-width="0.813324"/>
<path d="M96.3842 350.631L95.5726 334.582L141.542 334.323L141.632 350.377L96.3842 350.631Z" fill="#CCDCFF" stroke="black" stroke-width="0.813324"/>
<path d="M111.468 269.419L111.122 207.712L138.162 207.56L138.509 269.267L111.468 269.419Z" fill="#173B66" stroke="black" stroke-width="0.813324"/>
<path d="M111.208 223.091L111.122 207.712L138.162 207.56L138.248 222.939L111.208 223.091Z" fill="#133054" stroke="black" stroke-width="0.813324"/>
<path d="M125.341 213.929C126.57 213.922 127.593 215.016 127.603 216.658C127.612 218.301 126.601 219.406 125.372 219.413C124.143 219.42 123.12 218.326 123.111 216.684C123.101 215.041 124.113 213.936 125.341 213.929Z" fill="#FFCA00" stroke="black" stroke-width="0.813324"/>
<path d="M39.1039 269.989L38.7571 208.282L65.7972 208.13L66.144 269.837L39.1039 269.989Z" fill="#173B66" stroke="black" stroke-width="0.813324"/>
<path d="M38.8435 223.661L38.7571 208.282L65.7972 208.13L65.8837 223.509L38.8435 223.661Z" fill="#133054" stroke="black" stroke-width="0.813324"/>
<path d="M49.4182 217.261C49.409 215.618 50.4202 214.514 51.6489 214.507C52.8776 214.5 53.9011 215.593 53.9104 217.236C53.9196 218.878 52.9084 219.983 51.6797 219.99C50.451 219.997 49.4275 218.904 49.4182 217.261Z" fill="#FFCA00" stroke="black" stroke-width="0.813324"/>
<path d="M90.2311 33.194L87.1995 33.2111L88.1075 194.778L91.1391 194.761L90.2311 33.194Z" fill="#133054"/>
<path d="M46.0578 91.6037L46.032 87.0196L79.325 86.8325L79.3507 91.4166L46.0578 91.6037Z" fill="#FFCA00" stroke="black" stroke-width="0.813324"/>
<path d="M46.1166 101.949L46.0908 97.3646L79.3838 97.1775L79.4096 101.762L46.1166 101.949Z" fill="#FFCA00" stroke="black" stroke-width="0.813324"/>
<path d="M98.4772 113.349L98.4514 108.765L130.608 108.584L130.633 113.169L98.4772 113.349Z" fill="#FFCA00" stroke="black" stroke-width="0.813324"/>
<path d="M98.1897 162.83L98.0603 139.804L107.858 139.749L107.987 162.774L98.1897 162.83Z" fill="#173B66" stroke="black" stroke-width="0.813324"/>
<path d="M98.0899 145.063L98.0603 139.804L107.858 139.749L107.887 145.008L98.0899 145.063Z" fill="#133054" stroke="black" stroke-width="0.813324"/>
<path d="M102.977 142.7C103.146 142.699 103.267 142.761 103.354 142.862C103.445 142.97 103.52 143.151 103.522 143.414C103.523 143.678 103.45 143.86 103.36 143.968C103.275 144.071 103.154 144.134 102.985 144.135C102.817 144.136 102.695 144.074 102.608 143.973C102.517 143.865 102.442 143.684 102.44 143.42C102.439 143.157 102.512 142.975 102.602 142.866C102.687 142.764 102.808 142.7 102.977 142.7Z" fill="#FFCA00" stroke="black" stroke-width="0.813324"/>
<path d="M109.939 162.763L109.809 139.737L119.607 139.682L119.736 162.708L109.939 162.763Z" fill="#173B66" stroke="black" stroke-width="0.813324"/>
<path d="M109.839 144.996L109.809 139.737L119.607 139.682L119.636 144.941L109.839 144.996Z" fill="#133054" stroke="black" stroke-width="0.813324"/>
<path d="M114.727 142.633C114.895 142.632 115.017 142.694 115.104 142.796C115.195 142.903 115.27 143.084 115.272 143.348C115.273 143.612 115.2 143.793 115.11 143.902C115.025 144.004 114.903 144.068 114.735 144.069C114.566 144.07 114.444 144.008 114.358 143.906C114.266 143.799 114.192 143.618 114.19 143.354C114.189 143.09 114.261 142.908 114.352 142.8C114.437 142.698 114.558 142.634 114.727 142.633Z" fill="#FFCA00" stroke="black" stroke-width="0.813324"/>
<path d="M121.686 162.697L121.556 139.671L131.354 139.616L131.483 162.642L121.686 162.697Z" fill="#173B66" stroke="black" stroke-width="0.813324"/>
<path d="M121.586 144.93L121.556 139.671L131.354 139.616L131.383 144.875L121.586 144.93Z" fill="#133054" stroke="black" stroke-width="0.813324"/>
<path d="M126.472 142.568C126.641 142.567 126.763 142.629 126.849 142.73C126.941 142.838 127.015 143.019 127.017 143.282C127.018 143.546 126.946 143.728 126.855 143.837C126.77 143.939 126.649 144.002 126.48 144.003C126.312 144.004 126.19 143.942 126.103 143.841C126.012 143.733 125.937 143.552 125.935 143.288C125.934 143.025 126.007 142.843 126.097 142.734C126.182 142.632 126.304 142.569 126.472 142.568Z" fill="#FFCA00" stroke="black" stroke-width="0.813324"/>
<path d="M46.0086 82.8335L45.8792 59.8081L55.6767 59.753L55.8061 82.7784L46.0086 82.8335Z" fill="#173B66" stroke="black" stroke-width="0.813324"/>
<path d="M45.9087 65.0669L45.8792 59.8081L55.6767 59.753L55.7062 65.0118L45.9087 65.0669Z" fill="#133054" stroke="black" stroke-width="0.813324"/>
<path d="M50.7983 62.7035C50.9669 62.7025 51.0887 62.7646 51.1751 62.8659C51.2668 62.9735 51.3416 63.1545 51.3431 63.4182C51.3446 63.6819 51.2718 63.8638 51.1813 63.9724C51.0961 64.0747 50.9749 64.1381 50.8064 64.1391C50.6378 64.14 50.516 64.078 50.4296 63.9766C50.3379 63.869 50.2631 63.688 50.2616 63.4243C50.2601 63.1606 50.3329 62.9787 50.4234 62.8702C50.5086 62.7678 50.6297 62.7044 50.7983 62.7035Z" fill="#FFCA00" stroke="black" stroke-width="0.813324"/>
<path d="M57.7598 82.7667L57.6304 59.7413L67.4279 59.6862L67.5573 82.7116L57.7598 82.7667Z" fill="#173B66" stroke="black" stroke-width="0.813324"/>
<path d="M57.6599 65.0001L57.6304 59.7413L67.4279 59.6862L67.4575 64.945L57.6599 65.0001Z" fill="#133054" stroke="black" stroke-width="0.813324"/>
<path d="M62.5444 62.6373C62.713 62.6363 62.8348 62.6984 62.9212 62.7998C63.0129 62.9073 63.0877 63.0884 63.0892 63.3521C63.0907 63.6158 63.0179 63.7976 62.9274 63.9062C62.8422 64.0086 62.721 64.072 62.5525 64.0729C62.3839 64.0739 62.2621 64.0118 62.1757 63.9104C62.084 63.8029 62.0092 63.6218 62.0077 63.3581C62.0062 63.0945 62.079 62.9126 62.1695 62.804C62.2547 62.7017 62.3758 62.6382 62.5444 62.6373Z" fill="#FFCA00" stroke="black" stroke-width="0.813324"/>
<path d="M69.3164 82.7017L69.187 59.6763L78.9845 59.6213L79.1139 82.6467L69.3164 82.7017Z" fill="#173B66" stroke="black" stroke-width="0.813324"/>
<path d="M79.3889 59.2123L68.7781 59.272L68.8122 65.3441L79.423 65.2845L79.3889 59.2123Z" fill="#133054"/>
<path d="M75.2427 63.284C75.2389 62.6093 74.8574 62.1616 74.2889 62.1648C73.7205 62.168 73.3441 62.62 73.3479 63.2946C73.3517 63.9693 73.7332 64.417 74.3016 64.4138C74.6805 64.4116 75.2465 63.9587 75.2427 63.284Z" fill="#FFCA00"/>
<path d="M98.0371 101.882L97.957 87.6271L107.755 87.5721L107.835 101.827L98.0371 101.882Z" fill="#173B66" stroke="black" stroke-width="0.813324"/>
<path d="M97.9866 92.886L97.957 87.6271L107.755 87.5721L107.784 92.8309L97.9866 92.886Z" fill="#133054" stroke="black" stroke-width="0.813324"/>
<path d="M102.869 90.2979C103.037 90.297 103.159 90.359 103.246 90.4604C103.337 90.568 103.412 90.749 103.414 91.0127C103.415 91.2764 103.342 91.4583 103.252 91.5668C103.167 91.6692 103.045 91.7326 102.877 91.7335C102.708 91.7345 102.587 91.6724 102.5 91.5711C102.408 91.4635 102.334 91.2825 102.332 91.0188C102.331 90.7551 102.403 90.5732 102.494 90.4646C102.579 90.3623 102.7 90.2989 102.869 90.2979Z" fill="#FFCA00" stroke="black" stroke-width="0.813324"/>
<path d="M109.785 101.815L109.705 87.5609L119.502 87.5058L119.582 101.76L109.785 101.815Z" fill="#173B66" stroke="black" stroke-width="0.813324"/>
<path d="M109.734 92.8197L109.705 87.5609L119.502 87.5058L119.532 92.7646L109.734 92.8197Z" fill="#133054" stroke="black" stroke-width="0.813324"/>
<path d="M114.619 90.232C114.787 90.2311 114.909 90.2931 114.995 90.3945C115.087 90.5021 115.162 90.6831 115.163 90.9468C115.165 91.2105 115.092 91.3923 115.002 91.5009C114.916 91.6033 114.795 91.6667 114.627 91.6676C114.458 91.6686 114.336 91.6065 114.25 91.5052C114.158 91.3976 114.083 91.2166 114.082 90.9529C114.08 90.6892 114.153 90.5073 114.244 90.3987C114.329 90.2964 114.45 90.233 114.619 90.232Z" fill="#FFCA00" stroke="black" stroke-width="0.813324"/>
<path d="M121.532 101.75L121.451 87.4951L131.249 87.44L131.329 101.695L121.532 101.75Z" fill="#173B66" stroke="black" stroke-width="0.813324"/>
<path d="M121.481 92.7539L121.451 87.4951L131.249 87.44L131.278 92.6988L121.481 92.7539Z" fill="#133054" stroke="black" stroke-width="0.813324"/>
<path d="M126.366 90.166C126.535 90.165 126.657 90.2271 126.743 90.3285C126.835 90.436 126.909 90.6171 126.911 90.8808C126.912 91.099 126.822 91.2828 126.696 91.4152C126.559 91.559 126.422 91.6013 126.374 91.6016C126.206 91.6025 126.084 91.5405 125.997 91.4391C125.906 91.3316 125.831 91.1505 125.829 90.8868C125.828 90.6231 125.901 90.4413 125.991 90.3327C126.076 90.2303 126.198 90.1669 126.366 90.166Z" fill="#FFCA00" stroke="black" stroke-width="0.813324"/>
<path d="M97.5553 83.6674L97.4146 58.618L131.276 58.4277L131.417 83.4771L97.5553 83.6674Z" fill="#173B66" stroke="black" stroke-width="0.813324"/>
<path d="M131.276 58.4277L131.312 64.9113L114.503 69.837L97.451 65.1006L97.4146 58.618L131.276 58.4277Z" fill="#133054" stroke="black" stroke-width="0.813324"/>
<path d="M114.573 68.2862L114.533 68.2787L114.494 68.2789C113.644 68.2837 112.811 67.414 112.804 66.2212C112.798 65.0283 113.621 64.1494 114.47 64.1446C115.32 64.1398 116.153 65.0095 116.16 66.2023C116.164 66.9126 115.953 67.49 115.649 67.8548C115.351 68.2125 114.973 68.3631 114.573 68.2862Z" fill="#FFCA00" stroke="black" stroke-width="0.813324"/>
<path d="M46.0839 163.347L45.9431 138.297L79.8045 138.107L79.9453 163.156L46.0839 163.347Z" fill="#173B66" stroke="black" stroke-width="0.813324"/>
<path d="M79.8045 138.107L79.8397 144.365L63.0303 149.291L45.9783 144.555L45.9431 138.297L79.8045 138.107Z" fill="#133054" stroke="black" stroke-width="0.813324"/>
<path d="M63.0001 143.824C63.8499 143.819 64.6827 144.689 64.6894 145.882C64.6961 147.074 63.8731 147.953 63.0234 147.958C62.1736 147.963 61.3408 147.093 61.3341 145.9C61.3274 144.708 62.1504 143.829 63.0001 143.824Z" fill="#FFCA00" stroke="black" stroke-width="0.813324"/>
<path d="M89.2331 115.617L88.6679 32.2111L65.9146 2.6875L64.2839 26.6399L70.824 40.4468L88.9102 32.2111L108.915 2.6875L113.294 26.6399L106.512 40.4468L88.6679 32.2111" fill="#A9D5F3"/>
<path d="M89.2331 115.617L88.6679 32.2111M88.6679 32.2111L65.9146 2.6875L64.2839 26.6399L70.824 40.4468L88.9102 32.2111L108.915 2.6875L113.294 26.6399L106.512 40.4468L88.6679 32.2111Z" stroke="black" stroke-width="0.793967" stroke-miterlimit="10" stroke-linecap="round" stroke-linejoin="round"/>
<path d="M44.6289 34.8661C44.1735 44.2768 39.8021 64.1 25.9592 68.1072" stroke="black" stroke-width="0.910714"/>
<path d="M132.968 35.7769C133.423 45.1876 138.25 65.0108 152.093 69.0179" stroke="black" stroke-width="0.910714"/>
<path d="M65.9146 2.68751C69.9146 1.1875 76.9146 0.6875 77.9146 1.1875L76.9146 16.6875L65.9146 2.68751Z" fill="#A9D5F3" stroke="black" stroke-width="0.79" stroke-linejoin="round"/>
<path d="M90.0982 33.6331L87.3368 33.6486L86.6414 32.5077L87.6769 31.0865L89.7293 31.075L90.7807 32.4845L90.0982 33.6331Z" fill="#FFCA00" stroke="black" stroke-width="0.813324"/>
<path d="M89.067 36.4864C88.9535 36.4025 88.8084 36.3394 88.6393 36.3403C88.4702 36.3413 88.3259 36.406 88.2133 36.4912C88.1536 36.0916 88.1133 35.6324 88.0971 35.1326L89.1679 35.1266C89.1574 35.6265 89.1223 36.0861 89.067 36.4864Z" fill="#FFCA00" stroke="black" stroke-width="0.813324"/>
<path d="M88.4654 34.3172L88.4636 34.0061L88.7872 34.0042L88.7889 34.3154L88.4654 34.3172Z" fill="#FFCA00" stroke="black" stroke-width="0.813324"/>
</svg>
