<svg width="335" height="462" viewBox="0 0 335 462" fill="none" xmlns="http://www.w3.org/2000/svg">
<path d="M64.3349 48.331C64.3349 48.331 83.2685 31.9974 104.659 31.1947L112.58 49.8356L80.9922 63.2596L64.3349 48.331Z" fill="#A9D5F3" stroke="black" stroke-width="0.833347" stroke-miterlimit="10" stroke-linecap="round" stroke-linejoin="round"/>
<path d="M76.3536 164.623L79.2668 199.658L83.9649 199.823L81.0517 164.788L76.3536 164.623Z" fill="#FFCA00"/>
<path d="M167.863 227.726L167.708 227.794L167.329 227.957L167.479 228.341L244.851 425.631L203.257 443.583L103.604 215.097L102.797 215.365L110.118 246.589L78.0993 252.028L46.2918 101.087L55.7225 88.8129L76.3639 66.8872L98.966 68.2482L167.863 227.726Z" fill="#A9D5F3" stroke="black" stroke-width="0.853665"/>
<path d="M221.149 198.944L203.471 170.781L202.717 171.174L300.971 402.379L259.195 420.41L168.885 228.706L168.709 228.332L168.33 228.496L167.991 228.642L98.7469 68.3496L113.879 51.6658L158.528 53.4478L244.543 181.336L221.149 198.944Z" fill="#A9D5F3" stroke="black" stroke-width="0.853665"/>
<path d="M203.787 172.565L166.226 84.1781" stroke="black" stroke-width="0.853665"/>
<path d="M103.222 215.302L65.6599 126.915" stroke="black" stroke-width="0.853665"/>
<path d="M225.103 376.558L181.502 395.377L174.825 379.906L218.947 360.862L225.103 376.558Z" fill="#CCDCFF" stroke="black" stroke-width="0.853665"/>
<path d="M235.319 402.743L192.634 421.167L187.546 409.381L230.575 390.809L235.319 402.743Z" fill="#CCDCFF" stroke="black" stroke-width="0.853665"/>
<path d="M248.312 397.135L242.883 385.496L285.911 366.925L290.998 378.711L248.312 397.135Z" fill="#CCDCFF" stroke="black" stroke-width="0.853665"/>
<path d="M236.263 371.741L228.89 356.57L273.19 337.45L279.868 352.92L236.263 371.741Z" fill="#CCDCFF" stroke="black" stroke-width="0.853665"/>
<path d="M220.134 286.146L194.467 226.68L220.526 215.433L246.192 274.899L220.134 286.146Z" fill="#173B66" stroke="black" stroke-width="0.853665"/>
<path d="M200.864 241.5L194.467 226.68L220.526 215.433L226.922 230.253L200.864 241.5Z" fill="#133054" stroke="black" stroke-width="0.853665"/>
<path d="M210.756 226.848C211.94 226.337 213.378 226.973 214.061 228.556C214.744 230.139 214.221 231.622 213.037 232.133C211.853 232.644 210.415 232.008 209.732 230.425C209.049 228.842 209.572 227.359 210.756 226.848Z" fill="#FFCA00" stroke="black" stroke-width="0.853665"/>
<path d="M147.826 317.356L122.159 257.89L148.217 246.643L173.884 306.109L147.826 317.356Z" fill="#173B66" stroke="black" stroke-width="0.853665"/>
<path d="M128.556 272.71L122.159 257.89L148.217 246.643L154.614 261.463L128.556 272.71Z" fill="#133054" stroke="black" stroke-width="0.853665"/>
<path d="M136.146 262.187C135.462 260.604 135.985 259.121 137.17 258.61C138.354 258.099 139.791 258.735 140.475 260.318C141.158 261.901 140.635 263.384 139.451 263.895C138.266 264.406 136.829 263.77 136.146 262.187Z" fill="#FFCA00" stroke="black" stroke-width="0.853665"/>
<path d="M100.007 67.6252L97.0854 68.8862L164.288 224.586L167.21 223.325L100.007 67.6252Z" fill="#133054"/>
<path d="M81.3145 142.182L79.4077 137.765L111.492 123.917L113.398 128.334L81.3145 142.182Z" fill="#FFCA00" stroke="black" stroke-width="0.853665"/>
<path d="M85.6178 152.151L83.7111 147.734L115.795 133.886L117.702 138.303L85.6178 152.151Z" fill="#FFCA00" stroke="black" stroke-width="0.853665"/>
<path d="M140.879 141.669L138.973 137.251L169.961 123.876L171.868 128.294L140.879 141.669Z" fill="#FFCA00" stroke="black" stroke-width="0.853665"/>
<path d="M160.911 189.585L151.334 167.396L160.776 163.321L170.353 185.51L160.911 189.585Z" fill="#173B66" stroke="black" stroke-width="0.853665"/>
<path d="M153.522 172.464L151.334 167.396L160.776 163.321L162.963 168.388L153.522 172.464Z" fill="#133054" stroke="black" stroke-width="0.853665"/>
<path d="M157.274 168.174C157.436 168.104 157.579 168.114 157.704 168.176C157.837 168.243 157.984 168.387 158.093 168.641C158.203 168.895 158.207 169.101 158.165 169.243C158.124 169.377 158.033 169.487 157.871 169.558C157.708 169.628 157.565 169.618 157.44 169.555C157.308 169.489 157.161 169.345 157.051 169.091C156.942 168.837 156.937 168.631 156.98 168.489C157.02 168.355 157.111 168.244 157.274 168.174Z" fill="#FFCA00" stroke="black" stroke-width="0.853665"/>
<path d="M172.232 184.698L162.655 162.509L172.096 158.433L181.674 180.623L172.232 184.698Z" fill="#173B66" stroke="black" stroke-width="0.853665"/>
<path d="M164.842 167.577L162.655 162.509L172.096 158.433L174.284 163.501L164.842 167.577Z" fill="#133054" stroke="black" stroke-width="0.853665"/>
<path d="M168.594 163.288C168.756 163.218 168.899 163.228 169.024 163.29C169.157 163.356 169.304 163.501 169.413 163.755C169.523 164.009 169.527 164.214 169.484 164.356C169.444 164.49 169.353 164.601 169.191 164.671C169.028 164.741 168.885 164.732 168.76 164.669C168.627 164.603 168.481 164.459 168.371 164.205C168.261 163.95 168.257 163.745 168.3 163.603C168.34 163.469 168.431 163.358 168.594 163.288Z" fill="#FFCA00" stroke="black" stroke-width="0.853665"/>
<path d="M183.553 179.812L173.976 157.622L183.418 153.547L192.995 175.736L183.553 179.812Z" fill="#173B66" stroke="black" stroke-width="0.853665"/>
<path d="M176.163 162.69L173.976 157.622L183.418 153.547L185.605 158.615L176.163 162.69Z" fill="#133054" stroke="black" stroke-width="0.853665"/>
<path d="M179.913 158.401C180.076 158.331 180.219 158.341 180.344 158.404C180.477 158.47 180.623 158.614 180.733 158.868C180.843 159.122 180.847 159.328 180.804 159.47C180.764 159.604 180.673 159.715 180.51 159.785C180.348 159.855 180.205 159.845 180.08 159.783C179.947 159.716 179.8 159.572 179.691 159.318C179.581 159.064 179.577 158.858 179.62 158.716C179.66 158.582 179.751 158.471 179.913 158.401Z" fill="#FFCA00" stroke="black" stroke-width="0.853665"/>
<path d="M77.6658 133.73L68.0885 111.541L77.5302 107.466L87.1075 129.655L77.6658 133.73Z" fill="#173B66" stroke="black" stroke-width="0.853665"/>
<path d="M70.2759 116.609L68.0885 111.541L77.5302 107.466L79.7176 112.534L70.2759 116.609Z" fill="#133054" stroke="black" stroke-width="0.853665"/>
<path d="M74.0285 112.32C74.191 112.25 74.3342 112.26 74.4592 112.322C74.5919 112.388 74.7385 112.533 74.8482 112.787C74.9579 113.041 74.9622 113.246 74.9194 113.388C74.8791 113.522 74.7881 113.633 74.6257 113.703C74.4632 113.773 74.3201 113.764 74.195 113.701C74.0623 113.635 73.9157 113.491 73.806 113.237C73.6963 112.982 73.692 112.777 73.7348 112.635C73.7751 112.501 73.8661 112.39 74.0285 112.32Z" fill="#FFCA00" stroke="black" stroke-width="0.853665"/>
<path d="M88.9868 128.843L79.4095 106.654L88.8513 102.579L98.4285 124.768L88.9868 128.843Z" fill="#173B66" stroke="black" stroke-width="0.853665"/>
<path d="M81.5969 111.722L79.4095 106.654L88.8513 102.579L91.0386 107.647L81.5969 111.722Z" fill="#133054" stroke="black" stroke-width="0.853665"/>
<path d="M85.3467 107.433C85.5092 107.363 85.6523 107.373 85.7774 107.436C85.9101 107.502 86.0567 107.646 86.1664 107.9C86.2761 108.154 86.2804 108.36 86.2376 108.502C86.1973 108.636 86.1063 108.747 85.9439 108.817C85.7814 108.887 85.6383 108.877 85.5132 108.814C85.3805 108.748 85.2339 108.604 85.1242 108.35C85.0145 108.096 85.0102 107.89 85.053 107.748C85.0933 107.614 85.1843 107.503 85.3467 107.433Z" fill="#FFCA00" stroke="black" stroke-width="0.853665"/>
<path d="M100.126 124.036L90.5489 101.847L99.9906 97.7713L109.568 119.96L100.126 124.036Z" fill="#173B66" stroke="black" stroke-width="0.853665"/>
<path d="M92.7353 106.917L90.5465 101.846L99.9915 97.7689L102.18 102.84L92.7353 106.917Z" fill="#133054" stroke="black" stroke-width="0.85"/>
<path d="M96.6678 102.546C96.8307 102.476 96.9744 102.486 97.1 102.548C97.2332 102.615 97.38 102.759 97.4899 103.014C97.5808 103.225 97.5693 103.44 97.5017 103.62C97.4284 103.815 97.3128 103.913 97.2664 103.933C97.1034 104.003 96.9597 103.993 96.8341 103.931C96.701 103.864 96.5541 103.72 96.4443 103.465C96.3345 103.211 96.33 103.005 96.373 102.862C96.4135 102.728 96.5049 102.616 96.6678 102.546Z" fill="#FFCA00" stroke="black" stroke-width="0.85"/>
<path d="M135.743 130.773L129.814 117.036L139.256 112.961L145.185 126.698L135.743 130.773Z" fill="#173B66" stroke="black" stroke-width="0.853665"/>
<path d="M132.001 122.104L129.814 117.036L139.256 112.961L141.443 118.029L132.001 122.104Z" fill="#133054" stroke="black" stroke-width="0.853665"/>
<path d="M135.656 117.6C135.819 117.529 135.962 117.539 136.087 117.602C136.22 117.668 136.366 117.812 136.476 118.066C136.586 118.32 136.59 118.526 136.547 118.668C136.507 118.802 136.416 118.913 136.254 118.983C136.091 119.053 135.948 119.043 135.823 118.981C135.69 118.914 135.544 118.77 135.434 118.516C135.324 118.262 135.32 118.056 135.363 117.914C135.403 117.781 135.494 117.67 135.656 117.6Z" fill="#FFCA00" stroke="black" stroke-width="0.853665"/>
<path d="M147.063 125.887L141.134 112.15L150.576 108.075L156.505 121.812L147.063 125.887Z" fill="#173B66" stroke="black" stroke-width="0.853665"/>
<path d="M143.322 117.218L141.134 112.15L150.576 108.075L152.763 113.143L143.322 117.218Z" fill="#133054" stroke="black" stroke-width="0.853665"/>
<path d="M146.977 112.713C147.14 112.643 147.283 112.653 147.408 112.716C147.541 112.782 147.687 112.926 147.797 113.18C147.907 113.434 147.911 113.64 147.868 113.782C147.828 113.916 147.737 114.027 147.575 114.097C147.412 114.167 147.269 114.157 147.144 114.094C147.011 114.028 146.865 113.884 146.755 113.63C146.645 113.376 146.641 113.17 146.684 113.028C146.724 112.894 146.815 112.783 146.977 112.713Z" fill="#FFCA00" stroke="black" stroke-width="0.853665"/>
<path d="M158.384 121.001L152.455 107.264L161.897 103.189L167.826 116.926L158.384 121.001Z" fill="#173B66" stroke="black" stroke-width="0.853665"/>
<path d="M154.643 112.332L152.455 107.264L161.897 103.189L164.084 108.256L154.643 112.332Z" fill="#133054" stroke="black" stroke-width="0.853665"/>
<path d="M158.299 107.827C158.462 107.757 158.605 107.767 158.73 107.829C158.863 107.895 159.009 108.04 159.119 108.294C159.21 108.504 159.198 108.718 159.131 108.898C159.057 109.093 158.942 109.19 158.896 109.21C158.734 109.28 158.591 109.27 158.466 109.208C158.333 109.142 158.186 108.998 158.077 108.743C157.967 108.489 157.963 108.284 158.005 108.142C158.046 108.008 158.137 107.897 158.299 107.827Z" fill="#FFCA00" stroke="black" stroke-width="0.853665"/>
<path d="M127.802 113.376L117.382 89.2364L150.014 75.1519L160.433 99.2917L127.802 113.376Z" fill="#173B66" stroke="black" stroke-width="0.853665"/>
<path d="M150.014 75.1519L152.711 81.4L138.495 93.0588L120.079 95.4836L117.382 89.2364L150.014 75.1519Z" fill="#133054" stroke="black" stroke-width="0.853665"/>
<path d="M137.926 91.5319L137.885 91.5407L137.847 91.5572C137.028 91.9107 135.866 91.4125 135.37 90.2629C134.874 89.1134 135.308 87.9265 136.127 87.573C136.946 87.2196 138.107 87.7178 138.603 88.8674C138.899 89.5518 138.932 90.1962 138.788 90.6734C138.647 91.1412 138.344 91.4418 137.926 91.5319Z" fill="#FFCA00" stroke="black" stroke-width="0.853665"/>
<path d="M110.79 211.475L100.371 187.335L133.002 173.251L143.422 197.39L110.79 211.475Z" fill="#173B66" stroke="black" stroke-width="0.853665"/>
<path d="M133.002 173.251L135.606 179.282L121.39 190.941L102.974 193.366L100.371 187.335L133.002 173.251Z" fill="#133054" stroke="black" stroke-width="0.853665"/>
<path d="M119.115 185.672C119.934 185.319 121.096 185.817 121.592 186.966C122.088 188.116 121.654 189.303 120.835 189.656C120.016 190.01 118.855 189.511 118.358 188.362C117.862 187.212 118.296 186.025 119.115 185.672Z" fill="#FFCA00" stroke="black" stroke-width="0.853665"/>
<path d="M132.878 147.655L98.0923 67.3179L64.3327 48.3312L72.2505 71.9462L84.2361 82.5987L98.3263 67.2185L104.656 31.1948L119.594 51.8267L118.71 67.9482L98.0923 67.3179" fill="#A9D5F3"/>
<path d="M132.878 147.655L98.0923 67.3179M98.0923 67.3179L64.3327 48.3312L72.2505 71.9462L84.2361 82.5987L98.3263 67.2185L104.656 31.1948L119.594 51.8267L118.71 67.9482L98.0923 67.3179Z" stroke="black" stroke-width="0.833347" stroke-miterlimit="10" stroke-linecap="round" stroke-linejoin="round"/>
<path d="M100.058 68.1046L97.3967 69.2532L96.2566 68.4366L96.6734 66.6387L98.6513 65.785L100.246 66.7149L100.058 68.1046Z" fill="#FFCA00" stroke="black" stroke-width="0.853665"/>
<path d="M100.233 71.2836C100.089 71.2491 99.9228 71.2477 99.7599 71.318C99.5969 71.3884 99.484 71.5102 99.4103 71.6387C99.1885 71.2771 98.9611 70.8501 98.7403 70.374L99.7722 69.9286C99.9673 70.4158 100.122 70.8742 100.233 71.2836Z" fill="#FFCA00" stroke="black" stroke-width="0.853665"/>
<path d="M98.7628 69.4353L98.6334 69.1355L98.9452 69.0009L99.0747 69.3007L98.7628 69.4353Z" fill="#FFCA00" stroke="black" stroke-width="0.853665"/>
</svg>
