<svg width="112" height="29" viewBox="0 0 112 29" fill="none" xmlns="http://www.w3.org/2000/svg">
<path d="M102.909 1H77.5549H71.2988H40.3476H40.0183H8.90244C4.62196 1 1 4.45732 1 8.90244V20.0976C1 24.3781 4.45732 28 8.90244 28H40.5122C44.7927 28 48.4146 24.5427 48.4146 20.0976V18.9451C48.4146 14.8293 51.8719 11.372 55.9878 11.372C60.1037 11.372 63.561 14.8293 63.561 18.9451V20.0976C63.561 24.3781 67.0183 28 71.4634 28H103.073C107.354 28 110.976 24.5427 110.976 20.0976V8.90244C110.811 4.62196 107.354 1 102.909 1Z" fill="#FCC503" stroke="black" stroke-width="1.61892" stroke-miterlimit="10"/>
<path d="M75.2501 10.3837L87.9269 18.6154" stroke="white" stroke-width="0.997353" stroke-miterlimit="10" stroke-linecap="round" stroke-linejoin="round"/>
<path d="M81.6738 7.58545L94.3507 15.6525" stroke="white" stroke-width="0.997353" stroke-miterlimit="10" stroke-linecap="round" stroke-linejoin="round"/>
<path d="M16.3099 10.3837L28.9868 18.6154" stroke="white" stroke-width="0.997353" stroke-miterlimit="10" stroke-linecap="round" stroke-linejoin="round"/>
<path d="M22.5667 7.58545L35.2435 15.6525" stroke="white" stroke-width="0.997353" stroke-miterlimit="10" stroke-linecap="round" stroke-linejoin="round"/>
</svg>
