<svg width="56" height="15" viewBox="0 0 56 15" fill="none" xmlns="http://www.w3.org/2000/svg">
<path d="M50.9791 1H38.5449H35.4767H20.2973H20.1358H4.8756C2.77632 1 1 2.69558 1 4.87561V10.366C1 12.4653 2.69558 14.2416 4.8756 14.2416H20.378C22.4773 14.2416 24.2536 12.5461 24.2536 10.366V9.80085C24.2536 7.78231 25.9492 6.08673 27.9677 6.08673C29.9863 6.08673 31.6819 7.78231 31.6819 9.80085V10.366C31.6819 12.4653 33.3774 14.2416 35.5574 14.2416H51.0599C53.1592 14.2416 54.9355 12.5461 54.9355 10.366V4.87561C54.8547 2.77632 53.1591 1 50.9791 1Z" fill="#FCC503" stroke="black" stroke-width="0.793967" stroke-miterlimit="10"/>
<path d="M37.4126 5.60217L43.6297 9.63926" stroke="white" stroke-width="0.489133" stroke-miterlimit="10" stroke-linecap="round" stroke-linejoin="round"/>
<path d="M40.5627 4.22961L46.7799 8.18596" stroke="white" stroke-width="0.489133" stroke-miterlimit="10" stroke-linecap="round" stroke-linejoin="round"/>
<path d="M8.50635 5.60217L14.7235 9.63926" stroke="white" stroke-width="0.489133" stroke-miterlimit="10" stroke-linecap="round" stroke-linejoin="round"/>
<path d="M11.5764 4.22961L17.7935 8.18596" stroke="white" stroke-width="0.489133" stroke-miterlimit="10" stroke-linecap="round" stroke-linejoin="round"/>
</svg>
