<svg width="171" height="81" viewBox="0 0 171 81" fill="none" xmlns="http://www.w3.org/2000/svg">
<path d="M162.564 19.0673L169.76 50.1089L169.761 50.1123C171.151 55.8844 170.08 61.9738 166.986 66.6674L166.985 66.669L158.823 79.1846C157.579 80.998 155.006 80.9126 153.849 78.9838L153.842 78.9715L153.833 78.9598C153.172 78.0147 153.155 76.7597 153.65 75.665L158.656 65.437L158.656 65.4356C160.433 61.7704 161.102 57.438 160.324 53.3207L159.889 50.7123L159.104 50.6451L156.709 57.5036L156.709 57.5036L156.707 57.5091C156.129 59.243 154.412 60.0109 152.768 59.4327C151.235 58.8553 150.338 57.1033 150.635 55.4222L150.635 55.4201L152.703 43.3361L152.722 43.2264L152.683 43.1224C150.431 37.2241 150.671 31.8354 151.476 27.9177C151.879 25.9587 152.422 24.3697 152.864 23.2724C153.084 22.7239 153.28 22.2988 153.419 22.0122C153.477 21.8927 153.525 21.7973 153.561 21.7272L162.564 19.0673Z" fill="#FFCA00" stroke="black" stroke-width="0.813324"/>
<path d="M17.8493 41.6788L17.8099 41.7824L17.8285 41.8916L19.8707 53.8732L19.871 53.8752C20.1639 55.542 19.2784 57.2772 17.7673 57.8485C16.1486 58.4202 14.4564 57.6616 13.8862 55.9435L13.8862 55.9435L13.8843 55.9381L11.5197 49.1377L10.7344 49.2047L10.3052 51.791C9.53716 55.8737 10.197 60.1698 11.9517 63.8044L11.9523 63.8057L16.8939 73.947C17.3831 75.0319 17.366 76.2755 16.7135 77.2116L16.7053 77.2233L16.698 77.2356C15.557 79.1453 13.0228 79.2294 11.7966 77.4347L3.73798 65.0252L3.73691 65.0236C0.683177 60.3705 -0.373982 54.3333 0.997871 48.6105L0.99864 48.6071L8.10263 17.8333L16.9827 20.4682C17.0184 20.5376 17.0658 20.6316 17.1227 20.7492C17.26 21.0333 17.4526 21.4548 17.6705 21.9985C18.1065 23.0864 18.6428 24.6618 19.0402 26.604C19.8349 30.4883 20.0726 35.831 17.8493 41.6788Z" fill="#FFCA00" stroke="black" stroke-width="0.813324"/>
</svg>
