<svg width="114" height="103" viewBox="0 0 114 103" fill="none" xmlns="http://www.w3.org/2000/svg">
<path d="M57.6754 84.789L57.6589 84.8197L57.6475 84.8526C57.1799 86.2103 55.1732 87.2648 53.1817 86.5545C52.2027 86.2054 51.4212 85.4675 50.9493 84.625C50.4831 83.7928 50.3493 82.9171 50.5562 82.2625C50.5615 82.2529 50.5666 82.2435 50.5712 82.2347C50.5891 82.201 50.6118 82.1559 50.6379 82.1027C50.6907 81.9952 50.764 81.8417 50.8543 81.6502C51.035 81.2664 51.2871 80.7228 51.5862 80.0735C52.1844 78.7747 52.9721 77.0494 53.7564 75.3265C54.5408 73.6036 55.3219 71.8827 55.907 70.5925C56.1995 69.9475 56.443 69.41 56.6134 69.0339L56.8111 68.5973L56.8632 68.4823L56.8765 68.4528L56.8799 68.4454L56.8807 68.4435L56.881 68.443C56.881 68.4429 56.881 68.4428 56.4922 68.2669L56.881 68.4428L57.4577 67.1686L56.2678 67.9037L56.2573 67.9102L56.2463 67.9171L56.2346 67.9243L56.2224 67.9318L56.2096 67.9397L56.1962 67.948L56.1823 67.9566L56.1678 67.9655L56.1527 67.9748L56.1371 67.9845L56.1209 67.9945L56.1042 68.0048L56.0869 68.0155L56.0691 68.0265L56.0507 68.0379L56.0318 68.0496L56.0123 68.0616L55.9923 68.074L55.9717 68.0867L55.9506 68.0997L55.929 68.1131L55.9069 68.1268L55.8842 68.1408L55.8609 68.1551L55.8372 68.1698L55.8129 68.1848L55.7882 68.2001L55.7629 68.2157L55.737 68.2317L55.7107 68.2479L55.6839 68.2645L55.6565 68.2814L55.6287 68.2986L55.6003 68.3162L55.5714 68.334L55.5421 68.3521L55.5122 68.3706L55.4819 68.3893L55.451 68.4084L55.4197 68.4277L55.3879 68.4474L55.3556 68.4674L55.3228 68.4876L55.2895 68.5082L55.2558 68.529L55.2215 68.5502L55.1868 68.5716L55.1517 68.5933L55.116 68.6154L55.0799 68.6377L55.0434 68.6602L55.0063 68.6831L54.9688 68.7063L54.9309 68.7297L54.8925 68.7535L54.8537 68.7775L54.8144 68.8017L54.7746 68.8263L54.7344 68.8511L54.6938 68.8762L54.6527 68.9016L54.6112 68.9273L54.5692 68.9532L54.5268 68.9794L54.484 69.0058L54.4408 69.0325L54.3971 69.0595L54.353 69.0868L54.3085 69.1143L54.2636 69.142L54.2182 69.17L54.1725 69.1983L54.1263 69.2269L54.0797 69.2556L54.0327 69.2847L53.9853 69.314L53.9375 69.3435L53.8893 69.3733L53.8407 69.4033L53.7917 69.4336L53.7423 69.4641L53.6925 69.4949L53.6423 69.5258L53.5918 69.5571L53.5408 69.5886L53.4895 69.6203L53.4378 69.6522L53.3857 69.6844L53.3333 69.7168L53.2804 69.7494L53.2272 69.7823L53.1737 69.8154L53.1197 69.8487L53.0655 69.8823L53.0108 69.916L52.9558 69.95L52.9004 69.9842L52.8447 70.0187L52.7886 70.0533L52.7322 70.0882L52.6754 70.1232L52.6183 70.1585L52.5609 70.194L52.5031 70.2297L52.4449 70.2656L52.3865 70.3018L52.3277 70.3381L52.2685 70.3746L52.2091 70.4113L52.1493 70.4483L52.0892 70.4854L52.0288 70.5227L51.968 70.5603L51.907 70.598L51.8456 70.6359L51.7839 70.674L51.7219 70.7123L51.6596 70.7508L51.597 70.7895L51.5341 70.8284L51.4709 70.8674L51.4074 70.9066L51.3436 70.9461L51.2795 70.9857L51.2151 71.0254L51.1505 71.0654L51.0855 71.1055L51.0203 71.1458L50.9548 71.1863L50.889 71.227L50.8229 71.2678L50.7566 71.3088L50.69 71.3499L50.6231 71.3912L50.5559 71.4327L50.4885 71.4744L50.4208 71.5162L50.3529 71.5582L50.2847 71.6003L50.2162 71.6426L50.1475 71.685L50.0786 71.7276L50.0094 71.7704L49.9399 71.8133L49.8703 71.8564L49.8003 71.8996L49.7302 71.9429L49.6598 71.9864L49.5891 72.0301L49.5182 72.0738L49.4471 72.1178L49.3758 72.1618L49.3043 72.206L49.2325 72.2504L49.1605 72.2949L49.0883 72.3395L49.0159 72.3842L48.9432 72.4291L48.8704 72.4741L48.7973 72.5192L48.7241 72.5645L48.6506 72.6099L48.577 72.6554L48.5031 72.701L48.429 72.7468L48.3548 72.7927L48.2803 72.8387L48.2057 72.8848L48.1309 72.931L48.0559 72.9773L47.9807 73.0238L47.9053 73.0703L47.8298 73.117L47.7541 73.1638L47.6782 73.2107L47.6021 73.2577L47.5259 73.3048L47.4495 73.352L47.3729 73.3993L47.2962 73.4467L47.2193 73.4942L47.1423 73.5418L47.0651 73.5895L46.9878 73.6372L46.9103 73.6851L46.8327 73.7331L46.7549 73.7811L46.677 73.8293L46.5989 73.8775L46.5207 73.9258L46.4424 73.9742L46.3639 74.0227L46.2853 74.0713L46.2066 74.1199L46.1277 74.1686L46.0487 74.2174L45.9696 74.2663L45.8904 74.3152L45.8111 74.3642L45.7317 74.4133L45.6521 74.4625L45.5724 74.5117L45.4927 74.561L45.4128 74.6103L45.3328 74.6597L45.2527 74.7092L45.1726 74.7587L45.0923 74.8083L45.0119 74.858L44.9315 74.9077L44.8509 74.9575L44.7703 75.0073L44.6896 75.0571L44.6088 75.1071L44.5279 75.157L44.447 75.207L44.3659 75.2571L44.2849 75.3072L44.2037 75.3573L44.1225 75.4075L44.0412 75.4577L43.9598 75.508L43.8784 75.5583L43.7969 75.6087L43.7154 75.659L43.6338 75.7094L43.5522 75.7599L43.4705 75.8103L43.3888 75.8608L43.307 75.9113L43.2252 75.9619L43.1433 76.0125L43.0614 76.0631L42.9795 76.1137L42.8976 76.1643L42.8156 76.215L42.7336 76.2656L42.6515 76.3163L42.5695 76.367L42.4874 76.4177L42.4053 76.4684L42.3232 76.5192L42.2411 76.5699L42.1589 76.6206L42.0768 76.6714L41.9947 76.7221L41.9125 76.7729L41.8304 76.8237L41.7482 76.8744L41.6661 76.9252L41.5839 76.9759L41.5018 77.0267L41.4197 77.0774L41.3375 77.1281L41.2555 77.1788L41.1734 77.2296L41.0913 77.2803L41.0093 77.3309L40.9273 77.3816L40.8453 77.4323L40.7633 77.4829L40.6814 77.5335L40.5995 77.5841L40.5177 77.6347L40.4359 77.6852L40.3541 77.7357L40.2724 77.7862L40.1907 77.8367L40.109 77.8871L40.0275 77.9375L39.9459 77.9879L39.8644 78.0383L39.783 78.0886L39.7017 78.1388L39.6204 78.1891L39.5391 78.2392L39.458 78.2894L39.3769 78.3395L39.2959 78.3896L39.2149 78.4396L39.134 78.4895L39.0532 78.5394L38.9725 78.5893L38.8919 78.6391L38.8113 78.6889L38.7309 78.7386L38.6505 78.7883L38.5702 78.8379L38.4901 78.8874L38.41 78.9369L38.33 78.9863L38.2501 79.0356L38.1703 79.0849L38.0907 79.1341L38.0111 79.1833L37.9317 79.2324L37.8523 79.2814L37.7731 79.3303L37.694 79.3792L37.615 79.428L37.5362 79.4767L37.4575 79.5254L37.3788 79.5739L37.3004 79.6224L37.222 79.6708L37.1438 79.7191L37.0658 79.7674L36.9878 79.8155L36.9101 79.8636L36.8324 79.9115L36.7549 79.9594L36.6776 80.0072L36.6004 80.0549L36.5233 80.1025L36.4465 80.15L36.3697 80.1974L36.2932 80.2447L36.2168 80.2919L36.1405 80.339L36.0645 80.386L35.9886 80.4329L35.9129 80.4797L35.8373 80.5263L35.7619 80.5729L35.6867 80.6194L35.6117 80.6657L35.5369 80.7119L35.4623 80.7581L35.3878 80.8041L35.3136 80.8499L35.2395 80.8957L35.1656 80.9413L35.092 80.9868L35.0185 81.0322L34.9452 81.0775L34.8722 81.1226L34.7993 81.1677L34.7267 81.2125L34.6542 81.2573L34.582 81.3019L34.51 81.3464L34.4382 81.3907L34.3667 81.4349L34.2954 81.479L34.2242 81.5229L34.1534 81.5667L34.0827 81.6104L34.0123 81.6539L33.9421 81.6972L33.8722 81.7405L33.8025 81.7835L33.7331 81.8264L33.6638 81.8692L33.5949 81.9118L33.5262 81.9542L33.4577 81.9965L33.3895 82.0387L33.3216 82.0807L33.2539 82.1225L33.1865 82.1641L33.1193 82.2056L33.0524 82.247L32.9858 82.2881L32.9194 82.3291L32.8533 82.3699L32.7875 82.4106L32.722 82.4511L32.6568 82.4914L32.5918 82.5315L32.5271 82.5715L32.4627 82.6113L32.3986 82.6509L32.3348 82.6903L32.2713 82.7295L32.2081 82.7686L32.1452 82.8075L32.0826 82.8461L32.0203 82.8846L31.9583 82.9229L31.8966 82.9611L31.8352 82.999L31.7741 83.0367L31.7134 83.0742L31.6529 83.1116L31.5928 83.1487L31.533 83.1857L31.4736 83.2224L31.4144 83.2589L31.3556 83.2953L31.2971 83.3314L31.239 83.3673L31.1812 83.403L31.1237 83.4385L31.0666 83.4738L31.0098 83.5089L30.9534 83.5438L30.8973 83.5784L30.8416 83.6129L30.7862 83.6471L30.7312 83.6811L30.6765 83.7149L30.6222 83.7484L30.5682 83.7817L30.5147 83.8148L30.4615 83.8477L30.4086 83.8804L30.3561 83.9128L30.3041 83.945L30.2523 83.9769L30.201 84.0086L30.15 84.0401L30.0995 84.0714L30.0493 84.1024L29.9995 84.1331L29.9501 84.1637L29.9011 84.1939L29.8525 84.224L29.8042 84.2538L29.7564 84.2833L29.709 84.3126L29.662 84.3416L29.6154 84.3704L29.5692 84.399L29.5234 84.4273L29.4781 84.4553L29.4331 84.4831L29.3886 84.5106L29.3445 84.5378L29.3008 84.5648L29.2575 84.5915L29.2147 84.618L29.1723 84.6442L29.1303 84.6701L29.0888 84.6958L29.0477 84.7212L29.0071 84.7463L28.9669 84.7711L28.9271 84.7957L28.8878 84.82L28.8489 84.844L28.8105 84.8677L28.7725 84.8912L28.735 84.9143L28.698 84.9372L28.6614 84.9598L28.6253 84.9822L28.5896 85.0042L28.5545 85.0259L28.5197 85.0474L28.4855 85.0685L28.4517 85.0894L28.4185 85.1099L28.3857 85.1302L28.3533 85.1502L28.3215 85.1698L28.2901 85.1892L28.2593 85.2083L28.2289 85.227L28.199 85.2455L28.1697 85.2637L28.1408 85.2815L28.1124 85.299L28.0845 85.3163L28.0572 85.3332L28.0303 85.3498L28.004 85.366L27.9781 85.382L27.9528 85.3976L27.928 85.413L27.9037 85.428L27.88 85.4426L27.8567 85.457L27.834 85.471L27.8119 85.4847L27.7902 85.4981L27.7691 85.5111L27.7485 85.5238L27.7285 85.5362L27.709 85.5483L27.6901 85.56L27.6716 85.5713L27.6538 85.5824L27.6365 85.5931L27.6197 85.6034L27.6035 85.6134L27.5879 85.6231L27.5728 85.6324L27.5583 85.6414L27.5444 85.65L27.531 85.6583L27.5182 85.6662L27.5059 85.6737L27.4943 85.6809L27.4832 85.6878L27.4727 85.6943L27.4627 85.7004L27.4534 85.7062L27.4446 85.7116L27.4364 85.7167L27.4289 85.7213L27.4219 85.7257L27.4155 85.7296L27.4097 85.7332L27.4045 85.7364L27.3999 85.7392L27.3959 85.7417L27.3925 85.7438L27.3898 85.7455L27.3876 85.7468L27.386 85.7478L27.3851 85.7484C27.3849 85.7485 27.3848 85.7486 27.6092 86.1117L27.3848 85.7486C26.5281 86.2779 25.1516 85.9031 24.342 84.5927C23.5324 83.2822 23.8131 81.8836 24.6699 81.3542L24.6699 81.3543L24.6781 81.349L46.6898 67.042L47.0395 66.8147L46.8203 66.4598L46.6937 66.255L46.4722 65.8964L46.1109 66.1134L21.4422 80.93L21.4421 80.93L21.4376 80.9328C20.5808 81.4621 19.2044 81.0873 18.3948 79.7769C17.5852 78.4664 17.8659 77.0678 18.7226 76.5385L18.7227 76.5385L18.7272 76.5356L43.0162 61.1046L43.372 60.8785L43.1505 60.52L42.9606 60.2127L42.7396 59.8549L42.3785 60.0707L21.1922 72.7358L21.1922 72.7357L21.1869 72.739C20.3301 73.2684 18.9537 72.8935 18.1441 71.5831C17.3344 70.2727 17.6152 68.874 18.4719 68.3447L18.472 68.3448L18.4789 68.3403L39.2224 54.9583L39.5741 54.7314L39.3541 54.3753L39.1643 54.0681L38.9459 53.7146L38.5866 53.9234L23.0727 62.9424L23.0726 62.9423L23.0628 62.9483C22.1482 63.5134 20.9157 63.2421 20.2731 62.202C19.6867 61.2529 19.9504 59.9316 20.8541 59.3733L20.8589 59.3702L35.9933 49.7368L36.0009 49.7319L36.0082 49.7268C37.7795 48.4917 43.9071 44.7068 45.1755 44.062L45.1755 44.062L45.18 44.0597C46.6787 43.2754 50.7561 41.1101 54.457 39.1419C56.3079 38.1576 58.0651 37.2223 59.3597 36.533L60.9083 35.7083L61.3359 35.4806L61.4478 35.421L61.4764 35.4057L61.4836 35.4019L61.4855 35.4009L61.4859 35.4007C61.486 35.4006 61.4861 35.4006 61.2854 35.0239L61.4861 35.4006L61.4981 35.3942L61.5097 35.387L62.0218 35.0706L62.0301 35.0655L62.0381 35.06L85.7593 18.8716L100.483 42.7034L70.7554 60.6509L70.6556 60.7112L70.6003 60.8138L57.6754 84.789Z" fill="#FF8D23" stroke="black" stroke-width="0.853665"/>
<path d="M54.0957 66.6246L54.0835 66.6473L54.0741 66.6712C53.5028 68.1272 51.4784 69.1491 49.6188 68.3965L49.6105 68.3931L49.6021 68.3901C48.6231 68.041 47.8415 67.3031 47.3697 66.4606C46.9035 65.6284 46.7697 64.7527 46.9765 64.098C46.9819 64.0885 46.9869 64.079 46.9916 64.0703C47.0095 64.0365 47.0322 63.9915 47.0583 63.9383C47.1111 63.8308 47.1844 63.6773 47.2746 63.4857C47.4554 63.102 47.7075 62.5583 48.0065 61.9091C48.6047 60.6103 49.3925 58.8849 50.1768 57.1621C50.9612 55.4392 51.7423 53.7182 52.3274 52.4281C52.6199 51.783 52.8634 51.2456 53.0338 50.8695L53.2315 50.4329L53.2835 50.3179L53.2969 50.2884L53.3003 50.2809L53.3011 50.279L53.3013 50.2786C53.3014 50.2785 53.3014 50.2784 52.9125 50.1024L53.3014 50.2784L53.8781 49.0041L52.6882 49.7393L52.6777 49.7458L52.6666 49.7526L52.655 49.7598L52.6428 49.7674L52.63 49.7753L52.6166 49.7835L52.6027 49.7921L52.5882 49.8011L52.5731 49.8104L52.5575 49.8201L52.5413 49.83L52.5246 49.8404L52.5073 49.8511L52.4895 49.8621L52.4711 49.8734L52.4521 49.8851L52.4327 49.8972L52.4127 49.9095L52.3921 49.9222L52.371 49.9353L52.3494 49.9486L52.3272 49.9623L52.3045 49.9763L52.2813 49.9907L52.2576 50.0053L52.2333 50.0203L52.2085 50.0357L52.1832 50.0513L52.1574 50.0672L52.1311 50.0835L52.1042 50.1001L52.0769 50.117L52.049 50.1342L52.0207 50.1517L51.9918 50.1695L51.9625 50.1877L51.9326 50.2061L51.9022 50.2249L51.8714 50.2439L51.8401 50.2633L51.8082 50.283L51.7759 50.3029L51.7431 50.3232L51.7099 50.3437L51.6761 50.3646L51.6419 50.3857L51.6072 50.4072L51.572 50.4289L51.5364 50.4509L51.5003 50.4732L51.4637 50.4958L51.4267 50.5187L51.3892 50.5418L51.3513 50.5653L51.3129 50.589L51.274 50.613L51.2347 50.6373L51.195 50.6619L51.1548 50.6867L51.1141 50.7118L51.0731 50.7372L51.0316 50.7628L50.9896 50.7887L50.9472 50.8149L50.9044 50.8414L50.8612 50.8681L50.8175 50.8951L50.7734 50.9223L50.7289 50.9498L50.6839 50.9776L50.6386 51.0056L50.5928 51.0339L50.5467 51.0624L50.5001 51.0912L50.4531 51.1202L50.4057 51.1495L50.3579 51.1791L50.3097 51.2088L50.2611 51.2389L50.2121 51.2691L50.1627 51.2997L50.1129 51.3304L50.0627 51.3614L50.0121 51.3926L49.9612 51.4241L49.9099 51.4558L49.8582 51.4878L49.8061 51.52L49.7536 51.5524L49.7008 51.585L49.6476 51.6179L49.594 51.651L49.5401 51.6843L49.4858 51.7178L49.4312 51.7516L49.3762 51.7856L49.3208 51.8198L49.2651 51.8542L49.209 51.8889L49.1526 51.9237L49.0958 51.9588L49.0387 51.9941L48.9812 52.0296L48.9234 52.0653L48.8653 52.1012L48.8068 52.1373L48.7481 52.1736L48.6889 52.2102L48.6295 52.2469L48.5697 52.2838L48.5096 52.321L48.4492 52.3583L48.3884 52.3958L48.3274 52.4336L48.266 52.4715L48.2043 52.5096L48.1423 52.5479L48.08 52.5864L48.0174 52.6251L47.9545 52.6639L47.8913 52.703L47.8278 52.7422L47.764 52.7816L47.6999 52.8212L47.6355 52.861L47.5709 52.901L47.5059 52.9411L47.4407 52.9814L47.3751 53.0219L47.3094 53.0625L47.2433 53.1033L47.1769 53.1443L47.1103 53.1855L47.0434 53.2268L46.9763 53.2683L46.9089 53.3099L46.8412 53.3518L46.7733 53.3937L46.7051 53.4359L46.6366 53.4782L46.5679 53.5206L46.499 53.5632L46.4298 53.606L46.3603 53.6489L46.2906 53.6919L46.2207 53.7351L46.1505 53.7785L46.0801 53.822L46.0095 53.8656L45.9386 53.9094L45.8675 53.9533L45.7962 53.9974L45.7246 54.0416L45.6529 54.0859L45.5809 54.1304L45.5087 54.175L45.4362 54.2198L45.3636 54.2647L45.2908 54.3097L45.2177 54.3548L45.1445 54.4001L45.071 54.4454L44.9973 54.491L44.9235 54.5366L44.8494 54.5824L44.7752 54.6282L44.7007 54.6742L44.6261 54.7203L44.5513 54.7666L44.4763 54.8129L44.4011 54.8593L44.3257 54.9059L44.2502 54.9526L44.1744 54.9994L44.0985 55.0463L44.0225 55.0932L43.9463 55.1403L43.8699 55.1875L43.7933 55.2348L43.7166 55.2822L43.6397 55.3297L43.5627 55.3773L43.4855 55.425L43.4081 55.4728L43.3307 55.5207L43.253 55.5686L43.1752 55.6167L43.0973 55.6648L43.0193 55.7131L42.9411 55.7614L42.8627 55.8098L42.7843 55.8583L42.7057 55.9068L42.6269 55.9555L42.5481 56.0042L42.4691 56.053L42.39 56.1018L42.3108 56.1508L42.2315 56.1998L42.152 56.2489L42.0725 56.298L41.9928 56.3472L41.913 56.3965L41.8332 56.4459L41.7532 56.4953L41.6731 56.5448L41.5929 56.5943L41.5127 56.6439L41.4323 56.6936L41.3518 56.7433L41.2713 56.793L41.1907 56.8428L41.1099 56.8927L41.0292 56.9426L40.9483 56.9926L40.8673 57.0426L40.7863 57.0927L40.7052 57.1428L40.6241 57.1929L40.5428 57.2431L40.4615 57.2933L40.3802 57.3436L40.2988 57.3939L40.2173 57.4442L40.1358 57.4946L40.0542 57.545L39.9725 57.5954L39.8909 57.6459L39.8091 57.6964L39.7274 57.7469L39.6455 57.7975L39.5637 57.848L39.4818 57.8986L39.3999 57.9492L39.3179 57.9999L39.2359 58.0505L39.1539 58.1012L39.0719 58.1519L38.9898 58.2026L38.9078 58.2533L38.8257 58.304L38.7436 58.3547L38.6614 58.4055L38.5793 58.4562L38.4972 58.507L38.415 58.5577L38.3329 58.6085L38.2507 58.6592L38.1686 58.71L38.0864 58.7607L38.0043 58.8115L37.9221 58.8622L37.84 58.913L37.7579 58.9637L37.6758 59.0144L37.5937 59.0651L37.5117 59.1158L37.4296 59.1665L37.3476 59.2172L37.2657 59.2678L37.1837 59.3185L37.1018 59.3691L37.0199 59.4197L36.938 59.4702L36.8562 59.5208L36.7745 59.5713L36.6927 59.6218L36.611 59.6723L36.5294 59.7227L36.4478 59.7731L36.3663 59.8235L36.2848 59.8738L36.2034 59.9241L36.122 59.9744L36.0407 60.0246L35.9595 60.0748L35.8783 60.125L35.7972 60.1751L35.7162 60.2251L35.6353 60.2751L35.5544 60.3251L35.4736 60.375L35.3929 60.4249L35.3123 60.4747L35.2317 60.5245L35.1512 60.5742L35.0709 60.6238L34.9906 60.6734L34.9104 60.723L34.8303 60.7724L34.7504 60.8219L34.6705 60.8712L34.5907 60.9205L34.511 60.9697L34.4315 61.0189L34.352 61.068L34.2727 61.117L34.1935 61.1659L34.1144 61.2148L34.0354 61.2636L33.9565 61.3123L33.8778 61.3609L33.7992 61.4095L33.7207 61.458L33.6424 61.5064L33.5642 61.5547L33.4861 61.6029L33.4082 61.6511L33.3304 61.6991L33.2528 61.7471L33.1753 61.795L33.0979 61.8428L33.0208 61.8905L32.9437 61.9381L32.8668 61.9856L32.7901 62.033L32.7135 62.0803L32.6371 62.1275L32.5609 62.1746L32.4848 62.2216L32.4089 62.2685L32.3332 62.3152L32.2577 62.3619L32.1823 62.4085L32.1071 62.4549L32.0321 62.5013L31.9573 62.5475L31.8826 62.5936L31.8082 62.6396L31.7339 62.6855L31.6599 62.7313L31.586 62.7769L31.5123 62.8224L31.4389 62.8678L31.3656 62.9131L31.2925 62.9582L31.2197 63.0032L31.147 63.0481L31.0746 63.0929L31.0024 63.1375L30.9304 63.182L30.8586 63.2263L30.787 63.2705L30.7157 63.3146L30.6446 63.3585L30.5737 63.4023L30.5031 63.446L30.4327 63.4895L30.3625 63.5328L30.2926 63.576L30.2229 63.6191L30.1534 63.662L30.0842 63.7048L30.0152 63.7474L29.9465 63.7898L29.8781 63.8321L29.8099 63.8742L29.7419 63.9162L29.6742 63.958L29.6068 63.9997L29.5397 64.0412L29.4728 64.0825L29.4061 64.1237L29.3398 64.1647L29.2737 64.2055L29.2079 64.2462L29.1424 64.2866L29.0771 64.327L29.0122 64.3671L28.9475 64.407L28.8831 64.4468L28.819 64.4864L28.7552 64.5259L28.6917 64.5651L28.6285 64.6042L28.5656 64.643L28.5029 64.6817L28.4406 64.7202L28.3786 64.7585L28.3169 64.7966L28.2555 64.8346L28.1945 64.8723L28.1337 64.9098L28.0733 64.9472L28.0132 64.9843L27.9534 65.0212L27.8939 65.058L27.8348 65.0945L27.776 65.1309L27.7175 65.167L27.6593 65.2029L27.6015 65.2386L27.5441 65.2741L27.487 65.3094L27.4302 65.3445L27.3737 65.3794L27.3177 65.414L27.2619 65.4484L27.2065 65.4827L27.1515 65.5167L27.0969 65.5504L27.0425 65.584L26.9886 65.6173L26.935 65.6504L26.8818 65.6833L26.829 65.7159L26.7765 65.7483L26.7244 65.7805L26.6727 65.8125L26.6214 65.8442L26.5704 65.8757L26.5198 65.9069L26.4696 65.9379L26.4199 65.9687L26.3704 65.9992L26.3214 66.0295L26.2728 66.0595L26.2246 66.0893L26.1768 66.1189L26.1294 66.1482L26.0824 66.1772L26.0358 66.206L25.9896 66.2345L25.9438 66.2628L25.8984 66.2909L25.8535 66.3186L25.8089 66.3461L25.7648 66.3734L25.7211 66.4004L25.6779 66.4271L25.6351 66.4536L25.5927 66.4798L25.5507 66.5057L25.5092 66.5314L25.4681 66.5567L25.4274 66.5819L25.3872 66.6067L25.3475 66.6313L25.3081 66.6556L25.2693 66.6796L25.2309 66.7033L25.1929 66.7268L25.1554 66.7499L25.1184 66.7728L25.0818 66.7954L25.0457 66.8177L25.01 66.8398L24.9748 66.8615L24.9401 66.8829L24.9059 66.9041L24.8721 66.9249L24.8388 66.9455L24.806 66.9658L24.7737 66.9858L24.7419 67.0054L24.7105 67.0248L24.6796 67.0439L24.6493 67.0626L24.6194 67.0811L24.59 67.0992L24.5611 67.1171L24.5328 67.1346L24.5049 67.1518L24.4775 67.1687L24.4507 67.1853L24.4243 67.2016L24.3985 67.2176L24.3732 67.2332L24.3484 67.2485L24.3241 67.2635L24.3003 67.2782L24.2771 67.2926L24.2544 67.3066L24.2322 67.3203L24.2106 67.3337L24.1895 67.3467L24.1689 67.3594L24.1489 67.3718L24.1294 67.3838L24.1104 67.3955L24.092 67.4069L24.0741 67.4179L24.0568 67.4286L24.0401 67.439L24.0239 67.449L24.0083 67.4587L23.9932 67.468L23.9787 67.4769L23.9647 67.4856L23.9513 67.4938L23.9385 67.5017L23.9263 67.5093L23.9146 67.5165L23.9035 67.5234L23.893 67.5299L23.8831 67.536L23.8737 67.5418L23.865 67.5472L23.8568 67.5522L23.8492 67.5569L23.8422 67.5612L23.8358 67.5652L23.83 67.5688L23.8248 67.572L23.8203 67.5748L23.8163 67.5773L23.8129 67.5794L23.8101 67.5811L23.808 67.5824L23.8064 67.5834L23.8055 67.5839C23.8053 67.5841 23.8052 67.5841 24.0295 67.9473L23.8052 67.5841C22.9484 68.1135 21.572 67.7386 20.7624 66.4282C19.9528 65.1178 20.2335 63.7191 21.0902 63.1898L21.0903 63.1899L21.0985 63.1846L43.1101 48.8776L43.4599 48.6502L43.2406 48.2954L43.1141 48.0905L42.8925 47.7319L42.5312 47.949L17.8625 62.7655L17.8625 62.7655L17.8579 62.7683C17.0012 63.2977 15.6248 62.9228 14.8152 61.6124C14.0055 60.302 14.2862 58.9033 15.143 58.374L15.143 58.374L15.1475 58.3712L39.4366 42.9401L39.7924 42.7141L39.5708 42.3555L39.381 42.0483L39.1599 41.6904L38.7989 41.9063L17.6125 54.5713L17.6125 54.5713L17.6072 54.5746C16.7504 55.1039 15.374 54.7291 14.5644 53.4187C13.7548 52.1082 14.0355 50.7096 14.8922 50.1803L14.8923 50.1803L14.8993 50.1758L35.6427 36.7939L35.9945 36.567L35.7745 36.2108L35.5846 35.9036L35.3662 35.5501L35.007 35.759L19.493 44.778L19.4929 44.7778L19.4832 44.7838C18.5686 45.3489 17.3361 45.0776 16.6935 44.0376C16.1071 43.0884 16.3707 41.7671 17.2745 41.2088L17.2793 41.2058L32.4136 31.5723L32.4212 31.5675L32.4286 31.5623C34.1998 30.3272 40.3274 26.5423 41.5958 25.8976L41.5958 25.8976L41.6003 25.8952C43.0991 25.1109 47.1765 22.9457 50.8774 20.9775C52.7282 19.9932 54.4855 19.0578 55.78 18.3686L57.3286 17.5439L57.7562 17.3161L57.8681 17.2565L57.8967 17.2413L57.904 17.2374L57.9058 17.2364L57.9063 17.2362C57.9064 17.2361 57.9064 17.2361 57.7057 16.8594L57.9064 17.2361L57.9185 17.2297L57.9301 17.2225L58.4422 16.9061L58.4504 16.901L58.4584 16.8956L82.1796 0.707193L96.9036 24.539L67.1758 42.4865L67.076 42.5467L67.0206 42.6494L54.0957 66.6246Z" fill="#FFCA00" stroke="black" stroke-width="0.853665"/>
<path d="M82.6542 33.0646L68.4109 10.0107L69.3889 9.32398L83.6692 32.4375L82.6542 33.0646Z" fill="#FDB813" stroke="black" stroke-width="0.853665"/>
<path d="M81.9169 0.741676L96.6838 24.6428L95.9449 25.0295L81.2405 1.22944L81.9169 0.741676Z" fill="#FDB813" stroke="black" stroke-width="0.853665"/>
<path d="M92.7546 18.0516L79.1417 26.4621L78.0719 24.7305L91.6847 16.32L92.7546 18.0516Z" fill="#FDB813" stroke="black" stroke-width="0.853665"/>
<path d="M95.5388 22.5579L81.9259 30.9683L80.8561 29.2367L94.4689 20.8262L95.5388 22.5579Z" fill="#FDB813" stroke="black" stroke-width="0.853665"/>
<path d="M89.9719 13.5453L76.359 21.9557L75.2891 20.2241L88.902 11.8137L89.9719 13.5453Z" fill="#FDB813" stroke="black" stroke-width="0.853665"/>
<path d="M84.403 4.53389L70.7902 12.9443L69.7203 11.2127L83.3332 2.80228L84.403 4.53389Z" fill="#FDB813" stroke="black" stroke-width="0.853665"/>
<path d="M87.1874 9.04005L73.5746 17.4505L72.5047 15.7189L86.1176 7.30843L87.1874 9.04005Z" fill="#FDB813" stroke="black" stroke-width="0.853665"/>
<mask id="path-10-inside-1_255_795" fill="white">
<path d="M79.7483 1.68494L82.3088 0.102963L82.2455 0.000537734L79.7483 1.68494Z"/>
</mask>
<path d="M79.7483 1.68494L82.3088 0.102963L82.2455 0.000537734L79.7483 1.68494Z" fill="#FDB813"/>
<path d="M79.7483 1.68494L79.2709 0.977215L80.197 2.41117L79.7483 1.68494ZM82.3088 0.102963L82.7575 0.8292L83.4837 0.380508L83.035 -0.345728L82.3088 0.102963ZM82.2455 0.000537734L82.9717 -0.448154L82.5047 -1.20402L81.7681 -0.707184L82.2455 0.000537734ZM80.197 2.41117L82.7575 0.8292L81.8601 -0.623273L79.2996 0.9587L80.197 2.41117ZM83.035 -0.345728L82.9717 -0.448154L81.5193 0.449229L81.5826 0.551655L83.035 -0.345728ZM81.7681 -0.707184L79.2709 0.977215L80.2256 2.39266L82.7229 0.70826L81.7681 -0.707184Z" fill="black" mask="url(#path-10-inside-1_255_795)"/>
</svg>
