<svg width="455" height="244" viewBox="0 0 455 244" fill="none" xmlns="http://www.w3.org/2000/svg">
<path d="M385 30.5018L385 195.505L385 201.506L1 201.504L0.999984 30.5003L139 30.5003L173.5 3.00001L169 30.5003L385 30.5018Z" fill="white" stroke="black" stroke-width="2"/>
<path d="M28.668 69.2683C31.264 69.2683 33.024 68.0363 34.256 66.3643L32.694 65.5063C31.858 66.7603 30.34 67.6403 28.668 67.6403C25.456 67.6403 23.014 65.1543 23.014 61.6783C23.014 58.1803 25.456 55.7163 28.668 55.7163C30.34 55.7163 31.858 56.6183 32.694 57.8503L34.234 56.9923C33.068 55.3423 31.264 54.0883 28.668 54.0883C24.444 54.0883 21.122 57.1683 21.122 61.6783C21.122 66.1883 24.444 69.2683 28.668 69.2683ZM35.9232 73.1623C36.2312 73.2503 36.7812 73.3163 37.1332 73.3163C38.5412 73.2943 39.6192 72.7003 40.2572 71.1603L45.5812 58.3783H43.7772L40.2572 67.0903L36.7152 58.3783H34.9332L39.3772 69.1143L38.6732 70.7203C38.2992 71.6003 37.8152 71.8423 37.0892 71.8423C36.8252 71.8423 36.4292 71.7763 36.1872 71.6663L35.9232 73.1623ZM56.1463 69.0043V58.3783H47.3023V69.0043H48.9523V59.8303H54.4963V69.0043H56.1463ZM64.237 69.2683C65.975 69.2683 67.405 68.6963 68.461 67.6403L67.669 66.5623C66.833 67.4203 65.601 67.9043 64.391 67.9043C62.103 67.9043 60.695 66.2323 60.563 64.2303H69.165V63.8123C69.165 60.6223 67.273 58.1143 64.061 58.1143C61.025 58.1143 58.825 60.6003 58.825 63.6803C58.825 67.0023 61.091 69.2683 64.237 69.2683ZM67.537 63.0203H60.563C60.651 61.3923 61.773 59.4783 64.039 59.4783C66.459 59.4783 67.515 61.4363 67.537 63.0203ZM77.0735 69.2683C79.8675 69.2683 81.8035 67.1123 81.8035 63.6803C81.8035 60.2263 79.8675 58.1143 77.0735 58.1143C75.5775 58.1143 74.2575 58.8843 73.4875 59.9623V58.3783H71.8375V73.0523H73.4875V67.3983C74.3455 68.5863 75.6215 69.2683 77.0735 69.2683ZM76.6555 67.7943C75.3575 67.7943 74.0595 67.0023 73.4875 66.0783V61.2823C74.0595 60.3583 75.3575 59.5883 76.6555 59.5883C78.7895 59.5883 80.0655 61.3263 80.0655 63.6803C80.0655 66.0343 78.7895 67.7943 76.6555 67.7943ZM85.9893 64.8903L86.3413 54.3303H84.2733L84.6253 64.8903H85.9893ZM85.3073 69.2243C85.9673 69.2243 86.5173 68.6523 86.5173 68.0143C86.5173 67.3543 85.9673 66.8043 85.3073 66.8043C84.6473 66.8043 84.0973 67.3543 84.0973 68.0143C84.0973 68.6523 84.6473 69.2243 85.3073 69.2243ZM102.298 69.0043V58.2023H106.214V54.3303H93.9155V58.2023H97.8535V69.0043H102.298ZM111.134 69.2683C112.718 69.2683 114.61 68.8503 115.666 67.9483L114.038 65.5063C113.51 65.9683 112.19 66.2543 111.596 66.2543C110.298 66.2543 109.528 65.5943 109.308 64.9123H116.524V64.0983C116.524 60.3583 114.126 58.1143 111.002 58.1143C107.57 58.1143 105.216 60.6003 105.216 63.6803C105.216 67.1783 107.812 69.2683 111.134 69.2683ZM112.762 62.4043H109.264C109.396 61.9203 109.792 61.1283 111.002 61.1283C112.278 61.1283 112.652 61.9423 112.762 62.4043ZM129.041 69.0043V58.3783H117.887V69.0043H121.847V61.8103H125.081V69.0043H129.041ZM136.442 69.2683C138.026 69.2683 139.918 68.8503 140.974 67.9483L139.346 65.5063C138.818 65.9683 137.498 66.2543 136.904 66.2543C135.606 66.2543 134.836 65.5943 134.616 64.9123H141.832V64.0983C141.832 60.3583 139.434 58.1143 136.31 58.1143C132.878 58.1143 130.524 60.6003 130.524 63.6803C130.524 67.1783 133.12 69.2683 136.442 69.2683ZM138.07 62.4043H134.572C134.704 61.9203 135.1 61.1283 136.31 61.1283C137.586 61.1283 137.96 61.9423 138.07 62.4043ZM150.148 69.2683C152.788 69.2683 154.812 67.3323 154.812 63.6803C154.812 60.0503 152.788 58.1143 150.148 58.1143C149.048 58.1143 148.014 58.4883 147.156 59.5003V58.3783H143.196V73.0523H147.156V67.8823C148.036 68.8943 149.048 69.2683 150.148 69.2683ZM148.784 65.7703C148.278 65.7703 147.508 65.4843 147.156 65.0443V62.3383C147.53 61.8763 148.278 61.6123 148.784 61.6123C149.84 61.6123 150.764 62.3603 150.764 63.6803C150.764 65.0223 149.84 65.7703 148.784 65.7703ZM156.28 58.3783V69.0043H163.584C166.136 69.0043 167.654 67.2883 167.654 65.2863C167.654 63.2623 166.29 61.5463 163.584 61.5463H160.24V58.3783H156.28ZM162.836 64.6483C163.32 64.6483 163.65 64.9123 163.65 65.2863C163.65 65.6383 163.32 65.9023 162.836 65.9023H160.24V64.6483H162.836ZM180.763 69.0043V61.8103H183.557V58.3783H173.965V61.8103H176.803V69.0043H180.763ZM184.983 58.3783V69.0043H192.287C194.839 69.0043 196.357 67.2883 196.357 65.2863C196.357 63.2623 194.993 61.5463 192.287 61.5463H188.943V58.3783H184.983ZM191.539 64.6483C192.023 64.6483 192.353 64.9123 192.353 65.2863C192.353 65.6383 192.023 65.9023 191.539 65.9023H188.943V64.6483H191.539ZM201.219 69.0043V58.3783H197.259V69.0043H201.219ZM217.648 58.3783H209.024V69.0043H212.984V61.8103H217.648V58.3783ZM224.315 69.2683C228.099 69.2683 230.299 66.6503 230.299 63.6803C230.299 60.7103 228.099 58.1143 224.315 58.1143C220.553 58.1143 218.353 60.7103 218.353 63.6803C218.353 66.6503 220.553 69.2683 224.315 69.2683ZM224.315 65.7703C223.105 65.7703 222.423 64.8683 222.423 63.6803C222.423 62.5143 223.105 61.6123 224.315 61.6123C225.547 61.6123 226.229 62.5143 226.229 63.6803C226.229 64.8683 225.547 65.7703 224.315 65.7703ZM237.804 69.0043V61.8103H240.598V58.3783H231.006V61.8103H233.844V69.0043H237.804ZM247.26 69.2683C251.044 69.2683 253.244 66.6503 253.244 63.6803C253.244 60.7103 251.044 58.1143 247.26 58.1143C243.498 58.1143 241.298 60.7103 241.298 63.6803C241.298 66.6503 243.498 69.2683 247.26 69.2683ZM247.26 65.7703C246.05 65.7703 245.368 64.8683 245.368 63.6803C245.368 62.5143 246.05 61.6123 247.26 61.6123C248.492 61.6123 249.174 62.5143 249.174 63.6803C249.174 64.8683 248.492 65.7703 247.26 65.7703ZM262.619 69.0043C264.973 69.0043 266.095 67.5963 266.095 66.1003C266.095 64.7803 265.237 63.7683 264.005 63.5263C265.061 63.2183 265.853 62.3603 265.853 61.1063C265.853 59.8523 264.797 58.3783 262.377 58.3783H254.721V69.0043H262.619ZM261.541 66.0783H258.681V65.0883H261.541C261.871 65.0883 262.113 65.2863 262.113 65.5943C262.113 65.8803 261.871 66.0783 261.541 66.0783ZM261.387 62.1843H258.681V61.3043H261.387C261.673 61.3043 261.871 61.5023 261.871 61.7443C261.871 61.9863 261.651 62.1843 261.387 62.1843ZM285.082 69.0043V58.3783H273.928V69.0043H277.888V61.8103H281.122V69.0043H285.082ZM294.243 69.2683C296.883 69.2683 298.907 67.3323 298.907 63.6803C298.907 60.0503 296.883 58.1143 294.243 58.1143C293.143 58.1143 292.109 58.4883 291.251 59.5003V58.3783H287.291V73.0523H291.251V67.8823C292.131 68.8943 293.143 69.2683 294.243 69.2683ZM292.879 65.7703C292.373 65.7703 291.603 65.4843 291.251 65.0443V62.3383C291.625 61.8763 292.373 61.6123 292.879 61.6123C293.935 61.6123 294.859 62.3603 294.859 63.6803C294.859 65.0223 293.935 65.7703 292.879 65.7703ZM305.611 69.2683C309.395 69.2683 311.595 66.6503 311.595 63.6803C311.595 60.7103 309.395 58.1143 305.611 58.1143C301.849 58.1143 299.649 60.7103 299.649 63.6803C299.649 66.6503 301.849 69.2683 305.611 69.2683ZM305.611 65.7703C304.401 65.7703 303.719 64.8683 303.719 63.6803C303.719 62.5143 304.401 61.6123 305.611 61.6123C306.843 61.6123 307.525 62.5143 307.525 63.6803C307.525 64.8683 306.843 65.7703 305.611 65.7703ZM316.857 69.0043L320.267 63.9663V69.0043H324.227V58.3783H320.223L317.033 63.1083V58.3783H313.073V69.0043H316.857ZM322.511 55.5403L320.861 54.1763C320.333 54.9243 319.585 55.3423 318.661 55.3423C317.693 55.3423 316.945 54.8583 316.461 54.1763L314.789 55.5403C315.691 56.7283 317.099 57.4763 318.661 57.4763C320.245 57.4763 321.631 56.7283 322.511 55.5403ZM332.464 69.0043V61.8103H335.258V58.3783H325.666V61.8103H328.504V69.0043H332.464ZM340.468 69.0043L343.878 63.9663V69.0043H347.838V58.3783H343.834L340.644 63.1083V58.3783H336.684V69.0043H340.468ZM25.06 96.0043V92.1763H28.294V96.0043H32.254V85.3783H28.294V88.7443H25.06V85.3783H21.1V96.0043H25.06ZM44.5613 96.0043V89.5803C44.5613 86.0383 41.9873 85.1143 39.3473 85.1143C37.7413 85.1143 35.7613 85.5763 34.3313 86.7203L35.6733 89.1623C36.5093 88.5243 37.6313 88.1283 38.6213 88.1283C39.9193 88.1283 40.6013 88.7003 40.6013 89.4483V90.5483C40.0293 89.8223 38.7753 89.3823 37.3893 89.3823C35.8053 89.3823 33.7373 90.1303 33.7373 92.7703C33.7373 95.1903 35.8053 96.2683 37.3893 96.2683C38.7093 96.2683 40.0073 95.7403 40.6013 94.9923V96.0043H44.5613ZM39.0393 93.6943C38.3793 93.6943 37.6533 93.4963 37.6533 92.8363C37.6533 92.1763 38.3793 91.9563 39.0393 91.9563C39.6553 91.9563 40.3373 92.1543 40.6013 92.5283V93.1223C40.3373 93.4963 39.6553 93.6943 39.0393 93.6943ZM56.3418 96.2683C59.6418 96.2463 61.7538 94.9483 61.7318 93.0123C61.7318 91.5383 60.1918 90.6143 58.8498 90.5263C60.3898 90.2623 61.5338 89.2503 61.5338 88.1063C61.5118 86.3243 59.7958 85.1143 56.0558 85.1363C54.0978 85.1363 52.4478 85.8843 51.3698 86.9403L53.2398 89.1623C54.0098 88.4583 55.0218 88.0843 56.2538 88.0843C57.0018 88.0843 57.4418 88.3043 57.4418 88.6123C57.4418 88.9423 57.3538 89.2063 56.2098 89.2063H54.2298V92.1103H56.2098C57.2658 92.1103 57.6398 92.4183 57.6398 92.7703C57.6398 93.0783 57.3318 93.2983 56.3418 93.2983C55.3958 93.2983 53.9878 92.9903 53.0198 92.2863L51.2598 94.5963C52.2718 95.5643 54.0978 96.2683 56.3418 96.2683ZM73.3074 96.0043V89.5803C73.3074 86.0383 70.7334 85.1143 68.0934 85.1143C66.4874 85.1143 64.5074 85.5763 63.0774 86.7203L64.4194 89.1623C65.2554 88.5243 66.3774 88.1283 67.3674 88.1283C68.6654 88.1283 69.3474 88.7003 69.3474 89.4483V90.5483C68.7754 89.8223 67.5214 89.3823 66.1354 89.3823C64.5514 89.3823 62.4834 90.1303 62.4834 92.7703C62.4834 95.1903 64.5514 96.2683 66.1354 96.2683C67.4554 96.2683 68.7534 95.7403 69.3474 94.9923V96.0043H73.3074ZM67.7854 93.6943C67.1254 93.6943 66.3994 93.4963 66.3994 92.8363C66.3994 92.1763 67.1254 91.9563 67.7854 91.9563C68.4014 91.9563 69.0834 92.1543 69.3474 92.5283V93.1223C69.0834 93.4963 68.4014 93.6943 67.7854 93.6943ZM83.3964 96.0043C85.7504 96.0043 86.8724 94.5963 86.8724 93.1003C86.8724 91.7803 86.0144 90.7683 84.7824 90.5263C85.8384 90.2183 86.6304 89.3603 86.6304 88.1063C86.6304 86.8523 85.5744 85.3783 83.1544 85.3783H75.4984V96.0043H83.3964ZM82.3184 93.0783H79.4584V92.0883H82.3184C82.6484 92.0883 82.8904 92.2863 82.8904 92.5943C82.8904 92.8803 82.6484 93.0783 82.3184 93.0783ZM82.1644 89.1843H79.4584V88.3043H82.1644C82.4504 88.3043 82.6484 88.5023 82.6484 88.7443C82.6484 88.9863 82.4284 89.1843 82.1644 89.1843ZM94.334 96.2683C98.118 96.2683 100.318 93.6503 100.318 90.6803C100.318 87.7103 98.118 85.1143 94.334 85.1143C90.572 85.1143 88.372 87.7103 88.372 90.6803C88.372 93.6503 90.572 96.2683 94.334 96.2683ZM94.334 92.7703C93.124 92.7703 92.442 91.8683 92.442 90.6803C92.442 89.5143 93.124 88.6123 94.334 88.6123C95.566 88.6123 96.248 89.5143 96.248 90.6803C96.248 91.8683 95.566 92.7703 94.334 92.7703ZM101.091 98.7103H105.051V96.0043H110.155V98.7103H114.115V92.5723H112.949V85.3783H103.401L102.653 90.4603C102.367 92.5063 101.817 92.7043 101.091 92.7043V98.7103ZM106.789 88.8103H108.989V92.5723H105.711C106.151 92.0443 106.415 91.3403 106.547 90.4603L106.789 88.8103ZM119.99 94.3983C119.99 92.5943 118.78 91.5603 117.438 91.5603C116.206 91.5603 115.15 92.5943 115.15 93.8703C115.15 95.1023 116.008 95.9163 117.064 95.9163C117.306 95.9163 117.526 95.8723 117.636 95.8283C117.35 96.6643 116.338 97.6323 115.634 97.9403L117.24 99.2383C118.956 98.0283 119.99 96.3343 119.99 94.3983ZM133.325 96.0043V88.8103H136.119V85.3783H126.527V88.8103H129.365V96.0043H133.325ZM142.737 96.2683C144.321 96.2683 146.213 95.8503 147.269 94.9483L145.641 92.5063C145.113 92.9683 143.793 93.2543 143.199 93.2543C141.901 93.2543 141.131 92.5943 140.911 91.9123H148.127V91.0983C148.127 87.3583 145.729 85.1143 142.605 85.1143C139.173 85.1143 136.819 87.6003 136.819 90.6803C136.819 94.1783 139.415 96.2683 142.737 96.2683ZM144.365 89.4043H140.867C140.999 88.9203 141.395 88.1283 142.605 88.1283C143.881 88.1283 144.255 88.9423 144.365 89.4043ZM160.117 96.0043L156.619 90.5483L159.875 85.3783H155.541L154.111 87.8643L152.681 85.3783H148.347L151.603 90.5483L148.127 96.0043H152.439L154.133 93.1883L155.783 96.0043H160.117ZM164.923 96.0043V92.1763H168.157V96.0043H172.117V85.3783H168.157V88.7443H164.923V85.3783H160.963V96.0043H164.923ZM178.111 96.0043L181.521 90.9663V96.0043H185.481V85.3783H181.477L178.287 90.1083V85.3783H174.327V96.0043H178.111ZM199.108 96.0043L195.214 90.2183L198.866 85.3783H194.092L191.65 89.1623V85.3783H187.69V96.0043H191.65V93.6063L192.42 92.5723L194.246 96.0043H199.108ZM210.034 96.0043V89.5803C210.034 86.0383 207.46 85.1143 204.82 85.1143C203.214 85.1143 201.234 85.5763 199.804 86.7203L201.146 89.1623C201.982 88.5243 203.104 88.1283 204.094 88.1283C205.392 88.1283 206.074 88.7003 206.074 89.4483V90.5483C205.502 89.8223 204.248 89.3823 202.862 89.3823C201.278 89.3823 199.21 90.1303 199.21 92.7703C199.21 95.1903 201.278 96.2683 202.862 96.2683C204.182 96.2683 205.48 95.7403 206.074 94.9923V96.0043H210.034ZM204.512 93.6943C203.852 93.6943 203.126 93.4963 203.126 92.8363C203.126 92.1763 203.852 91.9563 204.512 91.9563C205.128 91.9563 205.81 92.1543 206.074 92.5283V93.1223C205.81 93.4963 205.128 93.6943 204.512 93.6943ZM223.068 92.7703C221.858 92.7703 221.176 91.8683 221.176 90.6583C221.176 89.5143 221.858 88.6123 223.068 88.6123C224.3 88.6123 224.982 89.5143 224.982 90.6583C224.982 91.8683 224.3 92.7703 223.068 92.7703ZM223.068 96.2683C226.852 96.2683 229.052 93.6503 229.052 90.6583C229.052 87.7103 227.116 85.1143 224.08 85.1143C222.694 85.1143 221.726 85.5103 220.868 86.5223C221.176 85.4663 222.012 84.6963 224.432 84.3003C226.104 84.0363 228.634 83.3983 228.634 81.3303H224.234C224.234 81.6383 223.662 81.9023 222.98 82.0123C219.13 82.6063 217.106 85.0263 217.106 90.1963C217.106 93.6503 219.306 96.2683 223.068 96.2683ZM235.722 96.2683C237.306 96.2683 239.198 95.8503 240.254 94.9483L238.626 92.5063C238.098 92.9683 236.778 93.2543 236.184 93.2543C234.886 93.2543 234.116 92.5943 233.896 91.9123H241.112V91.0983C241.112 87.3583 238.714 85.1143 235.59 85.1143C232.158 85.1143 229.804 87.6003 229.804 90.6803C229.804 94.1783 232.4 96.2683 235.722 96.2683ZM237.35 89.4043H233.852C233.984 88.9203 234.38 88.1283 235.59 88.1283C236.866 88.1283 237.24 88.9423 237.35 89.4043ZM246.457 96.2683C249.757 96.2463 251.869 94.9483 251.847 93.0123C251.847 91.5383 250.307 90.6143 248.965 90.5263C250.505 90.2623 251.649 89.2503 251.649 88.1063C251.627 86.3243 249.911 85.1143 246.171 85.1363C244.213 85.1363 242.563 85.8843 241.485 86.9403L243.355 89.1623C244.125 88.4583 245.137 88.0843 246.369 88.0843C247.117 88.0843 247.557 88.3043 247.557 88.6123C247.557 88.9423 247.469 89.2063 246.325 89.2063H244.345V92.1103H246.325C247.381 92.1103 247.755 92.4183 247.755 92.7703C247.755 93.0783 247.447 93.2983 246.457 93.2983C245.511 93.2983 244.103 92.9903 243.135 92.2863L241.375 94.5963C242.387 95.5643 244.213 96.2683 246.457 96.2683ZM258.561 96.2683C262.345 96.2683 264.545 93.6503 264.545 90.6803C264.545 87.7103 262.345 85.1143 258.561 85.1143C254.799 85.1143 252.599 87.7103 252.599 90.6803C252.599 93.6503 254.799 96.2683 258.561 96.2683ZM258.561 92.7703C257.351 92.7703 256.669 91.8683 256.669 90.6803C256.669 89.5143 257.351 88.6123 258.561 88.6123C259.793 88.6123 260.475 89.5143 260.475 90.6803C260.475 91.8683 259.793 92.7703 258.561 92.7703ZM277.176 96.0043V85.3783H266.022V96.0043H269.982V88.8103H273.216V96.0043H277.176ZM289.483 96.0043V89.5803C289.483 86.0383 286.909 85.1143 284.269 85.1143C282.663 85.1143 280.683 85.5763 279.253 86.7203L280.595 89.1623C281.431 88.5243 282.553 88.1283 283.543 88.1283C284.841 88.1283 285.523 88.7003 285.523 89.4483V90.5483C284.951 89.8223 283.697 89.3823 282.311 89.3823C280.727 89.3823 278.659 90.1303 278.659 92.7703C278.659 95.1903 280.727 96.2683 282.311 96.2683C283.631 96.2683 284.929 95.7403 285.523 94.9923V96.0043H289.483ZM283.961 93.6943C283.301 93.6943 282.575 93.4963 282.575 92.8363C282.575 92.1763 283.301 91.9563 283.961 91.9563C284.577 91.9563 285.259 92.1543 285.523 92.5283V93.1223C285.259 93.4963 284.577 93.6943 283.961 93.6943ZM296.91 96.2683C299.33 96.2683 300.826 95.1463 301.42 94.2663L298.868 91.8463C298.538 92.3303 297.922 92.7703 297.086 92.7703C295.964 92.7703 294.996 92.0443 294.996 90.6803C294.996 89.3163 295.964 88.6123 297.086 88.6123C297.922 88.6123 298.538 89.0083 298.868 89.5143L301.42 87.1163C300.826 86.2143 299.33 85.1143 296.91 85.1143C293.544 85.1143 290.948 87.3143 290.948 90.6803C290.948 94.0683 293.544 96.2683 296.91 96.2683ZM306.677 96.0043V92.1763H309.911V96.0043H313.871V85.3783H309.911V88.7443H306.677V85.3783H302.717V96.0043H306.677ZM321.316 96.2683C325.1 96.2683 327.3 93.6503 327.3 90.6803C327.3 87.7103 325.1 85.1143 321.316 85.1143C317.554 85.1143 315.354 87.7103 315.354 90.6803C315.354 93.6503 317.554 96.2683 321.316 96.2683ZM321.316 92.7703C320.106 92.7703 319.424 91.8683 319.424 90.6803C319.424 89.5143 320.106 88.6123 321.316 88.6123C322.548 88.6123 323.23 89.5143 323.23 90.6803C323.23 91.8683 322.548 92.7703 321.316 92.7703ZM334.014 96.2683C336.434 96.2683 337.93 95.1463 338.524 94.2663L335.972 91.8463C335.642 92.3303 335.026 92.7703 334.19 92.7703C333.068 92.7703 332.1 92.0443 332.1 90.6803C332.1 89.3163 333.068 88.6123 334.19 88.6123C335.026 88.6123 335.642 89.0083 335.972 89.5143L338.524 87.1163C337.93 86.2143 336.434 85.1143 334.014 85.1143C330.648 85.1143 328.052 87.3143 328.052 90.6803C328.052 94.0683 330.648 96.2683 334.014 96.2683ZM345.849 96.0043V88.8103H348.643V85.3783H339.051V88.8103H341.889V96.0043H345.849ZM353.853 96.0043L357.263 90.9663V96.0043H361.223V85.3783H357.219L354.029 90.1083V85.3783H350.069V96.0043H353.853ZM26.336 123.268C28.756 123.268 30.252 122.146 30.846 121.266L28.294 118.846C27.964 119.33 27.348 119.77 26.512 119.77C25.39 119.77 24.422 119.044 24.422 117.68C24.422 116.316 25.39 115.612 26.512 115.612C27.348 115.612 27.964 116.008 28.294 116.514L30.846 114.116C30.252 113.214 28.756 112.114 26.336 112.114C22.97 112.114 20.374 114.314 20.374 117.68C20.374 121.068 22.97 123.268 26.336 123.268ZM37.379 123.268C41.163 123.268 43.363 120.65 43.363 117.68C43.363 114.71 41.163 112.114 37.379 112.114C33.617 112.114 31.417 114.71 31.417 117.68C31.417 120.65 33.617 123.268 37.379 123.268ZM37.379 119.77C36.169 119.77 35.487 118.868 35.487 117.68C35.487 116.514 36.169 115.612 37.379 115.612C38.611 115.612 39.293 116.514 39.293 117.68C39.293 118.868 38.611 119.77 37.379 119.77ZM50.0762 119.77C48.8662 119.77 48.1842 118.868 48.1842 117.658C48.1842 116.514 48.8662 115.612 50.0762 115.612C51.3082 115.612 51.9902 116.514 51.9902 117.658C51.9902 118.868 51.3082 119.77 50.0762 119.77ZM50.0762 123.268C53.8602 123.268 56.0602 120.65 56.0602 117.658C56.0602 114.71 54.1242 112.114 51.0882 112.114C49.7022 112.114 48.7342 112.51 47.8762 113.522C48.1842 112.466 49.0202 111.696 51.4402 111.3C53.1122 111.036 55.6422 110.398 55.6422 108.33H51.2422C51.2422 108.638 50.6702 108.902 49.9882 109.012C46.1382 109.606 44.1142 112.026 44.1142 117.196C44.1142 120.65 46.3142 123.268 50.0762 123.268ZM56.8335 123.268C60.3755 123.268 61.7615 121.244 62.2235 117.988L62.5315 115.81H64.7315V123.004H68.6915V112.378H59.1435L58.3955 117.46C58.1095 119.506 57.5595 120.034 56.8335 120.034V123.268ZM82.2308 123.268C86.0148 123.268 88.2148 120.65 88.2148 117.68C88.2148 114.71 86.0148 112.114 82.2308 112.114C79.3048 112.114 77.3468 113.676 76.5988 115.744H74.8608V112.378H70.9008V123.004H74.8608V119.176H76.4448C77.0608 121.486 79.1068 123.268 82.2308 123.268ZM82.2308 119.77C81.0208 119.77 80.3388 118.868 80.3388 117.68C80.3388 116.514 81.0208 115.612 82.2308 115.612C83.4628 115.612 84.1448 116.514 84.1448 117.68C84.1448 118.868 83.4628 119.77 82.2308 119.77ZM88.9741 125.71H92.9341V123.004H98.0381V125.71H101.998V119.572H100.832V112.378H91.2841L90.5361 117.46C90.2501 119.506 89.7001 119.704 88.9741 119.704V125.71ZM94.6721 115.81H96.8721V119.572H93.5941C94.0341 119.044 94.2981 118.34 94.4301 117.46L94.6721 115.81ZM108.577 123.268C110.161 123.268 112.053 122.85 113.109 121.948L111.481 119.506C110.953 119.968 109.633 120.254 109.039 120.254C107.741 120.254 106.971 119.594 106.751 118.912H113.967V118.098C113.967 114.358 111.569 112.114 108.445 112.114C105.013 112.114 102.659 114.6 102.659 117.68C102.659 121.178 105.255 123.268 108.577 123.268ZM110.205 116.404H106.707C106.839 115.92 107.235 115.128 108.445 115.128C109.721 115.128 110.095 115.942 110.205 116.404ZM119.29 123.004V119.176H122.524V123.004H126.484V112.378H122.524V115.744H119.29V112.378H115.33V123.004H119.29ZM138.792 123.004V116.58C138.792 113.038 136.218 112.114 133.578 112.114C131.972 112.114 129.992 112.576 128.562 113.72L129.904 116.162C130.74 115.524 131.862 115.128 132.852 115.128C134.15 115.128 134.832 115.7 134.832 116.448V117.548C134.26 116.822 133.006 116.382 131.62 116.382C130.036 116.382 127.968 117.13 127.968 119.77C127.968 122.19 130.036 123.268 131.62 123.268C132.94 123.268 134.238 122.74 134.832 121.992V123.004H138.792ZM133.27 120.694C132.61 120.694 131.884 120.496 131.884 119.836C131.884 119.176 132.61 118.956 133.27 118.956C133.886 118.956 134.568 119.154 134.832 119.528V120.122C134.568 120.496 133.886 120.694 133.27 120.694ZM142.985 123.268C144.261 123.268 145.339 122.19 145.339 120.914C145.339 119.638 144.261 118.56 142.985 118.56C141.709 118.56 140.631 119.638 140.631 120.914C140.631 122.19 141.709 123.268 142.985 123.268ZM155.327 123.004V109.958H163.115V108.33H153.501V123.004H155.327ZM162.085 123.268C164.131 123.268 165.275 121.772 165.759 117.812L166.243 113.83H170.533V123.004H172.183V112.378H164.791L164.109 117.614C163.691 120.76 163.075 121.904 162.085 121.904V123.268ZM183.772 123.004V115.7C183.772 113.126 181.902 112.114 179.658 112.114C177.92 112.114 176.556 112.686 175.412 113.874L176.182 115.018C177.128 114.006 178.162 113.544 179.438 113.544C180.978 113.544 182.122 114.358 182.122 115.788V117.702C181.264 116.712 180.054 116.25 178.602 116.25C176.798 116.25 174.884 117.372 174.884 119.748C174.884 122.058 176.798 123.268 178.602 123.268C180.032 123.268 181.242 122.762 182.122 121.794V123.004H183.772ZM179.196 122.08C177.656 122.08 176.578 121.112 176.578 119.77C176.578 118.406 177.656 117.438 179.196 117.438C180.362 117.438 181.484 117.878 182.122 118.758V120.76C181.484 121.64 180.362 122.08 179.196 122.08ZM193.042 123.004C195 123.004 196.144 121.838 196.144 120.122C196.144 118.912 195.286 117.79 194.208 117.526C195.11 117.24 195.924 116.382 195.924 115.106C195.924 113.5 194.802 112.378 192.932 112.378H187.08V123.004H193.042ZM192.712 121.552H188.73V118.274H192.712C193.834 118.274 194.428 119.066 194.428 119.924C194.428 120.936 193.768 121.552 192.712 121.552ZM192.646 116.822H188.73V113.83H192.646C193.658 113.83 194.23 114.424 194.23 115.348C194.23 116.184 193.68 116.822 192.646 116.822ZM200.911 123.004V118.252H206.455V123.004H208.105V112.378H206.455V116.8H200.911V112.378H199.261V123.004H200.911ZM216.042 123.268C219.276 123.268 221.3 120.76 221.3 117.68C221.3 114.6 219.276 112.114 216.042 112.114C212.808 112.114 210.784 114.6 210.784 117.68C210.784 120.76 212.808 123.268 216.042 123.268ZM216.042 121.794C213.776 121.794 212.5 119.858 212.5 117.68C212.5 115.524 213.776 113.588 216.042 113.588C218.308 113.588 219.562 115.524 219.562 117.68C219.562 119.858 218.308 121.794 216.042 121.794ZM228.786 123.268C230.524 123.268 231.954 122.696 233.01 121.64L232.218 120.562C231.382 121.42 230.15 121.904 228.94 121.904C226.652 121.904 225.244 120.232 225.112 118.23H233.714V117.812C233.714 114.622 231.822 112.114 228.61 112.114C225.574 112.114 223.374 114.6 223.374 117.68C223.374 121.002 225.64 123.268 228.786 123.268ZM232.086 117.02H225.112C225.2 115.392 226.322 113.478 228.588 113.478C231.008 113.478 232.064 115.436 232.086 117.02ZM238.458 122.476C238.458 121.42 237.798 120.804 237.072 120.804C236.412 120.804 235.906 121.354 235.906 121.992C235.906 122.652 236.346 123.114 236.962 123.114C237.072 123.114 237.226 123.092 237.27 123.07C237.182 123.796 236.544 124.654 235.84 125.116L236.654 125.798C237.666 125.072 238.458 123.818 238.458 122.476ZM248.628 123.004V118.252H254.172V123.004H255.822V112.378H254.172V116.8H248.628V112.378H246.978V123.004H248.628ZM263.913 123.268C265.651 123.268 267.081 122.696 268.137 121.64L267.345 120.562C266.509 121.42 265.277 121.904 264.067 121.904C261.779 121.904 260.371 120.232 260.239 118.23H268.841V117.812C268.841 114.622 266.949 112.114 263.737 112.114C260.701 112.114 258.501 114.6 258.501 117.68C258.501 121.002 260.767 123.268 263.913 123.268ZM267.213 117.02H260.239C260.327 115.392 261.449 113.478 263.715 113.478C266.135 113.478 267.191 115.436 267.213 117.02ZM281.871 123.268C283.807 123.268 284.951 122.476 285.765 121.42L284.665 120.408C283.961 121.354 283.059 121.794 281.959 121.794C279.693 121.794 278.285 120.034 278.285 117.68C278.285 115.326 279.693 113.588 281.959 113.588C283.059 113.588 283.961 114.006 284.665 114.974L285.765 113.962C284.951 112.906 283.807 112.114 281.871 112.114C278.703 112.114 276.569 114.534 276.569 117.68C276.569 120.848 278.703 123.268 281.871 123.268ZM289.728 123.004V118.252H295.272V123.004H296.922V112.378H295.272V116.8H289.728V112.378H288.078V123.004H289.728ZM301.8 123.004L307.41 114.732V123.004H309.06V112.378H307.432L301.866 120.496V112.378H300.216V123.004H301.8ZM323.201 123.004V112.378H321.001L317.789 120.254L314.533 112.378H312.355V123.004H314.005V114.666L317.481 123.004H318.097L321.551 114.666V123.004H323.201ZM334.786 123.004V115.7C334.786 113.126 332.916 112.114 330.672 112.114C328.934 112.114 327.57 112.686 326.426 113.874L327.196 115.018C328.142 114.006 329.176 113.544 330.452 113.544C331.992 113.544 333.136 114.358 333.136 115.788V117.702C332.278 116.712 331.068 116.25 329.616 116.25C327.812 116.25 325.898 117.372 325.898 119.748C325.898 122.058 327.812 123.268 329.616 123.268C331.046 123.268 332.256 122.762 333.136 121.794V123.004H334.786ZM330.21 122.08C328.67 122.08 327.592 121.112 327.592 119.77C327.592 118.406 328.67 117.438 330.21 117.438C331.376 117.438 332.498 117.878 333.136 118.758V120.76C332.498 121.64 331.376 122.08 330.21 122.08ZM339.677 123.004L345.287 114.732V123.004H346.937V112.378H345.309L339.743 120.496V112.378H338.093V123.004H339.677ZM346.365 109.232L345.551 108.528C344.869 109.518 343.791 110.112 342.515 110.112C341.217 110.112 340.161 109.496 339.457 108.528L338.643 109.232C339.545 110.42 340.953 111.168 342.515 111.168C344.099 111.168 345.485 110.42 346.365 109.232ZM25.412 150.268C28.47 150.268 30.274 148.948 30.274 147.166C30.274 145.406 28.426 144.658 27.194 144.57C28.448 144.416 30.054 143.558 30.054 141.974C30.054 140.17 28.03 139.114 25.17 139.136C23.234 139.136 21.804 139.818 20.814 140.83L21.672 141.842C22.574 140.918 23.74 140.478 25.236 140.478C26.996 140.478 28.338 141.16 28.338 142.172C28.338 143.382 26.952 143.954 25.192 143.954H22.816V145.296H25.192C27.062 145.296 28.536 145.736 28.536 147.056C28.536 148.178 27.304 148.904 25.412 148.904C23.828 148.904 22.42 148.42 21.43 147.474L20.616 148.53C21.672 149.586 23.278 150.268 25.412 150.268ZM41.2448 150.004V142.7C41.2448 140.126 39.3748 139.114 37.1308 139.114C35.3928 139.114 34.0288 139.686 32.8848 140.874L33.6548 142.018C34.6008 141.006 35.6348 140.544 36.9108 140.544C38.4508 140.544 39.5948 141.358 39.5948 142.788V144.702C38.7368 143.712 37.5268 143.25 36.0748 143.25C34.2708 143.25 32.3568 144.372 32.3568 146.748C32.3568 149.058 34.2708 150.268 36.0748 150.268C37.5048 150.268 38.7148 149.762 39.5948 148.794V150.004H41.2448ZM36.6688 149.08C35.1288 149.08 34.0508 148.112 34.0508 146.77C34.0508 145.406 35.1288 144.438 36.6688 144.438C37.8348 144.438 38.9568 144.878 39.5948 145.758V147.76C38.9568 148.64 37.8348 149.08 36.6688 149.08ZM56.8283 139.378V148.552H52.3403V139.378H50.6903V148.552H46.2023V139.378H44.5523V150.004H58.1923V152.71H59.8423V148.552H58.4783V139.378H56.8283ZM63.6891 150.004L69.2991 141.732V150.004H70.9491V139.378H69.3211L63.7551 147.496V139.378H62.1051V150.004H63.6891ZM77.8298 150.004V140.83H80.9318V139.378H73.0998V140.83H76.1798V150.004H77.8298ZM84.7453 150.004V145.252H90.2893V150.004H91.9393V139.378H90.2893V143.8H84.7453V139.378H83.0953V150.004H84.7453ZM94.64 154.162C94.948 154.25 95.498 154.316 95.85 154.316C97.258 154.294 98.336 153.7 98.974 152.16L104.298 139.378H102.494L98.974 148.09L95.432 139.378H93.65L98.094 150.114L97.39 151.72C97.016 152.6 96.532 152.842 95.806 152.842C95.542 152.842 95.146 152.776 94.904 152.666L94.64 154.162ZM114.929 150.268C118.185 150.268 120.209 147.76 120.209 144.68C120.209 141.6 118.185 139.114 114.929 139.114C112.025 139.114 110.089 141.138 109.737 143.8H107.669V139.378H106.019V150.004H107.669V145.252H109.715C109.935 148.068 111.915 150.268 114.929 150.268ZM114.929 148.794C112.685 148.794 111.409 146.858 111.409 144.68C111.409 142.524 112.685 140.588 114.929 140.588C117.217 140.588 118.471 142.524 118.471 144.68C118.471 146.858 117.217 148.794 114.929 148.794ZM131.46 150.268C134.65 150.268 136.784 147.848 136.784 144.68C136.784 141.534 134.65 139.114 131.46 139.114C129.524 139.114 128.38 139.906 127.566 140.962L128.622 141.93C129.326 140.962 130.272 140.478 131.394 140.478C133.396 140.478 134.716 141.842 134.98 143.91H129.656V145.34H135.002C134.782 147.474 133.44 148.904 131.394 148.904C130.272 148.904 129.326 148.398 128.622 147.452L127.566 148.42C128.38 149.476 129.524 150.268 131.46 150.268ZM148.799 150.004L144.069 144.196L148.777 139.378H146.687L141.099 145.032V139.378H139.449V150.004H141.099V146.968L142.859 145.23L146.687 150.004H148.799ZM152.334 150.004L157.944 141.732V150.004H159.594V139.378H157.966L152.4 147.496V139.378H150.75V150.004H152.334ZM171.732 150.004V139.378H162.888V150.004H164.538V140.83H170.082V150.004H171.732ZM176.611 150.004L182.221 141.732V150.004H183.871V139.378H182.243L176.677 147.496V139.378H175.027V150.004H176.611ZM192.402 150.268C195.196 150.268 197.132 148.112 197.132 144.68C197.132 141.226 195.196 139.114 192.402 139.114C190.906 139.114 189.586 139.884 188.816 140.962V139.378H187.166V154.052H188.816V148.398C189.674 149.586 190.95 150.268 192.402 150.268ZM191.984 148.794C190.686 148.794 189.388 148.002 188.816 147.078V142.282C189.388 141.358 190.686 140.588 191.984 140.588C194.118 140.588 195.394 142.326 195.394 144.68C195.394 147.034 194.118 148.794 191.984 148.794ZM204.397 150.268C207.631 150.268 209.655 147.76 209.655 144.68C209.655 141.6 207.631 139.114 204.397 139.114C201.163 139.114 199.139 141.6 199.139 144.68C199.139 147.76 201.163 150.268 204.397 150.268ZM204.397 148.794C202.131 148.794 200.855 146.858 200.855 144.68C200.855 142.524 202.131 140.588 204.397 140.588C206.663 140.588 207.917 142.524 207.917 144.68C207.917 146.858 206.663 148.794 204.397 148.794ZM218.307 150.004C220.265 150.004 221.409 148.838 221.409 147.122C221.409 145.912 220.551 144.79 219.473 144.526C220.375 144.24 221.189 143.382 221.189 142.106C221.189 140.5 220.067 139.378 218.197 139.378H212.345V150.004H218.307ZM217.977 148.552H213.995V145.274H217.977C219.099 145.274 219.693 146.066 219.693 146.924C219.693 147.936 219.033 148.552 217.977 148.552ZM217.911 143.822H213.995V140.83H217.911C218.923 140.83 219.495 141.424 219.495 142.348C219.495 143.184 218.945 143.822 217.911 143.822ZM233.877 150.004L229.147 144.196L233.855 139.378H231.765L226.177 145.032V139.378H224.527V150.004H226.177V146.968L227.937 145.23L231.765 150.004H233.877ZM235.234 154.162C235.542 154.25 236.092 154.316 236.444 154.316C237.852 154.294 238.93 153.7 239.568 152.16L244.892 139.378H243.088L239.568 148.09L236.026 139.378H234.244L238.688 150.114L237.984 151.72C237.61 152.6 237.126 152.842 236.4 152.842C236.136 152.842 235.74 152.776 235.498 152.666L235.234 154.162ZM251.031 152.71H252.681V150.004H260.711V152.71H262.361V148.552H261.129V139.378H253.737L253.055 144.614C252.637 147.76 252.021 148.464 251.031 148.64V152.71ZM255.189 140.83H259.479V148.552H253.165C253.935 147.936 254.441 146.814 254.705 144.812L255.189 140.83ZM269.259 150.268C272.493 150.268 274.517 147.76 274.517 144.68C274.517 141.6 272.493 139.114 269.259 139.114C266.025 139.114 264.001 141.6 264.001 144.68C264.001 147.76 266.025 150.268 269.259 150.268ZM269.259 148.794C266.993 148.794 265.717 146.858 265.717 144.68C265.717 142.524 266.993 140.588 269.259 140.588C271.525 140.588 272.779 142.524 272.779 144.68C272.779 146.858 271.525 148.794 269.259 148.794ZM292.229 150.004L287.499 144.196L292.207 139.378H290.117L284.529 145.032V139.378H282.879V150.004H284.529V146.968L286.289 145.23L290.117 150.004H292.229ZM298.757 150.268C301.991 150.268 304.015 147.76 304.015 144.68C304.015 141.6 301.991 139.114 298.757 139.114C295.523 139.114 293.499 141.6 293.499 144.68C293.499 147.76 295.523 150.268 298.757 150.268ZM298.757 148.794C296.491 148.794 295.215 146.858 295.215 144.68C295.215 142.524 296.491 140.588 298.757 140.588C301.023 140.588 302.277 142.524 302.277 144.68C302.277 146.858 301.023 148.794 298.757 148.794ZM308.355 150.004V145.252H313.899V150.004H315.549V139.378H313.899V143.8H308.355V139.378H306.705V150.004H308.355ZM327.269 152.71H328.919V148.552H327.687V139.378H326.037V148.552H320.493V139.378H318.843V150.004H327.269V152.71ZM339.469 150.004V142.7C339.469 140.126 337.599 139.114 335.355 139.114C333.617 139.114 332.253 139.686 331.109 140.874L331.879 142.018C332.825 141.006 333.859 140.544 335.135 140.544C336.675 140.544 337.819 141.358 337.819 142.788V144.702C336.961 143.712 335.751 143.25 334.299 143.25C332.495 143.25 330.581 144.372 330.581 146.748C330.581 149.058 332.495 150.268 334.299 150.268C335.729 150.268 336.939 149.762 337.819 148.794V150.004H339.469ZM334.893 149.08C333.353 149.08 332.275 148.112 332.275 146.77C332.275 145.406 333.353 144.438 334.893 144.438C336.059 144.438 337.181 144.878 337.819 145.758V147.76C337.181 148.64 336.059 149.08 334.893 149.08ZM30.494 177.004V166.378H21.65V177.004H23.3V167.83H28.844V177.004H30.494ZM33.1947 181.162C33.5027 181.25 34.0527 181.316 34.4047 181.316C35.8127 181.294 36.8907 180.7 37.5287 179.16L42.8527 166.378H41.0487L37.5287 175.09L33.9867 166.378H32.2047L36.6487 177.114L35.9447 178.72C35.5707 179.6 35.0867 179.842 34.3607 179.842C34.0967 179.842 33.7007 179.776 33.4587 179.666L33.1947 181.162ZM48.1598 177.004V167.83H51.2618V166.378H43.4298V167.83H46.5098V177.004H48.1598ZM58.2214 177.268C59.9594 177.268 61.3894 176.696 62.4454 175.64L61.6534 174.562C60.8174 175.42 59.5854 175.904 58.3754 175.904C56.0874 175.904 54.6794 174.232 54.5474 172.23H63.1494V171.812C63.1494 168.622 61.2574 166.114 58.0454 166.114C55.0094 166.114 52.8094 168.6 52.8094 171.68C52.8094 175.002 55.0754 177.268 58.2214 177.268ZM61.5214 171.02H54.5474C54.6354 169.392 55.7574 167.478 58.0234 167.478C60.4434 167.478 61.4994 169.436 61.5214 171.02ZM78.0979 166.378V175.552H73.6099V166.378H71.9599V175.552H67.4719V166.378H65.8219V177.004H79.7479V166.378H78.0979ZM87.8483 177.268C89.5863 177.268 91.0163 176.696 92.0723 175.64L91.2803 174.562C90.4443 175.42 89.2123 175.904 88.0023 175.904C85.7143 175.904 84.3063 174.232 84.1743 172.23H92.7763V171.812C92.7763 168.622 90.8843 166.114 87.6723 166.114C84.6363 166.114 82.4363 168.6 82.4363 171.68C82.4363 175.002 84.7023 177.268 87.8483 177.268ZM91.1483 171.02H84.1743C84.2623 169.392 85.3843 167.478 87.6503 167.478C90.0703 167.478 91.1263 169.436 91.1483 171.02ZM100.135 177.268C102.071 177.268 103.215 176.476 104.029 175.42L102.929 174.408C102.225 175.354 101.323 175.794 100.223 175.794C97.9568 175.794 96.5488 174.034 96.5488 171.68C96.5488 169.326 97.9568 167.588 100.223 167.588C101.323 167.588 102.225 168.006 102.929 168.974L104.029 167.962C103.215 166.906 102.071 166.114 100.135 166.114C96.9668 166.114 94.8328 168.534 94.8328 171.68C94.8328 174.848 96.9668 177.268 100.135 177.268ZM109.927 177.004V167.83H113.029V166.378H105.197V167.83H108.277V177.004H109.927ZM121.155 177.004C123.113 177.004 124.257 175.838 124.257 174.122C124.257 172.912 123.399 171.79 122.321 171.526C123.223 171.24 124.037 170.382 124.037 169.106C124.037 167.5 122.915 166.378 121.045 166.378H115.193V177.004H121.155ZM120.825 175.552H116.843V172.274H120.825C121.947 172.274 122.541 173.066 122.541 173.924C122.541 174.936 121.881 175.552 120.825 175.552ZM120.759 170.822H116.843V167.83H120.759C121.771 167.83 122.343 168.424 122.343 169.348C122.343 170.184 121.793 170.822 120.759 170.822ZM128.959 177.004L134.569 168.732V177.004H136.219V166.378H134.591L129.025 174.496V166.378H127.375V177.004H128.959ZM141.097 177.004L143.693 172.89H146.597V177.004H148.247V166.378H142.637C140.481 166.378 139.271 167.83 139.271 169.634C139.271 171.416 140.415 172.626 141.999 172.824L139.161 177.004H141.097ZM142.813 171.438C141.603 171.438 140.965 170.69 140.965 169.634C140.965 168.578 141.647 167.83 142.813 167.83H146.597V171.438H142.813ZM152.425 177.224C153.085 177.224 153.635 176.674 153.635 176.014C153.635 175.354 153.085 174.804 152.425 174.804C151.765 174.804 151.215 175.354 151.215 176.014C151.215 176.674 151.765 177.224 152.425 177.224Z" fill="black"/>
</svg>
