<svg width="101" height="151" viewBox="0 0 101 151" fill="none" xmlns="http://www.w3.org/2000/svg">
<path d="M42.5273 11.9262L42.5273 149.966L0.601572 150.001L0.527537 61.9244C1.9308 61.8106 3.42136 61.0271 4.86533 59.6694C6.43459 58.194 7.97933 56.0136 9.34097 53.1722C12.065 47.4877 14.0765 39.1161 14.0674 28.3134L14.049 6.48457L26.2683 1.09931L26.2683 2.56256C26.2683 2.6169 26.281 2.67048 26.3053 2.71908L32.8051 15.7191C32.8879 15.8847 33.0853 15.9572 33.2556 15.8845L42.5273 11.9262Z" fill="#FFCA00" stroke="black" stroke-width="0.7" stroke-linejoin="round"/>
<path d="M0.475852 77.8265L42.288 77.7913L42.3058 99.0353L0.493709 99.0705L0.475852 77.8265Z" fill="#C2D5FC" stroke="black" stroke-width="0.813324" stroke-linejoin="round"/>
<path d="M0.506125 116.249L42.3182 116.214L42.3361 137.458L0.523982 137.493L0.506125 116.249Z" fill="#C2D5FC" stroke="black" stroke-width="0.813324" stroke-linejoin="round"/>
<path d="M57.9675 11.1286L57.8137 149.963L99.7391 149.998L99.8131 61.921C98.4098 61.8072 96.9193 61.0236 95.4753 59.666C93.9061 58.1906 92.3613 56.0102 90.9997 53.1688C88.2756 47.4843 86.2642 39.1127 86.2733 28.31L86.2916 6.46639L75.1039 0.706348L75.4614 2.49397C75.4763 2.56854 75.4666 2.64594 75.4336 2.71446L68.9335 16.2145C68.8929 16.2989 68.82 16.3635 68.7313 16.3938C68.6426 16.4241 68.5455 16.4176 68.4616 16.3757L57.9675 11.1286Z" fill="#FFCA00" stroke="black" stroke-width="0.7" stroke-linejoin="round"/>
<path d="M99.8645 77.8231L58.0524 77.7879L58.0345 99.0319L99.8466 99.067L99.8645 77.8231Z" fill="#C2D5FC" stroke="black" stroke-width="0.813324" stroke-linejoin="round"/>
<path d="M99.8342 116.246L58.0221 116.211L58.0042 137.454L99.8164 137.49L99.8342 116.246Z" fill="#C2D5FC" stroke="black" stroke-width="0.813324" stroke-linejoin="round"/>
</svg>
