<svg width="248" height="283" viewBox="0 0 248 283" fill="none" xmlns="http://www.w3.org/2000/svg">
<path d="M106.101 60.5703L120.599 36.3712L153.055 44.533L174.897 57.9264L74.3791 225.704L1.93418 181.283L60.4899 83.5454C65.407 86.3416 73.1485 86.5285 81.3914 83.186C89.8596 79.7521 98.9065 72.5792 106.101 60.5703Z" fill="#FFCA00" stroke="black" stroke-width="0.853665"/>
<path d="M202.61 119.236C195.416 131.244 193.264 142.644 194.146 151.813C195.006 160.744 198.756 167.602 203.579 170.774L145.024 268.511L72.5787 224.089L173.097 56.3112L194.939 69.7046L217.108 95.0371L202.61 119.236Z" fill="#FDB813" stroke="black" stroke-width="0.853665"/>
<path d="M196.095 69.7594L138.565 116.651L153.225 43.4663L174.559 56.5507L196.095 69.7594Z" fill="#B0800D" stroke="black" stroke-width="0.853665"/>
<path d="M166.685 57.5066L169.505 52.8034L180.683 59.6499L177.862 64.353L166.685 57.5066Z" fill="#CCDCFF" stroke="black" stroke-width="0.853665"/>
<path d="M36.3204 125.162L50.2179 101.998L121 145.338L107.102 168.502L36.3204 125.162Z" fill="#C2D5FC" stroke="black" stroke-width="0.853665"/>
<path d="M107.164 168.091L121.062 144.927L191.843 188.267L177.946 211.431L107.164 168.091Z" fill="#CCDCFF" stroke="black" stroke-width="0.853665"/>
<path d="M81.0451 211.201L94.9425 188.037L165.724 231.377L151.827 254.541L81.0451 211.201Z" fill="#CCDCFF" stroke="black" stroke-width="0.853665"/>
<path d="M10.1994 168.274L24.0968 145.11L94.8785 188.449L80.9811 211.613L10.1994 168.274Z" fill="#C2D5FC" stroke="black" stroke-width="0.853665"/>
</svg>
