<svg width="81" height="143" viewBox="0 0 81 143" fill="none" xmlns="http://www.w3.org/2000/svg">
<path d="M79.8815 85.7161H27V389.453H79.8815V85.7161Z" fill="#003D64" stroke="black" stroke-width="0.466867" stroke-miterlimit="10"/>
<path d="M53.4587 95.4317C68.0714 95.4317 79.9174 91.0818 79.9174 85.7159C79.9174 80.3499 68.0714 76 53.4587 76C38.846 76 27 80.3499 27 85.7159C27 91.0818 38.846 95.4317 53.4587 95.4317Z" fill="#A9D5F3" stroke="black" stroke-width="0.933733" stroke-miterlimit="10"/>
<path d="M53.4597 90.6987C62.4293 90.6987 69.7006 88.0342 69.7006 84.7473C69.7006 81.4604 62.4293 78.7959 53.4597 78.7959C44.49 78.7959 37.2188 81.4604 37.2188 84.7473C37.2188 88.0342 44.49 90.6987 53.4597 90.6987Z" fill="black"/>
<path d="M41.8815 10.7161H-11V314.453H41.8815V10.7161Z" fill="#003D64" stroke="black" stroke-width="0.466867" stroke-miterlimit="10"/>
<path d="M15.4587 20.4317C30.0714 20.4317 41.9174 16.0818 41.9174 10.7159C41.9174 5.34993 30.0714 1 15.4587 1C0.845959 1 -11 5.34993 -11 10.7159C-11 16.0818 0.845959 20.4317 15.4587 20.4317Z" fill="#A9D5F3" stroke="black" stroke-width="0.933733" stroke-miterlimit="10"/>
<path d="M15.4597 15.6987C24.4293 15.6987 31.7006 13.0342 31.7006 9.74732C31.7006 6.46045 24.4293 3.7959 15.4597 3.7959C6.49005 3.7959 -0.78125 6.46045 -0.78125 9.74732C-0.78125 13.0342 6.49005 15.6987 15.4597 15.6987Z" fill="black"/>
</svg>
