<svg width="63" height="218" viewBox="0 0 63 218" fill="none" xmlns="http://www.w3.org/2000/svg">
<path d="M52.2772 258.819L78.2483 232.848V166.943H26.9711L1 192.914V258.819H52.2772Z" fill="#1D1D1B"/>
<path d="M52.2772 192.914L78.2483 166.943H26.9711L1 192.914H52.2772Z" fill="#2E6EED"/>
<path d="M52.2772 193.205L78.2483 167.234V101.33H26.9711L1 127.26V193.205H52.2772Z" fill="#1D1D1B"/>
<path d="M1 127.26V182.983V193.205V258.819H52.2772V193.205V182.983V127.26H1Z" fill="#A9D5F3" stroke="black" stroke-width="0.933733" stroke-miterlimit="10"/>
<path d="M52.2772 127.26L78.2483 101.33H26.9711L1 127.26H52.2772Z" fill="#003D64" stroke="black" stroke-width="0.466867" stroke-miterlimit="10"/>
<path d="M78.2483 101.33H26.9711L1 127.26H52.2772L78.2483 101.33Z" stroke="#1D1D1B" stroke-width="0.759499" stroke-miterlimit="10" stroke-linecap="round"/>
<path d="M1 127.26V258.819H52.2772" stroke="#1D1D1B" stroke-width="0.933733" stroke-miterlimit="10"/>
<path d="M45.8255 111.682C45.8255 111.501 45.8255 111.381 45.7652 111.2H45.8255L44.6808 6.37646L21.0654 6.61744L22.21 111.441H22.2703C22.2703 111.622 22.21 111.742 22.21 111.923C22.2703 114.995 27.5717 117.405 34.078 117.284C40.5843 117.224 45.8857 114.754 45.8255 111.682Z" fill="#95C11F" stroke="black" stroke-width="0.933733" stroke-miterlimit="10"/>
<path d="M32.926 12.099C39.4465 12.0288 44.7057 9.49067 44.6727 6.43C44.6398 3.36933 39.3271 0.945118 32.8065 1.01537C26.286 1.08563 21.0267 3.62374 21.0597 6.68441C21.0927 9.74508 26.4054 12.1693 32.926 12.099Z" fill="#A9D5F3" stroke="black" stroke-width="0.933733" stroke-miterlimit="10"/>
<path d="M45.2892 60.2937C45.3495 63.3661 40.048 65.8361 33.5418 65.9566C27.0355 66.0168 21.6738 63.6071 21.6738 60.5949" stroke="black" stroke-width="0.70721" stroke-miterlimit="10"/>
<path d="M45.2209 56.3174C45.2811 59.3898 39.9797 61.8598 33.4734 61.9803C26.9671 62.0405 21.6055 59.6308 21.6055 56.6186" stroke="black" stroke-width="0.70721" stroke-miterlimit="10"/>
<path d="M45.7677 103.729C45.828 106.802 40.5266 109.272 34.0203 109.392C27.514 109.452 22.1523 107.043 22.1523 104.03" stroke="black" stroke-width="0.70721" stroke-miterlimit="10"/>
<path d="M45.7082 99.6929C45.7684 102.765 40.467 105.235 33.9607 105.356C27.4544 105.416 22.0928 103.006 22.0928 99.9941" stroke="black" stroke-width="0.70721" stroke-miterlimit="10"/>
<path d="M32.9027 9.92821C36.8949 9.88519 40.1149 8.34004 40.0949 6.47702C40.0748 4.61401 36.8222 3.13861 32.83 3.18163C28.8379 3.22465 25.6178 4.76979 25.6379 6.63281C25.658 8.49583 28.9106 9.97123 32.9027 9.92821Z" fill="#003D64" stroke="black" stroke-width="0.70721" stroke-miterlimit="10"/>
</svg>
