<svg width="62" height="47" viewBox="0 0 62 47" fill="none" xmlns="http://www.w3.org/2000/svg">
<path d="M1.00411 26.5665C0.824855 33.7369 6.52531 39.6883 13.6957 39.8676C16.528 39.9393 19.1452 39.0788 21.3321 37.6089C23.053 42.6282 27.7138 46.2851 33.3425 46.4285C39.8676 46.5719 45.3888 41.9111 46.4285 35.6371C46.9662 35.7088 47.504 35.7804 48.0418 35.7804C55.2122 35.9597 61.1636 30.2593 61.3428 23.0889C61.5221 15.9185 55.8217 9.96709 48.6513 9.78783C46.5719 9.75198 44.6 10.1822 42.8791 11.0068C41.5526 5.41391 36.5692 1.21923 30.5461 1.07582C27.7855 1.00412 25.1683 1.8287 23.0172 3.26278C21.0095 1.90041 18.6074 1.07582 16.0261 1.00411C8.85568 0.824855 2.90427 6.52531 2.72501 13.6957C2.68915 15.56 3.04767 17.3526 3.69301 18.9659C2.07967 21.0453 1.07582 23.6984 1.00411 26.5665Z" fill="white" stroke="#1D1D1B" stroke-width="0.933733" stroke-miterlimit="10"/>
</svg>
